<?xml version="1.0" encoding="utf-8" ?>
<NEKTAR>
    <POINTS DIM="2" FIELDS="" >
    0 0
    0.0130708 0
    0.0435178 0
    0.0905289 0
    0.152999 0
    0.229462 0
    0.318126 0
    0.416913 0
    0.523508 0
    0.635411 0
    0.75 0
    0.864589 0
    0.976492 0
    1.08309 0
    1.18187 0
    1.27054 0
    1.347 0
    1.40947 0
    1.45648 0
    1.48693 0
    1.5 0
    0 0.0130708
    0.0130708 0.0130708
    0.0435178 0.0130708
    0.0905289 0.0130708
    0.152999 0.0130708
    0.229462 0.0130708
    0.318126 0.0130708
    0.416913 0.0130708
    0.523508 0.0130708
    0.635411 0.0130708
    0.75 0.0130708
    0.864589 0.0130708
    0.976492 0.0130708
    1.08309 0.0130708
    1.18187 0.0130708
    1.27054 0.0130708
    1.347 0.0130708
    1.40947 0.0130708
    1.45648 0.0130708
    1.48693 0.0130708
    1.5 0.0130708
    0 0.0435178
    0.0130708 0.0435178
    0.0435178 0.0435178
    0.0905289 0.0435178
    0.152999 0.0435178
    0.229462 0.0435178
    0.318126 0.0435178
    0.416913 0.0435178
    0.523508 0.0435178
    0.635411 0.0435178
    0.75 0.0435178
    0.864589 0.0435178
    0.976492 0.0435178
    1.08309 0.0435178
    1.18187 0.0435178
    1.27054 0.0435178
    1.347 0.0435178
    1.40947 0.0435178
    1.45648 0.0435178
    1.48693 0.0435178
    1.5 0.0435178
    0 0.0905289
    0.0130708 0.0905289
    0.0435178 0.0905289
    0.0905289 0.0905289
    0.152999 0.0905289
    0.229462 0.0905289
    0.318126 0.0905289
    0.416913 0.0905289
    0.523508 0.0905289
    0.635411 0.0905289
    0.75 0.0905289
    0.864589 0.0905289
    0.976492 0.0905289
    1.08309 0.0905289
    1.18187 0.0905289
    1.27054 0.0905289
    1.347 0.0905289
    1.40947 0.0905289
    1.45648 0.0905289
    1.48693 0.0905289
    1.5 0.0905289
    0 0.152999
    0.0130708 0.152999
    0.0435178 0.152999
    0.0905289 0.152999
    0.152999 0.152999
    0.229462 0.152999
    0.318126 0.152999
    0.416913 0.152999
    0.523508 0.152999
    0.635411 0.152999
    0.75 0.152999
    0.864589 0.152999
    0.976492 0.152999
    1.08309 0.152999
    1.18187 0.152999
    1.27054 0.152999
    1.347 0.152999
    1.40947 0.152999
    1.45648 0.152999
    1.48693 0.152999
    1.5 0.152999
    0 0.229462
    0.0130708 0.229462
    0.0435178 0.229462
    0.0905289 0.229462
    0.152999 0.229462
    0.229462 0.229462
    0.318126 0.229462
    0.416913 0.229462
    0.523508 0.229462
    0.635411 0.229462
    0.75 0.229462
    0.864589 0.229462
    0.976492 0.229462
    1.08309 0.229462
    1.18187 0.229462
    1.27054 0.229462
    1.347 0.229462
    1.40947 0.229462
    1.45648 0.229462
    1.48693 0.229462
    1.5 0.229462
    0 0.318126
    0.0130708 0.318126
    0.0435178 0.318126
    0.0905289 0.318126
    0.152999 0.318126
    0.229462 0.318126
    0.318126 0.318126
    0.416913 0.318126
    0.523508 0.318126
    0.635411 0.318126
    0.75 0.318126
    0.864589 0.318126
    0.976492 0.318126
    1.08309 0.318126
    1.18187 0.318126
    1.27054 0.318126
    1.347 0.318126
    1.40947 0.318126
    1.45648 0.318126
    1.48693 0.318126
    1.5 0.318126
    0 0.416913
    0.0130708 0.416913
    0.0435178 0.416913
    0.0905289 0.416913
    0.152999 0.416913
    0.229462 0.416913
    0.318126 0.416913
    0.416913 0.416913
    0.523508 0.416913
    0.635411 0.416913
    0.75 0.416913
    0.864589 0.416913
    0.976492 0.416913
    1.08309 0.416913
    1.18187 0.416913
    1.27054 0.416913
    1.347 0.416913
    1.40947 0.416913
    1.45648 0.416913
    1.48693 0.416913
    1.5 0.416913
    0 0.523508
    0.0130708 0.523508
    0.0435178 0.523508
    0.0905289 0.523508
    0.152999 0.523508
    0.229462 0.523508
    0.318126 0.523508
    0.416913 0.523508
    0.523508 0.523508
    0.635411 0.523508
    0.75 0.523508
    0.864589 0.523508
    0.976492 0.523508
    1.08309 0.523508
    1.18187 0.523508
    1.27054 0.523508
    1.347 0.523508
    1.40947 0.523508
    1.45648 0.523508
    1.48693 0.523508
    1.5 0.523508
    0 0.635411
    0.0130708 0.635411
    0.0435178 0.635411
    0.0905289 0.635411
    0.152999 0.635411
    0.229462 0.635411
    0.318126 0.635411
    0.416913 0.635411
    0.523508 0.635411
    0.635411 0.635411
    0.75 0.635411
    0.864589 0.635411
    0.976492 0.635411
    1.08309 0.635411
    1.18187 0.635411
    1.27054 0.635411
    1.347 0.635411
    1.40947 0.635411
    1.45648 0.635411
    1.48693 0.635411
    1.5 0.635411
    0 0.75
    0.0130708 0.75
    0.0435178 0.75
    0.0905289 0.75
    0.152999 0.75
    0.229462 0.75
    0.318126 0.75
    0.416913 0.75
    0.523508 0.75
    0.635411 0.75
    0.75 0.75
    0.864589 0.75
    0.976492 0.75
    1.08309 0.75
    1.18187 0.75
    1.27054 0.75
    1.347 0.75
    1.40947 0.75
    1.45648 0.75
    1.48693 0.75
    1.5 0.75
    0 0.864589
    0.0130708 0.864589
    0.0435178 0.864589
    0.0905289 0.864589
    0.152999 0.864589
    0.229462 0.864589
    0.318126 0.864589
    0.416913 0.864589
    0.523508 0.864589
    0.635411 0.864589
    0.75 0.864589
    0.864589 0.864589
    0.976492 0.864589
    1.08309 0.864589
    1.18187 0.864589
    1.27054 0.864589
    1.347 0.864589
    1.40947 0.864589
    1.45648 0.864589
    1.48693 0.864589
    1.5 0.864589
    0 0.976492
    0.0130708 0.976492
    0.0435178 0.976492
    0.0905289 0.976492
    0.152999 0.976492
    0.229462 0.976492
    0.318126 0.976492
    0.416913 0.976492
    0.523508 0.976492
    0.635411 0.976492
    0.75 0.976492
    0.864589 0.976492
    0.976492 0.976492
    1.08309 0.976492
    1.18187 0.976492
    1.27054 0.976492
    1.347 0.976492
    1.40947 0.976492
    1.45648 0.976492
    1.48693 0.976492
    1.5 0.976492
    0 1.08309
    0.0130708 1.08309
    0.0435178 1.08309
    0.0905289 1.08309
    0.152999 1.08309
    0.229462 1.08309
    0.318126 1.08309
    0.416913 1.08309
    0.523508 1.08309
    0.635411 1.08309
    0.75 1.08309
    0.864589 1.08309
    0.976492 1.08309
    1.08309 1.08309
    1.18187 1.08309
    1.27054 1.08309
    1.347 1.08309
    1.40947 1.08309
    1.45648 1.08309
    1.48693 1.08309
    1.5 1.08309
    0 1.18187
    0.0130708 1.18187
    0.0435178 1.18187
    0.0905289 1.18187
    0.152999 1.18187
    0.229462 1.18187
    0.318126 1.18187
    0.416913 1.18187
    0.523508 1.18187
    0.635411 1.18187
    0.75 1.18187
    0.864589 1.18187
    0.976492 1.18187
    1.08309 1.18187
    1.18187 1.18187
    1.27054 1.18187
    1.347 1.18187
    1.40947 1.18187
    1.45648 1.18187
    1.48693 1.18187
    1.5 1.18187
    0 1.27054
    0.0130708 1.27054
    0.0435178 1.27054
    0.0905289 1.27054
    0.152999 1.27054
    0.229462 1.27054
    0.318126 1.27054
    0.416913 1.27054
    0.523508 1.27054
    0.635411 1.27054
    0.75 1.27054
    0.864589 1.27054
    0.976492 1.27054
    1.08309 1.27054
    1.18187 1.27054
    1.27054 1.27054
    1.347 1.27054
    1.40947 1.27054
    1.45648 1.27054
    1.48693 1.27054
    1.5 1.27054
    0 1.347
    0.0130708 1.347
    0.0435178 1.347
    0.0905289 1.347
    0.152999 1.347
    0.229462 1.347
    0.318126 1.347
    0.416913 1.347
    0.523508 1.347
    0.635411 1.347
    0.75 1.347
    0.864589 1.347
    0.976492 1.347
    1.08309 1.347
    1.18187 1.347
    1.27054 1.347
    1.347 1.347
    1.40947 1.347
    1.45648 1.347
    1.48693 1.347
    1.5 1.347
    0 1.40947
    0.0130708 1.40947
    0.0435178 1.40947
    0.0905289 1.40947
    0.152999 1.40947
    0.229462 1.40947
    0.318126 1.40947
    0.416913 1.40947
    0.523508 1.40947
    0.635411 1.40947
    0.75 1.40947
    0.864589 1.40947
    0.976492 1.40947
    1.08309 1.40947
    1.18187 1.40947
    1.27054 1.40947
    1.347 1.40947
    1.40947 1.40947
    1.45648 1.40947
    1.48693 1.40947
    1.5 1.40947
    0 1.45648
    0.0130708 1.45648
    0.0435178 1.45648
    0.0905289 1.45648
    0.152999 1.45648
    0.229462 1.45648
    0.318126 1.45648
    0.416913 1.45648
    0.523508 1.45648
    0.635411 1.45648
    0.75 1.45648
    0.864589 1.45648
    0.976492 1.45648
    1.08309 1.45648
    1.18187 1.45648
    1.27054 1.45648
    1.347 1.45648
    1.40947 1.45648
    1.45648 1.45648
    1.48693 1.45648
    1.5 1.45648
    0 1.48693
    0.0130708 1.48693
    0.0435178 1.48693
    0.0905289 1.48693
    0.152999 1.48693
    0.229462 1.48693
    0.318126 1.48693
    0.416913 1.48693
    0.523508 1.48693
    0.635411 1.48693
    0.75 1.48693
    0.864589 1.48693
    0.976492 1.48693
    1.08309 1.48693
    1.18187 1.48693
    1.27054 1.48693
    1.347 1.48693
    1.40947 1.48693
    1.45648 1.48693
    1.48693 1.48693
    1.5 1.48693
    0 1.5
    0.0130708 1.5
    0.0435178 1.5
    0.0905289 1.5
    0.152999 1.5
    0.229462 1.5
    0.318126 1.5
    0.416913 1.5
    0.523508 1.5
    0.635411 1.5
    0.75 1.5
    0.864589 1.5
    0.976492 1.5
    1.08309 1.5
    1.18187 1.5
    1.27054 1.5
    1.347 1.5
    1.40947 1.5
    1.45648 1.5
    1.48693 1.5
    1.5 1.5
    1.5 0
    1.52876 0
    1.59574 0
    1.69916 0
    1.8366 0
    2.00482 0
    2.19988 0
    2.41721 0
    2.65172 0
    2.8979 0
    3.15 0
    3.4021 0
    3.64828 0
    3.88279 0
    4.10012 0
    4.29518 0
    4.4634 0
    4.60084 0
    4.70426 0
    4.77124 0
    4.8 0
    1.5 0.0130708
    1.52876 0.0130708
    1.59574 0.0130708
    1.69916 0.0130708
    1.8366 0.0130708
    2.00482 0.0130708
    2.19988 0.0130708
    2.41721 0.0130708
    2.65172 0.0130708
    2.8979 0.0130708
    3.15 0.0130708
    3.4021 0.0130708
    3.64828 0.0130708
    3.88279 0.0130708
    4.10012 0.0130708
    4.29518 0.0130708
    4.4634 0.0130708
    4.60084 0.0130708
    4.70426 0.0130708
    4.77124 0.0130708
    4.8 0.0130708
    1.5 0.0435178
    1.52876 0.0435178
    1.59574 0.0435178
    1.69916 0.0435178
    1.8366 0.0435178
    2.00482 0.0435178
    2.19988 0.0435178
    2.41721 0.0435178
    2.65172 0.0435178
    2.8979 0.0435178
    3.15 0.0435178
    3.4021 0.0435178
    3.64828 0.0435178
    3.88279 0.0435178
    4.10012 0.0435178
    4.29518 0.0435178
    4.4634 0.0435178
    4.60084 0.0435178
    4.70426 0.0435178
    4.77124 0.0435178
    4.8 0.0435178
    1.5 0.0905289
    1.52876 0.0905289
    1.59574 0.0905289
    1.69916 0.0905289
    1.8366 0.0905289
    2.00482 0.0905289
    2.19988 0.0905289
    2.41721 0.0905289
    2.65172 0.0905289
    2.8979 0.0905289
    3.15 0.0905289
    3.4021 0.0905289
    3.64828 0.0905289
    3.88279 0.0905289
    4.10012 0.0905289
    4.29518 0.0905289
    4.4634 0.0905289
    4.60084 0.0905289
    4.70426 0.0905289
    4.77124 0.0905289
    4.8 0.0905289
    1.5 0.152999
    1.52876 0.152999
    1.59574 0.152999
    1.69916 0.152999
    1.8366 0.152999
    2.00482 0.152999
    2.19988 0.152999
    2.41721 0.152999
    2.65172 0.152999
    2.8979 0.152999
    3.15 0.152999
    3.4021 0.152999
    3.64828 0.152999
    3.88279 0.152999
    4.10012 0.152999
    4.29518 0.152999
    4.4634 0.152999
    4.60084 0.152999
    4.70426 0.152999
    4.77124 0.152999
    4.8 0.152999
    1.5 0.229462
    1.52876 0.229462
    1.59574 0.229462
    1.69916 0.229462
    1.8366 0.229462
    2.00482 0.229462
    2.19988 0.229462
    2.41721 0.229462
    2.65172 0.229462
    2.8979 0.229462
    3.15 0.229462
    3.4021 0.229462
    3.64828 0.229462
    3.88279 0.229462
    4.10012 0.229462
    4.29518 0.229462
    4.4634 0.229462
    4.60084 0.229462
    4.70426 0.229462
    4.77124 0.229462
    4.8 0.229462
    1.5 0.318126
    1.52876 0.318126
    1.59574 0.318126
    1.69916 0.318126
    1.8366 0.318126
    2.00482 0.318126
    2.19988 0.318126
    2.41721 0.318126
    2.65172 0.318126
    2.8979 0.318126
    3.15 0.318126
    3.4021 0.318126
    3.64828 0.318126
    3.88279 0.318126
    4.10012 0.318126
    4.29518 0.318126
    4.4634 0.318126
    4.60084 0.318126
    4.70426 0.318126
    4.77124 0.318126
    4.8 0.318126
    1.5 0.416913
    1.52876 0.416913
    1.59574 0.416913
    1.69916 0.416913
    1.8366 0.416913
    2.00482 0.416913
    2.19988 0.416913
    2.41721 0.416913
    2.65172 0.416913
    2.8979 0.416913
    3.15 0.416913
    3.4021 0.416913
    3.64828 0.416913
    3.88279 0.416913
    4.10012 0.416913
    4.29518 0.416913
    4.4634 0.416913
    4.60084 0.416913
    4.70426 0.416913
    4.77124 0.416913
    4.8 0.416913
    1.5 0.523508
    1.52876 0.523508
    1.59574 0.523508
    1.69916 0.523508
    1.8366 0.523508
    2.00482 0.523508
    2.19988 0.523508
    2.41721 0.523508
    2.65172 0.523508
    2.8979 0.523508
    3.15 0.523508
    3.4021 0.523508
    3.64828 0.523508
    3.88279 0.523508
    4.10012 0.523508
    4.29518 0.523508
    4.4634 0.523508
    4.60084 0.523508
    4.70426 0.523508
    4.77124 0.523508
    4.8 0.523508
    1.5 0.635411
    1.52876 0.635411
    1.59574 0.635411
    1.69916 0.635411
    1.8366 0.635411
    2.00482 0.635411
    2.19988 0.635411
    2.41721 0.635411
    2.65172 0.635411
    2.8979 0.635411
    3.15 0.635411
    3.4021 0.635411
    3.64828 0.635411
    3.88279 0.635411
    4.10012 0.635411
    4.29518 0.635411
    4.4634 0.635411
    4.60084 0.635411
    4.70426 0.635411
    4.77124 0.635411
    4.8 0.635411
    1.5 0.75
    1.52876 0.75
    1.59574 0.75
    1.69916 0.75
    1.8366 0.75
    2.00482 0.75
    2.19988 0.75
    2.41721 0.75
    2.65172 0.75
    2.8979 0.75
    3.15 0.75
    3.4021 0.75
    3.64828 0.75
    3.88279 0.75
    4.10012 0.75
    4.29518 0.75
    4.4634 0.75
    4.60084 0.75
    4.70426 0.75
    4.77124 0.75
    4.8 0.75
    1.5 0.864589
    1.52876 0.864589
    1.59574 0.864589
    1.69916 0.864589
    1.8366 0.864589
    2.00482 0.864589
    2.19988 0.864589
    2.41721 0.864589
    2.65172 0.864589
    2.8979 0.864589
    3.15 0.864589
    3.4021 0.864589
    3.64828 0.864589
    3.88279 0.864589
    4.10012 0.864589
    4.29518 0.864589
    4.4634 0.864589
    4.60084 0.864589
    4.70426 0.864589
    4.77124 0.864589
    4.8 0.864589
    1.5 0.976492
    1.52876 0.976492
    1.59574 0.976492
    1.69916 0.976492
    1.8366 0.976492
    2.00482 0.976492
    2.19988 0.976492
    2.41721 0.976492
    2.65172 0.976492
    2.8979 0.976492
    3.15 0.976492
    3.4021 0.976492
    3.64828 0.976492
    3.88279 0.976492
    4.10012 0.976492
    4.29518 0.976492
    4.4634 0.976492
    4.60084 0.976492
    4.70426 0.976492
    4.77124 0.976492
    4.8 0.976492
    1.5 1.08309
    1.52876 1.08309
    1.59574 1.08309
    1.69916 1.08309
    1.8366 1.08309
    2.00482 1.08309
    2.19988 1.08309
    2.41721 1.08309
    2.65172 1.08309
    2.8979 1.08309
    3.15 1.08309
    3.4021 1.08309
    3.64828 1.08309
    3.88279 1.08309
    4.10012 1.08309
    4.29518 1.08309
    4.4634 1.08309
    4.60084 1.08309
    4.70426 1.08309
    4.77124 1.08309
    4.8 1.08309
    1.5 1.18187
    1.52876 1.18187
    1.59574 1.18187
    1.69916 1.18187
    1.8366 1.18187
    2.00482 1.18187
    2.19988 1.18187
    2.41721 1.18187
    2.65172 1.18187
    2.8979 1.18187
    3.15 1.18187
    3.4021 1.18187
    3.64828 1.18187
    3.88279 1.18187
    4.10012 1.18187
    4.29518 1.18187
    4.4634 1.18187
    4.60084 1.18187
    4.70426 1.18187
    4.77124 1.18187
    4.8 1.18187
    1.5 1.27054
    1.52876 1.27054
    1.59574 1.27054
    1.69916 1.27054
    1.8366 1.27054
    2.00482 1.27054
    2.19988 1.27054
    2.41721 1.27054
    2.65172 1.27054
    2.8979 1.27054
    3.15 1.27054
    3.4021 1.27054
    3.64828 1.27054
    3.88279 1.27054
    4.10012 1.27054
    4.29518 1.27054
    4.4634 1.27054
    4.60084 1.27054
    4.70426 1.27054
    4.77124 1.27054
    4.8 1.27054
    1.5 1.347
    1.52876 1.347
    1.59574 1.347
    1.69916 1.347
    1.8366 1.347
    2.00482 1.347
    2.19988 1.347
    2.41721 1.347
    2.65172 1.347
    2.8979 1.347
    3.15 1.347
    3.4021 1.347
    3.64828 1.347
    3.88279 1.347
    4.10012 1.347
    4.29518 1.347
    4.4634 1.347
    4.60084 1.347
    4.70426 1.347
    4.77124 1.347
    4.8 1.347
    1.5 1.40947
    1.52876 1.40947
    1.59574 1.40947
    1.69916 1.40947
    1.8366 1.40947
    2.00482 1.40947
    2.19988 1.40947
    2.41721 1.40947
    2.65172 1.40947
    2.8979 1.40947
    3.15 1.40947
    3.4021 1.40947
    3.64828 1.40947
    3.88279 1.40947
    4.10012 1.40947
    4.29518 1.40947
    4.4634 1.40947
    4.60084 1.40947
    4.70426 1.40947
    4.77124 1.40947
    4.8 1.40947
    1.5 1.45648
    1.52876 1.45648
    1.59574 1.45648
    1.69916 1.45648
    1.8366 1.45648
    2.00482 1.45648
    2.19988 1.45648
    2.41721 1.45648
    2.65172 1.45648
    2.8979 1.45648
    3.15 1.45648
    3.4021 1.45648
    3.64828 1.45648
    3.88279 1.45648
    4.10012 1.45648
    4.29518 1.45648
    4.4634 1.45648
    4.60084 1.45648
    4.70426 1.45648
    4.77124 1.45648
    4.8 1.45648
    1.5 1.48693
    1.52876 1.48693
    1.59574 1.48693
    1.69916 1.48693
    1.8366 1.48693
    2.00482 1.48693
    2.19988 1.48693
    2.41721 1.48693
    2.65172 1.48693
    2.8979 1.48693
    3.15 1.48693
    3.4021 1.48693
    3.64828 1.48693
    3.88279 1.48693
    4.10012 1.48693
    4.29518 1.48693
    4.4634 1.48693
    4.60084 1.48693
    4.70426 1.48693
    4.77124 1.48693
    4.8 1.48693
    1.5 1.5
    1.52876 1.5
    1.59574 1.5
    1.69916 1.5
    1.8366 1.5
    2.00482 1.5
    2.19988 1.5
    2.41721 1.5
    2.65172 1.5
    2.8979 1.5
    3.15 1.5
    3.4021 1.5
    3.64828 1.5
    3.88279 1.5
    4.10012 1.5
    4.29518 1.5
    4.4634 1.5
    4.60084 1.5
    4.70426 1.5
    4.77124 1.5
    4.8 1.5
    4.8 0
    4.81292 0
    4.84303 0
    4.88951 0
    4.95128 0
    5.02689 0
    5.11456 0
    5.21224 0
    5.31764 0
    5.42829 0
    5.54159 0
    5.6549 0
    5.76555 0
    5.87095 0
    5.96863 0
    6.0563 0
    6.1319 0
    6.19367 0
    6.24016 0
    6.27026 0
    6.28319 0
    4.8 0.0130708
    4.81292 0.0130708
    4.84303 0.0130708
    4.88951 0.0130708
    4.95128 0.0130708
    5.02689 0.0130708
    5.11456 0.0130708
    5.21224 0.0130708
    5.31764 0.0130708
    5.42829 0.0130708
    5.54159 0.0130708
    5.6549 0.0130708
    5.76555 0.0130708
    5.87095 0.0130708
    5.96863 0.0130708
    6.0563 0.0130708
    6.1319 0.0130708
    6.19367 0.0130708
    6.24016 0.0130708
    6.27026 0.0130708
    6.28319 0.0130708
    4.8 0.0435178
    4.81292 0.0435178
    4.84303 0.0435178
    4.88951 0.0435178
    4.95128 0.0435178
    5.02689 0.0435178
    5.11456 0.0435178
    5.21224 0.0435178
    5.31764 0.0435178
    5.42829 0.0435178
    5.54159 0.0435178
    5.6549 0.0435178
    5.76555 0.0435178
    5.87095 0.0435178
    5.96863 0.0435178
    6.0563 0.0435178
    6.1319 0.0435178
    6.19367 0.0435178
    6.24016 0.0435178
    6.27026 0.0435178
    6.28319 0.0435178
    4.8 0.0905289
    4.81292 0.0905289
    4.84303 0.0905289
    4.88951 0.0905289
    4.95128 0.0905289
    5.02689 0.0905289
    5.11456 0.0905289
    5.21224 0.0905289
    5.31764 0.0905289
    5.42829 0.0905289
    5.54159 0.0905289
    5.6549 0.0905289
    5.76555 0.0905289
    5.87095 0.0905289
    5.96863 0.0905289
    6.0563 0.0905289
    6.1319 0.0905289
    6.19367 0.0905289
    6.24016 0.0905289
    6.27026 0.0905289
    6.28319 0.0905289
    4.8 0.152999
    4.81292 0.152999
    4.84303 0.152999
    4.88951 0.152999
    4.95128 0.152999
    5.02689 0.152999
    5.11456 0.152999
    5.21224 0.152999
    5.31764 0.152999
    5.42829 0.152999
    5.54159 0.152999
    5.6549 0.152999
    5.76555 0.152999
    5.87095 0.152999
    5.96863 0.152999
    6.0563 0.152999
    6.1319 0.152999
    6.19367 0.152999
    6.24016 0.152999
    6.27026 0.152999
    6.28319 0.152999
    4.8 0.229462
    4.81292 0.229462
    4.84303 0.229462
    4.88951 0.229462
    4.95128 0.229462
    5.02689 0.229462
    5.11456 0.229462
    5.21224 0.229462
    5.31764 0.229462
    5.42829 0.229462
    5.54159 0.229462
    5.6549 0.229462
    5.76555 0.229462
    5.87095 0.229462
    5.96863 0.229462
    6.0563 0.229462
    6.1319 0.229462
    6.19367 0.229462
    6.24016 0.229462
    6.27026 0.229462
    6.28319 0.229462
    4.8 0.318126
    4.81292 0.318126
    4.84303 0.318126
    4.88951 0.318126
    4.95128 0.318126
    5.02689 0.318126
    5.11456 0.318126
    5.21224 0.318126
    5.31764 0.318126
    5.42829 0.318126
    5.54159 0.318126
    5.6549 0.318126
    5.76555 0.318126
    5.87095 0.318126
    5.96863 0.318126
    6.0563 0.318126
    6.1319 0.318126
    6.19367 0.318126
    6.24016 0.318126
    6.27026 0.318126
    6.28319 0.318126
    4.8 0.416913
    4.81292 0.416913
    4.84303 0.416913
    4.88951 0.416913
    4.95128 0.416913
    5.02689 0.416913
    5.11456 0.416913
    5.21224 0.416913
    5.31764 0.416913
    5.42829 0.416913
    5.54159 0.416913
    5.6549 0.416913
    5.76555 0.416913
    5.87095 0.416913
    5.96863 0.416913
    6.0563 0.416913
    6.1319 0.416913
    6.19367 0.416913
    6.24016 0.416913
    6.27026 0.416913
    6.28319 0.416913
    4.8 0.523508
    4.81292 0.523508
    4.84303 0.523508
    4.88951 0.523508
    4.95128 0.523508
    5.02689 0.523508
    5.11456 0.523508
    5.21224 0.523508
    5.31764 0.523508
    5.42829 0.523508
    5.54159 0.523508
    5.6549 0.523508
    5.76555 0.523508
    5.87095 0.523508
    5.96863 0.523508
    6.0563 0.523508
    6.1319 0.523508
    6.19367 0.523508
    6.24016 0.523508
    6.27026 0.523508
    6.28319 0.523508
    4.8 0.635411
    4.81292 0.635411
    4.84303 0.635411
    4.88951 0.635411
    4.95128 0.635411
    5.02689 0.635411
    5.11456 0.635411
    5.21224 0.635411
    5.31764 0.635411
    5.42829 0.635411
    5.54159 0.635411
    5.6549 0.635411
    5.76555 0.635411
    5.87095 0.635411
    5.96863 0.635411
    6.0563 0.635411
    6.1319 0.635411
    6.19367 0.635411
    6.24016 0.635411
    6.27026 0.635411
    6.28319 0.635411
    4.8 0.75
    4.81292 0.75
    4.84303 0.75
    4.88951 0.75
    4.95128 0.75
    5.02689 0.75
    5.11456 0.75
    5.21224 0.75
    5.31764 0.75
    5.42829 0.75
    5.54159 0.75
    5.6549 0.75
    5.76555 0.75
    5.87095 0.75
    5.96863 0.75
    6.0563 0.75
    6.1319 0.75
    6.19367 0.75
    6.24016 0.75
    6.27026 0.75
    6.28319 0.75
    4.8 0.864589
    4.81292 0.864589
    4.84303 0.864589
    4.88951 0.864589
    4.95128 0.864589
    5.02689 0.864589
    5.11456 0.864589
    5.21224 0.864589
    5.31764 0.864589
    5.42829 0.864589
    5.54159 0.864589
    5.6549 0.864589
    5.76555 0.864589
    5.87095 0.864589
    5.96863 0.864589
    6.0563 0.864589
    6.1319 0.864589
    6.19367 0.864589
    6.24016 0.864589
    6.27026 0.864589
    6.28319 0.864589
    4.8 0.976492
    4.81292 0.976492
    4.84303 0.976492
    4.88951 0.976492
    4.95128 0.976492
    5.02689 0.976492
    5.11456 0.976492
    5.21224 0.976492
    5.31764 0.976492
    5.42829 0.976492
    5.54159 0.976492
    5.6549 0.976492
    5.76555 0.976492
    5.87095 0.976492
    5.96863 0.976492
    6.0563 0.976492
    6.1319 0.976492
    6.19367 0.976492
    6.24016 0.976492
    6.27026 0.976492
    6.28319 0.976492
    4.8 1.08309
    4.81292 1.08309
    4.84303 1.08309
    4.88951 1.08309
    4.95128 1.08309
    5.02689 1.08309
    5.11456 1.08309
    5.21224 1.08309
    5.31764 1.08309
    5.42829 1.08309
    5.54159 1.08309
    5.6549 1.08309
    5.76555 1.08309
    5.87095 1.08309
    5.96863 1.08309
    6.0563 1.08309
    6.1319 1.08309
    6.19367 1.08309
    6.24016 1.08309
    6.27026 1.08309
    6.28319 1.08309
    4.8 1.18187
    4.81292 1.18187
    4.84303 1.18187
    4.88951 1.18187
    4.95128 1.18187
    5.02689 1.18187
    5.11456 1.18187
    5.21224 1.18187
    5.31764 1.18187
    5.42829 1.18187
    5.54159 1.18187
    5.6549 1.18187
    5.76555 1.18187
    5.87095 1.18187
    5.96863 1.18187
    6.0563 1.18187
    6.1319 1.18187
    6.19367 1.18187
    6.24016 1.18187
    6.27026 1.18187
    6.28319 1.18187
    4.8 1.27054
    4.81292 1.27054
    4.84303 1.27054
    4.88951 1.27054
    4.95128 1.27054
    5.02689 1.27054
    5.11456 1.27054
    5.21224 1.27054
    5.31764 1.27054
    5.42829 1.27054
    5.54159 1.27054
    5.6549 1.27054
    5.76555 1.27054
    5.87095 1.27054
    5.96863 1.27054
    6.0563 1.27054
    6.1319 1.27054
    6.19367 1.27054
    6.24016 1.27054
    6.27026 1.27054
    6.28319 1.27054
    4.8 1.347
    4.81292 1.347
    4.84303 1.347
    4.88951 1.347
    4.95128 1.347
    5.02689 1.347
    5.11456 1.347
    5.21224 1.347
    5.31764 1.347
    5.42829 1.347
    5.54159 1.347
    5.6549 1.347
    5.76555 1.347
    5.87095 1.347
    5.96863 1.347
    6.0563 1.347
    6.1319 1.347
    6.19367 1.347
    6.24016 1.347
    6.27026 1.347
    6.28319 1.347
    4.8 1.40947
    4.81292 1.40947
    4.84303 1.40947
    4.88951 1.40947
    4.95128 1.40947
    5.02689 1.40947
    5.11456 1.40947
    5.21224 1.40947
    5.31764 1.40947
    5.42829 1.40947
    5.54159 1.40947
    5.6549 1.40947
    5.76555 1.40947
    5.87095 1.40947
    5.96863 1.40947
    6.0563 1.40947
    6.1319 1.40947
    6.19367 1.40947
    6.24016 1.40947
    6.27026 1.40947
    6.28319 1.40947
    4.8 1.45648
    4.81292 1.45648
    4.84303 1.45648
    4.88951 1.45648
    4.95128 1.45648
    5.02689 1.45648
    5.11456 1.45648
    5.21224 1.45648
    5.31764 1.45648
    5.42829 1.45648
    5.54159 1.45648
    5.6549 1.45648
    5.76555 1.45648
    5.87095 1.45648
    5.96863 1.45648
    6.0563 1.45648
    6.1319 1.45648
    6.19367 1.45648
    6.24016 1.45648
    6.27026 1.45648
    6.28319 1.45648
    4.8 1.48693
    4.81292 1.48693
    4.84303 1.48693
    4.88951 1.48693
    4.95128 1.48693
    5.02689 1.48693
    5.11456 1.48693
    5.21224 1.48693
    5.31764 1.48693
    5.42829 1.48693
    5.54159 1.48693
    5.6549 1.48693
    5.76555 1.48693
    5.87095 1.48693
    5.96863 1.48693
    6.0563 1.48693
    6.1319 1.48693
    6.19367 1.48693
    6.24016 1.48693
    6.27026 1.48693
    6.28319 1.48693
    4.8 1.5
    4.81292 1.5
    4.84303 1.5
    4.88951 1.5
    4.95128 1.5
    5.02689 1.5
    5.11456 1.5
    5.21224 1.5
    5.31764 1.5
    5.42829 1.5
    5.54159 1.5
    5.6549 1.5
    5.76555 1.5
    5.87095 1.5
    5.96863 1.5
    6.0563 1.5
    6.1319 1.5
    6.19367 1.5
    6.24016 1.5
    6.27026 1.5
    6.28319 1.5
    0 1.5
    0.0130708 1.5
    0.0435178 1.5
    0.0905289 1.5
    0.152999 1.5
    0.229462 1.5
    0.318126 1.5
    0.416913 1.5
    0.523508 1.5
    0.635411 1.5
    0.75 1.5
    0.864589 1.5
    0.976492 1.5
    1.08309 1.5
    1.18187 1.5
    1.27054 1.5
    1.347 1.5
    1.40947 1.5
    1.45648 1.5
    1.48693 1.5
    1.5 1.5
    0 1.52876
    0.0130708 1.52876
    0.0435178 1.52876
    0.0905289 1.52876
    0.152999 1.52876
    0.229462 1.52876
    0.318126 1.52876
    0.416913 1.52876
    0.523508 1.52876
    0.635411 1.52876
    0.75 1.52876
    0.864589 1.52876
    0.976492 1.52876
    1.08309 1.52876
    1.18187 1.52876
    1.27054 1.52876
    1.347 1.52876
    1.40947 1.52876
    1.45648 1.52876
    1.48693 1.52876
    1.5 1.52876
    0 1.59574
    0.0130708 1.59574
    0.0435178 1.59574
    0.0905289 1.59574
    0.152999 1.59574
    0.229462 1.59574
    0.318126 1.59574
    0.416913 1.59574
    0.523508 1.59574
    0.635411 1.59574
    0.75 1.59574
    0.864589 1.59574
    0.976492 1.59574
    1.08309 1.59574
    1.18187 1.59574
    1.27054 1.59574
    1.347 1.59574
    1.40947 1.59574
    1.45648 1.59574
    1.48693 1.59574
    1.5 1.59574
    0 1.69916
    0.0130708 1.69916
    0.0435178 1.69916
    0.0905289 1.69916
    0.152999 1.69916
    0.229462 1.69916
    0.318126 1.69916
    0.416913 1.69916
    0.523508 1.69916
    0.635411 1.69916
    0.75 1.69916
    0.864589 1.69916
    0.976492 1.69916
    1.08309 1.69916
    1.18187 1.69916
    1.27054 1.69916
    1.347 1.69916
    1.40947 1.69916
    1.45648 1.69916
    1.48693 1.69916
    1.5 1.69916
    0 1.8366
    0.0130708 1.8366
    0.0435178 1.8366
    0.0905289 1.8366
    0.152999 1.8366
    0.229462 1.8366
    0.318126 1.8366
    0.416913 1.8366
    0.523508 1.8366
    0.635411 1.8366
    0.75 1.8366
    0.864589 1.8366
    0.976492 1.8366
    1.08309 1.8366
    1.18187 1.8366
    1.27054 1.8366
    1.347 1.8366
    1.40947 1.8366
    1.45648 1.8366
    1.48693 1.8366
    1.5 1.8366
    0 2.00482
    0.0130708 2.00482
    0.0435178 2.00482
    0.0905289 2.00482
    0.152999 2.00482
    0.229462 2.00482
    0.318126 2.00482
    0.416913 2.00482
    0.523508 2.00482
    0.635411 2.00482
    0.75 2.00482
    0.864589 2.00482
    0.976492 2.00482
    1.08309 2.00482
    1.18187 2.00482
    1.27054 2.00482
    1.347 2.00482
    1.40947 2.00482
    1.45648 2.00482
    1.48693 2.00482
    1.5 2.00482
    0 2.19988
    0.0130708 2.19988
    0.0435178 2.19988
    0.0905289 2.19988
    0.152999 2.19988
    0.229462 2.19988
    0.318126 2.19988
    0.416913 2.19988
    0.523508 2.19988
    0.635411 2.19988
    0.75 2.19988
    0.864589 2.19988
    0.976492 2.19988
    1.08309 2.19988
    1.18187 2.19988
    1.27054 2.19988
    1.347 2.19988
    1.40947 2.19988
    1.45648 2.19988
    1.48693 2.19988
    1.5 2.19988
    0 2.41721
    0.0130708 2.41721
    0.0435178 2.41721
    0.0905289 2.41721
    0.152999 2.41721
    0.229462 2.41721
    0.318126 2.41721
    0.416913 2.41721
    0.523508 2.41721
    0.635411 2.41721
    0.75 2.41721
    0.864589 2.41721
    0.976492 2.41721
    1.08309 2.41721
    1.18187 2.41721
    1.27054 2.41721
    1.347 2.41721
    1.40947 2.41721
    1.45648 2.41721
    1.48693 2.41721
    1.5 2.41721
    0 2.65172
    0.0130708 2.65172
    0.0435178 2.65172
    0.0905289 2.65172
    0.152999 2.65172
    0.229462 2.65172
    0.318126 2.65172
    0.416913 2.65172
    0.523508 2.65172
    0.635411 2.65172
    0.75 2.65172
    0.864589 2.65172
    0.976492 2.65172
    1.08309 2.65172
    1.18187 2.65172
    1.27054 2.65172
    1.347 2.65172
    1.40947 2.65172
    1.45648 2.65172
    1.48693 2.65172
    1.5 2.65172
    0 2.8979
    0.0130708 2.8979
    0.0435178 2.8979
    0.0905289 2.8979
    0.152999 2.8979
    0.229462 2.8979
    0.318126 2.8979
    0.416913 2.8979
    0.523508 2.8979
    0.635411 2.8979
    0.75 2.8979
    0.864589 2.8979
    0.976492 2.8979
    1.08309 2.8979
    1.18187 2.8979
    1.27054 2.8979
    1.347 2.8979
    1.40947 2.8979
    1.45648 2.8979
    1.48693 2.8979
    1.5 2.8979
    0 3.15
    0.0130708 3.15
    0.0435178 3.15
    0.0905289 3.15
    0.152999 3.15
    0.229462 3.15
    0.318126 3.15
    0.416913 3.15
    0.523508 3.15
    0.635411 3.15
    0.75 3.15
    0.864589 3.15
    0.976492 3.15
    1.08309 3.15
    1.18187 3.15
    1.27054 3.15
    1.347 3.15
    1.40947 3.15
    1.45648 3.15
    1.48693 3.15
    1.5 3.15
    0 3.4021
    0.0130708 3.4021
    0.0435178 3.4021
    0.0905289 3.4021
    0.152999 3.4021
    0.229462 3.4021
    0.318126 3.4021
    0.416913 3.4021
    0.523508 3.4021
    0.635411 3.4021
    0.75 3.4021
    0.864589 3.4021
    0.976492 3.4021
    1.08309 3.4021
    1.18187 3.4021
    1.27054 3.4021
    1.347 3.4021
    1.40947 3.4021
    1.45648 3.4021
    1.48693 3.4021
    1.5 3.4021
    0 3.64828
    0.0130708 3.64828
    0.0435178 3.64828
    0.0905289 3.64828
    0.152999 3.64828
    0.229462 3.64828
    0.318126 3.64828
    0.416913 3.64828
    0.523508 3.64828
    0.635411 3.64828
    0.75 3.64828
    0.864589 3.64828
    0.976492 3.64828
    1.08309 3.64828
    1.18187 3.64828
    1.27054 3.64828
    1.347 3.64828
    1.40947 3.64828
    1.45648 3.64828
    1.48693 3.64828
    1.5 3.64828
    0 3.88279
    0.0130708 3.88279
    0.0435178 3.88279
    0.0905289 3.88279
    0.152999 3.88279
    0.229462 3.88279
    0.318126 3.88279
    0.416913 3.88279
    0.523508 3.88279
    0.635411 3.88279
    0.75 3.88279
    0.864589 3.88279
    0.976492 3.88279
    1.08309 3.88279
    1.18187 3.88279
    1.27054 3.88279
    1.347 3.88279
    1.40947 3.88279
    1.45648 3.88279
    1.48693 3.88279
    1.5 3.88279
    0 4.10012
    0.0130708 4.10012
    0.0435178 4.10012
    0.0905289 4.10012
    0.152999 4.10012
    0.229462 4.10012
    0.318126 4.10012
    0.416913 4.10012
    0.523508 4.10012
    0.635411 4.10012
    0.75 4.10012
    0.864589 4.10012
    0.976492 4.10012
    1.08309 4.10012
    1.18187 4.10012
    1.27054 4.10012
    1.347 4.10012
    1.40947 4.10012
    1.45648 4.10012
    1.48693 4.10012
    1.5 4.10012
    0 4.29518
    0.0130708 4.29518
    0.0435178 4.29518
    0.0905289 4.29518
    0.152999 4.29518
    0.229462 4.29518
    0.318126 4.29518
    0.416913 4.29518
    0.523508 4.29518
    0.635411 4.29518
    0.75 4.29518
    0.864589 4.29518
    0.976492 4.29518
    1.08309 4.29518
    1.18187 4.29518
    1.27054 4.29518
    1.347 4.29518
    1.40947 4.29518
    1.45648 4.29518
    1.48693 4.29518
    1.5 4.29518
    0 4.4634
    0.0130708 4.4634
    0.0435178 4.4634
    0.0905289 4.4634
    0.152999 4.4634
    0.229462 4.4634
    0.318126 4.4634
    0.416913 4.4634
    0.523508 4.4634
    0.635411 4.4634
    0.75 4.4634
    0.864589 4.4634
    0.976492 4.4634
    1.08309 4.4634
    1.18187 4.4634
    1.27054 4.4634
    1.347 4.4634
    1.40947 4.4634
    1.45648 4.4634
    1.48693 4.4634
    1.5 4.4634
    0 4.60084
    0.0130708 4.60084
    0.0435178 4.60084
    0.0905289 4.60084
    0.152999 4.60084
    0.229462 4.60084
    0.318126 4.60084
    0.416913 4.60084
    0.523508 4.60084
    0.635411 4.60084
    0.75 4.60084
    0.864589 4.60084
    0.976492 4.60084
    1.08309 4.60084
    1.18187 4.60084
    1.27054 4.60084
    1.347 4.60084
    1.40947 4.60084
    1.45648 4.60084
    1.48693 4.60084
    1.5 4.60084
    0 4.70426
    0.0130708 4.70426
    0.0435178 4.70426
    0.0905289 4.70426
    0.152999 4.70426
    0.229462 4.70426
    0.318126 4.70426
    0.416913 4.70426
    0.523508 4.70426
    0.635411 4.70426
    0.75 4.70426
    0.864589 4.70426
    0.976492 4.70426
    1.08309 4.70426
    1.18187 4.70426
    1.27054 4.70426
    1.347 4.70426
    1.40947 4.70426
    1.45648 4.70426
    1.48693 4.70426
    1.5 4.70426
    0 4.77124
    0.0130708 4.77124
    0.0435178 4.77124
    0.0905289 4.77124
    0.152999 4.77124
    0.229462 4.77124
    0.318126 4.77124
    0.416913 4.77124
    0.523508 4.77124
    0.635411 4.77124
    0.75 4.77124
    0.864589 4.77124
    0.976492 4.77124
    1.08309 4.77124
    1.18187 4.77124
    1.27054 4.77124
    1.347 4.77124
    1.40947 4.77124
    1.45648 4.77124
    1.48693 4.77124
    1.5 4.77124
    0 4.8
    0.0130708 4.8
    0.0435178 4.8
    0.0905289 4.8
    0.152999 4.8
    0.229462 4.8
    0.318126 4.8
    0.416913 4.8
    0.523508 4.8
    0.635411 4.8
    0.75 4.8
    0.864589 4.8
    0.976492 4.8
    1.08309 4.8
    1.18187 4.8
    1.27054 4.8
    1.347 4.8
    1.40947 4.8
    1.45648 4.8
    1.48693 4.8
    1.5 4.8
    1.5 1.5
    1.52876 1.5
    1.59574 1.5
    1.69916 1.5
    1.8366 1.5
    2.00482 1.5
    2.19988 1.5
    2.41721 1.5
    2.65172 1.5
    2.8979 1.5
    3.15 1.5
    3.4021 1.5
    3.64828 1.5
    3.88279 1.5
    4.10012 1.5
    4.29518 1.5
    4.4634 1.5
    4.60084 1.5
    4.70426 1.5
    4.77124 1.5
    4.8 1.5
    1.5 1.52876
    1.52876 1.52876
    1.59574 1.52876
    1.69916 1.52876
    1.8366 1.52876
    2.00482 1.52876
    2.19988 1.52876
    2.41721 1.52876
    2.65172 1.52876
    2.8979 1.52876
    3.15 1.52876
    3.4021 1.52876
    3.64828 1.52876
    3.88279 1.52876
    4.10012 1.52876
    4.29518 1.52876
    4.4634 1.52876
    4.60084 1.52876
    4.70426 1.52876
    4.77124 1.52876
    4.8 1.52876
    1.5 1.59574
    1.52876 1.59574
    1.59574 1.59574
    1.69916 1.59574
    1.8366 1.59574
    2.00482 1.59574
    2.19988 1.59574
    2.41721 1.59574
    2.65172 1.59574
    2.8979 1.59574
    3.15 1.59574
    3.4021 1.59574
    3.64828 1.59574
    3.88279 1.59574
    4.10012 1.59574
    4.29518 1.59574
    4.4634 1.59574
    4.60084 1.59574
    4.70426 1.59574
    4.77124 1.59574
    4.8 1.59574
    1.5 1.69916
    1.52876 1.69916
    1.59574 1.69916
    1.69916 1.69916
    1.8366 1.69916
    2.00482 1.69916
    2.19988 1.69916
    2.41721 1.69916
    2.65172 1.69916
    2.8979 1.69916
    3.15 1.69916
    3.4021 1.69916
    3.64828 1.69916
    3.88279 1.69916
    4.10012 1.69916
    4.29518 1.69916
    4.4634 1.69916
    4.60084 1.69916
    4.70426 1.69916
    4.77124 1.69916
    4.8 1.69916
    1.5 1.8366
    1.52876 1.8366
    1.59574 1.8366
    1.69916 1.8366
    1.8366 1.8366
    2.00482 1.8366
    2.19988 1.8366
    2.41721 1.8366
    2.65172 1.8366
    2.8979 1.8366
    3.15 1.8366
    3.4021 1.8366
    3.64828 1.8366
    3.88279 1.8366
    4.10012 1.8366
    4.29518 1.8366
    4.4634 1.8366
    4.60084 1.8366
    4.70426 1.8366
    4.77124 1.8366
    4.8 1.8366
    1.5 2.00482
    1.52876 2.00482
    1.59574 2.00482
    1.69916 2.00482
    1.8366 2.00482
    2.00482 2.00482
    2.19988 2.00482
    2.41721 2.00482
    2.65172 2.00482
    2.8979 2.00482
    3.15 2.00482
    3.4021 2.00482
    3.64828 2.00482
    3.88279 2.00482
    4.10012 2.00482
    4.29518 2.00482
    4.4634 2.00482
    4.60084 2.00482
    4.70426 2.00482
    4.77124 2.00482
    4.8 2.00482
    1.5 2.19988
    1.52876 2.19988
    1.59574 2.19988
    1.69916 2.19988
    1.8366 2.19988
    2.00482 2.19988
    2.19988 2.19988
    2.41721 2.19988
    2.65172 2.19988
    2.8979 2.19988
    3.15 2.19988
    3.4021 2.19988
    3.64828 2.19988
    3.88279 2.19988
    4.10012 2.19988
    4.29518 2.19988
    4.4634 2.19988
    4.60084 2.19988
    4.70426 2.19988
    4.77124 2.19988
    4.8 2.19988
    1.5 2.41721
    1.52876 2.41721
    1.59574 2.41721
    1.69916 2.41721
    1.8366 2.41721
    2.00482 2.41721
    2.19988 2.41721
    2.41721 2.41721
    2.65172 2.41721
    2.8979 2.41721
    3.15 2.41721
    3.4021 2.41721
    3.64828 2.41721
    3.88279 2.41721
    4.10012 2.41721
    4.29518 2.41721
    4.4634 2.41721
    4.60084 2.41721
    4.70426 2.41721
    4.77124 2.41721
    4.8 2.41721
    1.5 2.65172
    1.52876 2.65172
    1.59574 2.65172
    1.69916 2.65172
    1.8366 2.65172
    2.00482 2.65172
    2.19988 2.65172
    2.41721 2.65172
    2.65172 2.65172
    2.8979 2.65172
    3.15 2.65172
    3.4021 2.65172
    3.64828 2.65172
    3.88279 2.65172
    4.10012 2.65172
    4.29518 2.65172
    4.4634 2.65172
    4.60084 2.65172
    4.70426 2.65172
    4.77124 2.65172
    4.8 2.65172
    1.5 2.8979
    1.52876 2.8979
    1.59574 2.8979
    1.69916 2.8979
    1.8366 2.8979
    2.00482 2.8979
    2.19988 2.8979
    2.41721 2.8979
    2.65172 2.8979
    2.8979 2.8979
    3.15 2.8979
    3.4021 2.8979
    3.64828 2.8979
    3.88279 2.8979
    4.10012 2.8979
    4.29518 2.8979
    4.4634 2.8979
    4.60084 2.8979
    4.70426 2.8979
    4.77124 2.8979
    4.8 2.8979
    1.5 3.15
    1.52876 3.15
    1.59574 3.15
    1.69916 3.15
    1.8366 3.15
    2.00482 3.15
    2.19988 3.15
    2.41721 3.15
    2.65172 3.15
    2.8979 3.15
    3.15 3.15
    3.4021 3.15
    3.64828 3.15
    3.88279 3.15
    4.10012 3.15
    4.29518 3.15
    4.4634 3.15
    4.60084 3.15
    4.70426 3.15
    4.77124 3.15
    4.8 3.15
    1.5 3.4021
    1.52876 3.4021
    1.59574 3.4021
    1.69916 3.4021
    1.8366 3.4021
    2.00482 3.4021
    2.19988 3.4021
    2.41721 3.4021
    2.65172 3.4021
    2.8979 3.4021
    3.15 3.4021
    3.4021 3.4021
    3.64828 3.4021
    3.88279 3.4021
    4.10012 3.4021
    4.29518 3.4021
    4.4634 3.4021
    4.60084 3.4021
    4.70426 3.4021
    4.77124 3.4021
    4.8 3.4021
    1.5 3.64828
    1.52876 3.64828
    1.59574 3.64828
    1.69916 3.64828
    1.8366 3.64828
    2.00482 3.64828
    2.19988 3.64828
    2.41721 3.64828
    2.65172 3.64828
    2.8979 3.64828
    3.15 3.64828
    3.4021 3.64828
    3.64828 3.64828
    3.88279 3.64828
    4.10012 3.64828
    4.29518 3.64828
    4.4634 3.64828
    4.60084 3.64828
    4.70426 3.64828
    4.77124 3.64828
    4.8 3.64828
    1.5 3.88279
    1.52876 3.88279
    1.59574 3.88279
    1.69916 3.88279
    1.8366 3.88279
    2.00482 3.88279
    2.19988 3.88279
    2.41721 3.88279
    2.65172 3.88279
    2.8979 3.88279
    3.15 3.88279
    3.4021 3.88279
    3.64828 3.88279
    3.88279 3.88279
    4.10012 3.88279
    4.29518 3.88279
    4.4634 3.88279
    4.60084 3.88279
    4.70426 3.88279
    4.77124 3.88279
    4.8 3.88279
    1.5 4.10012
    1.52876 4.10012
    1.59574 4.10012
    1.69916 4.10012
    1.8366 4.10012
    2.00482 4.10012
    2.19988 4.10012
    2.41721 4.10012
    2.65172 4.10012
    2.8979 4.10012
    3.15 4.10012
    3.4021 4.10012
    3.64828 4.10012
    3.88279 4.10012
    4.10012 4.10012
    4.29518 4.10012
    4.4634 4.10012
    4.60084 4.10012
    4.70426 4.10012
    4.77124 4.10012
    4.8 4.10012
    1.5 4.29518
    1.52876 4.29518
    1.59574 4.29518
    1.69916 4.29518
    1.8366 4.29518
    2.00482 4.29518
    2.19988 4.29518
    2.41721 4.29518
    2.65172 4.29518
    2.8979 4.29518
    3.15 4.29518
    3.4021 4.29518
    3.64828 4.29518
    3.88279 4.29518
    4.10012 4.29518
    4.29518 4.29518
    4.4634 4.29518
    4.60084 4.29518
    4.70426 4.29518
    4.77124 4.29518
    4.8 4.29518
    1.5 4.4634
    1.52876 4.4634
    1.59574 4.4634
    1.69916 4.4634
    1.8366 4.4634
    2.00482 4.4634
    2.19988 4.4634
    2.41721 4.4634
    2.65172 4.4634
    2.8979 4.4634
    3.15 4.4634
    3.4021 4.4634
    3.64828 4.4634
    3.88279 4.4634
    4.10012 4.4634
    4.29518 4.4634
    4.4634 4.4634
    4.60084 4.4634
    4.70426 4.4634
    4.77124 4.4634
    4.8 4.4634
    1.5 4.60084
    1.52876 4.60084
    1.59574 4.60084
    1.69916 4.60084
    1.8366 4.60084
    2.00482 4.60084
    2.19988 4.60084
    2.41721 4.60084
    2.65172 4.60084
    2.8979 4.60084
    3.15 4.60084
    3.4021 4.60084
    3.64828 4.60084
    3.88279 4.60084
    4.10012 4.60084
    4.29518 4.60084
    4.4634 4.60084
    4.60084 4.60084
    4.70426 4.60084
    4.77124 4.60084
    4.8 4.60084
    1.5 4.70426
    1.52876 4.70426
    1.59574 4.70426
    1.69916 4.70426
    1.8366 4.70426
    2.00482 4.70426
    2.19988 4.70426
    2.41721 4.70426
    2.65172 4.70426
    2.8979 4.70426
    3.15 4.70426
    3.4021 4.70426
    3.64828 4.70426
    3.88279 4.70426
    4.10012 4.70426
    4.29518 4.70426
    4.4634 4.70426
    4.60084 4.70426
    4.70426 4.70426
    4.77124 4.70426
    4.8 4.70426
    1.5 4.77124
    1.52876 4.77124
    1.59574 4.77124
    1.69916 4.77124
    1.8366 4.77124
    2.00482 4.77124
    2.19988 4.77124
    2.41721 4.77124
    2.65172 4.77124
    2.8979 4.77124
    3.15 4.77124
    3.4021 4.77124
    3.64828 4.77124
    3.88279 4.77124
    4.10012 4.77124
    4.29518 4.77124
    4.4634 4.77124
    4.60084 4.77124
    4.70426 4.77124
    4.77124 4.77124
    4.8 4.77124
    1.5 4.8
    1.52876 4.8
    1.59574 4.8
    1.69916 4.8
    1.8366 4.8
    2.00482 4.8
    2.19988 4.8
    2.41721 4.8
    2.65172 4.8
    2.8979 4.8
    3.15 4.8
    3.4021 4.8
    3.64828 4.8
    3.88279 4.8
    4.10012 4.8
    4.29518 4.8
    4.4634 4.8
    4.60084 4.8
    4.70426 4.8
    4.77124 4.8
    4.8 4.8
    4.8 1.5
    4.81292 1.5
    4.84303 1.5
    4.88951 1.5
    4.95128 1.5
    5.02689 1.5
    5.11456 1.5
    5.21224 1.5
    5.31764 1.5
    5.42829 1.5
    5.54159 1.5
    5.6549 1.5
    5.76555 1.5
    5.87095 1.5
    5.96863 1.5
    6.0563 1.5
    6.1319 1.5
    6.19367 1.5
    6.24016 1.5
    6.27026 1.5
    6.28319 1.5
    4.8 1.52876
    4.81292 1.52876
    4.84303 1.52876
    4.88951 1.52876
    4.95128 1.52876
    5.02689 1.52876
    5.11456 1.52876
    5.21224 1.52876
    5.31764 1.52876
    5.42829 1.52876
    5.54159 1.52876
    5.6549 1.52876
    5.76555 1.52876
    5.87095 1.52876
    5.96863 1.52876
    6.0563 1.52876
    6.1319 1.52876
    6.19367 1.52876
    6.24016 1.52876
    6.27026 1.52876
    6.28319 1.52876
    4.8 1.59574
    4.81292 1.59574
    4.84303 1.59574
    4.88951 1.59574
    4.95128 1.59574
    5.02689 1.59574
    5.11456 1.59574
    5.21224 1.59574
    5.31764 1.59574
    5.42829 1.59574
    5.54159 1.59574
    5.6549 1.59574
    5.76555 1.59574
    5.87095 1.59574
    5.96863 1.59574
    6.0563 1.59574
    6.1319 1.59574
    6.19367 1.59574
    6.24016 1.59574
    6.27026 1.59574
    6.28319 1.59574
    4.8 1.69916
    4.81292 1.69916
    4.84303 1.69916
    4.88951 1.69916
    4.95128 1.69916
    5.02689 1.69916
    5.11456 1.69916
    5.21224 1.69916
    5.31764 1.69916
    5.42829 1.69916
    5.54159 1.69916
    5.6549 1.69916
    5.76555 1.69916
    5.87095 1.69916
    5.96863 1.69916
    6.0563 1.69916
    6.1319 1.69916
    6.19367 1.69916
    6.24016 1.69916
    6.27026 1.69916
    6.28319 1.69916
    4.8 1.8366
    4.81292 1.8366
    4.84303 1.8366
    4.88951 1.8366
    4.95128 1.8366
    5.02689 1.8366
    5.11456 1.8366
    5.21224 1.8366
    5.31764 1.8366
    5.42829 1.8366
    5.54159 1.8366
    5.6549 1.8366
    5.76555 1.8366
    5.87095 1.8366
    5.96863 1.8366
    6.0563 1.8366
    6.1319 1.8366
    6.19367 1.8366
    6.24016 1.8366
    6.27026 1.8366
    6.28319 1.8366
    4.8 2.00482
    4.81292 2.00482
    4.84303 2.00482
    4.88951 2.00482
    4.95128 2.00482
    5.02689 2.00482
    5.11456 2.00482
    5.21224 2.00482
    5.31764 2.00482
    5.42829 2.00482
    5.54159 2.00482
    5.6549 2.00482
    5.76555 2.00482
    5.87095 2.00482
    5.96863 2.00482
    6.0563 2.00482
    6.1319 2.00482
    6.19367 2.00482
    6.24016 2.00482
    6.27026 2.00482
    6.28319 2.00482
    4.8 2.19988
    4.81292 2.19988
    4.84303 2.19988
    4.88951 2.19988
    4.95128 2.19988
    5.02689 2.19988
    5.11456 2.19988
    5.21224 2.19988
    5.31764 2.19988
    5.42829 2.19988
    5.54159 2.19988
    5.6549 2.19988
    5.76555 2.19988
    5.87095 2.19988
    5.96863 2.19988
    6.0563 2.19988
    6.1319 2.19988
    6.19367 2.19988
    6.24016 2.19988
    6.27026 2.19988
    6.28319 2.19988
    4.8 2.41721
    4.81292 2.41721
    4.84303 2.41721
    4.88951 2.41721
    4.95128 2.41721
    5.02689 2.41721
    5.11456 2.41721
    5.21224 2.41721
    5.31764 2.41721
    5.42829 2.41721
    5.54159 2.41721
    5.6549 2.41721
    5.76555 2.41721
    5.87095 2.41721
    5.96863 2.41721
    6.0563 2.41721
    6.1319 2.41721
    6.19367 2.41721
    6.24016 2.41721
    6.27026 2.41721
    6.28319 2.41721
    4.8 2.65172
    4.81292 2.65172
    4.84303 2.65172
    4.88951 2.65172
    4.95128 2.65172
    5.02689 2.65172
    5.11456 2.65172
    5.21224 2.65172
    5.31764 2.65172
    5.42829 2.65172
    5.54159 2.65172
    5.6549 2.65172
    5.76555 2.65172
    5.87095 2.65172
    5.96863 2.65172
    6.0563 2.65172
    6.1319 2.65172
    6.19367 2.65172
    6.24016 2.65172
    6.27026 2.65172
    6.28319 2.65172
    4.8 2.8979
    4.81292 2.8979
    4.84303 2.8979
    4.88951 2.8979
    4.95128 2.8979
    5.02689 2.8979
    5.11456 2.8979
    5.21224 2.8979
    5.31764 2.8979
    5.42829 2.8979
    5.54159 2.8979
    5.6549 2.8979
    5.76555 2.8979
    5.87095 2.8979
    5.96863 2.8979
    6.0563 2.8979
    6.1319 2.8979
    6.19367 2.8979
    6.24016 2.8979
    6.27026 2.8979
    6.28319 2.8979
    4.8 3.15
    4.81292 3.15
    4.84303 3.15
    4.88951 3.15
    4.95128 3.15
    5.02689 3.15
    5.11456 3.15
    5.21224 3.15
    5.31764 3.15
    5.42829 3.15
    5.54159 3.15
    5.6549 3.15
    5.76555 3.15
    5.87095 3.15
    5.96863 3.15
    6.0563 3.15
    6.1319 3.15
    6.19367 3.15
    6.24016 3.15
    6.27026 3.15
    6.28319 3.15
    4.8 3.4021
    4.81292 3.4021
    4.84303 3.4021
    4.88951 3.4021
    4.95128 3.4021
    5.02689 3.4021
    5.11456 3.4021
    5.21224 3.4021
    5.31764 3.4021
    5.42829 3.4021
    5.54159 3.4021
    5.6549 3.4021
    5.76555 3.4021
    5.87095 3.4021
    5.96863 3.4021
    6.0563 3.4021
    6.1319 3.4021
    6.19367 3.4021
    6.24016 3.4021
    6.27026 3.4021
    6.28319 3.4021
    4.8 3.64828
    4.81292 3.64828
    4.84303 3.64828
    4.88951 3.64828
    4.95128 3.64828
    5.02689 3.64828
    5.11456 3.64828
    5.21224 3.64828
    5.31764 3.64828
    5.42829 3.64828
    5.54159 3.64828
    5.6549 3.64828
    5.76555 3.64828
    5.87095 3.64828
    5.96863 3.64828
    6.0563 3.64828
    6.1319 3.64828
    6.19367 3.64828
    6.24016 3.64828
    6.27026 3.64828
    6.28319 3.64828
    4.8 3.88279
    4.81292 3.88279
    4.84303 3.88279
    4.88951 3.88279
    4.95128 3.88279
    5.02689 3.88279
    5.11456 3.88279
    5.21224 3.88279
    5.31764 3.88279
    5.42829 3.88279
    5.54159 3.88279
    5.6549 3.88279
    5.76555 3.88279
    5.87095 3.88279
    5.96863 3.88279
    6.0563 3.88279
    6.1319 3.88279
    6.19367 3.88279
    6.24016 3.88279
    6.27026 3.88279
    6.28319 3.88279
    4.8 4.10012
    4.81292 4.10012
    4.84303 4.10012
    4.88951 4.10012
    4.95128 4.10012
    5.02689 4.10012
    5.11456 4.10012
    5.21224 4.10012
    5.31764 4.10012
    5.42829 4.10012
    5.54159 4.10012
    5.6549 4.10012
    5.76555 4.10012
    5.87095 4.10012
    5.96863 4.10012
    6.0563 4.10012
    6.1319 4.10012
    6.19367 4.10012
    6.24016 4.10012
    6.27026 4.10012
    6.28319 4.10012
    4.8 4.29518
    4.81292 4.29518
    4.84303 4.29518
    4.88951 4.29518
    4.95128 4.29518
    5.02689 4.29518
    5.11456 4.29518
    5.21224 4.29518
    5.31764 4.29518
    5.42829 4.29518
    5.54159 4.29518
    5.6549 4.29518
    5.76555 4.29518
    5.87095 4.29518
    5.96863 4.29518
    6.0563 4.29518
    6.1319 4.29518
    6.19367 4.29518
    6.24016 4.29518
    6.27026 4.29518
    6.28319 4.29518
    4.8 4.4634
    4.81292 4.4634
    4.84303 4.4634
    4.88951 4.4634
    4.95128 4.4634
    5.02689 4.4634
    5.11456 4.4634
    5.21224 4.4634
    5.31764 4.4634
    5.42829 4.4634
    5.54159 4.4634
    5.6549 4.4634
    5.76555 4.4634
    5.87095 4.4634
    5.96863 4.4634
    6.0563 4.4634
    6.1319 4.4634
    6.19367 4.4634
    6.24016 4.4634
    6.27026 4.4634
    6.28319 4.4634
    4.8 4.60084
    4.81292 4.60084
    4.84303 4.60084
    4.88951 4.60084
    4.95128 4.60084
    5.02689 4.60084
    5.11456 4.60084
    5.21224 4.60084
    5.31764 4.60084
    5.42829 4.60084
    5.54159 4.60084
    5.6549 4.60084
    5.76555 4.60084
    5.87095 4.60084
    5.96863 4.60084
    6.0563 4.60084
    6.1319 4.60084
    6.19367 4.60084
    6.24016 4.60084
    6.27026 4.60084
    6.28319 4.60084
    4.8 4.70426
    4.81292 4.70426
    4.84303 4.70426
    4.88951 4.70426
    4.95128 4.70426
    5.02689 4.70426
    5.11456 4.70426
    5.21224 4.70426
    5.31764 4.70426
    5.42829 4.70426
    5.54159 4.70426
    5.6549 4.70426
    5.76555 4.70426
    5.87095 4.70426
    5.96863 4.70426
    6.0563 4.70426
    6.1319 4.70426
    6.19367 4.70426
    6.24016 4.70426
    6.27026 4.70426
    6.28319 4.70426
    4.8 4.77124
    4.81292 4.77124
    4.84303 4.77124
    4.88951 4.77124
    4.95128 4.77124
    5.02689 4.77124
    5.11456 4.77124
    5.21224 4.77124
    5.31764 4.77124
    5.42829 4.77124
    5.54159 4.77124
    5.6549 4.77124
    5.76555 4.77124
    5.87095 4.77124
    5.96863 4.77124
    6.0563 4.77124
    6.1319 4.77124
    6.19367 4.77124
    6.24016 4.77124
    6.27026 4.77124
    6.28319 4.77124
    4.8 4.8
    4.81292 4.8
    4.84303 4.8
    4.88951 4.8
    4.95128 4.8
    5.02689 4.8
    5.11456 4.8
    5.21224 4.8
    5.31764 4.8
    5.42829 4.8
    5.54159 4.8
    5.6549 4.8
    5.76555 4.8
    5.87095 4.8
    5.96863 4.8
    6.0563 4.8
    6.1319 4.8
    6.19367 4.8
    6.24016 4.8
    6.27026 4.8
    6.28319 4.8
    0 4.8
    0.0130708 4.8
    0.0435178 4.8
    0.0905289 4.8
    0.152999 4.8
    0.229462 4.8
    0.318126 4.8
    0.416913 4.8
    0.523508 4.8
    0.635411 4.8
    0.75 4.8
    0.864589 4.8
    0.976492 4.8
    1.08309 4.8
    1.18187 4.8
    1.27054 4.8
    1.347 4.8
    1.40947 4.8
    1.45648 4.8
    1.48693 4.8
    1.5 4.8
    0 4.81292
    0.0130708 4.81292
    0.0435178 4.81292
    0.0905289 4.81292
    0.152999 4.81292
    0.229462 4.81292
    0.318126 4.81292
    0.416913 4.81292
    0.523508 4.81292
    0.635411 4.81292
    0.75 4.81292
    0.864589 4.81292
    0.976492 4.81292
    1.08309 4.81292
    1.18187 4.81292
    1.27054 4.81292
    1.347 4.81292
    1.40947 4.81292
    1.45648 4.81292
    1.48693 4.81292
    1.5 4.81292
    0 4.84303
    0.0130708 4.84303
    0.0435178 4.84303
    0.0905289 4.84303
    0.152999 4.84303
    0.229462 4.84303
    0.318126 4.84303
    0.416913 4.84303
    0.523508 4.84303
    0.635411 4.84303
    0.75 4.84303
    0.864589 4.84303
    0.976492 4.84303
    1.08309 4.84303
    1.18187 4.84303
    1.27054 4.84303
    1.347 4.84303
    1.40947 4.84303
    1.45648 4.84303
    1.48693 4.84303
    1.5 4.84303
    0 4.88951
    0.0130708 4.88951
    0.0435178 4.88951
    0.0905289 4.88951
    0.152999 4.88951
    0.229462 4.88951
    0.318126 4.88951
    0.416913 4.88951
    0.523508 4.88951
    0.635411 4.88951
    0.75 4.88951
    0.864589 4.88951
    0.976492 4.88951
    1.08309 4.88951
    1.18187 4.88951
    1.27054 4.88951
    1.347 4.88951
    1.40947 4.88951
    1.45648 4.88951
    1.48693 4.88951
    1.5 4.88951
    0 4.95128
    0.0130708 4.95128
    0.0435178 4.95128
    0.0905289 4.95128
    0.152999 4.95128
    0.229462 4.95128
    0.318126 4.95128
    0.416913 4.95128
    0.523508 4.95128
    0.635411 4.95128
    0.75 4.95128
    0.864589 4.95128
    0.976492 4.95128
    1.08309 4.95128
    1.18187 4.95128
    1.27054 4.95128
    1.347 4.95128
    1.40947 4.95128
    1.45648 4.95128
    1.48693 4.95128
    1.5 4.95128
    0 5.02689
    0.0130708 5.02689
    0.0435178 5.02689
    0.0905289 5.02689
    0.152999 5.02689
    0.229462 5.02689
    0.318126 5.02689
    0.416913 5.02689
    0.523508 5.02689
    0.635411 5.02689
    0.75 5.02689
    0.864589 5.02689
    0.976492 5.02689
    1.08309 5.02689
    1.18187 5.02689
    1.27054 5.02689
    1.347 5.02689
    1.40947 5.02689
    1.45648 5.02689
    1.48693 5.02689
    1.5 5.02689
    0 5.11456
    0.0130708 5.11456
    0.0435178 5.11456
    0.0905289 5.11456
    0.152999 5.11456
    0.229462 5.11456
    0.318126 5.11456
    0.416913 5.11456
    0.523508 5.11456
    0.635411 5.11456
    0.75 5.11456
    0.864589 5.11456
    0.976492 5.11456
    1.08309 5.11456
    1.18187 5.11456
    1.27054 5.11456
    1.347 5.11456
    1.40947 5.11456
    1.45648 5.11456
    1.48693 5.11456
    1.5 5.11456
    0 5.21224
    0.0130708 5.21224
    0.0435178 5.21224
    0.0905289 5.21224
    0.152999 5.21224
    0.229462 5.21224
    0.318126 5.21224
    0.416913 5.21224
    0.523508 5.21224
    0.635411 5.21224
    0.75 5.21224
    0.864589 5.21224
    0.976492 5.21224
    1.08309 5.21224
    1.18187 5.21224
    1.27054 5.21224
    1.347 5.21224
    1.40947 5.21224
    1.45648 5.21224
    1.48693 5.21224
    1.5 5.21224
    0 5.31764
    0.0130708 5.31764
    0.0435178 5.31764
    0.0905289 5.31764
    0.152999 5.31764
    0.229462 5.31764
    0.318126 5.31764
    0.416913 5.31764
    0.523508 5.31764
    0.635411 5.31764
    0.75 5.31764
    0.864589 5.31764
    0.976492 5.31764
    1.08309 5.31764
    1.18187 5.31764
    1.27054 5.31764
    1.347 5.31764
    1.40947 5.31764
    1.45648 5.31764
    1.48693 5.31764
    1.5 5.31764
    0 5.42829
    0.0130708 5.42829
    0.0435178 5.42829
    0.0905289 5.42829
    0.152999 5.42829
    0.229462 5.42829
    0.318126 5.42829
    0.416913 5.42829
    0.523508 5.42829
    0.635411 5.42829
    0.75 5.42829
    0.864589 5.42829
    0.976492 5.42829
    1.08309 5.42829
    1.18187 5.42829
    1.27054 5.42829
    1.347 5.42829
    1.40947 5.42829
    1.45648 5.42829
    1.48693 5.42829
    1.5 5.42829
    0 5.54159
    0.0130708 5.54159
    0.0435178 5.54159
    0.0905289 5.54159
    0.152999 5.54159
    0.229462 5.54159
    0.318126 5.54159
    0.416913 5.54159
    0.523508 5.54159
    0.635411 5.54159
    0.75 5.54159
    0.864589 5.54159
    0.976492 5.54159
    1.08309 5.54159
    1.18187 5.54159
    1.27054 5.54159
    1.347 5.54159
    1.40947 5.54159
    1.45648 5.54159
    1.48693 5.54159
    1.5 5.54159
    0 5.6549
    0.0130708 5.6549
    0.0435178 5.6549
    0.0905289 5.6549
    0.152999 5.6549
    0.229462 5.6549
    0.318126 5.6549
    0.416913 5.6549
    0.523508 5.6549
    0.635411 5.6549
    0.75 5.6549
    0.864589 5.6549
    0.976492 5.6549
    1.08309 5.6549
    1.18187 5.6549
    1.27054 5.6549
    1.347 5.6549
    1.40947 5.6549
    1.45648 5.6549
    1.48693 5.6549
    1.5 5.6549
    0 5.76555
    0.0130708 5.76555
    0.0435178 5.76555
    0.0905289 5.76555
    0.152999 5.76555
    0.229462 5.76555
    0.318126 5.76555
    0.416913 5.76555
    0.523508 5.76555
    0.635411 5.76555
    0.75 5.76555
    0.864589 5.76555
    0.976492 5.76555
    1.08309 5.76555
    1.18187 5.76555
    1.27054 5.76555
    1.347 5.76555
    1.40947 5.76555
    1.45648 5.76555
    1.48693 5.76555
    1.5 5.76555
    0 5.87095
    0.0130708 5.87095
    0.0435178 5.87095
    0.0905289 5.87095
    0.152999 5.87095
    0.229462 5.87095
    0.318126 5.87095
    0.416913 5.87095
    0.523508 5.87095
    0.635411 5.87095
    0.75 5.87095
    0.864589 5.87095
    0.976492 5.87095
    1.08309 5.87095
    1.18187 5.87095
    1.27054 5.87095
    1.347 5.87095
    1.40947 5.87095
    1.45648 5.87095
    1.48693 5.87095
    1.5 5.87095
    0 5.96863
    0.0130708 5.96863
    0.0435178 5.96863
    0.0905289 5.96863
    0.152999 5.96863
    0.229462 5.96863
    0.318126 5.96863
    0.416913 5.96863
    0.523508 5.96863
    0.635411 5.96863
    0.75 5.96863
    0.864589 5.96863
    0.976492 5.96863
    1.08309 5.96863
    1.18187 5.96863
    1.27054 5.96863
    1.347 5.96863
    1.40947 5.96863
    1.45648 5.96863
    1.48693 5.96863
    1.5 5.96863
    0 6.0563
    0.0130708 6.0563
    0.0435178 6.0563
    0.0905289 6.0563
    0.152999 6.0563
    0.229462 6.0563
    0.318126 6.0563
    0.416913 6.0563
    0.523508 6.0563
    0.635411 6.0563
    0.75 6.0563
    0.864589 6.0563
    0.976492 6.0563
    1.08309 6.0563
    1.18187 6.0563
    1.27054 6.0563
    1.347 6.0563
    1.40947 6.0563
    1.45648 6.0563
    1.48693 6.0563
    1.5 6.0563
    0 6.1319
    0.0130708 6.1319
    0.0435178 6.1319
    0.0905289 6.1319
    0.152999 6.1319
    0.229462 6.1319
    0.318126 6.1319
    0.416913 6.1319
    0.523508 6.1319
    0.635411 6.1319
    0.75 6.1319
    0.864589 6.1319
    0.976492 6.1319
    1.08309 6.1319
    1.18187 6.1319
    1.27054 6.1319
    1.347 6.1319
    1.40947 6.1319
    1.45648 6.1319
    1.48693 6.1319
    1.5 6.1319
    0 6.19367
    0.0130708 6.19367
    0.0435178 6.19367
    0.0905289 6.19367
    0.152999 6.19367
    0.229462 6.19367
    0.318126 6.19367
    0.416913 6.19367
    0.523508 6.19367
    0.635411 6.19367
    0.75 6.19367
    0.864589 6.19367
    0.976492 6.19367
    1.08309 6.19367
    1.18187 6.19367
    1.27054 6.19367
    1.347 6.19367
    1.40947 6.19367
    1.45648 6.19367
    1.48693 6.19367
    1.5 6.19367
    0 6.24016
    0.0130708 6.24016
    0.0435178 6.24016
    0.0905289 6.24016
    0.152999 6.24016
    0.229462 6.24016
    0.318126 6.24016
    0.416913 6.24016
    0.523508 6.24016
    0.635411 6.24016
    0.75 6.24016
    0.864589 6.24016
    0.976492 6.24016
    1.08309 6.24016
    1.18187 6.24016
    1.27054 6.24016
    1.347 6.24016
    1.40947 6.24016
    1.45648 6.24016
    1.48693 6.24016
    1.5 6.24016
    0 6.27026
    0.0130708 6.27026
    0.0435178 6.27026
    0.0905289 6.27026
    0.152999 6.27026
    0.229462 6.27026
    0.318126 6.27026
    0.416913 6.27026
    0.523508 6.27026
    0.635411 6.27026
    0.75 6.27026
    0.864589 6.27026
    0.976492 6.27026
    1.08309 6.27026
    1.18187 6.27026
    1.27054 6.27026
    1.347 6.27026
    1.40947 6.27026
    1.45648 6.27026
    1.48693 6.27026
    1.5 6.27026
    0 6.28319
    0.0130708 6.28319
    0.0435178 6.28319
    0.0905289 6.28319
    0.152999 6.28319
    0.229462 6.28319
    0.318126 6.28319
    0.416913 6.28319
    0.523508 6.28319
    0.635411 6.28319
    0.75 6.28319
    0.864589 6.28319
    0.976492 6.28319
    1.08309 6.28319
    1.18187 6.28319
    1.27054 6.28319
    1.347 6.28319
    1.40947 6.28319
    1.45648 6.28319
    1.48693 6.28319
    1.5 6.28319
    1.5 4.8
    1.52876 4.8
    1.59574 4.8
    1.69916 4.8
    1.8366 4.8
    2.00482 4.8
    2.19988 4.8
    2.41721 4.8
    2.65172 4.8
    2.8979 4.8
    3.15 4.8
    3.4021 4.8
    3.64828 4.8
    3.88279 4.8
    4.10012 4.8
    4.29518 4.8
    4.4634 4.8
    4.60084 4.8
    4.70426 4.8
    4.77124 4.8
    4.8 4.8
    1.5 4.81292
    1.52876 4.81292
    1.59574 4.81292
    1.69916 4.81292
    1.8366 4.81292
    2.00482 4.81292
    2.19988 4.81292
    2.41721 4.81292
    2.65172 4.81292
    2.8979 4.81292
    3.15 4.81292
    3.4021 4.81292
    3.64828 4.81292
    3.88279 4.81292
    4.10012 4.81292
    4.29518 4.81292
    4.4634 4.81292
    4.60084 4.81292
    4.70426 4.81292
    4.77124 4.81292
    4.8 4.81292
    1.5 4.84303
    1.52876 4.84303
    1.59574 4.84303
    1.69916 4.84303
    1.8366 4.84303
    2.00482 4.84303
    2.19988 4.84303
    2.41721 4.84303
    2.65172 4.84303
    2.8979 4.84303
    3.15 4.84303
    3.4021 4.84303
    3.64828 4.84303
    3.88279 4.84303
    4.10012 4.84303
    4.29518 4.84303
    4.4634 4.84303
    4.60084 4.84303
    4.70426 4.84303
    4.77124 4.84303
    4.8 4.84303
    1.5 4.88951
    1.52876 4.88951
    1.59574 4.88951
    1.69916 4.88951
    1.8366 4.88951
    2.00482 4.88951
    2.19988 4.88951
    2.41721 4.88951
    2.65172 4.88951
    2.8979 4.88951
    3.15 4.88951
    3.4021 4.88951
    3.64828 4.88951
    3.88279 4.88951
    4.10012 4.88951
    4.29518 4.88951
    4.4634 4.88951
    4.60084 4.88951
    4.70426 4.88951
    4.77124 4.88951
    4.8 4.88951
    1.5 4.95128
    1.52876 4.95128
    1.59574 4.95128
    1.69916 4.95128
    1.8366 4.95128
    2.00482 4.95128
    2.19988 4.95128
    2.41721 4.95128
    2.65172 4.95128
    2.8979 4.95128
    3.15 4.95128
    3.4021 4.95128
    3.64828 4.95128
    3.88279 4.95128
    4.10012 4.95128
    4.29518 4.95128
    4.4634 4.95128
    4.60084 4.95128
    4.70426 4.95128
    4.77124 4.95128
    4.8 4.95128
    1.5 5.02689
    1.52876 5.02689
    1.59574 5.02689
    1.69916 5.02689
    1.8366 5.02689
    2.00482 5.02689
    2.19988 5.02689
    2.41721 5.02689
    2.65172 5.02689
    2.8979 5.02689
    3.15 5.02689
    3.4021 5.02689
    3.64828 5.02689
    3.88279 5.02689
    4.10012 5.02689
    4.29518 5.02689
    4.4634 5.02689
    4.60084 5.02689
    4.70426 5.02689
    4.77124 5.02689
    4.8 5.02689
    1.5 5.11456
    1.52876 5.11456
    1.59574 5.11456
    1.69916 5.11456
    1.8366 5.11456
    2.00482 5.11456
    2.19988 5.11456
    2.41721 5.11456
    2.65172 5.11456
    2.8979 5.11456
    3.15 5.11456
    3.4021 5.11456
    3.64828 5.11456
    3.88279 5.11456
    4.10012 5.11456
    4.29518 5.11456
    4.4634 5.11456
    4.60084 5.11456
    4.70426 5.11456
    4.77124 5.11456
    4.8 5.11456
    1.5 5.21224
    1.52876 5.21224
    1.59574 5.21224
    1.69916 5.21224
    1.8366 5.21224
    2.00482 5.21224
    2.19988 5.21224
    2.41721 5.21224
    2.65172 5.21224
    2.8979 5.21224
    3.15 5.21224
    3.4021 5.21224
    3.64828 5.21224
    3.88279 5.21224
    4.10012 5.21224
    4.29518 5.21224
    4.4634 5.21224
    4.60084 5.21224
    4.70426 5.21224
    4.77124 5.21224
    4.8 5.21224
    1.5 5.31764
    1.52876 5.31764
    1.59574 5.31764
    1.69916 5.31764
    1.8366 5.31764
    2.00482 5.31764
    2.19988 5.31764
    2.41721 5.31764
    2.65172 5.31764
    2.8979 5.31764
    3.15 5.31764
    3.4021 5.31764
    3.64828 5.31764
    3.88279 5.31764
    4.10012 5.31764
    4.29518 5.31764
    4.4634 5.31764
    4.60084 5.31764
    4.70426 5.31764
    4.77124 5.31764
    4.8 5.31764
    1.5 5.42829
    1.52876 5.42829
    1.59574 5.42829
    1.69916 5.42829
    1.8366 5.42829
    2.00482 5.42829
    2.19988 5.42829
    2.41721 5.42829
    2.65172 5.42829
    2.8979 5.42829
    3.15 5.42829
    3.4021 5.42829
    3.64828 5.42829
    3.88279 5.42829
    4.10012 5.42829
    4.29518 5.42829
    4.4634 5.42829
    4.60084 5.42829
    4.70426 5.42829
    4.77124 5.42829
    4.8 5.42829
    1.5 5.54159
    1.52876 5.54159
    1.59574 5.54159
    1.69916 5.54159
    1.8366 5.54159
    2.00482 5.54159
    2.19988 5.54159
    2.41721 5.54159
    2.65172 5.54159
    2.8979 5.54159
    3.15 5.54159
    3.4021 5.54159
    3.64828 5.54159
    3.88279 5.54159
    4.10012 5.54159
    4.29518 5.54159
    4.4634 5.54159
    4.60084 5.54159
    4.70426 5.54159
    4.77124 5.54159
    4.8 5.54159
    1.5 5.6549
    1.52876 5.6549
    1.59574 5.6549
    1.69916 5.6549
    1.8366 5.6549
    2.00482 5.6549
    2.19988 5.6549
    2.41721 5.6549
    2.65172 5.6549
    2.8979 5.6549
    3.15 5.6549
    3.4021 5.6549
    3.64828 5.6549
    3.88279 5.6549
    4.10012 5.6549
    4.29518 5.6549
    4.4634 5.6549
    4.60084 5.6549
    4.70426 5.6549
    4.77124 5.6549
    4.8 5.6549
    1.5 5.76555
    1.52876 5.76555
    1.59574 5.76555
    1.69916 5.76555
    1.8366 5.76555
    2.00482 5.76555
    2.19988 5.76555
    2.41721 5.76555
    2.65172 5.76555
    2.8979 5.76555
    3.15 5.76555
    3.4021 5.76555
    3.64828 5.76555
    3.88279 5.76555
    4.10012 5.76555
    4.29518 5.76555
    4.4634 5.76555
    4.60084 5.76555
    4.70426 5.76555
    4.77124 5.76555
    4.8 5.76555
    1.5 5.87095
    1.52876 5.87095
    1.59574 5.87095
    1.69916 5.87095
    1.8366 5.87095
    2.00482 5.87095
    2.19988 5.87095
    2.41721 5.87095
    2.65172 5.87095
    2.8979 5.87095
    3.15 5.87095
    3.4021 5.87095
    3.64828 5.87095
    3.88279 5.87095
    4.10012 5.87095
    4.29518 5.87095
    4.4634 5.87095
    4.60084 5.87095
    4.70426 5.87095
    4.77124 5.87095
    4.8 5.87095
    1.5 5.96863
    1.52876 5.96863
    1.59574 5.96863
    1.69916 5.96863
    1.8366 5.96863
    2.00482 5.96863
    2.19988 5.96863
    2.41721 5.96863
    2.65172 5.96863
    2.8979 5.96863
    3.15 5.96863
    3.4021 5.96863
    3.64828 5.96863
    3.88279 5.96863
    4.10012 5.96863
    4.29518 5.96863
    4.4634 5.96863
    4.60084 5.96863
    4.70426 5.96863
    4.77124 5.96863
    4.8 5.96863
    1.5 6.0563
    1.52876 6.0563
    1.59574 6.0563
    1.69916 6.0563
    1.8366 6.0563
    2.00482 6.0563
    2.19988 6.0563
    2.41721 6.0563
    2.65172 6.0563
    2.8979 6.0563
    3.15 6.0563
    3.4021 6.0563
    3.64828 6.0563
    3.88279 6.0563
    4.10012 6.0563
    4.29518 6.0563
    4.4634 6.0563
    4.60084 6.0563
    4.70426 6.0563
    4.77124 6.0563
    4.8 6.0563
    1.5 6.1319
    1.52876 6.1319
    1.59574 6.1319
    1.69916 6.1319
    1.8366 6.1319
    2.00482 6.1319
    2.19988 6.1319
    2.41721 6.1319
    2.65172 6.1319
    2.8979 6.1319
    3.15 6.1319
    3.4021 6.1319
    3.64828 6.1319
    3.88279 6.1319
    4.10012 6.1319
    4.29518 6.1319
    4.4634 6.1319
    4.60084 6.1319
    4.70426 6.1319
    4.77124 6.1319
    4.8 6.1319
    1.5 6.19367
    1.52876 6.19367
    1.59574 6.19367
    1.69916 6.19367
    1.8366 6.19367
    2.00482 6.19367
    2.19988 6.19367
    2.41721 6.19367
    2.65172 6.19367
    2.8979 6.19367
    3.15 6.19367
    3.4021 6.19367
    3.64828 6.19367
    3.88279 6.19367
    4.10012 6.19367
    4.29518 6.19367
    4.4634 6.19367
    4.60084 6.19367
    4.70426 6.19367
    4.77124 6.19367
    4.8 6.19367
    1.5 6.24016
    1.52876 6.24016
    1.59574 6.24016
    1.69916 6.24016
    1.8366 6.24016
    2.00482 6.24016
    2.19988 6.24016
    2.41721 6.24016
    2.65172 6.24016
    2.8979 6.24016
    3.15 6.24016
    3.4021 6.24016
    3.64828 6.24016
    3.88279 6.24016
    4.10012 6.24016
    4.29518 6.24016
    4.4634 6.24016
    4.60084 6.24016
    4.70426 6.24016
    4.77124 6.24016
    4.8 6.24016
    1.5 6.27026
    1.52876 6.27026
    1.59574 6.27026
    1.69916 6.27026
    1.8366 6.27026
    2.00482 6.27026
    2.19988 6.27026
    2.41721 6.27026
    2.65172 6.27026
    2.8979 6.27026
    3.15 6.27026
    3.4021 6.27026
    3.64828 6.27026
    3.88279 6.27026
    4.10012 6.27026
    4.29518 6.27026
    4.4634 6.27026
    4.60084 6.27026
    4.70426 6.27026
    4.77124 6.27026
    4.8 6.27026
    1.5 6.28319
    1.52876 6.28319
    1.59574 6.28319
    1.69916 6.28319
    1.8366 6.28319
    2.00482 6.28319
    2.19988 6.28319
    2.41721 6.28319
    2.65172 6.28319
    2.8979 6.28319
    3.15 6.28319
    3.4021 6.28319
    3.64828 6.28319
    3.88279 6.28319
    4.10012 6.28319
    4.29518 6.28319
    4.4634 6.28319
    4.60084 6.28319
    4.70426 6.28319
    4.77124 6.28319
    4.8 6.28319
    4.8 4.8
    4.81292 4.8
    4.84303 4.8
    4.88951 4.8
    4.95128 4.8
    5.02689 4.8
    5.11456 4.8
    5.21224 4.8
    5.31764 4.8
    5.42829 4.8
    5.54159 4.8
    5.6549 4.8
    5.76555 4.8
    5.87095 4.8
    5.96863 4.8
    6.0563 4.8
    6.1319 4.8
    6.19367 4.8
    6.24016 4.8
    6.27026 4.8
    6.28319 4.8
    4.8 4.81292
    4.81292 4.81292
    4.84303 4.81292
    4.88951 4.81292
    4.95128 4.81292
    5.02689 4.81292
    5.11456 4.81292
    5.21224 4.81292
    5.31764 4.81292
    5.42829 4.81292
    5.54159 4.81292
    5.6549 4.81292
    5.76555 4.81292
    5.87095 4.81292
    5.96863 4.81292
    6.0563 4.81292
    6.1319 4.81292
    6.19367 4.81292
    6.24016 4.81292
    6.27026 4.81292
    6.28319 4.81292
    4.8 4.84303
    4.81292 4.84303
    4.84303 4.84303
    4.88951 4.84303
    4.95128 4.84303
    5.02689 4.84303
    5.11456 4.84303
    5.21224 4.84303
    5.31764 4.84303
    5.42829 4.84303
    5.54159 4.84303
    5.6549 4.84303
    5.76555 4.84303
    5.87095 4.84303
    5.96863 4.84303
    6.0563 4.84303
    6.1319 4.84303
    6.19367 4.84303
    6.24016 4.84303
    6.27026 4.84303
    6.28319 4.84303
    4.8 4.88951
    4.81292 4.88951
    4.84303 4.88951
    4.88951 4.88951
    4.95128 4.88951
    5.02689 4.88951
    5.11456 4.88951
    5.21224 4.88951
    5.31764 4.88951
    5.42829 4.88951
    5.54159 4.88951
    5.6549 4.88951
    5.76555 4.88951
    5.87095 4.88951
    5.96863 4.88951
    6.0563 4.88951
    6.1319 4.88951
    6.19367 4.88951
    6.24016 4.88951
    6.27026 4.88951
    6.28319 4.88951
    4.8 4.95128
    4.81292 4.95128
    4.84303 4.95128
    4.88951 4.95128
    4.95128 4.95128
    5.02689 4.95128
    5.11456 4.95128
    5.21224 4.95128
    5.31764 4.95128
    5.42829 4.95128
    5.54159 4.95128
    5.6549 4.95128
    5.76555 4.95128
    5.87095 4.95128
    5.96863 4.95128
    6.0563 4.95128
    6.1319 4.95128
    6.19367 4.95128
    6.24016 4.95128
    6.27026 4.95128
    6.28319 4.95128
    4.8 5.02689
    4.81292 5.02689
    4.84303 5.02689
    4.88951 5.02689
    4.95128 5.02689
    5.02689 5.02689
    5.11456 5.02689
    5.21224 5.02689
    5.31764 5.02689
    5.42829 5.02689
    5.54159 5.02689
    5.6549 5.02689
    5.76555 5.02689
    5.87095 5.02689
    5.96863 5.02689
    6.0563 5.02689
    6.1319 5.02689
    6.19367 5.02689
    6.24016 5.02689
    6.27026 5.02689
    6.28319 5.02689
    4.8 5.11456
    4.81292 5.11456
    4.84303 5.11456
    4.88951 5.11456
    4.95128 5.11456
    5.02689 5.11456
    5.11456 5.11456
    5.21224 5.11456
    5.31764 5.11456
    5.42829 5.11456
    5.54159 5.11456
    5.6549 5.11456
    5.76555 5.11456
    5.87095 5.11456
    5.96863 5.11456
    6.0563 5.11456
    6.1319 5.11456
    6.19367 5.11456
    6.24016 5.11456
    6.27026 5.11456
    6.28319 5.11456
    4.8 5.21224
    4.81292 5.21224
    4.84303 5.21224
    4.88951 5.21224
    4.95128 5.21224
    5.02689 5.21224
    5.11456 5.21224
    5.21224 5.21224
    5.31764 5.21224
    5.42829 5.21224
    5.54159 5.21224
    5.6549 5.21224
    5.76555 5.21224
    5.87095 5.21224
    5.96863 5.21224
    6.0563 5.21224
    6.1319 5.21224
    6.19367 5.21224
    6.24016 5.21224
    6.27026 5.21224
    6.28319 5.21224
    4.8 5.31764
    4.81292 5.31764
    4.84303 5.31764
    4.88951 5.31764
    4.95128 5.31764
    5.02689 5.31764
    5.11456 5.31764
    5.21224 5.31764
    5.31764 5.31764
    5.42829 5.31764
    5.54159 5.31764
    5.6549 5.31764
    5.76555 5.31764
    5.87095 5.31764
    5.96863 5.31764
    6.0563 5.31764
    6.1319 5.31764
    6.19367 5.31764
    6.24016 5.31764
    6.27026 5.31764
    6.28319 5.31764
    4.8 5.42829
    4.81292 5.42829
    4.84303 5.42829
    4.88951 5.42829
    4.95128 5.42829
    5.02689 5.42829
    5.11456 5.42829
    5.21224 5.42829
    5.31764 5.42829
    5.42829 5.42829
    5.54159 5.42829
    5.6549 5.42829
    5.76555 5.42829
    5.87095 5.42829
    5.96863 5.42829
    6.0563 5.42829
    6.1319 5.42829
    6.19367 5.42829
    6.24016 5.42829
    6.27026 5.42829
    6.28319 5.42829
    4.8 5.54159
    4.81292 5.54159
    4.84303 5.54159
    4.88951 5.54159
    4.95128 5.54159
    5.02689 5.54159
    5.11456 5.54159
    5.21224 5.54159
    5.31764 5.54159
    5.42829 5.54159
    5.54159 5.54159
    5.6549 5.54159
    5.76555 5.54159
    5.87095 5.54159
    5.96863 5.54159
    6.0563 5.54159
    6.1319 5.54159
    6.19367 5.54159
    6.24016 5.54159
    6.27026 5.54159
    6.28319 5.54159
    4.8 5.6549
    4.81292 5.6549
    4.84303 5.6549
    4.88951 5.6549
    4.95128 5.6549
    5.02689 5.6549
    5.11456 5.6549
    5.21224 5.6549
    5.31764 5.6549
    5.42829 5.6549
    5.54159 5.6549
    5.6549 5.6549
    5.76555 5.6549
    5.87095 5.6549
    5.96863 5.6549
    6.0563 5.6549
    6.1319 5.6549
    6.19367 5.6549
    6.24016 5.6549
    6.27026 5.6549
    6.28319 5.6549
    4.8 5.76555
    4.81292 5.76555
    4.84303 5.76555
    4.88951 5.76555
    4.95128 5.76555
    5.02689 5.76555
    5.11456 5.76555
    5.21224 5.76555
    5.31764 5.76555
    5.42829 5.76555
    5.54159 5.76555
    5.6549 5.76555
    5.76555 5.76555
    5.87095 5.76555
    5.96863 5.76555
    6.0563 5.76555
    6.1319 5.76555
    6.19367 5.76555
    6.24016 5.76555
    6.27026 5.76555
    6.28319 5.76555
    4.8 5.87095
    4.81292 5.87095
    4.84303 5.87095
    4.88951 5.87095
    4.95128 5.87095
    5.02689 5.87095
    5.11456 5.87095
    5.21224 5.87095
    5.31764 5.87095
    5.42829 5.87095
    5.54159 5.87095
    5.6549 5.87095
    5.76555 5.87095
    5.87095 5.87095
    5.96863 5.87095
    6.0563 5.87095
    6.1319 5.87095
    6.19367 5.87095
    6.24016 5.87095
    6.27026 5.87095
    6.28319 5.87095
    4.8 5.96863
    4.81292 5.96863
    4.84303 5.96863
    4.88951 5.96863
    4.95128 5.96863
    5.02689 5.96863
    5.11456 5.96863
    5.21224 5.96863
    5.31764 5.96863
    5.42829 5.96863
    5.54159 5.96863
    5.6549 5.96863
    5.76555 5.96863
    5.87095 5.96863
    5.96863 5.96863
    6.0563 5.96863
    6.1319 5.96863
    6.19367 5.96863
    6.24016 5.96863
    6.27026 5.96863
    6.28319 5.96863
    4.8 6.0563
    4.81292 6.0563
    4.84303 6.0563
    4.88951 6.0563
    4.95128 6.0563
    5.02689 6.0563
    5.11456 6.0563
    5.21224 6.0563
    5.31764 6.0563
    5.42829 6.0563
    5.54159 6.0563
    5.6549 6.0563
    5.76555 6.0563
    5.87095 6.0563
    5.96863 6.0563
    6.0563 6.0563
    6.1319 6.0563
    6.19367 6.0563
    6.24016 6.0563
    6.27026 6.0563
    6.28319 6.0563
    4.8 6.1319
    4.81292 6.1319
    4.84303 6.1319
    4.88951 6.1319
    4.95128 6.1319
    5.02689 6.1319
    5.11456 6.1319
    5.21224 6.1319
    5.31764 6.1319
    5.42829 6.1319
    5.54159 6.1319
    5.6549 6.1319
    5.76555 6.1319
    5.87095 6.1319
    5.96863 6.1319
    6.0563 6.1319
    6.1319 6.1319
    6.19367 6.1319
    6.24016 6.1319
    6.27026 6.1319
    6.28319 6.1319
    4.8 6.19367
    4.81292 6.19367
    4.84303 6.19367
    4.88951 6.19367
    4.95128 6.19367
    5.02689 6.19367
    5.11456 6.19367
    5.21224 6.19367
    5.31764 6.19367
    5.42829 6.19367
    5.54159 6.19367
    5.6549 6.19367
    5.76555 6.19367
    5.87095 6.19367
    5.96863 6.19367
    6.0563 6.19367
    6.1319 6.19367
    6.19367 6.19367
    6.24016 6.19367
    6.27026 6.19367
    6.28319 6.19367
    4.8 6.24016
    4.81292 6.24016
    4.84303 6.24016
    4.88951 6.24016
    4.95128 6.24016
    5.02689 6.24016
    5.11456 6.24016
    5.21224 6.24016
    5.31764 6.24016
    5.42829 6.24016
    5.54159 6.24016
    5.6549 6.24016
    5.76555 6.24016
    5.87095 6.24016
    5.96863 6.24016
    6.0563 6.24016
    6.1319 6.24016
    6.19367 6.24016
    6.24016 6.24016
    6.27026 6.24016
    6.28319 6.24016
    4.8 6.27026
    4.81292 6.27026
    4.84303 6.27026
    4.88951 6.27026
    4.95128 6.27026
    5.02689 6.27026
    5.11456 6.27026
    5.21224 6.27026
    5.31764 6.27026
    5.42829 6.27026
    5.54159 6.27026
    5.6549 6.27026
    5.76555 6.27026
    5.87095 6.27026
    5.96863 6.27026
    6.0563 6.27026
    6.1319 6.27026
    6.19367 6.27026
    6.24016 6.27026
    6.27026 6.27026
    6.28319 6.27026
    4.8 6.28319
    4.81292 6.28319
    4.84303 6.28319
    4.88951 6.28319
    4.95128 6.28319
    5.02689 6.28319
    5.11456 6.28319
    5.21224 6.28319
    5.31764 6.28319
    5.42829 6.28319
    5.54159 6.28319
    5.6549 6.28319
    5.76555 6.28319
    5.87095 6.28319
    5.96863 6.28319
    6.0563 6.28319
    6.1319 6.28319
    6.19367 6.28319
    6.24016 6.28319
    6.27026 6.28319
    6.28319 6.28319
    </POINTS>
</NEKTAR>
