$MeshFormat
2.2 0 8
$EndMeshFormat
$Nodes
64
1 0 0 0
2 1 0 0
3 2.441592653589793 0 0
4 2.941592653589793 0 0
5 3.341592653589793 0 0
6 3.841592653589793 0 0
7 5.283185307179586 0 0
8 6.283185307179586 0 0
9 0 1 0
10 1 1 0
11 2.441592653589793 1 0
12 2.941592653589793 1 0
13 3.341592653589793 1 0
14 3.841592653589793 1 0
15 5.283185307179586 1 0
16 6.283185307179586 1 0
17 0 2.441592653589793 0
18 1 2.441592653589793 0
19 2.441592653589793 2.441592653589793 0
20 2.941592653589793 2.441592653589793 0
21 3.341592653589793 2.441592653589793 0
22 3.841592653589793 2.441592653589793 0
23 5.283185307179586 2.441592653589793 0
24 6.283185307179586 2.441592653589793 0
25 0 2.941592653589793 0
26 1 2.941592653589793 0
27 2.441592653589793 2.941592653589793 0
28 2.941592653589793 2.941592653589793 0
29 3.341592653589793 2.941592653589793 0
30 3.841592653589793 2.941592653589793 0
31 5.283185307179586 2.941592653589793 0
32 6.283185307179586 2.941592653589793 0
33 0 3.341592653589793 0
34 1 3.341592653589793 0
35 2.441592653589793 3.341592653589793 0
36 2.941592653589793 3.341592653589793 0
37 3.341592653589793 3.341592653589793 0
38 3.841592653589793 3.341592653589793 0
39 5.283185307179586 3.341592653589793 0
40 6.283185307179586 3.341592653589793 0
41 0 3.841592653589793 0
42 1 3.841592653589793 0
43 2.441592653589793 3.841592653589793 0
44 2.941592653589793 3.841592653589793 0
45 3.341592653589793 3.841592653589793 0
46 3.841592653589793 3.841592653589793 0
47 5.283185307179586 3.841592653589793 0
48 6.283185307179586 3.841592653589793 0
49 0 5.283185307179586 0
50 1 5.283185307179586 0
51 2.441592653589793 5.283185307179586 0
52 2.941592653589793 5.283185307179586 0
53 3.341592653589793 5.283185307179586 0
54 3.841592653589793 5.283185307179586 0
55 5.283185307179586 5.283185307179586 0
56 6.283185307179586 5.283185307179586 0
57 0 6.283185307179586 0
58 1 6.283185307179586 0
59 2.441592653589793 6.283185307179586 0
60 2.941592653589793 6.283185307179586 0
61 3.341592653589793 6.283185307179586 0
62 3.841592653589793 6.283185307179586 0
63 5.283185307179586 6.283185307179586 0
64 6.283185307179586 6.283185307179586 0
$EndNodes
$Elements
77
1 1 2 1 1 1 2
2 1 2 1 2 2 3
3 1 2 1 3 3 4
4 1 2 1 4 4 5
5 1 2 1 5 5 6
6 1 2 1 6 6 7
7 1 2 1 7 7 8
8 1 2 3 50 57 58
9 1 2 3 51 58 59
10 1 2 3 52 59 60
11 1 2 3 53 60 61
12 1 2 3 54 61 62
13 1 2 3 55 62 63
14 1 2 3 56 63 64
15 1 2 4 57 1 9
16 1 2 4 58 9 17
17 1 2 4 59 17 25
18 1 2 4 60 25 33
19 1 2 4 61 33 41
20 1 2 4 62 41 49
21 1 2 4 63 49 57
22 1 2 2 106 8 16
23 1 2 2 107 16 24
24 1 2 2 108 24 32
25 1 2 2 109 32 40
26 1 2 2 110 40 48
27 1 2 2 111 48 56
28 1 2 2 112 56 64
29 3 2 10 1 1 2 10 9
30 3 2 10 2 2 3 11 10
31 3 2 10 3 3 4 12 11
32 3 2 10 4 4 5 13 12
33 3 2 10 5 5 6 14 13
34 3 2 10 6 6 7 15 14
35 3 2 10 7 7 8 16 15
36 3 2 10 8 9 10 18 17
37 3 2 10 9 10 11 19 18
38 3 2 10 10 11 12 20 19
39 3 2 10 11 12 13 21 20
40 3 2 10 12 13 14 22 21
41 3 2 10 13 14 15 23 22
42 3 2 10 14 15 16 24 23
43 3 2 10 15 17 18 26 25
44 3 2 10 16 18 19 27 26
45 3 2 10 17 19 20 28 27
46 3 2 10 18 20 21 29 28
47 3 2 10 19 21 22 30 29
48 3 2 10 20 22 23 31 30
49 3 2 10 21 23 24 32 31
50 3 2 10 22 25 26 34 33
51 3 2 10 23 26 27 35 34
52 3 2 10 24 27 28 36 35
53 3 2 10 25 28 29 37 36
54 3 2 10 26 29 30 38 37
55 3 2 10 27 30 31 39 38
56 3 2 10 28 31 32 40 39
57 3 2 10 29 33 34 42 41
58 3 2 10 30 34 35 43 42
59 3 2 10 31 35 36 44 43
60 3 2 10 32 36 37 45 44
61 3 2 10 33 37 38 46 45
62 3 2 10 34 38 39 47 46
63 3 2 10 35 39 40 48 47
64 3 2 10 36 41 42 50 49
65 3 2 10 37 42 43 51 50
66 3 2 10 38 43 44 52 51
67 3 2 10 39 44 45 53 52
68 3 2 10 40 45 46 54 53
69 3 2 10 41 46 47 55 54
70 3 2 10 42 47 48 56 55
71 3 2 10 43 49 50 58 57
72 3 2 10 44 50 51 59 58
73 3 2 10 45 51 52 60 59
74 3 2 10 46 52 53 61 60
75 3 2 10 47 53 54 62 61
76 3 2 10 48 54 55 63 62
77 3 2 10 49 55 56 64 63
$EndElements
