$MeshFormat
4.1 0 8
$EndMeshFormat
$Entities
196 364 169 0
1 0 0 0 0 
2 0.483321946706122 0 0 0 
3 0.966643893412244 0 0 0 
4 1.449965840118366 0 0 0 
5 1.933287786824488 0 0 0 
6 2.41660973353061 0 0 0 
7 2.899931680236732 0 0 0 
8 3.383253626942854 0 0 0 
9 3.866575573648976 0 0 0 
10 4.349897520355098 0 0 0 
11 4.83321946706122 0 0 0 
12 5.316541413767342 0 0 0 
13 5.799863360473464 0 0 0 
14 6.283185307179586 0 0 0 
15 0 0.483321946706122 0 0 
16 0.483321946706122 0.483321946706122 0 0 
17 0.966643893412244 0.483321946706122 0 0 
18 1.449965840118366 0.483321946706122 0 0 
19 1.933287786824488 0.483321946706122 0 0 
20 2.41660973353061 0.483321946706122 0 0 
21 2.899931680236732 0.483321946706122 0 0 
22 3.383253626942854 0.483321946706122 0 0 
23 3.866575573648976 0.483321946706122 0 0 
24 4.349897520355098 0.483321946706122 0 0 
25 4.83321946706122 0.483321946706122 0 0 
26 5.316541413767342 0.483321946706122 0 0 
27 5.799863360473464 0.483321946706122 0 0 
28 6.283185307179586 0.483321946706122 0 0 
29 0 0.966643893412244 0 0 
30 0.483321946706122 0.966643893412244 0 0 
31 0.966643893412244 0.966643893412244 0 0 
32 1.449965840118366 0.966643893412244 0 0 
33 1.933287786824488 0.966643893412244 0 0 
34 2.41660973353061 0.966643893412244 0 0 
35 2.899931680236732 0.966643893412244 0 0 
36 3.383253626942854 0.966643893412244 0 0 
37 3.866575573648976 0.966643893412244 0 0 
38 4.349897520355098 0.966643893412244 0 0 
39 4.83321946706122 0.966643893412244 0 0 
40 5.316541413767342 0.966643893412244 0 0 
41 5.799863360473464 0.966643893412244 0 0 
42 6.283185307179586 0.966643893412244 0 0 
43 0 1.449965840118366 0 0 
44 0.483321946706122 1.449965840118366 0 0 
45 0.966643893412244 1.449965840118366 0 0 
46 1.449965840118366 1.449965840118366 0 0 
47 1.933287786824488 1.449965840118366 0 0 
48 2.41660973353061 1.449965840118366 0 0 
49 2.899931680236732 1.449965840118366 0 0 
50 3.383253626942854 1.449965840118366 0 0 
51 3.866575573648976 1.449965840118366 0 0 
52 4.349897520355098 1.449965840118366 0 0 
53 4.83321946706122 1.449965840118366 0 0 
54 5.316541413767342 1.449965840118366 0 0 
55 5.799863360473464 1.449965840118366 0 0 
56 6.283185307179586 1.449965840118366 0 0 
57 0 1.933287786824488 0 0 
58 0.483321946706122 1.933287786824488 0 0 
59 0.966643893412244 1.933287786824488 0 0 
60 1.449965840118366 1.933287786824488 0 0 
61 1.933287786824488 1.933287786824488 0 0 
62 2.41660973353061 1.933287786824488 0 0 
63 2.899931680236732 1.933287786824488 0 0 
64 3.383253626942854 1.933287786824488 0 0 
65 3.866575573648976 1.933287786824488 0 0 
66 4.349897520355098 1.933287786824488 0 0 
67 4.83321946706122 1.933287786824488 0 0 
68 5.316541413767342 1.933287786824488 0 0 
69 5.799863360473464 1.933287786824488 0 0 
70 6.283185307179586 1.933287786824488 0 0 
71 0 2.41660973353061 0 0 
72 0.483321946706122 2.41660973353061 0 0 
73 0.966643893412244 2.41660973353061 0 0 
74 1.449965840118366 2.41660973353061 0 0 
75 1.933287786824488 2.41660973353061 0 0 
76 2.41660973353061 2.41660973353061 0 0 
77 2.899931680236732 2.41660973353061 0 0 
78 3.383253626942854 2.41660973353061 0 0 
79 3.866575573648976 2.41660973353061 0 0 
80 4.349897520355098 2.41660973353061 0 0 
81 4.83321946706122 2.41660973353061 0 0 
82 5.316541413767342 2.41660973353061 0 0 
83 5.799863360473464 2.41660973353061 0 0 
84 6.283185307179586 2.41660973353061 0 0 
85 0 2.899931680236732 0 0 
86 0.483321946706122 2.899931680236732 0 0 
87 0.966643893412244 2.899931680236732 0 0 
88 1.449965840118366 2.899931680236732 0 0 
89 1.933287786824488 2.899931680236732 0 0 
90 2.41660973353061 2.899931680236732 0 0 
91 2.899931680236732 2.899931680236732 0 0 
92 3.383253626942854 2.899931680236732 0 0 
93 3.866575573648976 2.899931680236732 0 0 
94 4.349897520355098 2.899931680236732 0 0 
95 4.83321946706122 2.899931680236732 0 0 
96 5.316541413767342 2.899931680236732 0 0 
97 5.799863360473464 2.899931680236732 0 0 
98 6.283185307179586 2.899931680236732 0 0 
99 0 3.383253626942854 0 0 
100 0.483321946706122 3.383253626942854 0 0 
101 0.966643893412244 3.383253626942854 0 0 
102 1.449965840118366 3.383253626942854 0 0 
103 1.933287786824488 3.383253626942854 0 0 
104 2.41660973353061 3.383253626942854 0 0 
105 2.899931680236732 3.383253626942854 0 0 
106 3.383253626942854 3.383253626942854 0 0 
107 3.866575573648976 3.383253626942854 0 0 
108 4.349897520355098 3.383253626942854 0 0 
109 4.83321946706122 3.383253626942854 0 0 
110 5.316541413767342 3.383253626942854 0 0 
111 5.799863360473464 3.383253626942854 0 0 
112 6.283185307179586 3.383253626942854 0 0 
113 0 3.866575573648976 0 0 
114 0.483321946706122 3.866575573648976 0 0 
115 0.966643893412244 3.866575573648976 0 0 
116 1.449965840118366 3.866575573648976 0 0 
117 1.933287786824488 3.866575573648976 0 0 
118 2.41660973353061 3.866575573648976 0 0 
119 2.899931680236732 3.866575573648976 0 0 
120 3.383253626942854 3.866575573648976 0 0 
121 3.866575573648976 3.866575573648976 0 0 
122 4.349897520355098 3.866575573648976 0 0 
123 4.83321946706122 3.866575573648976 0 0 
124 5.316541413767342 3.866575573648976 0 0 
125 5.799863360473464 3.866575573648976 0 0 
126 6.283185307179586 3.866575573648976 0 0 
127 0 4.349897520355098 0 0 
128 0.483321946706122 4.349897520355098 0 0 
129 0.966643893412244 4.349897520355098 0 0 
130 1.449965840118366 4.349897520355098 0 0 
131 1.933287786824488 4.349897520355098 0 0 
132 2.41660973353061 4.349897520355098 0 0 
133 2.899931680236732 4.349897520355098 0 0 
134 3.383253626942854 4.349897520355098 0 0 
135 3.866575573648976 4.349897520355098 0 0 
136 4.349897520355098 4.349897520355098 0 0 
137 4.83321946706122 4.349897520355098 0 0 
138 5.316541413767342 4.349897520355098 0 0 
139 5.799863360473464 4.349897520355098 0 0 
140 6.283185307179586 4.349897520355098 0 0 
141 0 4.83321946706122 0 0 
142 0.483321946706122 4.83321946706122 0 0 
143 0.966643893412244 4.83321946706122 0 0 
144 1.449965840118366 4.83321946706122 0 0 
145 1.933287786824488 4.83321946706122 0 0 
146 2.41660973353061 4.83321946706122 0 0 
147 2.899931680236732 4.83321946706122 0 0 
148 3.383253626942854 4.83321946706122 0 0 
149 3.866575573648976 4.83321946706122 0 0 
150 4.349897520355098 4.83321946706122 0 0 
151 4.83321946706122 4.83321946706122 0 0 
152 5.316541413767342 4.83321946706122 0 0 
153 5.799863360473464 4.83321946706122 0 0 
154 6.283185307179586 4.83321946706122 0 0 
155 0 5.316541413767342 0 0 
156 0.483321946706122 5.316541413767342 0 0 
157 0.966643893412244 5.316541413767342 0 0 
158 1.449965840118366 5.316541413767342 0 0 
159 1.933287786824488 5.316541413767342 0 0 
160 2.41660973353061 5.316541413767342 0 0 
161 2.899931680236732 5.316541413767342 0 0 
162 3.383253626942854 5.316541413767342 0 0 
163 3.866575573648976 5.316541413767342 0 0 
164 4.349897520355098 5.316541413767342 0 0 
165 4.83321946706122 5.316541413767342 0 0 
166 5.316541413767342 5.316541413767342 0 0 
167 5.799863360473464 5.316541413767342 0 0 
168 6.283185307179586 5.316541413767342 0 0 
169 0 5.799863360473464 0 0 
170 0.483321946706122 5.799863360473464 0 0 
171 0.966643893412244 5.799863360473464 0 0 
172 1.449965840118366 5.799863360473464 0 0 
173 1.933287786824488 5.799863360473464 0 0 
174 2.41660973353061 5.799863360473464 0 0 
175 2.899931680236732 5.799863360473464 0 0 
176 3.383253626942854 5.799863360473464 0 0 
177 3.866575573648976 5.799863360473464 0 0 
178 4.349897520355098 5.799863360473464 0 0 
179 4.83321946706122 5.799863360473464 0 0 
180 5.316541413767342 5.799863360473464 0 0 
181 5.799863360473464 5.799863360473464 0 0 
182 6.283185307179586 5.799863360473464 0 0 
183 0 6.283185307179586 0 0 
184 0.483321946706122 6.283185307179586 0 0 
185 0.966643893412244 6.283185307179586 0 0 
186 1.449965840118366 6.283185307179586 0 0 
187 1.933287786824488 6.283185307179586 0 0 
188 2.41660973353061 6.283185307179586 0 0 
189 2.899931680236732 6.283185307179586 0 0 
190 3.383253626942854 6.283185307179586 0 0 
191 3.866575573648976 6.283185307179586 0 0 
192 4.349897520355098 6.283185307179586 0 0 
193 4.83321946706122 6.283185307179586 0 0 
194 5.316541413767342 6.283185307179586 0 0 
195 5.799863360473464 6.283185307179586 0 0 
196 6.283185307179586 6.283185307179586 0 0 
1 -1.000000000028756e-07 -1e-07 -1e-07 0.483322046706122 1e-07 1e-07 1 1 2 1 -2 
2 0.483321846706122 -1e-07 -1e-07 0.9666439934122439 1e-07 1e-07 1 1 2 2 -3 
3 0.966643793412244 -1e-07 -1e-07 1.449965940118366 1e-07 1e-07 1 1 2 3 -4 
4 1.449965740118366 -1e-07 -1e-07 1.933287886824488 1e-07 1e-07 1 1 2 4 -5 
5 1.933287686824488 -1e-07 -1e-07 2.41660983353061 1e-07 1e-07 1 1 2 5 -6 
6 2.41660963353061 -1e-07 -1e-07 2.899931780236732 1e-07 1e-07 1 1 2 6 -7 
7 2.899931580236732 -1e-07 -1e-07 3.383253726942854 1e-07 1e-07 1 1 2 7 -8 
8 3.383253526942854 -1e-07 -1e-07 3.866575673648976 1e-07 1e-07 1 1 2 8 -9 
9 3.866575473648976 -1e-07 -1e-07 4.349897620355098 1e-07 1e-07 1 1 2 9 -10 
10 4.349897420355098 -1e-07 -1e-07 4.83321956706122 1e-07 1e-07 1 1 2 10 -11 
11 4.833219367061219 -1e-07 -1e-07 5.316541513767342 1e-07 1e-07 1 1 2 11 -12 
12 5.316541313767342 -1e-07 -1e-07 5.799863460473464 1e-07 1e-07 1 1 2 12 -13 
13 5.799863260473463 -1e-07 -1e-07 6.283185407179587 1e-07 1e-07 1 1 2 13 -14 
14 -1.000000000028756e-07 0.483321846706122 -1e-07 0.483322046706122 0.483322046706122 1e-07 0 2 15 -16 
15 0.483321846706122 0.483321846706122 -1e-07 0.9666439934122439 0.483322046706122 1e-07 0 2 16 -17 
16 0.966643793412244 0.483321846706122 -1e-07 1.449965940118366 0.483322046706122 1e-07 0 2 17 -18 
17 1.449965740118366 0.483321846706122 -1e-07 1.933287886824488 0.483322046706122 1e-07 0 2 18 -19 
18 1.933287686824488 0.483321846706122 -1e-07 2.41660983353061 0.483322046706122 1e-07 0 2 19 -20 
19 2.41660963353061 0.483321846706122 -1e-07 2.899931780236732 0.483322046706122 1e-07 0 2 20 -21 
20 2.899931580236732 0.483321846706122 -1e-07 3.383253726942854 0.483322046706122 1e-07 0 2 21 -22 
21 3.383253526942854 0.483321846706122 -1e-07 3.866575673648976 0.483322046706122 1e-07 0 2 22 -23 
22 3.866575473648976 0.483321846706122 -1e-07 4.349897620355098 0.483322046706122 1e-07 0 2 23 -24 
23 4.349897420355098 0.483321846706122 -1e-07 4.83321956706122 0.483322046706122 1e-07 0 2 24 -25 
24 4.833219367061219 0.483321846706122 -1e-07 5.316541513767342 0.483322046706122 1e-07 0 2 25 -26 
25 5.316541313767342 0.483321846706122 -1e-07 5.799863460473464 0.483322046706122 1e-07 0 2 26 -27 
26 5.799863260473463 0.483321846706122 -1e-07 6.283185407179587 0.483322046706122 1e-07 0 2 27 -28 
27 -1.000000000028756e-07 0.966643793412244 -1e-07 0.483322046706122 0.9666439934122439 1e-07 0 2 29 -30 
28 0.483321846706122 0.966643793412244 -1e-07 0.9666439934122439 0.9666439934122439 1e-07 0 2 30 -31 
29 0.966643793412244 0.966643793412244 -1e-07 1.449965940118366 0.9666439934122439 1e-07 0 2 31 -32 
30 1.449965740118366 0.966643793412244 -1e-07 1.933287886824488 0.9666439934122439 1e-07 0 2 32 -33 
31 1.933287686824488 0.966643793412244 -1e-07 2.41660983353061 0.9666439934122439 1e-07 0 2 33 -34 
32 2.41660963353061 0.966643793412244 -1e-07 2.899931780236732 0.9666439934122439 1e-07 0 2 34 -35 
33 2.899931580236732 0.966643793412244 -1e-07 3.383253726942854 0.9666439934122439 1e-07 0 2 35 -36 
34 3.383253526942854 0.966643793412244 -1e-07 3.866575673648976 0.9666439934122439 1e-07 0 2 36 -37 
35 3.866575473648976 0.966643793412244 -1e-07 4.349897620355098 0.9666439934122439 1e-07 0 2 37 -38 
36 4.349897420355098 0.966643793412244 -1e-07 4.83321956706122 0.9666439934122439 1e-07 0 2 38 -39 
37 4.833219367061219 0.966643793412244 -1e-07 5.316541513767342 0.9666439934122439 1e-07 0 2 39 -40 
38 5.316541313767342 0.966643793412244 -1e-07 5.799863460473464 0.9666439934122439 1e-07 0 2 40 -41 
39 5.799863260473463 0.966643793412244 -1e-07 6.283185407179587 0.9666439934122439 1e-07 0 2 41 -42 
40 -1.000000000028756e-07 1.449965740118366 -1e-07 0.483322046706122 1.449965940118366 1e-07 0 2 43 -44 
41 0.483321846706122 1.449965740118366 -1e-07 0.9666439934122439 1.449965940118366 1e-07 0 2 44 -45 
42 0.966643793412244 1.449965740118366 -1e-07 1.449965940118366 1.449965940118366 1e-07 0 2 45 -46 
43 1.449965740118366 1.449965740118366 -1e-07 1.933287886824488 1.449965940118366 1e-07 0 2 46 -47 
44 1.933287686824488 1.449965740118366 -1e-07 2.41660983353061 1.449965940118366 1e-07 0 2 47 -48 
45 2.41660963353061 1.449965740118366 -1e-07 2.899931780236732 1.449965940118366 1e-07 0 2 48 -49 
46 2.899931580236732 1.449965740118366 -1e-07 3.383253726942854 1.449965940118366 1e-07 0 2 49 -50 
47 3.383253526942854 1.449965740118366 -1e-07 3.866575673648976 1.449965940118366 1e-07 0 2 50 -51 
48 3.866575473648976 1.449965740118366 -1e-07 4.349897620355098 1.449965940118366 1e-07 0 2 51 -52 
49 4.349897420355098 1.449965740118366 -1e-07 4.83321956706122 1.449965940118366 1e-07 0 2 52 -53 
50 4.833219367061219 1.449965740118366 -1e-07 5.316541513767342 1.449965940118366 1e-07 0 2 53 -54 
51 5.316541313767342 1.449965740118366 -1e-07 5.799863460473464 1.449965940118366 1e-07 0 2 54 -55 
52 5.799863260473463 1.449965740118366 -1e-07 6.283185407179587 1.449965940118366 1e-07 0 2 55 -56 
53 -1.000000000028756e-07 1.933287686824488 -1e-07 0.483322046706122 1.933287886824488 1e-07 0 2 57 -58 
54 0.483321846706122 1.933287686824488 -1e-07 0.9666439934122439 1.933287886824488 1e-07 0 2 58 -59 
55 0.966643793412244 1.933287686824488 -1e-07 1.449965940118366 1.933287886824488 1e-07 0 2 59 -60 
56 1.449965740118366 1.933287686824488 -1e-07 1.933287886824488 1.933287886824488 1e-07 0 2 60 -61 
57 1.933287686824488 1.933287686824488 -1e-07 2.41660983353061 1.933287886824488 1e-07 0 2 61 -62 
58 2.41660963353061 1.933287686824488 -1e-07 2.899931780236732 1.933287886824488 1e-07 0 2 62 -63 
59 2.899931580236732 1.933287686824488 -1e-07 3.383253726942854 1.933287886824488 1e-07 0 2 63 -64 
60 3.383253526942854 1.933287686824488 -1e-07 3.866575673648976 1.933287886824488 1e-07 0 2 64 -65 
61 3.866575473648976 1.933287686824488 -1e-07 4.349897620355098 1.933287886824488 1e-07 0 2 65 -66 
62 4.349897420355098 1.933287686824488 -1e-07 4.83321956706122 1.933287886824488 1e-07 0 2 66 -67 
63 4.833219367061219 1.933287686824488 -1e-07 5.316541513767342 1.933287886824488 1e-07 0 2 67 -68 
64 5.316541313767342 1.933287686824488 -1e-07 5.799863460473464 1.933287886824488 1e-07 0 2 68 -69 
65 5.799863260473463 1.933287686824488 -1e-07 6.283185407179587 1.933287886824488 1e-07 0 2 69 -70 
66 -1.000000000028756e-07 2.41660963353061 -1e-07 0.483322046706122 2.41660983353061 1e-07 0 2 71 -72 
67 0.483321846706122 2.41660963353061 -1e-07 0.9666439934122439 2.41660983353061 1e-07 0 2 72 -73 
68 0.966643793412244 2.41660963353061 -1e-07 1.449965940118366 2.41660983353061 1e-07 0 2 73 -74 
69 1.449965740118366 2.41660963353061 -1e-07 1.933287886824488 2.41660983353061 1e-07 0 2 74 -75 
70 1.933287686824488 2.41660963353061 -1e-07 2.41660983353061 2.41660983353061 1e-07 0 2 75 -76 
71 2.41660963353061 2.41660963353061 -1e-07 2.899931780236732 2.41660983353061 1e-07 0 2 76 -77 
72 2.899931580236732 2.41660963353061 -1e-07 3.383253726942854 2.41660983353061 1e-07 0 2 77 -78 
73 3.383253526942854 2.41660963353061 -1e-07 3.866575673648976 2.41660983353061 1e-07 0 2 78 -79 
74 3.866575473648976 2.41660963353061 -1e-07 4.349897620355098 2.41660983353061 1e-07 0 2 79 -80 
75 4.349897420355098 2.41660963353061 -1e-07 4.83321956706122 2.41660983353061 1e-07 0 2 80 -81 
76 4.833219367061219 2.41660963353061 -1e-07 5.316541513767342 2.41660983353061 1e-07 0 2 81 -82 
77 5.316541313767342 2.41660963353061 -1e-07 5.799863460473464 2.41660983353061 1e-07 0 2 82 -83 
78 5.799863260473463 2.41660963353061 -1e-07 6.283185407179587 2.41660983353061 1e-07 0 2 83 -84 
79 -1.000000000028756e-07 2.899931580236732 -1e-07 0.483322046706122 2.899931780236732 1e-07 0 2 85 -86 
80 0.483321846706122 2.899931580236732 -1e-07 0.9666439934122439 2.899931780236732 1e-07 0 2 86 -87 
81 0.966643793412244 2.899931580236732 -1e-07 1.449965940118366 2.899931780236732 1e-07 0 2 87 -88 
82 1.449965740118366 2.899931580236732 -1e-07 1.933287886824488 2.899931780236732 1e-07 0 2 88 -89 
83 1.933287686824488 2.899931580236732 -1e-07 2.41660983353061 2.899931780236732 1e-07 0 2 89 -90 
84 2.41660963353061 2.899931580236732 -1e-07 2.899931780236732 2.899931780236732 1e-07 0 2 90 -91 
85 2.899931580236732 2.899931580236732 -1e-07 3.383253726942854 2.899931780236732 1e-07 0 2 91 -92 
86 3.383253526942854 2.899931580236732 -1e-07 3.866575673648976 2.899931780236732 1e-07 0 2 92 -93 
87 3.866575473648976 2.899931580236732 -1e-07 4.349897620355098 2.899931780236732 1e-07 0 2 93 -94 
88 4.349897420355098 2.899931580236732 -1e-07 4.83321956706122 2.899931780236732 1e-07 0 2 94 -95 
89 4.833219367061219 2.899931580236732 -1e-07 5.316541513767342 2.899931780236732 1e-07 0 2 95 -96 
90 5.316541313767342 2.899931580236732 -1e-07 5.799863460473464 2.899931780236732 1e-07 0 2 96 -97 
91 5.799863260473463 2.899931580236732 -1e-07 6.283185407179587 2.899931780236732 1e-07 0 2 97 -98 
92 -1.000000000028756e-07 3.383253526942854 -1e-07 0.483322046706122 3.383253726942854 1e-07 0 2 99 -100 
93 0.483321846706122 3.383253526942854 -1e-07 0.9666439934122439 3.383253726942854 1e-07 0 2 100 -101 
94 0.966643793412244 3.383253526942854 -1e-07 1.449965940118366 3.383253726942854 1e-07 0 2 101 -102 
95 1.449965740118366 3.383253526942854 -1e-07 1.933287886824488 3.383253726942854 1e-07 0 2 102 -103 
96 1.933287686824488 3.383253526942854 -1e-07 2.41660983353061 3.383253726942854 1e-07 0 2 103 -104 
97 2.41660963353061 3.383253526942854 -1e-07 2.899931780236732 3.383253726942854 1e-07 0 2 104 -105 
98 2.899931580236732 3.383253526942854 -1e-07 3.383253726942854 3.383253726942854 1e-07 0 2 105 -106 
99 3.383253526942854 3.383253526942854 -1e-07 3.866575673648976 3.383253726942854 1e-07 0 2 106 -107 
100 3.866575473648976 3.383253526942854 -1e-07 4.349897620355098 3.383253726942854 1e-07 0 2 107 -108 
101 4.349897420355098 3.383253526942854 -1e-07 4.83321956706122 3.383253726942854 1e-07 0 2 108 -109 
102 4.833219367061219 3.383253526942854 -1e-07 5.316541513767342 3.383253726942854 1e-07 0 2 109 -110 
103 5.316541313767342 3.383253526942854 -1e-07 5.799863460473464 3.383253726942854 1e-07 0 2 110 -111 
104 5.799863260473463 3.383253526942854 -1e-07 6.283185407179587 3.383253726942854 1e-07 0 2 111 -112 
105 -1.000000000028756e-07 3.866575473648976 -1e-07 0.483322046706122 3.866575673648976 1e-07 0 2 113 -114 
106 0.483321846706122 3.866575473648976 -1e-07 0.9666439934122439 3.866575673648976 1e-07 0 2 114 -115 
107 0.966643793412244 3.866575473648976 -1e-07 1.449965940118366 3.866575673648976 1e-07 0 2 115 -116 
108 1.449965740118366 3.866575473648976 -1e-07 1.933287886824488 3.866575673648976 1e-07 0 2 116 -117 
109 1.933287686824488 3.866575473648976 -1e-07 2.41660983353061 3.866575673648976 1e-07 0 2 117 -118 
110 2.41660963353061 3.866575473648976 -1e-07 2.899931780236732 3.866575673648976 1e-07 0 2 118 -119 
111 2.899931580236732 3.866575473648976 -1e-07 3.383253726942854 3.866575673648976 1e-07 0 2 119 -120 
112 3.383253526942854 3.866575473648976 -1e-07 3.866575673648976 3.866575673648976 1e-07 0 2 120 -121 
113 3.866575473648976 3.866575473648976 -1e-07 4.349897620355098 3.866575673648976 1e-07 0 2 121 -122 
114 4.349897420355098 3.866575473648976 -1e-07 4.83321956706122 3.866575673648976 1e-07 0 2 122 -123 
115 4.833219367061219 3.866575473648976 -1e-07 5.316541513767342 3.866575673648976 1e-07 0 2 123 -124 
116 5.316541313767342 3.866575473648976 -1e-07 5.799863460473464 3.866575673648976 1e-07 0 2 124 -125 
117 5.799863260473463 3.866575473648976 -1e-07 6.283185407179587 3.866575673648976 1e-07 0 2 125 -126 
118 -1.000000000028756e-07 4.349897420355098 -1e-07 0.483322046706122 4.349897620355098 1e-07 0 2 127 -128 
119 0.483321846706122 4.349897420355098 -1e-07 0.9666439934122439 4.349897620355098 1e-07 0 2 128 -129 
120 0.966643793412244 4.349897420355098 -1e-07 1.449965940118366 4.349897620355098 1e-07 0 2 129 -130 
121 1.449965740118366 4.349897420355098 -1e-07 1.933287886824488 4.349897620355098 1e-07 0 2 130 -131 
122 1.933287686824488 4.349897420355098 -1e-07 2.41660983353061 4.349897620355098 1e-07 0 2 131 -132 
123 2.41660963353061 4.349897420355098 -1e-07 2.899931780236732 4.349897620355098 1e-07 0 2 132 -133 
124 2.899931580236732 4.349897420355098 -1e-07 3.383253726942854 4.349897620355098 1e-07 0 2 133 -134 
125 3.383253526942854 4.349897420355098 -1e-07 3.866575673648976 4.349897620355098 1e-07 0 2 134 -135 
126 3.866575473648976 4.349897420355098 -1e-07 4.349897620355098 4.349897620355098 1e-07 0 2 135 -136 
127 4.349897420355098 4.349897420355098 -1e-07 4.83321956706122 4.349897620355098 1e-07 0 2 136 -137 
128 4.833219367061219 4.349897420355098 -1e-07 5.316541513767342 4.349897620355098 1e-07 0 2 137 -138 
129 5.316541313767342 4.349897420355098 -1e-07 5.799863460473464 4.349897620355098 1e-07 0 2 138 -139 
130 5.799863260473463 4.349897420355098 -1e-07 6.283185407179587 4.349897620355098 1e-07 0 2 139 -140 
131 -1.000000000028756e-07 4.833219367061219 -1e-07 0.483322046706122 4.83321956706122 1e-07 0 2 141 -142 
132 0.483321846706122 4.833219367061219 -1e-07 0.9666439934122439 4.83321956706122 1e-07 0 2 142 -143 
133 0.966643793412244 4.833219367061219 -1e-07 1.449965940118366 4.83321956706122 1e-07 0 2 143 -144 
134 1.449965740118366 4.833219367061219 -1e-07 1.933287886824488 4.83321956706122 1e-07 0 2 144 -145 
135 1.933287686824488 4.833219367061219 -1e-07 2.41660983353061 4.83321956706122 1e-07 0 2 145 -146 
136 2.41660963353061 4.833219367061219 -1e-07 2.899931780236732 4.83321956706122 1e-07 0 2 146 -147 
137 2.899931580236732 4.833219367061219 -1e-07 3.383253726942854 4.83321956706122 1e-07 0 2 147 -148 
138 3.383253526942854 4.833219367061219 -1e-07 3.866575673648976 4.83321956706122 1e-07 0 2 148 -149 
139 3.866575473648976 4.833219367061219 -1e-07 4.349897620355098 4.83321956706122 1e-07 0 2 149 -150 
140 4.349897420355098 4.833219367061219 -1e-07 4.83321956706122 4.83321956706122 1e-07 0 2 150 -151 
141 4.833219367061219 4.833219367061219 -1e-07 5.316541513767342 4.83321956706122 1e-07 0 2 151 -152 
142 5.316541313767342 4.833219367061219 -1e-07 5.799863460473464 4.83321956706122 1e-07 0 2 152 -153 
143 5.799863260473463 4.833219367061219 -1e-07 6.283185407179587 4.83321956706122 1e-07 0 2 153 -154 
144 -1.000000000028756e-07 5.316541313767342 -1e-07 0.483322046706122 5.316541513767342 1e-07 0 2 155 -156 
145 0.483321846706122 5.316541313767342 -1e-07 0.9666439934122439 5.316541513767342 1e-07 0 2 156 -157 
146 0.966643793412244 5.316541313767342 -1e-07 1.449965940118366 5.316541513767342 1e-07 0 2 157 -158 
147 1.449965740118366 5.316541313767342 -1e-07 1.933287886824488 5.316541513767342 1e-07 0 2 158 -159 
148 1.933287686824488 5.316541313767342 -1e-07 2.41660983353061 5.316541513767342 1e-07 0 2 159 -160 
149 2.41660963353061 5.316541313767342 -1e-07 2.899931780236732 5.316541513767342 1e-07 0 2 160 -161 
150 2.899931580236732 5.316541313767342 -1e-07 3.383253726942854 5.316541513767342 1e-07 0 2 161 -162 
151 3.383253526942854 5.316541313767342 -1e-07 3.866575673648976 5.316541513767342 1e-07 0 2 162 -163 
152 3.866575473648976 5.316541313767342 -1e-07 4.349897620355098 5.316541513767342 1e-07 0 2 163 -164 
153 4.349897420355098 5.316541313767342 -1e-07 4.83321956706122 5.316541513767342 1e-07 0 2 164 -165 
154 4.833219367061219 5.316541313767342 -1e-07 5.316541513767342 5.316541513767342 1e-07 0 2 165 -166 
155 5.316541313767342 5.316541313767342 -1e-07 5.799863460473464 5.316541513767342 1e-07 0 2 166 -167 
156 5.799863260473463 5.316541313767342 -1e-07 6.283185407179587 5.316541513767342 1e-07 0 2 167 -168 
157 -1.000000000028756e-07 5.799863260473463 -1e-07 0.483322046706122 5.799863460473464 1e-07 0 2 169 -170 
158 0.483321846706122 5.799863260473463 -1e-07 0.9666439934122439 5.799863460473464 1e-07 0 2 170 -171 
159 0.966643793412244 5.799863260473463 -1e-07 1.449965940118366 5.799863460473464 1e-07 0 2 171 -172 
160 1.449965740118366 5.799863260473463 -1e-07 1.933287886824488 5.799863460473464 1e-07 0 2 172 -173 
161 1.933287686824488 5.799863260473463 -1e-07 2.41660983353061 5.799863460473464 1e-07 0 2 173 -174 
162 2.41660963353061 5.799863260473463 -1e-07 2.899931780236732 5.799863460473464 1e-07 0 2 174 -175 
163 2.899931580236732 5.799863260473463 -1e-07 3.383253726942854 5.799863460473464 1e-07 0 2 175 -176 
164 3.383253526942854 5.799863260473463 -1e-07 3.866575673648976 5.799863460473464 1e-07 0 2 176 -177 
165 3.866575473648976 5.799863260473463 -1e-07 4.349897620355098 5.799863460473464 1e-07 0 2 177 -178 
166 4.349897420355098 5.799863260473463 -1e-07 4.83321956706122 5.799863460473464 1e-07 0 2 178 -179 
167 4.833219367061219 5.799863260473463 -1e-07 5.316541513767342 5.799863460473464 1e-07 0 2 179 -180 
168 5.316541313767342 5.799863260473463 -1e-07 5.799863460473464 5.799863460473464 1e-07 0 2 180 -181 
169 5.799863260473463 5.799863260473463 -1e-07 6.283185407179587 5.799863460473464 1e-07 0 2 181 -182 
170 -1.000000000028756e-07 6.283185207179586 -1e-07 0.483322046706122 6.283185407179587 1e-07 1 3 2 183 -184 
171 0.483321846706122 6.283185207179586 -1e-07 0.9666439934122439 6.283185407179587 1e-07 1 3 2 184 -185 
172 0.966643793412244 6.283185207179586 -1e-07 1.449965940118366 6.283185407179587 1e-07 1 3 2 185 -186 
173 1.449965740118366 6.283185207179586 -1e-07 1.933287886824488 6.283185407179587 1e-07 1 3 2 186 -187 
174 1.933287686824488 6.283185207179586 -1e-07 2.41660983353061 6.283185407179587 1e-07 1 3 2 187 -188 
175 2.41660963353061 6.283185207179586 -1e-07 2.899931780236732 6.283185407179587 1e-07 1 3 2 188 -189 
176 2.899931580236732 6.283185207179586 -1e-07 3.383253726942854 6.283185407179587 1e-07 1 3 2 189 -190 
177 3.383253526942854 6.283185207179586 -1e-07 3.866575673648976 6.283185407179587 1e-07 1 3 2 190 -191 
178 3.866575473648976 6.283185207179586 -1e-07 4.349897620355098 6.283185407179587 1e-07 1 3 2 191 -192 
179 4.349897420355098 6.283185207179586 -1e-07 4.83321956706122 6.283185407179587 1e-07 1 3 2 192 -193 
180 4.833219367061219 6.283185207179586 -1e-07 5.316541513767342 6.283185407179587 1e-07 1 3 2 193 -194 
181 5.316541313767342 6.283185207179586 -1e-07 5.799863460473464 6.283185407179587 1e-07 1 3 2 194 -195 
182 5.799863260473463 6.283185207179586 -1e-07 6.283185407179587 6.283185407179587 1e-07 1 3 2 195 -196 
183 -1e-07 -1.000000000028756e-07 -1e-07 1e-07 0.483322046706122 1e-07 1 4 2 1 -15 
184 -1e-07 0.483321846706122 -1e-07 1e-07 0.9666439934122439 1e-07 1 4 2 15 -29 
185 -1e-07 0.966643793412244 -1e-07 1e-07 1.449965940118366 1e-07 1 4 2 29 -43 
186 -1e-07 1.449965740118366 -1e-07 1e-07 1.933287886824488 1e-07 1 4 2 43 -57 
187 -1e-07 1.933287686824488 -1e-07 1e-07 2.41660983353061 1e-07 1 4 2 57 -71 
188 -1e-07 2.41660963353061 -1e-07 1e-07 2.899931780236732 1e-07 1 4 2 71 -85 
189 -1e-07 2.899931580236732 -1e-07 1e-07 3.383253726942854 1e-07 1 4 2 85 -99 
190 -1e-07 3.383253526942854 -1e-07 1e-07 3.866575673648976 1e-07 1 4 2 99 -113 
191 -1e-07 3.866575473648976 -1e-07 1e-07 4.349897620355098 1e-07 1 4 2 113 -127 
192 -1e-07 4.349897420355098 -1e-07 1e-07 4.83321956706122 1e-07 1 4 2 127 -141 
193 -1e-07 4.833219367061219 -1e-07 1e-07 5.316541513767342 1e-07 1 4 2 141 -155 
194 -1e-07 5.316541313767342 -1e-07 1e-07 5.799863460473464 1e-07 1 4 2 155 -169 
195 -1e-07 5.799863260473463 -1e-07 1e-07 6.283185407179587 1e-07 1 4 2 169 -183 
196 0.483321846706122 -1.000000000028756e-07 -1e-07 0.483322046706122 0.483322046706122 1e-07 0 2 2 -16 
197 0.483321846706122 0.483321846706122 -1e-07 0.483322046706122 0.9666439934122439 1e-07 0 2 16 -30 
198 0.483321846706122 0.966643793412244 -1e-07 0.483322046706122 1.449965940118366 1e-07 0 2 30 -44 
199 0.483321846706122 1.449965740118366 -1e-07 0.483322046706122 1.933287886824488 1e-07 0 2 44 -58 
200 0.483321846706122 1.933287686824488 -1e-07 0.483322046706122 2.41660983353061 1e-07 0 2 58 -72 
201 0.483321846706122 2.41660963353061 -1e-07 0.483322046706122 2.899931780236732 1e-07 0 2 72 -86 
202 0.483321846706122 2.899931580236732 -1e-07 0.483322046706122 3.383253726942854 1e-07 0 2 86 -100 
203 0.483321846706122 3.383253526942854 -1e-07 0.483322046706122 3.866575673648976 1e-07 0 2 100 -114 
204 0.483321846706122 3.866575473648976 -1e-07 0.483322046706122 4.349897620355098 1e-07 0 2 114 -128 
205 0.483321846706122 4.349897420355098 -1e-07 0.483322046706122 4.83321956706122 1e-07 0 2 128 -142 
206 0.483321846706122 4.833219367061219 -1e-07 0.483322046706122 5.316541513767342 1e-07 0 2 142 -156 
207 0.483321846706122 5.316541313767342 -1e-07 0.483322046706122 5.799863460473464 1e-07 0 2 156 -170 
208 0.483321846706122 5.799863260473463 -1e-07 0.483322046706122 6.283185407179587 1e-07 0 2 170 -184 
209 0.966643793412244 -1.000000000028756e-07 -1e-07 0.9666439934122439 0.483322046706122 1e-07 0 2 3 -17 
210 0.966643793412244 0.483321846706122 -1e-07 0.9666439934122439 0.9666439934122439 1e-07 0 2 17 -31 
211 0.966643793412244 0.966643793412244 -1e-07 0.9666439934122439 1.449965940118366 1e-07 0 2 31 -45 
212 0.966643793412244 1.449965740118366 -1e-07 0.9666439934122439 1.933287886824488 1e-07 0 2 45 -59 
213 0.966643793412244 1.933287686824488 -1e-07 0.9666439934122439 2.41660983353061 1e-07 0 2 59 -73 
214 0.966643793412244 2.41660963353061 -1e-07 0.9666439934122439 2.899931780236732 1e-07 0 2 73 -87 
215 0.966643793412244 2.899931580236732 -1e-07 0.9666439934122439 3.383253726942854 1e-07 0 2 87 -101 
216 0.966643793412244 3.383253526942854 -1e-07 0.9666439934122439 3.866575673648976 1e-07 0 2 101 -115 
217 0.966643793412244 3.866575473648976 -1e-07 0.9666439934122439 4.349897620355098 1e-07 0 2 115 -129 
218 0.966643793412244 4.349897420355098 -1e-07 0.9666439934122439 4.83321956706122 1e-07 0 2 129 -143 
219 0.966643793412244 4.833219367061219 -1e-07 0.9666439934122439 5.316541513767342 1e-07 0 2 143 -157 
220 0.966643793412244 5.316541313767342 -1e-07 0.9666439934122439 5.799863460473464 1e-07 0 2 157 -171 
221 0.966643793412244 5.799863260473463 -1e-07 0.9666439934122439 6.283185407179587 1e-07 0 2 171 -185 
222 1.449965740118366 -1.000000000028756e-07 -1e-07 1.449965940118366 0.483322046706122 1e-07 0 2 4 -18 
223 1.449965740118366 0.483321846706122 -1e-07 1.449965940118366 0.9666439934122439 1e-07 0 2 18 -32 
224 1.449965740118366 0.966643793412244 -1e-07 1.449965940118366 1.449965940118366 1e-07 0 2 32 -46 
225 1.449965740118366 1.449965740118366 -1e-07 1.449965940118366 1.933287886824488 1e-07 0 2 46 -60 
226 1.449965740118366 1.933287686824488 -1e-07 1.449965940118366 2.41660983353061 1e-07 0 2 60 -74 
227 1.449965740118366 2.41660963353061 -1e-07 1.449965940118366 2.899931780236732 1e-07 0 2 74 -88 
228 1.449965740118366 2.899931580236732 -1e-07 1.449965940118366 3.383253726942854 1e-07 0 2 88 -102 
229 1.449965740118366 3.383253526942854 -1e-07 1.449965940118366 3.866575673648976 1e-07 0 2 102 -116 
230 1.449965740118366 3.866575473648976 -1e-07 1.449965940118366 4.349897620355098 1e-07 0 2 116 -130 
231 1.449965740118366 4.349897420355098 -1e-07 1.449965940118366 4.83321956706122 1e-07 0 2 130 -144 
232 1.449965740118366 4.833219367061219 -1e-07 1.449965940118366 5.316541513767342 1e-07 0 2 144 -158 
233 1.449965740118366 5.316541313767342 -1e-07 1.449965940118366 5.799863460473464 1e-07 0 2 158 -172 
234 1.449965740118366 5.799863260473463 -1e-07 1.449965940118366 6.283185407179587 1e-07 0 2 172 -186 
235 1.933287686824488 -1.000000000028756e-07 -1e-07 1.933287886824488 0.483322046706122 1e-07 0 2 5 -19 
236 1.933287686824488 0.483321846706122 -1e-07 1.933287886824488 0.9666439934122439 1e-07 0 2 19 -33 
237 1.933287686824488 0.966643793412244 -1e-07 1.933287886824488 1.449965940118366 1e-07 0 2 33 -47 
238 1.933287686824488 1.449965740118366 -1e-07 1.933287886824488 1.933287886824488 1e-07 0 2 47 -61 
239 1.933287686824488 1.933287686824488 -1e-07 1.933287886824488 2.41660983353061 1e-07 0 2 61 -75 
240 1.933287686824488 2.41660963353061 -1e-07 1.933287886824488 2.899931780236732 1e-07 0 2 75 -89 
241 1.933287686824488 2.899931580236732 -1e-07 1.933287886824488 3.383253726942854 1e-07 0 2 89 -103 
242 1.933287686824488 3.383253526942854 -1e-07 1.933287886824488 3.866575673648976 1e-07 0 2 103 -117 
243 1.933287686824488 3.866575473648976 -1e-07 1.933287886824488 4.349897620355098 1e-07 0 2 117 -131 
244 1.933287686824488 4.349897420355098 -1e-07 1.933287886824488 4.83321956706122 1e-07 0 2 131 -145 
245 1.933287686824488 4.833219367061219 -1e-07 1.933287886824488 5.316541513767342 1e-07 0 2 145 -159 
246 1.933287686824488 5.316541313767342 -1e-07 1.933287886824488 5.799863460473464 1e-07 0 2 159 -173 
247 1.933287686824488 5.799863260473463 -1e-07 1.933287886824488 6.283185407179587 1e-07 0 2 173 -187 
248 2.41660963353061 -1.000000000028756e-07 -1e-07 2.41660983353061 0.483322046706122 1e-07 0 2 6 -20 
249 2.41660963353061 0.483321846706122 -1e-07 2.41660983353061 0.9666439934122439 1e-07 0 2 20 -34 
250 2.41660963353061 0.966643793412244 -1e-07 2.41660983353061 1.449965940118366 1e-07 0 2 34 -48 
251 2.41660963353061 1.449965740118366 -1e-07 2.41660983353061 1.933287886824488 1e-07 0 2 48 -62 
252 2.41660963353061 1.933287686824488 -1e-07 2.41660983353061 2.41660983353061 1e-07 0 2 62 -76 
253 2.41660963353061 2.41660963353061 -1e-07 2.41660983353061 2.899931780236732 1e-07 0 2 76 -90 
254 2.41660963353061 2.899931580236732 -1e-07 2.41660983353061 3.383253726942854 1e-07 0 2 90 -104 
255 2.41660963353061 3.383253526942854 -1e-07 2.41660983353061 3.866575673648976 1e-07 0 2 104 -118 
256 2.41660963353061 3.866575473648976 -1e-07 2.41660983353061 4.349897620355098 1e-07 0 2 118 -132 
257 2.41660963353061 4.349897420355098 -1e-07 2.41660983353061 4.83321956706122 1e-07 0 2 132 -146 
258 2.41660963353061 4.833219367061219 -1e-07 2.41660983353061 5.316541513767342 1e-07 0 2 146 -160 
259 2.41660963353061 5.316541313767342 -1e-07 2.41660983353061 5.799863460473464 1e-07 0 2 160 -174 
260 2.41660963353061 5.799863260473463 -1e-07 2.41660983353061 6.283185407179587 1e-07 0 2 174 -188 
261 2.899931580236732 -1.000000000028756e-07 -1e-07 2.899931780236732 0.483322046706122 1e-07 0 2 7 -21 
262 2.899931580236732 0.483321846706122 -1e-07 2.899931780236732 0.9666439934122439 1e-07 0 2 21 -35 
263 2.899931580236732 0.966643793412244 -1e-07 2.899931780236732 1.449965940118366 1e-07 0 2 35 -49 
264 2.899931580236732 1.449965740118366 -1e-07 2.899931780236732 1.933287886824488 1e-07 0 2 49 -63 
265 2.899931580236732 1.933287686824488 -1e-07 2.899931780236732 2.41660983353061 1e-07 0 2 63 -77 
266 2.899931580236732 2.41660963353061 -1e-07 2.899931780236732 2.899931780236732 1e-07 0 2 77 -91 
267 2.899931580236732 2.899931580236732 -1e-07 2.899931780236732 3.383253726942854 1e-07 0 2 91 -105 
268 2.899931580236732 3.383253526942854 -1e-07 2.899931780236732 3.866575673648976 1e-07 0 2 105 -119 
269 2.899931580236732 3.866575473648976 -1e-07 2.899931780236732 4.349897620355098 1e-07 0 2 119 -133 
270 2.899931580236732 4.349897420355098 -1e-07 2.899931780236732 4.83321956706122 1e-07 0 2 133 -147 
271 2.899931580236732 4.833219367061219 -1e-07 2.899931780236732 5.316541513767342 1e-07 0 2 147 -161 
272 2.899931580236732 5.316541313767342 -1e-07 2.899931780236732 5.799863460473464 1e-07 0 2 161 -175 
273 2.899931580236732 5.799863260473463 -1e-07 2.899931780236732 6.283185407179587 1e-07 0 2 175 -189 
274 3.383253526942854 -1.000000000028756e-07 -1e-07 3.383253726942854 0.483322046706122 1e-07 0 2 8 -22 
275 3.383253526942854 0.483321846706122 -1e-07 3.383253726942854 0.9666439934122439 1e-07 0 2 22 -36 
276 3.383253526942854 0.966643793412244 -1e-07 3.383253726942854 1.449965940118366 1e-07 0 2 36 -50 
277 3.383253526942854 1.449965740118366 -1e-07 3.383253726942854 1.933287886824488 1e-07 0 2 50 -64 
278 3.383253526942854 1.933287686824488 -1e-07 3.383253726942854 2.41660983353061 1e-07 0 2 64 -78 
279 3.383253526942854 2.41660963353061 -1e-07 3.383253726942854 2.899931780236732 1e-07 0 2 78 -92 
280 3.383253526942854 2.899931580236732 -1e-07 3.383253726942854 3.383253726942854 1e-07 0 2 92 -106 
281 3.383253526942854 3.383253526942854 -1e-07 3.383253726942854 3.866575673648976 1e-07 0 2 106 -120 
282 3.383253526942854 3.866575473648976 -1e-07 3.383253726942854 4.349897620355098 1e-07 0 2 120 -134 
283 3.383253526942854 4.349897420355098 -1e-07 3.383253726942854 4.83321956706122 1e-07 0 2 134 -148 
284 3.383253526942854 4.833219367061219 -1e-07 3.383253726942854 5.316541513767342 1e-07 0 2 148 -162 
285 3.383253526942854 5.316541313767342 -1e-07 3.383253726942854 5.799863460473464 1e-07 0 2 162 -176 
286 3.383253526942854 5.799863260473463 -1e-07 3.383253726942854 6.283185407179587 1e-07 0 2 176 -190 
287 3.866575473648976 -1.000000000028756e-07 -1e-07 3.866575673648976 0.483322046706122 1e-07 0 2 9 -23 
288 3.866575473648976 0.483321846706122 -1e-07 3.866575673648976 0.9666439934122439 1e-07 0 2 23 -37 
289 3.866575473648976 0.966643793412244 -1e-07 3.866575673648976 1.449965940118366 1e-07 0 2 37 -51 
290 3.866575473648976 1.449965740118366 -1e-07 3.866575673648976 1.933287886824488 1e-07 0 2 51 -65 
291 3.866575473648976 1.933287686824488 -1e-07 3.866575673648976 2.41660983353061 1e-07 0 2 65 -79 
292 3.866575473648976 2.41660963353061 -1e-07 3.866575673648976 2.899931780236732 1e-07 0 2 79 -93 
293 3.866575473648976 2.899931580236732 -1e-07 3.866575673648976 3.383253726942854 1e-07 0 2 93 -107 
294 3.866575473648976 3.383253526942854 -1e-07 3.866575673648976 3.866575673648976 1e-07 0 2 107 -121 
295 3.866575473648976 3.866575473648976 -1e-07 3.866575673648976 4.349897620355098 1e-07 0 2 121 -135 
296 3.866575473648976 4.349897420355098 -1e-07 3.866575673648976 4.83321956706122 1e-07 0 2 135 -149 
297 3.866575473648976 4.833219367061219 -1e-07 3.866575673648976 5.316541513767342 1e-07 0 2 149 -163 
298 3.866575473648976 5.316541313767342 -1e-07 3.866575673648976 5.799863460473464 1e-07 0 2 163 -177 
299 3.866575473648976 5.799863260473463 -1e-07 3.866575673648976 6.283185407179587 1e-07 0 2 177 -191 
300 4.349897420355098 -1.000000000028756e-07 -1e-07 4.349897620355098 0.483322046706122 1e-07 0 2 10 -24 
301 4.349897420355098 0.483321846706122 -1e-07 4.349897620355098 0.9666439934122439 1e-07 0 2 24 -38 
302 4.349897420355098 0.966643793412244 -1e-07 4.349897620355098 1.449965940118366 1e-07 0 2 38 -52 
303 4.349897420355098 1.449965740118366 -1e-07 4.349897620355098 1.933287886824488 1e-07 0 2 52 -66 
304 4.349897420355098 1.933287686824488 -1e-07 4.349897620355098 2.41660983353061 1e-07 0 2 66 -80 
305 4.349897420355098 2.41660963353061 -1e-07 4.349897620355098 2.899931780236732 1e-07 0 2 80 -94 
306 4.349897420355098 2.899931580236732 -1e-07 4.349897620355098 3.383253726942854 1e-07 0 2 94 -108 
307 4.349897420355098 3.383253526942854 -1e-07 4.349897620355098 3.866575673648976 1e-07 0 2 108 -122 
308 4.349897420355098 3.866575473648976 -1e-07 4.349897620355098 4.349897620355098 1e-07 0 2 122 -136 
309 4.349897420355098 4.349897420355098 -1e-07 4.349897620355098 4.83321956706122 1e-07 0 2 136 -150 
310 4.349897420355098 4.833219367061219 -1e-07 4.349897620355098 5.316541513767342 1e-07 0 2 150 -164 
311 4.349897420355098 5.316541313767342 -1e-07 4.349897620355098 5.799863460473464 1e-07 0 2 164 -178 
312 4.349897420355098 5.799863260473463 -1e-07 4.349897620355098 6.283185407179587 1e-07 0 2 178 -192 
313 4.833219367061219 -1.000000000028756e-07 -1e-07 4.83321956706122 0.483322046706122 1e-07 0 2 11 -25 
314 4.833219367061219 0.483321846706122 -1e-07 4.83321956706122 0.9666439934122439 1e-07 0 2 25 -39 
315 4.833219367061219 0.966643793412244 -1e-07 4.83321956706122 1.449965940118366 1e-07 0 2 39 -53 
316 4.833219367061219 1.449965740118366 -1e-07 4.83321956706122 1.933287886824488 1e-07 0 2 53 -67 
317 4.833219367061219 1.933287686824488 -1e-07 4.83321956706122 2.41660983353061 1e-07 0 2 67 -81 
318 4.833219367061219 2.41660963353061 -1e-07 4.83321956706122 2.899931780236732 1e-07 0 2 81 -95 
319 4.833219367061219 2.899931580236732 -1e-07 4.83321956706122 3.383253726942854 1e-07 0 2 95 -109 
320 4.833219367061219 3.383253526942854 -1e-07 4.83321956706122 3.866575673648976 1e-07 0 2 109 -123 
321 4.833219367061219 3.866575473648976 -1e-07 4.83321956706122 4.349897620355098 1e-07 0 2 123 -137 
322 4.833219367061219 4.349897420355098 -1e-07 4.83321956706122 4.83321956706122 1e-07 0 2 137 -151 
323 4.833219367061219 4.833219367061219 -1e-07 4.83321956706122 5.316541513767342 1e-07 0 2 151 -165 
324 4.833219367061219 5.316541313767342 -1e-07 4.83321956706122 5.799863460473464 1e-07 0 2 165 -179 
325 4.833219367061219 5.799863260473463 -1e-07 4.83321956706122 6.283185407179587 1e-07 0 2 179 -193 
326 5.316541313767342 -1.000000000028756e-07 -1e-07 5.316541513767342 0.483322046706122 1e-07 0 2 12 -26 
327 5.316541313767342 0.483321846706122 -1e-07 5.316541513767342 0.9666439934122439 1e-07 0 2 26 -40 
328 5.316541313767342 0.966643793412244 -1e-07 5.316541513767342 1.449965940118366 1e-07 0 2 40 -54 
329 5.316541313767342 1.449965740118366 -1e-07 5.316541513767342 1.933287886824488 1e-07 0 2 54 -68 
330 5.316541313767342 1.933287686824488 -1e-07 5.316541513767342 2.41660983353061 1e-07 0 2 68 -82 
331 5.316541313767342 2.41660963353061 -1e-07 5.316541513767342 2.899931780236732 1e-07 0 2 82 -96 
332 5.316541313767342 2.899931580236732 -1e-07 5.316541513767342 3.383253726942854 1e-07 0 2 96 -110 
333 5.316541313767342 3.383253526942854 -1e-07 5.316541513767342 3.866575673648976 1e-07 0 2 110 -124 
334 5.316541313767342 3.866575473648976 -1e-07 5.316541513767342 4.349897620355098 1e-07 0 2 124 -138 
335 5.316541313767342 4.349897420355098 -1e-07 5.316541513767342 4.83321956706122 1e-07 0 2 138 -152 
336 5.316541313767342 4.833219367061219 -1e-07 5.316541513767342 5.316541513767342 1e-07 0 2 152 -166 
337 5.316541313767342 5.316541313767342 -1e-07 5.316541513767342 5.799863460473464 1e-07 0 2 166 -180 
338 5.316541313767342 5.799863260473463 -1e-07 5.316541513767342 6.283185407179587 1e-07 0 2 180 -194 
339 5.799863260473463 -1.000000000028756e-07 -1e-07 5.799863460473464 0.483322046706122 1e-07 0 2 13 -27 
340 5.799863260473463 0.483321846706122 -1e-07 5.799863460473464 0.9666439934122439 1e-07 0 2 27 -41 
341 5.799863260473463 0.966643793412244 -1e-07 5.799863460473464 1.449965940118366 1e-07 0 2 41 -55 
342 5.799863260473463 1.449965740118366 -1e-07 5.799863460473464 1.933287886824488 1e-07 0 2 55 -69 
343 5.799863260473463 1.933287686824488 -1e-07 5.799863460473464 2.41660983353061 1e-07 0 2 69 -83 
344 5.799863260473463 2.41660963353061 -1e-07 5.799863460473464 2.899931780236732 1e-07 0 2 83 -97 
345 5.799863260473463 2.899931580236732 -1e-07 5.799863460473464 3.383253726942854 1e-07 0 2 97 -111 
346 5.799863260473463 3.383253526942854 -1e-07 5.799863460473464 3.866575673648976 1e-07 0 2 111 -125 
347 5.799863260473463 3.866575473648976 -1e-07 5.799863460473464 4.349897620355098 1e-07 0 2 125 -139 
348 5.799863260473463 4.349897420355098 -1e-07 5.799863460473464 4.83321956706122 1e-07 0 2 139 -153 
349 5.799863260473463 4.833219367061219 -1e-07 5.799863460473464 5.316541513767342 1e-07 0 2 153 -167 
350 5.799863260473463 5.316541313767342 -1e-07 5.799863460473464 5.799863460473464 1e-07 0 2 167 -181 
351 5.799863260473463 5.799863260473463 -1e-07 5.799863460473464 6.283185407179587 1e-07 0 2 181 -195 
352 6.283185207179586 -1.000000000028756e-07 -1e-07 6.283185407179587 0.483322046706122 1e-07 1 2 2 14 -28 
353 6.283185207179586 0.483321846706122 -1e-07 6.283185407179587 0.9666439934122439 1e-07 1 2 2 28 -42 
354 6.283185207179586 0.966643793412244 -1e-07 6.283185407179587 1.449965940118366 1e-07 1 2 2 42 -56 
355 6.283185207179586 1.449965740118366 -1e-07 6.283185407179587 1.933287886824488 1e-07 1 2 2 56 -70 
356 6.283185207179586 1.933287686824488 -1e-07 6.283185407179587 2.41660983353061 1e-07 1 2 2 70 -84 
357 6.283185207179586 2.41660963353061 -1e-07 6.283185407179587 2.899931780236732 1e-07 1 2 2 84 -98 
358 6.283185207179586 2.899931580236732 -1e-07 6.283185407179587 3.383253726942854 1e-07 1 2 2 98 -112 
359 6.283185207179586 3.383253526942854 -1e-07 6.283185407179587 3.866575673648976 1e-07 1 2 2 112 -126 
360 6.283185207179586 3.866575473648976 -1e-07 6.283185407179587 4.349897620355098 1e-07 1 2 2 126 -140 
361 6.283185207179586 4.349897420355098 -1e-07 6.283185407179587 4.83321956706122 1e-07 1 2 2 140 -154 
362 6.283185207179586 4.833219367061219 -1e-07 6.283185407179587 5.316541513767342 1e-07 1 2 2 154 -168 
363 6.283185207179586 5.316541313767342 -1e-07 6.283185407179587 5.799863460473464 1e-07 1 2 2 168 -182 
364 6.283185207179586 5.799863260473463 -1e-07 6.283185407179587 6.283185407179587 1e-07 1 2 2 182 -196 
1 -1.000000000028756e-07 -1.000000000028756e-07 -1e-07 0.483322046706122 0.483322046706122 1e-07 1 10 4 1 196 -14 -183 
2 0.483321846706122 -1.000000000028756e-07 -1e-07 0.9666439934122439 0.483322046706122 1e-07 1 10 4 2 209 -15 -196 
3 0.966643793412244 -1.000000000028756e-07 -1e-07 1.449965940118366 0.483322046706122 1e-07 1 10 4 3 222 -16 -209 
4 1.449965740118366 -1.000000000028756e-07 -1e-07 1.933287886824488 0.483322046706122 1e-07 1 10 4 4 235 -17 -222 
5 1.933287686824488 -1.000000000028756e-07 -1e-07 2.41660983353061 0.483322046706122 1e-07 1 10 4 5 248 -18 -235 
6 2.41660963353061 -1.000000000028756e-07 -1e-07 2.899931780236732 0.483322046706122 1e-07 1 10 4 6 261 -19 -248 
7 2.899931580236732 -1.000000000028756e-07 -1e-07 3.383253726942854 0.483322046706122 1e-07 1 10 4 7 274 -20 -261 
8 3.383253526942854 -1.000000000028756e-07 -1e-07 3.866575673648976 0.483322046706122 1e-07 1 10 4 8 287 -21 -274 
9 3.866575473648976 -1.000000000028756e-07 -1e-07 4.349897620355098 0.483322046706122 1e-07 1 10 4 9 300 -22 -287 
10 4.349897420355098 -1.000000000028756e-07 -1e-07 4.83321956706122 0.483322046706122 1e-07 1 10 4 10 313 -23 -300 
11 4.833219367061219 -1.000000000028756e-07 -1e-07 5.316541513767342 0.483322046706122 1e-07 1 10 4 11 326 -24 -313 
12 5.316541313767342 -1.000000000028756e-07 -1e-07 5.799863460473464 0.483322046706122 1e-07 1 10 4 12 339 -25 -326 
13 5.799863260473463 -1.000000000028756e-07 -1e-07 6.283185407179587 0.483322046706122 1e-07 1 10 4 13 352 -26 -339 
14 -1.000000000028756e-07 0.483321846706122 -1e-07 0.483322046706122 0.9666439934122439 1e-07 1 10 4 14 197 -27 -184 
15 0.483321846706122 0.483321846706122 -1e-07 0.9666439934122439 0.9666439934122439 1e-07 1 10 4 15 210 -28 -197 
16 0.966643793412244 0.483321846706122 -1e-07 1.449965940118366 0.9666439934122439 1e-07 1 10 4 16 223 -29 -210 
17 1.449965740118366 0.483321846706122 -1e-07 1.933287886824488 0.9666439934122439 1e-07 1 10 4 17 236 -30 -223 
18 1.933287686824488 0.483321846706122 -1e-07 2.41660983353061 0.9666439934122439 1e-07 1 10 4 18 249 -31 -236 
19 2.41660963353061 0.483321846706122 -1e-07 2.899931780236732 0.9666439934122439 1e-07 1 10 4 19 262 -32 -249 
20 2.899931580236732 0.483321846706122 -1e-07 3.383253726942854 0.9666439934122439 1e-07 1 10 4 20 275 -33 -262 
21 3.383253526942854 0.483321846706122 -1e-07 3.866575673648976 0.9666439934122439 1e-07 1 10 4 21 288 -34 -275 
22 3.866575473648976 0.483321846706122 -1e-07 4.349897620355098 0.9666439934122439 1e-07 1 10 4 22 301 -35 -288 
23 4.349897420355098 0.483321846706122 -1e-07 4.83321956706122 0.9666439934122439 1e-07 1 10 4 23 314 -36 -301 
24 4.833219367061219 0.483321846706122 -1e-07 5.316541513767342 0.9666439934122439 1e-07 1 10 4 24 327 -37 -314 
25 5.316541313767342 0.483321846706122 -1e-07 5.799863460473464 0.9666439934122439 1e-07 1 10 4 25 340 -38 -327 
26 5.799863260473463 0.483321846706122 -1e-07 6.283185407179587 0.9666439934122439 1e-07 1 10 4 26 353 -39 -340 
27 -1.000000000028756e-07 0.966643793412244 -1e-07 0.483322046706122 1.449965940118366 1e-07 1 10 4 27 198 -40 -185 
28 0.483321846706122 0.966643793412244 -1e-07 0.9666439934122439 1.449965940118366 1e-07 1 10 4 28 211 -41 -198 
29 0.966643793412244 0.966643793412244 -1e-07 1.449965940118366 1.449965940118366 1e-07 1 10 4 29 224 -42 -211 
30 1.449965740118366 0.966643793412244 -1e-07 1.933287886824488 1.449965940118366 1e-07 1 10 4 30 237 -43 -224 
31 1.933287686824488 0.966643793412244 -1e-07 2.41660983353061 1.449965940118366 1e-07 1 10 4 31 250 -44 -237 
32 2.41660963353061 0.966643793412244 -1e-07 2.899931780236732 1.449965940118366 1e-07 1 10 4 32 263 -45 -250 
33 2.899931580236732 0.966643793412244 -1e-07 3.383253726942854 1.449965940118366 1e-07 1 10 4 33 276 -46 -263 
34 3.383253526942854 0.966643793412244 -1e-07 3.866575673648976 1.449965940118366 1e-07 1 10 4 34 289 -47 -276 
35 3.866575473648976 0.966643793412244 -1e-07 4.349897620355098 1.449965940118366 1e-07 1 10 4 35 302 -48 -289 
36 4.349897420355098 0.966643793412244 -1e-07 4.83321956706122 1.449965940118366 1e-07 1 10 4 36 315 -49 -302 
37 4.833219367061219 0.966643793412244 -1e-07 5.316541513767342 1.449965940118366 1e-07 1 10 4 37 328 -50 -315 
38 5.316541313767342 0.966643793412244 -1e-07 5.799863460473464 1.449965940118366 1e-07 1 10 4 38 341 -51 -328 
39 5.799863260473463 0.966643793412244 -1e-07 6.283185407179587 1.449965940118366 1e-07 1 10 4 39 354 -52 -341 
40 -1.000000000028756e-07 1.449965740118366 -1e-07 0.483322046706122 1.933287886824488 1e-07 1 10 4 40 199 -53 -186 
41 0.483321846706122 1.449965740118366 -1e-07 0.9666439934122439 1.933287886824488 1e-07 1 10 4 41 212 -54 -199 
42 0.966643793412244 1.449965740118366 -1e-07 1.449965940118366 1.933287886824488 1e-07 1 10 4 42 225 -55 -212 
43 1.449965740118366 1.449965740118366 -1e-07 1.933287886824488 1.933287886824488 1e-07 1 10 4 43 238 -56 -225 
44 1.933287686824488 1.449965740118366 -1e-07 2.41660983353061 1.933287886824488 1e-07 1 10 4 44 251 -57 -238 
45 2.41660963353061 1.449965740118366 -1e-07 2.899931780236732 1.933287886824488 1e-07 1 10 4 45 264 -58 -251 
46 2.899931580236732 1.449965740118366 -1e-07 3.383253726942854 1.933287886824488 1e-07 1 10 4 46 277 -59 -264 
47 3.383253526942854 1.449965740118366 -1e-07 3.866575673648976 1.933287886824488 1e-07 1 10 4 47 290 -60 -277 
48 3.866575473648976 1.449965740118366 -1e-07 4.349897620355098 1.933287886824488 1e-07 1 10 4 48 303 -61 -290 
49 4.349897420355098 1.449965740118366 -1e-07 4.83321956706122 1.933287886824488 1e-07 1 10 4 49 316 -62 -303 
50 4.833219367061219 1.449965740118366 -1e-07 5.316541513767342 1.933287886824488 1e-07 1 10 4 50 329 -63 -316 
51 5.316541313767342 1.449965740118366 -1e-07 5.799863460473464 1.933287886824488 1e-07 1 10 4 51 342 -64 -329 
52 5.799863260473463 1.449965740118366 -1e-07 6.283185407179587 1.933287886824488 1e-07 1 10 4 52 355 -65 -342 
53 -1.000000000028756e-07 1.933287686824488 -1e-07 0.483322046706122 2.41660983353061 1e-07 1 10 4 53 200 -66 -187 
54 0.483321846706122 1.933287686824488 -1e-07 0.9666439934122439 2.41660983353061 1e-07 1 10 4 54 213 -67 -200 
55 0.966643793412244 1.933287686824488 -1e-07 1.449965940118366 2.41660983353061 1e-07 1 10 4 55 226 -68 -213 
56 1.449965740118366 1.933287686824488 -1e-07 1.933287886824488 2.41660983353061 1e-07 1 10 4 56 239 -69 -226 
57 1.933287686824488 1.933287686824488 -1e-07 2.41660983353061 2.41660983353061 1e-07 1 10 4 57 252 -70 -239 
58 2.41660963353061 1.933287686824488 -1e-07 2.899931780236732 2.41660983353061 1e-07 1 10 4 58 265 -71 -252 
59 2.899931580236732 1.933287686824488 -1e-07 3.383253726942854 2.41660983353061 1e-07 1 10 4 59 278 -72 -265 
60 3.383253526942854 1.933287686824488 -1e-07 3.866575673648976 2.41660983353061 1e-07 1 10 4 60 291 -73 -278 
61 3.866575473648976 1.933287686824488 -1e-07 4.349897620355098 2.41660983353061 1e-07 1 10 4 61 304 -74 -291 
62 4.349897420355098 1.933287686824488 -1e-07 4.83321956706122 2.41660983353061 1e-07 1 10 4 62 317 -75 -304 
63 4.833219367061219 1.933287686824488 -1e-07 5.316541513767342 2.41660983353061 1e-07 1 10 4 63 330 -76 -317 
64 5.316541313767342 1.933287686824488 -1e-07 5.799863460473464 2.41660983353061 1e-07 1 10 4 64 343 -77 -330 
65 5.799863260473463 1.933287686824488 -1e-07 6.283185407179587 2.41660983353061 1e-07 1 10 4 65 356 -78 -343 
66 -1.000000000028756e-07 2.41660963353061 -1e-07 0.483322046706122 2.899931780236732 1e-07 1 10 4 66 201 -79 -188 
67 0.483321846706122 2.41660963353061 -1e-07 0.9666439934122439 2.899931780236732 1e-07 1 10 4 67 214 -80 -201 
68 0.966643793412244 2.41660963353061 -1e-07 1.449965940118366 2.899931780236732 1e-07 1 10 4 68 227 -81 -214 
69 1.449965740118366 2.41660963353061 -1e-07 1.933287886824488 2.899931780236732 1e-07 1 10 4 69 240 -82 -227 
70 1.933287686824488 2.41660963353061 -1e-07 2.41660983353061 2.899931780236732 1e-07 1 10 4 70 253 -83 -240 
71 2.41660963353061 2.41660963353061 -1e-07 2.899931780236732 2.899931780236732 1e-07 1 10 4 71 266 -84 -253 
72 2.899931580236732 2.41660963353061 -1e-07 3.383253726942854 2.899931780236732 1e-07 1 10 4 72 279 -85 -266 
73 3.383253526942854 2.41660963353061 -1e-07 3.866575673648976 2.899931780236732 1e-07 1 10 4 73 292 -86 -279 
74 3.866575473648976 2.41660963353061 -1e-07 4.349897620355098 2.899931780236732 1e-07 1 10 4 74 305 -87 -292 
75 4.349897420355098 2.41660963353061 -1e-07 4.83321956706122 2.899931780236732 1e-07 1 10 4 75 318 -88 -305 
76 4.833219367061219 2.41660963353061 -1e-07 5.316541513767342 2.899931780236732 1e-07 1 10 4 76 331 -89 -318 
77 5.316541313767342 2.41660963353061 -1e-07 5.799863460473464 2.899931780236732 1e-07 1 10 4 77 344 -90 -331 
78 5.799863260473463 2.41660963353061 -1e-07 6.283185407179587 2.899931780236732 1e-07 1 10 4 78 357 -91 -344 
79 -1.000000000028756e-07 2.899931580236732 -1e-07 0.483322046706122 3.383253726942854 1e-07 1 10 4 79 202 -92 -189 
80 0.483321846706122 2.899931580236732 -1e-07 0.9666439934122439 3.383253726942854 1e-07 1 10 4 80 215 -93 -202 
81 0.966643793412244 2.899931580236732 -1e-07 1.449965940118366 3.383253726942854 1e-07 1 10 4 81 228 -94 -215 
82 1.449965740118366 2.899931580236732 -1e-07 1.933287886824488 3.383253726942854 1e-07 1 10 4 82 241 -95 -228 
83 1.933287686824488 2.899931580236732 -1e-07 2.41660983353061 3.383253726942854 1e-07 1 10 4 83 254 -96 -241 
84 2.41660963353061 2.899931580236732 -1e-07 2.899931780236732 3.383253726942854 1e-07 1 10 4 84 267 -97 -254 
85 2.899931580236732 2.899931580236732 -1e-07 3.383253726942854 3.383253726942854 1e-07 1 10 4 85 280 -98 -267 
86 3.383253526942854 2.899931580236732 -1e-07 3.866575673648976 3.383253726942854 1e-07 1 10 4 86 293 -99 -280 
87 3.866575473648976 2.899931580236732 -1e-07 4.349897620355098 3.383253726942854 1e-07 1 10 4 87 306 -100 -293 
88 4.349897420355098 2.899931580236732 -1e-07 4.83321956706122 3.383253726942854 1e-07 1 10 4 88 319 -101 -306 
89 4.833219367061219 2.899931580236732 -1e-07 5.316541513767342 3.383253726942854 1e-07 1 10 4 89 332 -102 -319 
90 5.316541313767342 2.899931580236732 -1e-07 5.799863460473464 3.383253726942854 1e-07 1 10 4 90 345 -103 -332 
91 5.799863260473463 2.899931580236732 -1e-07 6.283185407179587 3.383253726942854 1e-07 1 10 4 91 358 -104 -345 
92 -1.000000000028756e-07 3.383253526942854 -1e-07 0.483322046706122 3.866575673648976 1e-07 1 10 4 92 203 -105 -190 
93 0.483321846706122 3.383253526942854 -1e-07 0.9666439934122439 3.866575673648976 1e-07 1 10 4 93 216 -106 -203 
94 0.966643793412244 3.383253526942854 -1e-07 1.449965940118366 3.866575673648976 1e-07 1 10 4 94 229 -107 -216 
95 1.449965740118366 3.383253526942854 -1e-07 1.933287886824488 3.866575673648976 1e-07 1 10 4 95 242 -108 -229 
96 1.933287686824488 3.383253526942854 -1e-07 2.41660983353061 3.866575673648976 1e-07 1 10 4 96 255 -109 -242 
97 2.41660963353061 3.383253526942854 -1e-07 2.899931780236732 3.866575673648976 1e-07 1 10 4 97 268 -110 -255 
98 2.899931580236732 3.383253526942854 -1e-07 3.383253726942854 3.866575673648976 1e-07 1 10 4 98 281 -111 -268 
99 3.383253526942854 3.383253526942854 -1e-07 3.866575673648976 3.866575673648976 1e-07 1 10 4 99 294 -112 -281 
100 3.866575473648976 3.383253526942854 -1e-07 4.349897620355098 3.866575673648976 1e-07 1 10 4 100 307 -113 -294 
101 4.349897420355098 3.383253526942854 -1e-07 4.83321956706122 3.866575673648976 1e-07 1 10 4 101 320 -114 -307 
102 4.833219367061219 3.383253526942854 -1e-07 5.316541513767342 3.866575673648976 1e-07 1 10 4 102 333 -115 -320 
103 5.316541313767342 3.383253526942854 -1e-07 5.799863460473464 3.866575673648976 1e-07 1 10 4 103 346 -116 -333 
104 5.799863260473463 3.383253526942854 -1e-07 6.283185407179587 3.866575673648976 1e-07 1 10 4 104 359 -117 -346 
105 -1.000000000028756e-07 3.866575473648976 -1e-07 0.483322046706122 4.349897620355098 1e-07 1 10 4 105 204 -118 -191 
106 0.483321846706122 3.866575473648976 -1e-07 0.9666439934122439 4.349897620355098 1e-07 1 10 4 106 217 -119 -204 
107 0.966643793412244 3.866575473648976 -1e-07 1.449965940118366 4.349897620355098 1e-07 1 10 4 107 230 -120 -217 
108 1.449965740118366 3.866575473648976 -1e-07 1.933287886824488 4.349897620355098 1e-07 1 10 4 108 243 -121 -230 
109 1.933287686824488 3.866575473648976 -1e-07 2.41660983353061 4.349897620355098 1e-07 1 10 4 109 256 -122 -243 
110 2.41660963353061 3.866575473648976 -1e-07 2.899931780236732 4.349897620355098 1e-07 1 10 4 110 269 -123 -256 
111 2.899931580236732 3.866575473648976 -1e-07 3.383253726942854 4.349897620355098 1e-07 1 10 4 111 282 -124 -269 
112 3.383253526942854 3.866575473648976 -1e-07 3.866575673648976 4.349897620355098 1e-07 1 10 4 112 295 -125 -282 
113 3.866575473648976 3.866575473648976 -1e-07 4.349897620355098 4.349897620355098 1e-07 1 10 4 113 308 -126 -295 
114 4.349897420355098 3.866575473648976 -1e-07 4.83321956706122 4.349897620355098 1e-07 1 10 4 114 321 -127 -308 
115 4.833219367061219 3.866575473648976 -1e-07 5.316541513767342 4.349897620355098 1e-07 1 10 4 115 334 -128 -321 
116 5.316541313767342 3.866575473648976 -1e-07 5.799863460473464 4.349897620355098 1e-07 1 10 4 116 347 -129 -334 
117 5.799863260473463 3.866575473648976 -1e-07 6.283185407179587 4.349897620355098 1e-07 1 10 4 117 360 -130 -347 
118 -1.000000000028756e-07 4.349897420355098 -1e-07 0.483322046706122 4.83321956706122 1e-07 1 10 4 118 205 -131 -192 
119 0.483321846706122 4.349897420355098 -1e-07 0.9666439934122439 4.83321956706122 1e-07 1 10 4 119 218 -132 -205 
120 0.966643793412244 4.349897420355098 -1e-07 1.449965940118366 4.83321956706122 1e-07 1 10 4 120 231 -133 -218 
121 1.449965740118366 4.349897420355098 -1e-07 1.933287886824488 4.83321956706122 1e-07 1 10 4 121 244 -134 -231 
122 1.933287686824488 4.349897420355098 -1e-07 2.41660983353061 4.83321956706122 1e-07 1 10 4 122 257 -135 -244 
123 2.41660963353061 4.349897420355098 -1e-07 2.899931780236732 4.83321956706122 1e-07 1 10 4 123 270 -136 -257 
124 2.899931580236732 4.349897420355098 -1e-07 3.383253726942854 4.83321956706122 1e-07 1 10 4 124 283 -137 -270 
125 3.383253526942854 4.349897420355098 -1e-07 3.866575673648976 4.83321956706122 1e-07 1 10 4 125 296 -138 -283 
126 3.866575473648976 4.349897420355098 -1e-07 4.349897620355098 4.83321956706122 1e-07 1 10 4 126 309 -139 -296 
127 4.349897420355098 4.349897420355098 -1e-07 4.83321956706122 4.83321956706122 1e-07 1 10 4 127 322 -140 -309 
128 4.833219367061219 4.349897420355098 -1e-07 5.316541513767342 4.83321956706122 1e-07 1 10 4 128 335 -141 -322 
129 5.316541313767342 4.349897420355098 -1e-07 5.799863460473464 4.83321956706122 1e-07 1 10 4 129 348 -142 -335 
130 5.799863260473463 4.349897420355098 -1e-07 6.283185407179587 4.83321956706122 1e-07 1 10 4 130 361 -143 -348 
131 -1.000000000028756e-07 4.833219367061219 -1e-07 0.483322046706122 5.316541513767342 1e-07 1 10 4 131 206 -144 -193 
132 0.483321846706122 4.833219367061219 -1e-07 0.9666439934122439 5.316541513767342 1e-07 1 10 4 132 219 -145 -206 
133 0.966643793412244 4.833219367061219 -1e-07 1.449965940118366 5.316541513767342 1e-07 1 10 4 133 232 -146 -219 
134 1.449965740118366 4.833219367061219 -1e-07 1.933287886824488 5.316541513767342 1e-07 1 10 4 134 245 -147 -232 
135 1.933287686824488 4.833219367061219 -1e-07 2.41660983353061 5.316541513767342 1e-07 1 10 4 135 258 -148 -245 
136 2.41660963353061 4.833219367061219 -1e-07 2.899931780236732 5.316541513767342 1e-07 1 10 4 136 271 -149 -258 
137 2.899931580236732 4.833219367061219 -1e-07 3.383253726942854 5.316541513767342 1e-07 1 10 4 137 284 -150 -271 
138 3.383253526942854 4.833219367061219 -1e-07 3.866575673648976 5.316541513767342 1e-07 1 10 4 138 297 -151 -284 
139 3.866575473648976 4.833219367061219 -1e-07 4.349897620355098 5.316541513767342 1e-07 1 10 4 139 310 -152 -297 
140 4.349897420355098 4.833219367061219 -1e-07 4.83321956706122 5.316541513767342 1e-07 1 10 4 140 323 -153 -310 
141 4.833219367061219 4.833219367061219 -1e-07 5.316541513767342 5.316541513767342 1e-07 1 10 4 141 336 -154 -323 
142 5.316541313767342 4.833219367061219 -1e-07 5.799863460473464 5.316541513767342 1e-07 1 10 4 142 349 -155 -336 
143 5.799863260473463 4.833219367061219 -1e-07 6.283185407179587 5.316541513767342 1e-07 1 10 4 143 362 -156 -349 
144 -1.000000000028756e-07 5.316541313767342 -1e-07 0.483322046706122 5.799863460473464 1e-07 1 10 4 144 207 -157 -194 
145 0.483321846706122 5.316541313767342 -1e-07 0.9666439934122439 5.799863460473464 1e-07 1 10 4 145 220 -158 -207 
146 0.966643793412244 5.316541313767342 -1e-07 1.449965940118366 5.799863460473464 1e-07 1 10 4 146 233 -159 -220 
147 1.449965740118366 5.316541313767342 -1e-07 1.933287886824488 5.799863460473464 1e-07 1 10 4 147 246 -160 -233 
148 1.933287686824488 5.316541313767342 -1e-07 2.41660983353061 5.799863460473464 1e-07 1 10 4 148 259 -161 -246 
149 2.41660963353061 5.316541313767342 -1e-07 2.899931780236732 5.799863460473464 1e-07 1 10 4 149 272 -162 -259 
150 2.899931580236732 5.316541313767342 -1e-07 3.383253726942854 5.799863460473464 1e-07 1 10 4 150 285 -163 -272 
151 3.383253526942854 5.316541313767342 -1e-07 3.866575673648976 5.799863460473464 1e-07 1 10 4 151 298 -164 -285 
152 3.866575473648976 5.316541313767342 -1e-07 4.349897620355098 5.799863460473464 1e-07 1 10 4 152 311 -165 -298 
153 4.349897420355098 5.316541313767342 -1e-07 4.83321956706122 5.799863460473464 1e-07 1 10 4 153 324 -166 -311 
154 4.833219367061219 5.316541313767342 -1e-07 5.316541513767342 5.799863460473464 1e-07 1 10 4 154 337 -167 -324 
155 5.316541313767342 5.316541313767342 -1e-07 5.799863460473464 5.799863460473464 1e-07 1 10 4 155 350 -168 -337 
156 5.799863260473463 5.316541313767342 -1e-07 6.283185407179587 5.799863460473464 1e-07 1 10 4 156 363 -169 -350 
157 -1.000000000028756e-07 5.799863260473463 -1e-07 0.483322046706122 6.283185407179587 1e-07 1 10 4 157 208 -170 -195 
158 0.483321846706122 5.799863260473463 -1e-07 0.9666439934122439 6.283185407179587 1e-07 1 10 4 158 221 -171 -208 
159 0.966643793412244 5.799863260473463 -1e-07 1.449965940118366 6.283185407179587 1e-07 1 10 4 159 234 -172 -221 
160 1.449965740118366 5.799863260473463 -1e-07 1.933287886824488 6.283185407179587 1e-07 1 10 4 160 247 -173 -234 
161 1.933287686824488 5.799863260473463 -1e-07 2.41660983353061 6.283185407179587 1e-07 1 10 4 161 260 -174 -247 
162 2.41660963353061 5.799863260473463 -1e-07 2.899931780236732 6.283185407179587 1e-07 1 10 4 162 273 -175 -260 
163 2.899931580236732 5.799863260473463 -1e-07 3.383253726942854 6.283185407179587 1e-07 1 10 4 163 286 -176 -273 
164 3.383253526942854 5.799863260473463 -1e-07 3.866575673648976 6.283185407179587 1e-07 1 10 4 164 299 -177 -286 
165 3.866575473648976 5.799863260473463 -1e-07 4.349897620355098 6.283185407179587 1e-07 1 10 4 165 312 -178 -299 
166 4.349897420355098 5.799863260473463 -1e-07 4.83321956706122 6.283185407179587 1e-07 1 10 4 166 325 -179 -312 
167 4.833219367061219 5.799863260473463 -1e-07 5.316541513767342 6.283185407179587 1e-07 1 10 4 167 338 -180 -325 
168 5.316541313767342 5.799863260473463 -1e-07 5.799863460473464 6.283185407179587 1e-07 1 10 4 168 351 -181 -338 
169 5.799863260473463 5.799863260473463 -1e-07 6.283185407179587 6.283185407179587 1e-07 1 10 4 169 364 -182 -351 
$EndEntities
$Nodes
417 196 1 196
0 1 0 1
1
0 0 0
0 2 0 1
2
0.483321946706122 0 0
0 3 0 1
3
0.966643893412244 0 0
0 4 0 1
4
1.449965840118366 0 0
0 5 0 1
5
1.933287786824488 0 0
0 6 0 1
6
2.41660973353061 0 0
0 7 0 1
7
2.899931680236732 0 0
0 8 0 1
8
3.383253626942854 0 0
0 9 0 1
9
3.866575573648976 0 0
0 10 0 1
10
4.349897520355098 0 0
0 11 0 1
11
4.83321946706122 0 0
0 12 0 1
12
5.316541413767342 0 0
0 13 0 1
13
5.799863360473464 0 0
0 14 0 1
14
6.283185307179586 0 0
0 15 0 1
15
0 0.483321946706122 0
0 16 0 1
16
0.483321946706122 0.483321946706122 0
0 17 0 1
17
0.966643893412244 0.483321946706122 0
0 18 0 1
18
1.449965840118366 0.483321946706122 0
0 19 0 1
19
1.933287786824488 0.483321946706122 0
0 20 0 1
20
2.41660973353061 0.483321946706122 0
0 21 0 1
21
2.899931680236732 0.483321946706122 0
0 22 0 1
22
3.383253626942854 0.483321946706122 0
0 23 0 1
23
3.866575573648976 0.483321946706122 0
0 24 0 1
24
4.349897520355098 0.483321946706122 0
0 25 0 1
25
4.83321946706122 0.483321946706122 0
0 26 0 1
26
5.316541413767342 0.483321946706122 0
0 27 0 1
27
5.799863360473464 0.483321946706122 0
0 28 0 1
28
6.283185307179586 0.483321946706122 0
0 29 0 1
29
0 0.966643893412244 0
0 30 0 1
30
0.483321946706122 0.966643893412244 0
0 31 0 1
31
0.966643893412244 0.966643893412244 0
0 32 0 1
32
1.449965840118366 0.966643893412244 0
0 33 0 1
33
1.933287786824488 0.966643893412244 0
0 34 0 1
34
2.41660973353061 0.966643893412244 0
0 35 0 1
35
2.899931680236732 0.966643893412244 0
0 36 0 1
36
3.383253626942854 0.966643893412244 0
0 37 0 1
37
3.866575573648976 0.966643893412244 0
0 38 0 1
38
4.349897520355098 0.966643893412244 0
0 39 0 1
39
4.83321946706122 0.966643893412244 0
0 40 0 1
40
5.316541413767342 0.966643893412244 0
0 41 0 1
41
5.799863360473464 0.966643893412244 0
0 42 0 1
42
6.283185307179586 0.966643893412244 0
0 43 0 1
43
0 1.449965840118366 0
0 44 0 1
44
0.483321946706122 1.449965840118366 0
0 45 0 1
45
0.966643893412244 1.449965840118366 0
0 46 0 1
46
1.449965840118366 1.449965840118366 0
0 47 0 1
47
1.933287786824488 1.449965840118366 0
0 48 0 1
48
2.41660973353061 1.449965840118366 0
0 49 0 1
49
2.899931680236732 1.449965840118366 0
0 50 0 1
50
3.383253626942854 1.449965840118366 0
0 51 0 1
51
3.866575573648976 1.449965840118366 0
0 52 0 1
52
4.349897520355098 1.449965840118366 0
0 53 0 1
53
4.83321946706122 1.449965840118366 0
0 54 0 1
54
5.316541413767342 1.449965840118366 0
0 55 0 1
55
5.799863360473464 1.449965840118366 0
0 56 0 1
56
6.283185307179586 1.449965840118366 0
0 57 0 1
57
0 1.933287786824488 0
0 58 0 1
58
0.483321946706122 1.933287786824488 0
0 59 0 1
59
0.966643893412244 1.933287786824488 0
0 60 0 1
60
1.449965840118366 1.933287786824488 0
0 61 0 1
61
1.933287786824488 1.933287786824488 0
0 62 0 1
62
2.41660973353061 1.933287786824488 0
0 63 0 1
63
2.899931680236732 1.933287786824488 0
0 64 0 1
64
3.383253626942854 1.933287786824488 0
0 65 0 1
65
3.866575573648976 1.933287786824488 0
0 66 0 1
66
4.349897520355098 1.933287786824488 0
0 67 0 1
67
4.83321946706122 1.933287786824488 0
0 68 0 1
68
5.316541413767342 1.933287786824488 0
0 69 0 1
69
5.799863360473464 1.933287786824488 0
0 70 0 1
70
6.283185307179586 1.933287786824488 0
0 71 0 1
71
0 2.41660973353061 0
0 72 0 1
72
0.483321946706122 2.41660973353061 0
0 73 0 1
73
0.966643893412244 2.41660973353061 0
0 74 0 1
74
1.449965840118366 2.41660973353061 0
0 75 0 1
75
1.933287786824488 2.41660973353061 0
0 76 0 1
76
2.41660973353061 2.41660973353061 0
0 77 0 1
77
2.899931680236732 2.41660973353061 0
0 78 0 1
78
3.383253626942854 2.41660973353061 0
0 79 0 1
79
3.866575573648976 2.41660973353061 0
0 80 0 1
80
4.349897520355098 2.41660973353061 0
0 81 0 1
81
4.83321946706122 2.41660973353061 0
0 82 0 1
82
5.316541413767342 2.41660973353061 0
0 83 0 1
83
5.799863360473464 2.41660973353061 0
0 84 0 1
84
6.283185307179586 2.41660973353061 0
0 85 0 1
85
0 2.899931680236732 0
0 86 0 1
86
0.483321946706122 2.899931680236732 0
0 87 0 1
87
0.966643893412244 2.899931680236732 0
0 88 0 1
88
1.449965840118366 2.899931680236732 0
0 89 0 1
89
1.933287786824488 2.899931680236732 0
0 90 0 1
90
2.41660973353061 2.899931680236732 0
0 91 0 1
91
2.899931680236732 2.899931680236732 0
0 92 0 1
92
3.383253626942854 2.899931680236732 0
0 93 0 1
93
3.866575573648976 2.899931680236732 0
0 94 0 1
94
4.349897520355098 2.899931680236732 0
0 95 0 1
95
4.83321946706122 2.899931680236732 0
0 96 0 1
96
5.316541413767342 2.899931680236732 0
0 97 0 1
97
5.799863360473464 2.899931680236732 0
0 98 0 1
98
6.283185307179586 2.899931680236732 0
0 99 0 1
99
0 3.383253626942854 0
0 100 0 1
100
0.483321946706122 3.383253626942854 0
0 101 0 1
101
0.966643893412244 3.383253626942854 0
0 102 0 1
102
1.449965840118366 3.383253626942854 0
0 103 0 1
103
1.933287786824488 3.383253626942854 0
0 104 0 1
104
2.41660973353061 3.383253626942854 0
0 105 0 1
105
2.899931680236732 3.383253626942854 0
0 106 0 1
106
3.383253626942854 3.383253626942854 0
0 107 0 1
107
3.866575573648976 3.383253626942854 0
0 108 0 1
108
4.349897520355098 3.383253626942854 0
0 109 0 1
109
4.83321946706122 3.383253626942854 0
0 110 0 1
110
5.316541413767342 3.383253626942854 0
0 111 0 1
111
5.799863360473464 3.383253626942854 0
0 112 0 1
112
6.283185307179586 3.383253626942854 0
0 113 0 1
113
0 3.866575573648976 0
0 114 0 1
114
0.483321946706122 3.866575573648976 0
0 115 0 1
115
0.966643893412244 3.866575573648976 0
0 116 0 1
116
1.449965840118366 3.866575573648976 0
0 117 0 1
117
1.933287786824488 3.866575573648976 0
0 118 0 1
118
2.41660973353061 3.866575573648976 0
0 119 0 1
119
2.899931680236732 3.866575573648976 0
0 120 0 1
120
3.383253626942854 3.866575573648976 0
0 121 0 1
121
3.866575573648976 3.866575573648976 0
0 122 0 1
122
4.349897520355098 3.866575573648976 0
0 123 0 1
123
4.83321946706122 3.866575573648976 0
0 124 0 1
124
5.316541413767342 3.866575573648976 0
0 125 0 1
125
5.799863360473464 3.866575573648976 0
0 126 0 1
126
6.283185307179586 3.866575573648976 0
0 127 0 1
127
0 4.349897520355098 0
0 128 0 1
128
0.483321946706122 4.349897520355098 0
0 129 0 1
129
0.966643893412244 4.349897520355098 0
0 130 0 1
130
1.449965840118366 4.349897520355098 0
0 131 0 1
131
1.933287786824488 4.349897520355098 0
0 132 0 1
132
2.41660973353061 4.349897520355098 0
0 133 0 1
133
2.899931680236732 4.349897520355098 0
0 134 0 1
134
3.383253626942854 4.349897520355098 0
0 135 0 1
135
3.866575573648976 4.349897520355098 0
0 136 0 1
136
4.349897520355098 4.349897520355098 0
0 137 0 1
137
4.83321946706122 4.349897520355098 0
0 138 0 1
138
5.316541413767342 4.349897520355098 0
0 139 0 1
139
5.799863360473464 4.349897520355098 0
0 140 0 1
140
6.283185307179586 4.349897520355098 0
0 141 0 1
141
0 4.83321946706122 0
0 142 0 1
142
0.483321946706122 4.83321946706122 0
0 143 0 1
143
0.966643893412244 4.83321946706122 0
0 144 0 1
144
1.449965840118366 4.83321946706122 0
0 145 0 1
145
1.933287786824488 4.83321946706122 0
0 146 0 1
146
2.41660973353061 4.83321946706122 0
0 147 0 1
147
2.899931680236732 4.83321946706122 0
0 148 0 1
148
3.383253626942854 4.83321946706122 0
0 149 0 1
149
3.866575573648976 4.83321946706122 0
0 150 0 1
150
4.349897520355098 4.83321946706122 0
0 151 0 1
151
4.83321946706122 4.83321946706122 0
0 152 0 1
152
5.316541413767342 4.83321946706122 0
0 153 0 1
153
5.799863360473464 4.83321946706122 0
0 154 0 1
154
6.283185307179586 4.83321946706122 0
0 155 0 1
155
0 5.316541413767342 0
0 156 0 1
156
0.483321946706122 5.316541413767342 0
0 157 0 1
157
0.966643893412244 5.316541413767342 0
0 158 0 1
158
1.449965840118366 5.316541413767342 0
0 159 0 1
159
1.933287786824488 5.316541413767342 0
0 160 0 1
160
2.41660973353061 5.316541413767342 0
0 161 0 1
161
2.899931680236732 5.316541413767342 0
0 162 0 1
162
3.383253626942854 5.316541413767342 0
0 163 0 1
163
3.866575573648976 5.316541413767342 0
0 164 0 1
164
4.349897520355098 5.316541413767342 0
0 165 0 1
165
4.83321946706122 5.316541413767342 0
0 166 0 1
166
5.316541413767342 5.316541413767342 0
0 167 0 1
167
5.799863360473464 5.316541413767342 0
0 168 0 1
168
6.283185307179586 5.316541413767342 0
0 169 0 1
169
0 5.799863360473464 0
0 170 0 1
170
0.483321946706122 5.799863360473464 0
0 171 0 1
171
0.966643893412244 5.799863360473464 0
0 172 0 1
172
1.449965840118366 5.799863360473464 0
0 173 0 1
173
1.933287786824488 5.799863360473464 0
0 174 0 1
174
2.41660973353061 5.799863360473464 0
0 175 0 1
175
2.899931680236732 5.799863360473464 0
0 176 0 1
176
3.383253626942854 5.799863360473464 0
0 177 0 1
177
3.866575573648976 5.799863360473464 0
0 178 0 1
178
4.349897520355098 5.799863360473464 0
0 179 0 1
179
4.83321946706122 5.799863360473464 0
0 180 0 1
180
5.316541413767342 5.799863360473464 0
0 181 0 1
181
5.799863360473464 5.799863360473464 0
0 182 0 1
182
6.283185307179586 5.799863360473464 0
0 183 0 1
183
0 6.283185307179586 0
0 184 0 1
184
0.483321946706122 6.283185307179586 0
0 185 0 1
185
0.966643893412244 6.283185307179586 0
0 186 0 1
186
1.449965840118366 6.283185307179586 0
0 187 0 1
187
1.933287786824488 6.283185307179586 0
0 188 0 1
188
2.41660973353061 6.283185307179586 0
0 189 0 1
189
2.899931680236732 6.283185307179586 0
0 190 0 1
190
3.383253626942854 6.283185307179586 0
0 191 0 1
191
3.866575573648976 6.283185307179586 0
0 192 0 1
192
4.349897520355098 6.283185307179586 0
0 193 0 1
193
4.83321946706122 6.283185307179586 0
0 194 0 1
194
5.316541413767342 6.283185307179586 0
0 195 0 1
195
5.799863360473464 6.283185307179586 0
0 196 0 1
196
6.283185307179586 6.283185307179586 0
1 1 0 0
1 2 0 0
1 3 0 0
1 4 0 0
1 5 0 0
1 6 0 0
1 7 0 0
1 8 0 0
1 9 0 0
1 10 0 0
1 11 0 0
1 12 0 0
1 13 0 0
1 170 0 0
1 171 0 0
1 172 0 0
1 173 0 0
1 174 0 0
1 175 0 0
1 176 0 0
1 177 0 0
1 178 0 0
1 179 0 0
1 180 0 0
1 181 0 0
1 182 0 0
1 183 0 0
1 184 0 0
1 185 0 0
1 186 0 0
1 187 0 0
1 188 0 0
1 189 0 0
1 190 0 0
1 191 0 0
1 192 0 0
1 193 0 0
1 194 0 0
1 195 0 0
1 352 0 0
1 353 0 0
1 354 0 0
1 355 0 0
1 356 0 0
1 357 0 0
1 358 0 0
1 359 0 0
1 360 0 0
1 361 0 0
1 362 0 0
1 363 0 0
1 364 0 0
2 1 0 0
2 2 0 0
2 3 0 0
2 4 0 0
2 5 0 0
2 6 0 0
2 7 0 0
2 8 0 0
2 9 0 0
2 10 0 0
2 11 0 0
2 12 0 0
2 13 0 0
2 14 0 0
2 15 0 0
2 16 0 0
2 17 0 0
2 18 0 0
2 19 0 0
2 20 0 0
2 21 0 0
2 22 0 0
2 23 0 0
2 24 0 0
2 25 0 0
2 26 0 0
2 27 0 0
2 28 0 0
2 29 0 0
2 30 0 0
2 31 0 0
2 32 0 0
2 33 0 0
2 34 0 0
2 35 0 0
2 36 0 0
2 37 0 0
2 38 0 0
2 39 0 0
2 40 0 0
2 41 0 0
2 42 0 0
2 43 0 0
2 44 0 0
2 45 0 0
2 46 0 0
2 47 0 0
2 48 0 0
2 49 0 0
2 50 0 0
2 51 0 0
2 52 0 0
2 53 0 0
2 54 0 0
2 55 0 0
2 56 0 0
2 57 0 0
2 58 0 0
2 59 0 0
2 60 0 0
2 61 0 0
2 62 0 0
2 63 0 0
2 64 0 0
2 65 0 0
2 66 0 0
2 67 0 0
2 68 0 0
2 69 0 0
2 70 0 0
2 71 0 0
2 72 0 0
2 73 0 0
2 74 0 0
2 75 0 0
2 76 0 0
2 77 0 0
2 78 0 0
2 79 0 0
2 80 0 0
2 81 0 0
2 82 0 0
2 83 0 0
2 84 0 0
2 85 0 0
2 86 0 0
2 87 0 0
2 88 0 0
2 89 0 0
2 90 0 0
2 91 0 0
2 92 0 0
2 93 0 0
2 94 0 0
2 95 0 0
2 96 0 0
2 97 0 0
2 98 0 0
2 99 0 0
2 100 0 0
2 101 0 0
2 102 0 0
2 103 0 0
2 104 0 0
2 105 0 0
2 106 0 0
2 107 0 0
2 108 0 0
2 109 0 0
2 110 0 0
2 111 0 0
2 112 0 0
2 113 0 0
2 114 0 0
2 115 0 0
2 116 0 0
2 117 0 0
2 118 0 0
2 119 0 0
2 120 0 0
2 121 0 0
2 122 0 0
2 123 0 0
2 124 0 0
2 125 0 0
2 126 0 0
2 127 0 0
2 128 0 0
2 129 0 0
2 130 0 0
2 131 0 0
2 132 0 0
2 133 0 0
2 134 0 0
2 135 0 0
2 136 0 0
2 137 0 0
2 138 0 0
2 139 0 0
2 140 0 0
2 141 0 0
2 142 0 0
2 143 0 0
2 144 0 0
2 145 0 0
2 146 0 0
2 147 0 0
2 148 0 0
2 149 0 0
2 150 0 0
2 151 0 0
2 152 0 0
2 153 0 0
2 154 0 0
2 155 0 0
2 156 0 0
2 157 0 0
2 158 0 0
2 159 0 0
2 160 0 0
2 161 0 0
2 162 0 0
2 163 0 0
2 164 0 0
2 165 0 0
2 166 0 0
2 167 0 0
2 168 0 0
2 169 0 0
$EndNodes
$Elements
221 221 1 221
1 1 1 1
1 1 2 
1 2 1 1
2 2 3 
1 3 1 1
3 3 4 
1 4 1 1
4 4 5 
1 5 1 1
5 5 6 
1 6 1 1
6 6 7 
1 7 1 1
7 7 8 
1 8 1 1
8 8 9 
1 9 1 1
9 9 10 
1 10 1 1
10 10 11 
1 11 1 1
11 11 12 
1 12 1 1
12 12 13 
1 13 1 1
13 13 14 
1 170 1 1
14 183 184 
1 171 1 1
15 184 185 
1 172 1 1
16 185 186 
1 173 1 1
17 186 187 
1 174 1 1
18 187 188 
1 175 1 1
19 188 189 
1 176 1 1
20 189 190 
1 177 1 1
21 190 191 
1 178 1 1
22 191 192 
1 179 1 1
23 192 193 
1 180 1 1
24 193 194 
1 181 1 1
25 194 195 
1 182 1 1
26 195 196 
1 183 1 1
27 1 15 
1 184 1 1
28 15 29 
1 185 1 1
29 29 43 
1 186 1 1
30 43 57 
1 187 1 1
31 57 71 
1 188 1 1
32 71 85 
1 189 1 1
33 85 99 
1 190 1 1
34 99 113 
1 191 1 1
35 113 127 
1 192 1 1
36 127 141 
1 193 1 1
37 141 155 
1 194 1 1
38 155 169 
1 195 1 1
39 169 183 
1 352 1 1
40 14 28 
1 353 1 1
41 28 42 
1 354 1 1
42 42 56 
1 355 1 1
43 56 70 
1 356 1 1
44 70 84 
1 357 1 1
45 84 98 
1 358 1 1
46 98 112 
1 359 1 1
47 112 126 
1 360 1 1
48 126 140 
1 361 1 1
49 140 154 
1 362 1 1
50 154 168 
1 363 1 1
51 168 182 
1 364 1 1
52 182 196 
2 1 3 1
53 1 2 16 15 
2 2 3 1
54 2 3 17 16 
2 3 3 1
55 3 4 18 17 
2 4 3 1
56 4 5 19 18 
2 5 3 1
57 5 6 20 19 
2 6 3 1
58 6 7 21 20 
2 7 3 1
59 7 8 22 21 
2 8 3 1
60 8 9 23 22 
2 9 3 1
61 9 10 24 23 
2 10 3 1
62 10 11 25 24 
2 11 3 1
63 11 12 26 25 
2 12 3 1
64 12 13 27 26 
2 13 3 1
65 13 14 28 27 
2 14 3 1
66 15 16 30 29 
2 15 3 1
67 16 17 31 30 
2 16 3 1
68 17 18 32 31 
2 17 3 1
69 18 19 33 32 
2 18 3 1
70 19 20 34 33 
2 19 3 1
71 20 21 35 34 
2 20 3 1
72 21 22 36 35 
2 21 3 1
73 22 23 37 36 
2 22 3 1
74 23 24 38 37 
2 23 3 1
75 24 25 39 38 
2 24 3 1
76 25 26 40 39 
2 25 3 1
77 26 27 41 40 
2 26 3 1
78 27 28 42 41 
2 27 3 1
79 29 30 44 43 
2 28 3 1
80 30 31 45 44 
2 29 3 1
81 31 32 46 45 
2 30 3 1
82 32 33 47 46 
2 31 3 1
83 33 34 48 47 
2 32 3 1
84 34 35 49 48 
2 33 3 1
85 35 36 50 49 
2 34 3 1
86 36 37 51 50 
2 35 3 1
87 37 38 52 51 
2 36 3 1
88 38 39 53 52 
2 37 3 1
89 39 40 54 53 
2 38 3 1
90 40 41 55 54 
2 39 3 1
91 41 42 56 55 
2 40 3 1
92 43 44 58 57 
2 41 3 1
93 44 45 59 58 
2 42 3 1
94 45 46 60 59 
2 43 3 1
95 46 47 61 60 
2 44 3 1
96 47 48 62 61 
2 45 3 1
97 48 49 63 62 
2 46 3 1
98 49 50 64 63 
2 47 3 1
99 50 51 65 64 
2 48 3 1
100 51 52 66 65 
2 49 3 1
101 52 53 67 66 
2 50 3 1
102 53 54 68 67 
2 51 3 1
103 54 55 69 68 
2 52 3 1
104 55 56 70 69 
2 53 3 1
105 57 58 72 71 
2 54 3 1
106 58 59 73 72 
2 55 3 1
107 59 60 74 73 
2 56 3 1
108 60 61 75 74 
2 57 3 1
109 61 62 76 75 
2 58 3 1
110 62 63 77 76 
2 59 3 1
111 63 64 78 77 
2 60 3 1
112 64 65 79 78 
2 61 3 1
113 65 66 80 79 
2 62 3 1
114 66 67 81 80 
2 63 3 1
115 67 68 82 81 
2 64 3 1
116 68 69 83 82 
2 65 3 1
117 69 70 84 83 
2 66 3 1
118 71 72 86 85 
2 67 3 1
119 72 73 87 86 
2 68 3 1
120 73 74 88 87 
2 69 3 1
121 74 75 89 88 
2 70 3 1
122 75 76 90 89 
2 71 3 1
123 76 77 91 90 
2 72 3 1
124 77 78 92 91 
2 73 3 1
125 78 79 93 92 
2 74 3 1
126 79 80 94 93 
2 75 3 1
127 80 81 95 94 
2 76 3 1
128 81 82 96 95 
2 77 3 1
129 82 83 97 96 
2 78 3 1
130 83 84 98 97 
2 79 3 1
131 85 86 100 99 
2 80 3 1
132 86 87 101 100 
2 81 3 1
133 87 88 102 101 
2 82 3 1
134 88 89 103 102 
2 83 3 1
135 89 90 104 103 
2 84 3 1
136 90 91 105 104 
2 85 3 1
137 91 92 106 105 
2 86 3 1
138 92 93 107 106 
2 87 3 1
139 93 94 108 107 
2 88 3 1
140 94 95 109 108 
2 89 3 1
141 95 96 110 109 
2 90 3 1
142 96 97 111 110 
2 91 3 1
143 97 98 112 111 
2 92 3 1
144 99 100 114 113 
2 93 3 1
145 100 101 115 114 
2 94 3 1
146 101 102 116 115 
2 95 3 1
147 102 103 117 116 
2 96 3 1
148 103 104 118 117 
2 97 3 1
149 104 105 119 118 
2 98 3 1
150 105 106 120 119 
2 99 3 1
151 106 107 121 120 
2 100 3 1
152 107 108 122 121 
2 101 3 1
153 108 109 123 122 
2 102 3 1
154 109 110 124 123 
2 103 3 1
155 110 111 125 124 
2 104 3 1
156 111 112 126 125 
2 105 3 1
157 113 114 128 127 
2 106 3 1
158 114 115 129 128 
2 107 3 1
159 115 116 130 129 
2 108 3 1
160 116 117 131 130 
2 109 3 1
161 117 118 132 131 
2 110 3 1
162 118 119 133 132 
2 111 3 1
163 119 120 134 133 
2 112 3 1
164 120 121 135 134 
2 113 3 1
165 121 122 136 135 
2 114 3 1
166 122 123 137 136 
2 115 3 1
167 123 124 138 137 
2 116 3 1
168 124 125 139 138 
2 117 3 1
169 125 126 140 139 
2 118 3 1
170 127 128 142 141 
2 119 3 1
171 128 129 143 142 
2 120 3 1
172 129 130 144 143 
2 121 3 1
173 130 131 145 144 
2 122 3 1
174 131 132 146 145 
2 123 3 1
175 132 133 147 146 
2 124 3 1
176 133 134 148 147 
2 125 3 1
177 134 135 149 148 
2 126 3 1
178 135 136 150 149 
2 127 3 1
179 136 137 151 150 
2 128 3 1
180 137 138 152 151 
2 129 3 1
181 138 139 153 152 
2 130 3 1
182 139 140 154 153 
2 131 3 1
183 141 142 156 155 
2 132 3 1
184 142 143 157 156 
2 133 3 1
185 143 144 158 157 
2 134 3 1
186 144 145 159 158 
2 135 3 1
187 145 146 160 159 
2 136 3 1
188 146 147 161 160 
2 137 3 1
189 147 148 162 161 
2 138 3 1
190 148 149 163 162 
2 139 3 1
191 149 150 164 163 
2 140 3 1
192 150 151 165 164 
2 141 3 1
193 151 152 166 165 
2 142 3 1
194 152 153 167 166 
2 143 3 1
195 153 154 168 167 
2 144 3 1
196 155 156 170 169 
2 145 3 1
197 156 157 171 170 
2 146 3 1
198 157 158 172 171 
2 147 3 1
199 158 159 173 172 
2 148 3 1
200 159 160 174 173 
2 149 3 1
201 160 161 175 174 
2 150 3 1
202 161 162 176 175 
2 151 3 1
203 162 163 177 176 
2 152 3 1
204 163 164 178 177 
2 153 3 1
205 164 165 179 178 
2 154 3 1
206 165 166 180 179 
2 155 3 1
207 166 167 181 180 
2 156 3 1
208 167 168 182 181 
2 157 3 1
209 169 170 184 183 
2 158 3 1
210 170 171 185 184 
2 159 3 1
211 171 172 186 185 
2 160 3 1
212 172 173 187 186 
2 161 3 1
213 173 174 188 187 
2 162 3 1
214 174 175 189 188 
2 163 3 1
215 175 176 190 189 
2 164 3 1
216 176 177 191 190 
2 165 3 1
217 177 178 192 191 
2 166 3 1
218 178 179 193 192 
2 167 3 1
219 179 180 194 193 
2 168 3 1
220 180 181 195 194 
2 169 3 1
221 181 182 196 195 
$EndElements
