$MeshFormat
4.1 0 8
$EndMeshFormat
$Entities
5 5 3 0
1 -5 -5 0 0 
2 10 -5 0 0 
3 10 5 0 0 
4 -5 5 0 0 
5 0.5 0 0 0 
1 -5.000000099999999 -5.0000001 -1e-07 10.0000001 -4.9999999 1e-07 1 6 2 1 -2 
2 9.999999900000001 -5.0000001 -1e-07 10.0000001 5.0000001 1e-07 1 8 2 2 -3 
3 -5.000000099999999 4.9999999 -1e-07 10.0000001 5.0000001 1e-07 1 6 2 3 -4 
4 -5.0000001 -5.0000001 -1e-07 -4.9999999 5.0000001 1e-07 1 7 2 4 -1 
5 -0.5000000999999999 -0.5000000999999999 -1e-07 0.5000000999999999 0.5000000999999999 1e-07 1 9 2 5 -5 
1 -5.000000099999999 -5.0000001 -1e-07 10.0000001 5.0000001 1e-07 0 4 1 2 3 4 
2 -0.5000000999999999 -0.5000000999999999 -1e-07 0.5000000999999999 0.5000000999999999 1e-07 0 1 5 
3 -5.000000099999999 -5.0000001 -1e-07 10.0000001 5.0000001 1e-07 1 10 5 3 4 1 2 -5 
$EndEntities
$Nodes
11 466 1 466
0 1 0 1
1
-5 -5 0
0 2 0 1
2
10 -5 0
0 3 0 1
3
10 5 0
0 4 0 1
4
-5 5 0
0 5 0 1
5
0.5 0 0
1 1 0 11
6
7
8
9
10
11
12
13
14
15
16
-3.750000000000002 -5 0
-2.500000000000006 -5 0
-1.250000000000009 -5 0
-1.332267629550188e-14 -5 0
1.249999999999983 -5 0
2.49999999999998 -5 0
3.749999999999977 -5 0
4.999999999999973 -5 0
6.249999999999973 -5 0
7.499999999999982 -5 0
8.749999999999993 -5 0
1 2 0 7
17
18
19
20
21
22
23
10 -3.75 0
10 -2.5 0
10 -1.25 0
10 0 0
10 1.25 0
10 2.5 0
10 3.75 0
1 3 0 11
24
25
26
27
28
29
30
31
32
33
34
8.750000000000002 5 0
7.500000000000005 5 0
6.250000000000009 5 0
5.000000000000013 5 0
3.750000000000017 5 0
2.50000000000002 5 0
1.250000000000023 5 0
2.664535259100376e-14 5 0
-1.249999999999973 5 0
-2.499999999999982 5 0
-3.749999999999993 5 0
1 4 0 7
35
36
37
38
39
40
41
-5 3.75 0
-5 2.5 0
-5 1.25 0
-5 0 0
-5 -1.25 0
-5 -2.5 0
-5 -3.75 0
1 5 0 37
42
43
44
45
46
47
48
49
50
51
52
53
54
55
56
57
58
59
60
61
62
63
64
65
66
67
68
69
70
71
72
73
74
75
76
77
78
0.4931806517013612 0.08229729514036702 0
0.4729086208503173 0.1623497346023419 0
0.4397368756032444 0.237973696518537 0
0.3945702546981966 0.3071063563448341 0
0.3386407858128703 0.367861955336566 0
0.2734740790612132 0.4185832391312644 0
0.2008477123264845 0.4578866633275288 0
0.1227427435703993 0.4847001329696653 0
0.04128967273616575 0.498292246503335 0
-0.04128967273616647 0.4982922465033349 0
-0.1227427435703998 0.4847001329696651 0
-0.200847712326485 0.4578866633275286 0
-0.2734740790612137 0.4185832391312641 0
-0.3386407858128708 0.3678619553365656 0
-0.3945702546981969 0.3071063563448338 0
-0.4397368756032447 0.2379736965185364 0
-0.4729086208503175 0.1623497346023414 0
-0.4931806517013612 0.08229729514036679 0
-0.5 6.123233995736766e-17 0
-0.4931806517013612 -0.08229729514036689 0
-0.4729086208503174 -0.1623497346023415 0
-0.4397368756032448 -0.2379736965185363 0
-0.3945702546981972 -0.3071063563448334 0
-0.3386407858128709 -0.3678619553365655 0
-0.2734740790612138 -0.4185832391312641 0
-0.2008477123264857 -0.4578866633275283 0
-0.1227427435704009 -0.4847001329696649 0
-0.0412896727361677 -0.4982922465033348 0
0.04128967273616441 -0.4982922465033351 0
0.1227427435703972 -0.4847001329696658 0
0.2008477123264823 -0.4578866633275298 0
0.2734740790612111 -0.4185832391312658 0
0.3386407858128686 -0.3678619553365676 0
0.3945702546981956 -0.3071063563448354 0
0.4397368756032437 -0.2379736965185383 0
0.4729086208503172 -0.1623497346023423 0
0.4931806517013611 -0.08229729514036729 0
2 3 0 388
79
80
81
82
83
84
85
86
87
88
89
90
91
92
93
94
95
96
97
98
99
100
101
102
103
104
105
106
107
108
109
110
111
112
113
114
115
116
117
118
119
120
121
122
123
124
125
126
127
128
129
130
131
132
133
134
135
136
137
138
139
140
141
142
143
144
145
146
147
148
149
150
151
152
153
154
155
156
157
158
159
160
161
162
163
164
165
166
167
168
169
170
171
172
173
174
175
176
177
178
179
180
181
182
183
184
185
186
187
188
189
190
191
192
193
194
195
196
197
198
199
200
201
202
203
204
205
206
207
208
209
210
211
212
213
214
215
216
217
218
219
220
221
222
223
224
225
226
227
228
229
230
231
232
233
234
235
236
237
238
239
240
241
242
243
244
245
246
247
248
249
250
251
252
253
254
255
256
257
258
259
260
261
262
263
264
265
266
267
268
269
270
271
272
273
274
275
276
277
278
279
280
281
282
283
284
285
286
287
288
289
290
291
292
293
294
295
296
297
298
299
300
301
302
303
304
305
306
307
308
309
310
311
312
313
314
315
316
317
318
319
320
321
322
323
324
325
326
327
328
329
330
331
332
333
334
335
336
337
338
339
340
341
342
343
344
345
346
347
348
349
350
351
352
353
354
355
356
357
358
359
360
361
362
363
364
365
366
367
368
369
370
371
372
373
374
375
376
377
378
379
380
381
382
383
384
385
386
387
388
389
390
391
392
393
394
395
396
397
398
399
400
401
402
403
404
405
406
407
408
409
410
411
412
413
414
415
416
417
418
419
420
421
422
423
424
425
426
427
428
429
430
431
432
433
434
435
436
437
438
439
440
441
442
443
444
445
446
447
448
449
450
451
452
453
454
455
456
457
458
459
460
461
462
463
464
465
466
4.480459993488654 3.811681320710083 0
4.280600161395304 -3.984662363832987 0
0.5692330300742912 -0.04826158732930075 0
9.000432227017907 0.6246296778632036 0
1.973555027981386 3.972037344319499 0
0.5230759877013769 0.2282873895638631 0
0.3546345636515014 0.4507597014499501 0
-1.902649404790126 -3.928810424384612 0
-0.2711986595035309 -0.5011312298062358 0
2.081374572841208 -3.988309696560475 0
0.483202628077414 -0.3189944985614875 0
-0.00327249774200844 -0.5785032910627435 0
0.271198659503527 -0.5011312298062379 0
-1.874999999999978 3.917468245269448 0
-0.000520663193571469 0.5735464040436647 0
-0.2704312765147816 0.5060069363140078 0
-3.917468245269452 0.625 0
-0.5305969141484113 -0.2270150144909003 0
-0.4792941041339049 0.316475879266471 0
-0.5678618741049837 0.04705437643405886 0
6.874999999999978 -3.917468245269448 0
6.823851772670865 4.028041169255726 0
-3.915884570328096 -2.064114359679702 0
8.73031963747669 -1.97186633491105 0
-3.930393584498881 2.989948022460497 0
8.946180328504415 3.117929413485942 0
3.021557386425047 3.977190866062643 0
3.677046172322994 3.064684878209454 0
2.393592543988735 3.095380512385032 0
1.631943696797933 3.060832048912293 0
2.014513592125494 2.423524089288973 0
1.391700955719184 2.362127056140866 0
1.667235589250311 1.797191621197349 0
2.320158089867859 1.847608533271867 0
2.031964799716732 1.344746072178082 0
2.614834018702671 1.344714285524877 0
2.327438365532086 0.8723474694155333 0
2.929345259446628 0.8386793974490938 0
2.509609774936804 0.3027322614544705 0
3.262434025154774 0.2816341949939183 0
2.899005671670477 -0.2850562366492994 0
3.627969323871588 -0.3199796256309303 0
4.011145219604233 0.3482997454819118 0
4.436981824218697 -0.383150879241446 0
1.117601776273241 1.831815167930485 0
0.8285500157084287 2.250901916593588 0
4.858910285007743 0.4292807500005194 0
0.6034169365051398 1.719511872126258 0
0.3273018294490528 2.124243853428305 0
0.9163878323432506 1.410263826013466 0
2.226959951970283 -0.3010076179003333 0
2.557986825950123 -0.8498513214116241 0
1.927201869192354 -0.8232414305583409 0
0.1350574838528229 1.699182390355043 0
-0.1354041108956041 2.03914344236072 0
-0.2816525893051658 1.63831308679883 0
-0.5815679793594937 1.954488134609168 0
-0.6928006030738825 1.510496314354707 0
-1.040789586608112 1.867223664894865 0
-1.166792893581942 1.351220672067091 0
5.343992357316983 -0.3745894697605384 0
-1.552781322894099 1.791776708949357 0
0.4710975627821012 2.651625171321445 0
-1.714168079573414 1.282230553798525 0
-1.425720838277191 0.8977321113741464 0
-1.879697959545291 0.7929558804651737 0
-1.545950306226039 0.4281053180914227 0
-2.01342314143457 0.3185949715668325 0
-1.683854220578657 -0.05301671929096189 0
2.215661639175301 -1.389271011003724 0
1.536839268727539 -1.232261662151575 0
2.877584082969687 -1.46147484840262 0
-2.182448773734007 -0.1590826217116488 0
-1.817081748236921 -0.5165488152503599 0
1.688801267245275 -0.3573611253095891 0
-0.4325175787439166 2.53500934533707 0
5.813101387617913 0.465947316530151 0
5.271191184742872 1.303752614441031 0
3.353202163712166 1.477596605411713 0
4.857779828960232 -1.204386700884623 0
5.840228232643673 -1.219587478441635 0
6.293022457122126 1.382730521882491 0
-2.122178531331018 1.719519101407938 0
-1.415108008813216 -0.3569245969989721 0
-1.434654670530636 -0.7842095197509302 0
-1.080881488420701 -0.7504561739487552 0
-1.091906947175823 -1.090077006541456 0
-0.4315494087491603 -0.3897522144754649 0
-1.577857110593756 -1.274835821576758 0
-1.22769971694674 -1.591177420804092 0
-0.7187022980884952 -1.366997929821548 0
-0.8534286829790614 -1.918780645856883 0
-0.3039452591521496 -1.651951664893538 0
-1.727086560782016 -1.799170930669136 0
-0.432100854286527 -2.272611476297298 0
-2.132459649597719 -1.386656156886185 0
0.08423758553289851 -2.051513723784439 0
-0.03409328145314827 1.321339339588452 0
1.816573895933505 0.9108303491892495 0
0.1832505270276776 -1.537140032110934 0
0.02684129259328749 -2.706228665840571 0
0.6510964755887272 -2.414173226625833 0
1.822605173895524 -1.888400638767534 0
-1.093206544524161 0.5328511230699146 0
-2.332681405718002 -2.083132978026546 0
1.013677965994846 3.729531165683092 0
-1.405010396568823 2.416248399240041 0
-1.036654826378235 -2.479721103548406 0
-0.9397303997810793 -0.3581599592640098 0
-2.466104995453682 0.7602443967667126 0
5.311571534845397 -2.07977079751589 0
5.70826412375694 2.213535994403746 0
6.812920340244518 0.4381402609134499 0
0.5678281536742174 -3.177469607608784 0
4.327247775661245 -2.028618928077772 0
7.326275439323153 1.326269576132673 0
6.33728542911917 -2.107733438465435 0
6.846640000837797 -1.23909705446774 0
-1.016792894275159 0.8369158825846466 0
-0.723300711055944 0.6526996402086216 0
-0.6518006807292815 0.9264287157193508 0
-0.8965604610589777 0.3542618049941696 0
-1.308109928630526 0.05747383659858831 0
0.5587004513111951 1.309023712905685 0
0.7675955381738464 1.080531890224334 0
0.4875036022899897 1.023291090600533 0
0.1860851330510029 0.5399841156145802 0
0.6574427584160896 0.8445064620274693 0
0.9136555643443942 0.8686313741385472 0
0.7959199071359877 0.6256307426653243 0
1.046217522550158 0.6470250844908658 0
0.9358979301000605 0.4171354049827034 0
1.206442003358696 0.4365870685330369 0
1.044239887791149 0.2157167372741329 0
0.4269381679865329 0.7880981682241653 0
0.8238865177973265 0.1507686555843556 0
0.9475746444842139 -0.003215821139811036 0
0.7123800405193554 0.3816880702912073 0
0.5937870389068676 0.5585768100762318 0
0.2620279028980312 0.9546692847790166 0
1.369906592632731 0.2059462181369525 0
-0.2006619194704888 -3.427293690415641 0
1.153879350235542 0.8440836896521664 0
-0.4982332248979677 0.6821637661328634 0
-0.3884040726147227 0.9090813947555507 0
-0.2341524134498152 0.7721698049578714 0
1.437445724093301 -0.7073972413770824 0
1.031221261817238 -1.215096027363418 0
0.9299520230586786 -0.7158679500511126 0
0.2271489807796638 0.7519583132715069 0
0.07160685415306833 0.8948519507261801 0
4.747403455636933 2.108615681558153 0
1.254766759733756 -2.900622646366054 0
1.226911233735002 -0.3465568530747718 0
1.547297560960771 1.264288451517114 0
1.195336283209584 -1.684270312642675 0
1.833984705257738 0.1181191662987296 0
-0.5802275716153074 0.4953827053468519 0
0.3500560566740814 0.6581284464459071 0
-2.36345394391215 -0.7673039296748981 0
-2.762542222700969 -0.2234706190296822 0
-4.007590022375471 -0.4457653089127144 0
-3.127533769398698 -0.7406849178002345 0
7.426940862765289 -2.080487338685169 0
3.120741359133135 -4.009403255971278 0
2.597598039139495 -3.203240331664692 0
3.663227877775173 -2.890394289730912 0
5.88696020441181 -3.004341341010844 0
0.7596126401617065 -0.001435873885533735 0
0.8207936884825227 -0.1713192929771773 0
-3.989824982932223 1.866030047921623 0
-3.090163211217222 2.462912057516151 0
0.6695046547756178 0.1116836490272686 0
-0.3361765222847932 -1.276063064191181 0
0.1073701597425174 -0.9551152681493823 0
-0.7341259632208592 -1.019039786295221 0
-0.3538479269463948 -0.8544933635604349 0
-0.6974311398918944 -0.6252023822376638 0
0.4894260977617906 0.3115860995381083 0
-0.3512301523270835 0.4545655491237506 0
0.3510133799227968 -0.4620259512029505 0
0.3364656993453683 -0.5574292958542006 0
0.2502834830786669 -0.619395733743331 0
0.3801675707940406 -0.6851013119411635 0
0.4644751076684939 -0.517565637171423 0
0.2226551193149851 -0.7629531712189772 0
0.3562952491333613 -0.8939248886032433 0
-0.04011459217848934 -0.8432714370791065 0
0.5624484132100012 -0.803943934946505 0
0.5841765629593527 -1.07019737885523 0
-0.1948065168093667 -0.5465608781082115 0
-0.2806114101094681 -0.6044748828763538 0
-0.3828775130800364 -0.5497358278932767 0
-0.1850163738221378 0.5389342852531556 0
0.2735444018734334 0.5001922524517408 0
0.4192214124045135 0.385920496715564 0
0.5750962897138734 0.04425933502196136 0
0.555162489621535 -0.1419401485162231 0
-2.929349306283569 1.43004903632207 0
-0.5792081976423034 -0.04177172743793436 0
-0.6665421304487333 0.01436580815464517 0
-0.6750100650845803 -0.1062783727061529 0
-0.8022761326307801 -0.03282802122989981 0
-0.6499081182001167 0.130045478814746 0
0.08957243553019101 -0.573845519937644 0
0.09417771347107795 0.564607612259138 0
0.05644271029870973 0.6424321037603385 0
-0.04100513660128691 0.6681667433462658 0
-0.09938882294830886 -0.5752319449648524 0
-0.1850278325719099 -0.6579118567957527 0
0.6658501024555616 -0.1000295264748962 0
0.6565121555606415 -0.2241119139838051 0
0.7663964244300183 -0.3503073076937858 0
0.2794463278813772 1.191038877051377 0
-0.4199609097335779 0.3866515625510517 0
-0.5218053141286267 0.2317381627273297 0
-0.5908286432714505 0.3338796738617295 0
0.4192214124045104 -0.3859204967155677 0
0.5301269986585453 -0.2385066353315894 0
-0.4901356682569009 -0.3141124339223713 0
-0.6078090081528211 -0.3039143501718236 0
-0.5461185992904931 -0.416419688259419 0
-0.6999904112797868 -0.4275838920091853 0
-0.5644104387719659 -0.1372574080601826 0
0.4593215226033824 0.4936082937171382 0
-0.8260401377702271 4.008166393605137 0
-3.030634916822471 -4.002290036365373 0
-2.494697537830744 -3.056178623916984 0
-3.48020026708731 -3.084105828766802 0
-1.75486051688525 -2.507401893991609 0
-2.906409577768097 3.46596164098285 0
-2.145663901199623 2.836475614323605 0
2.660881983250244 2.388063775582597 0
5.19289528276682 3.008133611328998 0
-1.29335023953477 3.183441692339447 0
-0.1538049631865706 0.9730981946465169 0
-0.295608145199882 1.154103255383821 0
0.6047385577423969 -0.3394649858959565 0
0.6503751466834502 -0.4901221119817722 0
4.240994583679984 1.209492735732426 0
-0.35079032845782 0.5625751239807727 0
1.193933192268534 -0.029770415308978 0
0.6809031879881191 -1.464012644499114 0
-0.05624646239893138 -0.7008785788493869 0
8.9396674620306 -0.6322177046911108 0
9.014102894413451 1.870925795012211 0
7.923614568893129 0.2027328749916311 0
4.005796318263434 -1.099254541412225 0
8.160214815553163 -4.015959129479883 0
-0.7497256708245059 -0.2450785516278105 0
3.952797411101912 2.163557022893869 0
7.954682906296926 2.436518546696503 0
1.545417991495622 0.5194198773354231 0
3.024152672547338 -2.313595911463965 0
4.787203372948044 -2.955798971409527 0
0.5979236102180863 0.2988525792915049 0
0.5593698123886919 0.4140948442658037 0
-0.5542397558467713 3.213277277248 0
0.3107289378269296 -4.056306347127375 0
6.777523265010841 2.264469841236596 0
0.1125886839201633 3.737752167405062 0
6.302632861690792 -0.3862846785408236 0
8.957689589007963 -3.1462019785055 0
5.638521030105952 3.989770740688594 0
8.051232432838237 3.82920309792064 0
0.4699682114538106 0.6166459555467421 0
-0.09212685410440846 0.5673499922981109 0
0.5523720824848253 0.1398796085746598 0
7.881751898979103 -1.069176002003038 0
-0.7750870714928979 -4.109057254767252 0
-1.154316422404596 -3.196937132639115 0
-3.045848533280115 0.523803466888908 0
5.432877240525002 -4.028390372169781 0
-0.3993105715107177 -0.6807019761695057 0
-0.9215282753380589 -0.1744780919898929 0
-0.1592382399109797 0.6458406792924457 0
-0.552300376168426 0.1429750626235561 0
-1.020793706544073 -0.0006679044809185565 0
-2.940489113224399 -1.500253178763612 0
-3.032790578837711 -2.357556993830729 0
0.1585077869419469 0.6385188714368788 0
-0.5356784875276559 -0.5650228309757881 0
-0.564385794948878 -0.7836116624359424 0
0.9698527617599799 -0.3576670634808227 0
-1.324614045375693 -2.076439755052392 0
-0.8229457946992578 1.184267873398869 0
1.018214794730391 2.836590648559792 0
6.195409157413145 3.102237076808248 0
-0.4530753245855621 0.4938960098819843 0
-0.736497274631275 0.4381852171170647 0
-0.7297850632345306 0.2421351435223837 0
-0.8742629488316682 0.1476808068302239 0
-1.079580760036935 0.243774497408363 0
3.248625074356487 -0.8730994142408491 0
3.536174082512357 -1.786291700397731 0
-4.020212335029765 -3.94574626636326 0
0.1850163738221307 -0.5389342852531578 0
0.7055566135974283 0.2440792863344445 0
-0.3575195947624055 -0.4509872957171489 0
0.3633669306087546 0.5491592262583147 0
1.285579655596696 -2.253534628950497 0
2.045350847271494 -2.537966664551709 0
1.189863547396522 -3.690624492444419 0
0.08960541554667678 1.074785035888961 0
1.117796888703457 1.126475566256237 0
-1.891353467741308 -0.9660194048588686 0
2.425751022156338 -1.92487331974882 0
0.3120707656688579 -1.199301661394718 0
-0.1703143777148903 -1.021974324921196 0
2.851280591867678 1.868471853069362 0
3.559424250319557 0.8311405358138129 0
-1.129703105311318 -0.2267488994135877 0
0.05584320856620728 2.487729018296151 0
0.04527271387709764 3.042778975675918 0
-0.9263308395247596 2.726475202596452 0
-2.222299774437396 1.196999793752084 0
0.5244025705152533 -0.4104135460652414 0
-0.2578810212910274 0.6192911107279834 0
-0.5593785459893121 -2.816558413748206 0
2.042252198278001 0.5338621423835483 0
-0.5383332322770809 1.148994283962286 0
-0.0719894332882407 0.7875235955498618 0
-0.3467568407700385 0.6998302455601376 0
3.289555461573293 2.290421213077892 0
6.864936089883143 -2.827935607319535 0
0.6504578951335405 -0.002912100268769906 0
-3.867423094658079 4.069374543132155 0
0.8633623458748827 -0.5265215170280643 0
-1.94153702174719 2.190610927096909 0
0.05428887648167802 -0.6573703361995324 0
0.1508779153001019 -0.6654189840728518 0
-0.6329426678444641 -0.2038522007524476 0
-0.5046773106679607 0.4052571661816178 0
-2.49407353332067 0.2440179188962244 0
-3.372196558604942 -0.0522234757707446 0
-0.03462411778546315 -1.273591002610158 0
0.4846401725047107 -1.895345902136787 0
-0.1914160099309172 -0.8145961843015989 0
1.095789925396943 -0.5918191512975988 0
4.410120463063462 2.831334502940111 0
1.291003398951645 0.6652949223606534 0
0.8089485990460923 -0.9293145443592024 0
1.462707398227856 -0.08192460185153136 0
3.022137983499321 2.928937197037377 0
7.835850165781038 -2.993319772361764 0
0.5693463367576106 4.414638767848401 0
-0.8968306465657196 -0.5812232384230855 0
9.084936490538897 -4.084936490538901 0
-0.4654641032794431 -0.4820481275528775 0
0.6093400248793317 0.2091866947654041 0
9.084936490538903 4.084936490538903 0
0.5840829618998171 0.6989270139788262 0
8.243821607188913 1.292215294139244 0
1.258154486805755 1.490766491146135 0
1.448774198079868 0.9001300669600136 0
0.5644966769494564 -0.6311887790392233 0
0.3085055836194774 1.448019238405363 0
-0.7518858183870609 0.09273791620811475 0
7.153511934129068 -0.410736919821304 0
-0.8772432761610212 2.299888949335519 0
0.256870242577973 0.5952280047259689 0
0.5321703442609198 3.199655625729062 0
-2.482050956742386 2.189034811563607 0
1.835302260370141 -3.26467041262313 0
7.160539906846004 3.132093946383542 0
-3.798299495065333 -1.200163553031253 0
0.829083027478748 0.3012106324020436 0
-1.826630970477679 -3.17233201873308 0
0.8595111549775671 -1.942267342970981 0
-0.3684975702618321 1.354649256017619 0
-4.349574065406208 -3.137114434939424 0
-2.979766534485226 4.29056088587689 0
-1.266701244546844 0.3793169862947095 0
-0.6089255030006302 0.216154704309949 0
-0.2820427502138814 -0.7224356527407292 0
1.031813104146051 -0.1817058891963121 0
-0.8442603300373115 -0.8082683749803539 0
3.711550495945456 3.863320024284096 0
0.7861845678708843 -1.183015031006212 0
0.07313850271031086 -0.7641679625948729 0
0.7355164950465691 -0.6781225571783243 0
-1.287789133445805 0.6244843032326615 0
0.7203539347039476 0.5152330953826679 0
-0.4795921472007181 -1.053696688537587 0
0.07189158101459459 0.7421292451050919 0
-1.149484719903778 -0.5096203979665567 0
-0.9006600442268229 0.5445231365939032 0
1.145345757616794 -0.8973524849098959 0
$EndNodes
$Elements
6 932 1 932
1 1 1 12
1 1 6 
2 6 7 
3 7 8 
4 8 9 
5 9 10 
6 10 11 
7 11 12 
8 12 13 
9 13 14 
10 14 15 
11 15 16 
12 16 2 
1 2 1 8
13 2 17 
14 17 18 
15 18 19 
16 19 20 
17 20 21 
18 21 22 
19 22 23 
20 23 3 
1 3 1 12
21 3 24 
22 24 25 
23 25 26 
24 26 27 
25 27 28 
26 28 29 
27 29 30 
28 30 31 
29 31 32 
30 32 33 
31 33 34 
32 34 4 
1 4 1 8
33 4 35 
34 35 36 
35 36 37 
36 37 38 
37 38 39 
38 39 40 
39 40 41 
40 41 1 
1 5 1 38
41 5 42 
42 42 43 
43 43 44 
44 44 45 
45 45 46 
46 46 47 
47 47 48 
48 48 49 
49 49 50 
50 50 51 
51 51 52 
52 52 53 
53 53 54 
54 54 55 
55 55 56 
56 56 57 
57 57 58 
58 58 59 
59 59 60 
60 60 61 
61 61 62 
62 62 63 
63 63 64 
64 64 65 
65 65 66 
66 66 67 
67 67 68 
68 68 69 
69 69 70 
70 70 71 
71 71 72 
72 72 73 
73 73 74 
74 74 75 
75 75 76 
76 76 77 
77 77 78 
78 78 5 
2 3 2 854
79 221 433 383 
80 225 466 149 
81 243 244 88 
82 193 373 245 
83 201 451 145 
84 220 348 337 
85 145 460 143 
86 321 386 178 
87 188 394 277 
88 198 236 222 
89 252 462 169 
90 204 206 203 
91 191 325 194 
92 153 232 225 
93 162 201 147 
94 162 390 201 
95 204 213 206 
96 129 153 131 
97 143 197 138 
98 35 405 4 
99 245 373 332 
100 202 203 128 
101 131 225 149 
102 95 350 277 
103 242 423 102 
104 108 109 107 
105 147 201 145 
106 202 204 203 
107 289 290 248 
108 264 458 253 
109 245 333 193 
110 249 250 103 
111 11 243 88 
112 157 389 318 
113 117 235 129 
114 198 222 199 
115 268 386 321 
116 106 402 329 
117 228 237 213 
118 277 394 161 
119 126 128 123 
120 110 111 109 
121 318 329 157 
122 185 313 310 
123 383 433 233 
124 222 367 319 
125 197 364 138 
126 153 225 131 
127 4 405 34 
128 281 328 280 
129 108 110 109 
130 110 123 111 
131 235 331 219 
132 325 431 194 
133 134 176 132 
134 171 414 252 
135 126 202 128 
136 254 455 165 
137 83 107 105 
138 308 349 186 
139 332 385 380 
140 95 277 249 
141 178 414 171 
142 197 465 198 
143 212 445 214 
144 238 357 174 
145 83 108 107 
146 337 348 9 
147 117 398 235 
148 310 407 185 
149 312 342 79 
150 253 265 264 
151 102 423 341 
152 239 412 350 
153 171 252 169 
154 277 350 188 
155 169 254 165 
156 105 422 106 
157 79 342 27 
158 306 308 183 
159 218 228 213 
160 88 381 10 
161 329 418 106 
162 220 397 349 
163 149 466 226 
164 80 333 245 
165 111 432 233 
166 219 421 235 
167 123 432 111 
168 246 351 99 
169 107 422 105 
170 247 289 248 
171 301 360 300 
172 236 367 222 
173 30 184 83 
174 161 441 277 
175 309 310 92 
176 36 249 103 
177 111 233 113 
178 310 313 92 
179 169 462 254 
180 152 162 147 
181 10 381 337 
182 182 465 197 
183 332 380 244 
184 80 245 243 
185 129 235 153 
186 92 304 32 
187 92 313 304 
188 249 277 250 
189 304 339 31 
190 113 233 177 
191 38 240 95 
192 83 105 29 
193 317 395 263 
194 86 306 305 
195 175 178 171 
196 262 434 263 
197 391 392 154 
198 157 402 388 
199 301 328 187 
200 314 382 176 
201 124 126 123 
202 228 439 237 
203 102 347 242 
204 165 455 164 
205 214 247 215 
206 210 445 212 
207 99 351 14 
208 213 430 206 
209 214 251 247 
210 95 249 37 
211 38 95 37 
212 39 444 240 
213 222 401 223 
214 33 92 32 
215 8 86 7 
216 11 88 10 
217 30 83 29 
218 164 464 163 
219 183 358 306 
220 303 335 217 
221 223 401 224 
222 127 132 126 
223 80 243 12 
224 144 145 143 
225 86 305 7 
226 198 199 197 
227 253 458 266 
228 216 461 335 
229 163 464 162 
230 335 461 217 
231 241 357 238 
232 113 177 115 
233 104 343 330 
234 233 432 383 
235 106 418 79 
236 101 449 307 
237 132 435 126 
238 142 143 138 
239 235 398 331 
240 129 131 130 
241 197 460 182 
242 286 400 354 
243 214 215 212 
244 220 349 348 
245 295 411 236 
246 243 245 244 
247 126 435 202 
248 28 79 27 
249 80 351 333 
250 117 129 119 
251 290 291 248 
252 250 310 309 
253 125 318 121 
254 204 218 213 
255 329 402 157 
256 343 443 330 
257 176 315 314 
258 120 326 122 
259 154 392 336 
260 206 208 207 
261 210 461 216 
262 101 444 39 
263 6 374 1 
264 106 456 105 
265 133 134 132 
266 359 439 228 
267 308 446 349 
268 32 304 31 
269 307 358 101 
270 237 344 213 
271 101 358 357 
272 240 413 95 
273 13 80 12 
274 230 318 156 
275 285 463 286 
276 244 442 88 
277 131 149 148 
278 250 309 103 
279 12 243 11 
280 208 430 217 
281 79 456 106 
282 182 371 200 
283 111 113 112 
284 206 430 208 
285 29 105 28 
286 350 413 239 
287 232 421 320 
288 39 240 38 
289 40 101 39 
290 156 318 125 
291 235 421 153 
292 222 223 199 
293 1 374 41 
294 333 351 246 
295 105 456 28 
296 152 163 162 
297 232 417 225 
298 185 393 313 
299 149 234 181 
300 110 124 123 
301 30 424 184 
302 321 457 268 
303 239 413 241 
304 109 311 107 
305 206 207 203 
306 176 435 132 
307 146 147 145 
308 99 403 246 
309 153 421 232 
310 253 414 386 
311 111 112 109 
312 28 456 79 
313 40 449 101 
314 241 413 240 
315 229 382 314 
316 37 249 36 
317 36 103 35 
318 286 463 400 
319 190 230 156 
320 103 405 35 
321 357 444 101 
322 339 424 31 
323 281 353 328 
324 349 397 186 
325 257 335 274 
326 184 365 108 
327 275 404 251 
328 331 398 177 
329 7 305 6 
330 150 373 372 
331 122 326 158 
332 163 165 164 
333 216 335 334 
334 208 461 210 
335 134 448 176 
336 277 441 250 
337 350 412 188 
338 233 433 177 
339 200 465 182 
340 313 336 304 
341 79 418 312 
342 158 326 193 
343 160 338 190 
344 83 184 108 
345 10 337 9 
346 113 115 114 
347 158 193 189 
348 344 430 213 
349 19 323 102 
350 288 416 322 
351 104 324 22 
352 21 82 20 
353 9 348 8 
354 218 229 228 
355 8 348 86 
356 82 323 20 
357 142 144 143 
358 245 332 244 
359 21 324 82 
360 135 136 134 
361 15 327 99 
362 208 210 209 
363 405 450 34 
364 16 327 15 
365 194 338 160 
366 318 389 121 
367 168 169 165 
368 230 329 318 
369 274 335 303 
370 224 314 223 
371 26 100 25 
372 216 445 210 
373 369 436 282 
374 129 130 119 
375 20 323 19 
376 22 324 21 
377 15 99 14 
378 19 102 18 
379 124 127 126 
380 82 325 323 
381 23 104 22 
382 251 404 247 
383 104 330 324 
384 372 373 326 
385 27 342 26 
386 174 384 238 
387 34 450 33 
388 230 418 329 
389 229 463 228 
390 202 292 204 
391 127 133 132 
392 292 435 176 
393 306 307 305 
394 217 344 303 
395 290 316 291 
396 190 312 230 
397 33 450 92 
398 86 446 306 
399 44 257 45 
400 47 273 48 
401 194 431 330 
402 193 333 189 
403 217 461 208 
404 120 372 326 
405 18 341 17 
406 178 415 321 
407 330 338 194 
408 176 448 315 
409 25 343 24 
410 113 114 112 
411 155 156 125 
412 5 275 42 
413 236 368 295 
414 354 400 224 
415 82 431 325 
416 263 296 259 
417 14 351 13 
418 280 302 278 
419 255 462 387 
420 136 448 134 
421 325 347 323 
422 234 379 181 
423 57 294 58 
424 180 415 175 
425 210 212 211 
426 54 258 55 
427 73 259 74 
428 48 273 205 
429 137 138 136 
430 247 248 215 
431 306 358 307 
432 336 393 154 
433 256 360 301 
434 60 278 61 
435 76 297 77 
436 102 341 18 
437 203 383 128 
438 257 274 45 
439 100 343 25 
440 160 190 156 
441 298 300 166 
442 122 158 139 
443 144 146 145 
444 67 269 68 
445 110 365 124 
446 198 368 236 
447 63 298 64 
448 131 148 130 
449 269 288 287 
450 207 383 203 
451 13 351 80 
452 251 346 275 
453 70 283 71 
454 187 425 301 
455 399 448 136 
456 138 364 136 
457 26 342 100 
458 158 189 159 
459 305 374 6 
460 287 322 90 
461 380 385 181 
462 155 191 160 
463 323 347 102 
464 195 196 159 
465 327 423 99 
466 128 432 123 
467 330 431 324 
468 189 333 246 
469 151 152 147 
470 133 135 134 
471 250 441 310 
472 155 160 156 
473 143 460 197 
474 189 246 195 
475 226 234 149 
476 191 194 160 
477 186 363 308 
478 115 398 117 
479 184 440 365 
480 195 242 196 
481 158 159 139 
482 189 195 159 
483 17 426 2 
484 2 426 16 
485 316 395 317 
486 266 387 253 
487 383 432 128 
488 3 429 23 
489 24 429 3 
490 139 155 125 
491 155 340 191 
492 322 458 408 
493 275 346 42 
494 170 171 169 
495 192 231 180 
496 224 400 314 
497 108 365 110 
498 325 437 347 
499 115 116 114 
500 263 434 317 
501 208 209 207 
502 242 347 196 
503 176 382 292 
504 139 340 155 
505 180 447 415 
506 115 117 116 
507 196 340 159 
508 226 321 234 
509 159 340 139 
510 258 293 55 
511 117 119 118 
512 259 296 74 
513 387 416 255 
514 356 390 353 
515 253 386 265 
516 122 139 125 
517 240 444 241 
518 348 349 86 
519 89 316 297 
520 332 373 150 
521 119 120 118 
522 420 466 227 
523 149 181 148 
524 294 355 58 
525 140 142 138 
526 320 454 232 
527 269 287 68 
528 120 121 118 
529 177 398 115 
530 226 457 321 
531 179 180 175 
532 135 137 136 
533 359 463 285 
534 43 84 44 
535 278 302 61 
536 150 385 332 
537 66 87 67 
538 53 94 54 
539 72 91 73 
540 77 297 276 
541 175 415 178 
542 231 379 180 
543 46 85 47 
544 167 168 165 
545 173 175 171 
546 124 365 141 
547 336 339 304 
548 168 170 169 
549 78 81 5 
550 146 151 147 
551 247 404 289 
552 306 446 308 
553 322 416 266 
554 117 118 116 
555 200 371 370 
556 369 452 295 
557 59 98 60 
558 64 298 166 
559 69 90 70 
560 50 93 51 
561 112 311 109 
562 386 414 178 
563 48 205 49 
564 122 125 121 
565 371 451 201 
566 283 409 375 
567 366 443 100 
568 347 437 196 
569 328 353 187 
570 120 122 121 
571 319 401 222 
572 288 322 287 
573 283 375 71 
574 56 97 57 
575 342 366 100 
576 45 274 46 
577 75 89 76 
578 92 450 309 
579 338 366 190 
580 118 389 116 
581 62 96 63 
582 338 443 366 
583 99 423 403 
584 183 308 172 
585 49 284 50 
586 148 150 130 
587 191 437 325 
588 312 366 342 
589 177 433 331 
590 137 140 138 
591 98 355 282 
592 368 369 295 
593 267 434 262 
594 314 400 229 
595 361 462 255 
596 378 439 273 
597 179 192 180 
598 326 373 193 
599 425 455 256 
600 221 383 207 
601 364 399 136 
602 331 433 419 
603 116 157 114 
604 46 274 85 
605 210 211 209 
606 58 355 59 
607 42 346 43 
608 339 440 184 
609 130 372 119 
610 179 220 192 
611 316 317 291 
612 246 403 195 
613 77 276 78 
614 150 372 130 
615 52 272 53 
616 370 436 369 
617 204 292 218 
618 64 166 65 
619 170 186 173 
620 55 293 56 
621 263 395 296 
622 68 287 69 
623 224 396 354 
624 84 257 44 
625 74 296 75 
626 286 345 93 
627 43 346 84 
628 341 423 327 
629 336 392 339 
630 85 273 47 
631 50 284 93 
632 282 452 369 
633 51 345 52 
634 214 376 251 
635 116 389 157 
636 61 302 62 
637 163 167 165 
638 205 284 49 
639 241 444 357 
640 53 272 94 
641 137 185 140 
642 199 364 197 
643 78 276 81 
644 31 424 30 
645 59 355 98 
646 170 173 171 
647 140 161 142 
648 212 219 211 
649 173 179 175 
650 266 416 387 
651 201 390 356 
652 71 375 72 
653 190 366 312 
654 124 141 127 
655 164 455 425 
656 81 275 5 
657 215 320 212 
658 65 377 66 
659 151 238 152 
660 379 380 181 
661 69 287 90 
662 200 370 369 
663 220 337 192 
664 226 466 420 
665 274 303 85 
666 312 418 230 
667 94 258 54 
668 91 259 73 
669 307 374 305 
670 93 345 51 
671 106 422 402 
672 72 375 91 
673 144 188 146 
674 276 297 290 
675 341 426 17 
676 302 410 96 
677 308 363 172 
678 66 377 87 
679 281 356 353 
680 119 372 120 
681 271 360 352 
682 299 328 301 
683 56 293 97 
684 344 378 303 
685 98 278 60 
686 98 282 279 
687 87 269 67 
688 313 393 336 
689 324 431 82 
690 75 296 89 
691 97 294 57 
692 167 174 172 
693 343 429 24 
694 133 154 135 
695 319 367 258 
696 167 172 168 
697 89 297 76 
698 16 426 327 
699 151 239 238 
700 314 315 223 
701 62 302 96 
702 212 320 219 
703 281 370 356 
704 205 359 284 
705 299 410 328 
706 90 283 70 
707 239 241 238 
708 195 403 242 
709 334 376 216 
710 258 367 293 
711 96 298 63 
712 334 335 257 
713 166 427 377 
714 425 464 164 
715 228 463 359 
716 309 405 103 
717 100 443 343 
718 209 221 207 
719 23 429 104 
720 192 381 231 
721 284 285 93 
722 41 449 40 
723 52 345 272 
724 280 410 302 
725 219 331 211 
726 91 375 261 
727 357 358 183 
728 218 382 229 
729 379 447 180 
730 231 380 379 
731 174 183 172 
732 349 446 86 
733 121 389 118 
734 198 465 368 
735 291 362 248 
736 187 464 425 
737 87 377 271 
738 114 388 112 
739 327 426 341 
740 295 452 294 
741 141 392 391 
742 285 286 93 
743 265 267 262 
744 166 377 65 
745 157 388 114 
746 328 410 280 
747 84 334 257 
748 276 290 289 
749 174 357 183 
750 297 316 290 
751 234 447 379 
752 91 261 260 
753 179 397 220 
754 87 271 270 
755 300 427 166 
756 104 429 343 
757 261 264 262 
758 276 289 81 
759 406 417 362 
760 148 385 150 
761 256 455 361 
762 237 378 344 
763 281 436 370 
764 238 384 152 
765 168 363 170 
766 271 427 360 
767 311 422 107 
768 266 458 322 
769 340 437 191 
770 337 381 192 
771 184 424 339 
772 352 361 255 
773 368 465 200 
774 284 359 285 
775 161 394 142 
776 170 363 186 
777 182 451 371 
778 279 280 278 
779 345 354 272 
780 260 263 259 
781 273 439 205 
782 299 300 298 
783 360 361 352 
784 321 447 234 
785 95 413 350 
786 309 450 405 
787 96 410 299 
788 112 388 311 
789 375 409 261 
790 270 288 269 
791 142 394 144 
792 317 406 291 
793 202 435 292 
794 127 391 133 
795 390 464 187 
796 181 385 148 
797 310 441 407 
798 370 371 356 
799 387 462 252 
800 292 382 218 
801 94 319 258 
802 400 463 229 
803 85 378 273 
804 261 409 264 
805 224 401 396 
806 152 384 163 
807 360 427 300 
808 172 363 168 
809 96 299 298 
810 199 399 364 
811 296 395 89 
812 89 395 316 
813 167 384 174 
814 279 281 280 
815 205 439 359 
816 87 270 269 
817 91 260 259 
818 137 438 185 
819 420 457 226 
820 356 371 201 
821 291 406 362 
822 415 447 321 
823 97 295 294 
824 301 425 256 
825 237 439 378 
826 98 279 278 
827 330 443 338 
828 265 268 267 
829 186 397 173 
830 381 442 231 
831 196 437 340 
832 272 396 94 
833 387 414 253 
834 299 301 300 
835 322 408 90 
836 353 390 187 
837 420 459 267 
838 264 265 262 
839 215 454 320 
840 254 462 361 
841 303 378 85 
842 141 391 127 
843 163 384 167 
844 144 394 188 
845 223 399 199 
846 286 354 345 
847 232 454 362 
848 362 417 232 
849 135 438 137 
850 346 428 84 
851 185 407 140 
852 320 421 219 
853 173 397 179 
854 151 412 239 
855 380 442 244 
856 388 402 311 
857 140 407 161 
858 293 411 97 
859 133 391 154 
860 81 404 275 
861 261 262 260 
862 227 466 417 
863 271 352 270 
864 334 428 376 
865 331 419 211 
866 217 430 344 
867 315 399 223 
868 146 412 151 
869 154 438 135 
870 361 455 254 
871 231 442 380 
872 188 412 146 
873 200 369 368 
874 84 428 334 
875 267 459 434 
876 403 423 242 
877 354 396 272 
878 377 427 271 
879 90 408 283 
880 392 440 339 
881 393 438 154 
882 417 466 225 
883 367 411 293 
884 402 422 311 
885 265 386 268 
886 211 419 209 
887 294 452 355 
888 185 438 393 
889 307 449 374 
890 251 428 346 
891 209 419 221 
892 88 442 381 
893 256 361 360 
894 396 401 319 
895 289 404 81 
896 94 396 319 
897 376 428 251 
898 141 440 392 
899 282 436 279 
900 268 420 267 
901 419 433 221 
902 365 440 141 
903 408 409 283 
904 248 454 215 
905 407 441 161 
906 97 411 295 
907 252 414 387 
908 236 411 367 
909 317 459 406 
910 162 464 390 
911 374 449 41 
912 227 417 406 
913 279 436 281 
914 288 453 416 
915 255 453 352 
916 362 454 248 
917 227 459 420 
918 434 459 317 
919 270 453 288 
920 355 452 282 
921 376 445 216 
922 268 457 420 
923 214 445 376 
924 408 458 409 
925 352 453 270 
926 182 460 451 
927 451 460 145 
928 315 448 399 
929 416 453 255 
930 406 459 227 
931 409 458 264 
932 262 263 260 
$EndElements
