$MeshFormat
4.1 0 8
$EndMeshFormat
$Entities
16 24 9 0
1 0 0 0 0 
2 1.5 0 0 0 
3 4.8 0 0 0 
4 6.283185307179586 0 0 0 
5 0 1.5 0 0 
6 1.5 1.5 0 0 
7 4.8 1.5 0 0 
8 6.283185307179586 1.5 0 0 
9 0 4.8 0 0 
10 1.5 4.8 0 0 
11 4.8 4.8 0 0 
12 6.283185307179586 4.8 0 0 
13 0 6.283185307179586 0 0 
14 1.5 6.283185307179586 0 0 
15 4.8 6.283185307179586 0 0 
16 6.283185307179586 6.283185307179586 0 0 
1 -9.999999994736442e-08 -1e-07 -1e-07 1.5000001 1e-07 1e-07 1 1 2 1 -2 
2 1.4999999 -1e-07 -1e-07 4.8000001 1e-07 1e-07 1 1 2 2 -3 
3 4.7999999 -1e-07 -1e-07 6.283185407179587 1e-07 1e-07 1 1 2 3 -4 
4 -9.999999994736442e-08 1.4999999 -1e-07 1.5000001 1.5000001 1e-07 0 2 5 -6 
5 1.4999999 1.4999999 -1e-07 4.8000001 1.5000001 1e-07 0 2 6 -7 
6 4.7999999 1.4999999 -1e-07 6.283185407179587 1.5000001 1e-07 0 2 7 -8 
7 -9.999999994736442e-08 4.7999999 -1e-07 1.5000001 4.8000001 1e-07 0 2 9 -10 
8 1.4999999 4.7999999 -1e-07 4.8000001 4.8000001 1e-07 0 2 10 -11 
9 4.7999999 4.7999999 -1e-07 6.283185407179587 4.8000001 1e-07 0 2 11 -12 
10 -9.999999994736442e-08 6.283185207179586 -1e-07 1.5000001 6.283185407179587 1e-07 1 3 2 13 -14 
11 1.4999999 6.283185207179586 -1e-07 4.8000001 6.283185407179587 1e-07 1 3 2 14 -15 
12 4.7999999 6.283185207179586 -1e-07 6.283185407179587 6.283185407179587 1e-07 1 3 2 15 -16 
13 -1e-07 -9.999999994736442e-08 -1e-07 1e-07 1.5000001 1e-07 1 4 2 1 -5 
14 -1e-07 1.4999999 -1e-07 1e-07 4.8000001 1e-07 1 4 2 5 -9 
15 -1e-07 4.7999999 -1e-07 1e-07 6.283185407179587 1e-07 1 4 2 9 -13 
16 1.4999999 -9.999999994736442e-08 -1e-07 1.5000001 1.5000001 1e-07 0 2 2 -6 
17 1.4999999 1.4999999 -1e-07 1.5000001 4.8000001 1e-07 0 2 6 -10 
18 1.4999999 4.7999999 -1e-07 1.5000001 6.283185407179587 1e-07 0 2 10 -14 
19 4.7999999 -9.999999994736442e-08 -1e-07 4.8000001 1.5000001 1e-07 0 2 3 -7 
20 4.7999999 1.4999999 -1e-07 4.8000001 4.8000001 1e-07 0 2 7 -11 
21 4.7999999 4.7999999 -1e-07 4.8000001 6.283185407179587 1e-07 0 2 11 -15 
22 6.283185207179586 -9.999999994736442e-08 -1e-07 6.283185407179587 1.5000001 1e-07 1 2 2 4 -8 
23 6.283185207179586 1.4999999 -1e-07 6.283185407179587 4.8000001 1e-07 1 2 2 8 -12 
24 6.283185207179586 4.7999999 -1e-07 6.283185407179587 6.283185407179587 1e-07 1 2 2 12 -16 
1 -9.999999994736442e-08 -9.999999994736442e-08 -1e-07 1.5000001 1.5000001 1e-07 1 10 4 1 16 -4 -13 
2 1.4999999 -9.999999994736442e-08 -1e-07 4.8000001 1.5000001 1e-07 1 10 4 2 19 -5 -16 
3 4.7999999 -9.999999994736442e-08 -1e-07 6.283185407179587 1.5000001 1e-07 1 10 4 3 22 -6 -19 
4 -9.999999994736442e-08 1.4999999 -1e-07 1.5000001 4.8000001 1e-07 1 10 4 4 17 -7 -14 
5 1.4999999 1.4999999 -1e-07 4.8000001 4.8000001 1e-07 1 10 4 5 20 -8 -17 
6 4.7999999 1.4999999 -1e-07 6.283185407179587 4.8000001 1e-07 1 10 4 6 23 -9 -20 
7 -9.999999994736442e-08 4.7999999 -1e-07 1.5000001 6.283185407179587 1e-07 1 10 4 7 18 -10 -15 
8 1.4999999 4.7999999 -1e-07 4.8000001 6.283185407179587 1e-07 1 10 4 8 21 -11 -18 
9 4.7999999 4.7999999 -1e-07 6.283185407179587 6.283185407179587 1e-07 1 10 4 9 24 -12 -21 
$EndEntities
$Nodes
49 100 1 100
0 1 0 1
1
0 0 0
0 2 0 1
2
1.5 0 0
0 3 0 1
3
4.8 0 0
0 4 0 1
4
6.283185307179586 0 0
0 5 0 1
5
0 1.5 0
0 6 0 1
6
1.5 1.5 0
0 7 0 1
7
4.8 1.5 0
0 8 0 1
8
6.283185307179586 1.5 0
0 9 0 1
9
0 4.8 0
0 10 0 1
10
1.5 4.8 0
0 11 0 1
11
4.8 4.8 0
0 12 0 1
12
6.283185307179586 4.8 0
0 13 0 1
13
0 6.283185307179586 0
0 14 0 1
14
1.5 6.283185307179586 0
0 15 0 1
15
4.8 6.283185307179586 0
0 16 0 1
16
6.283185307179586 6.283185307179586 0
1 1 0 2
17
18
0.5 0 0
1 0 0
1 2 0 2
19
20
2.599999999999998 0 0
3.699999999999998 0 0
1 3 0 2
21
22
5.294395102393196 0 0
5.788790204786391 0 0
1 4 0 2
23
24
0.5 1.5 0
1 1.5 0
1 5 0 2
25
26
2.599999999999998 1.5 0
3.699999999999998 1.5 0
1 6 0 2
27
28
5.294395102393196 1.5 0
5.788790204786391 1.5 0
1 7 0 2
29
30
0.5 4.8 0
1 4.8 0
1 8 0 2
31
32
2.599999999999998 4.8 0
3.699999999999998 4.8 0
1 9 0 2
33
34
5.294395102393196 4.8 0
5.788790204786391 4.8 0
1 10 0 2
35
36
0.5 6.283185307179586 0
1 6.283185307179586 0
1 11 0 2
37
38
2.599999999999998 6.283185307179586 0
3.699999999999998 6.283185307179586 0
1 12 0 2
39
40
5.294395102393196 6.283185307179586 0
5.788790204786391 6.283185307179586 0
1 13 0 2
41
42
0 0.5 0
0 1 0
1 14 0 2
43
44
0 2.599999999999998 0
0 3.699999999999998 0
1 15 0 2
45
46
0 5.294395102393196 0
0 5.788790204786391 0
1 16 0 2
47
48
1.5 0.5 0
1.5 1 0
1 17 0 2
49
50
1.5 2.599999999999998 0
1.5 3.699999999999998 0
1 18 0 2
51
52
1.5 5.294395102393196 0
1.5 5.788790204786391 0
1 19 0 2
53
54
4.8 0.5 0
4.8 1 0
1 20 0 2
55
56
4.8 2.599999999999998 0
4.8 3.699999999999998 0
1 21 0 2
57
58
4.8 5.294395102393196 0
4.8 5.788790204786391 0
1 22 0 2
59
60
6.283185307179586 0.5 0
6.283185307179586 1 0
1 23 0 2
61
62
6.283185307179586 2.599999999999998 0
6.283185307179586 3.699999999999998 0
1 24 0 2
63
64
6.283185307179586 5.294395102393196 0
6.283185307179586 5.788790204786391 0
2 1 0 4
65
66
67
68
0.5 0.5 0
0.5 1 0
1 0.5 0
1 1 0
2 2 0 4
69
70
71
72
2.599999999999998 0.5 0
2.599999999999998 1 0
3.699999999999998 0.5000000000000001 0
3.699999999999998 1 0
2 3 0 4
73
74
75
76
5.294395102393196 0.5000000000000001 0
5.294395102393196 1 0
5.788790204786391 0.5000000000000002 0
5.788790204786391 1 0
2 4 0 4
77
78
79
80
0.5 2.599999999999998 0
0.5000000000000001 3.699999999999998 0
1 2.599999999999998 0
1 3.699999999999998 0
2 5 0 4
81
82
83
84
2.599999999999998 2.599999999999998 0
2.599999999999998 3.699999999999998 0
3.699999999999998 2.599999999999998 0
3.699999999999998 3.699999999999998 0
2 6 0 4
85
86
87
88
5.294395102393196 2.599999999999998 0
5.294395102393196 3.699999999999998 0
5.788790204786391 2.599999999999998 0
5.788790204786391 3.699999999999998 0
2 7 0 4
89
90
91
92
0.5 5.294395102393196 0
0.5000000000000001 5.788790204786391 0
1 5.294395102393196 0
1 5.788790204786391 0
2 8 0 4
93
94
95
96
2.599999999999998 5.294395102393196 0
2.599999999999998 5.788790204786391 0
3.699999999999998 5.294395102393196 0
3.699999999999998 5.788790204786391 0
2 9 0 4
97
98
99
100
5.294395102393196 5.294395102393196 0
5.294395102393196 5.788790204786391 0
5.788790204786391 5.294395102393196 0
5.788790204786391 5.788790204786391 0
$EndNodes
$Elements
21 117 1 117
1 1 1 3
1 1 17 
2 17 18 
3 18 2 
1 2 1 3
4 2 19 
5 19 20 
6 20 3 
1 3 1 3
7 3 21 
8 21 22 
9 22 4 
1 10 1 3
10 13 35 
11 35 36 
12 36 14 
1 11 1 3
13 14 37 
14 37 38 
15 38 15 
1 12 1 3
16 15 39 
17 39 40 
18 40 16 
1 13 1 3
19 1 41 
20 41 42 
21 42 5 
1 14 1 3
22 5 43 
23 43 44 
24 44 9 
1 15 1 3
25 9 45 
26 45 46 
27 46 13 
1 22 1 3
28 4 59 
29 59 60 
30 60 8 
1 23 1 3
31 8 61 
32 61 62 
33 62 12 
1 24 1 3
34 12 63 
35 63 64 
36 64 16 
2 1 3 9
37 1 17 65 41 
38 41 65 66 42 
39 42 66 23 5 
40 17 18 67 65 
41 65 67 68 66 
42 66 68 24 23 
43 18 2 47 67 
44 67 47 48 68 
45 68 48 6 24 
2 2 3 9
46 2 19 69 47 
47 47 69 70 48 
48 48 70 25 6 
49 19 20 71 69 
50 69 71 72 70 
51 70 72 26 25 
52 20 3 53 71 
53 71 53 54 72 
54 72 54 7 26 
2 3 3 9
55 3 21 73 53 
56 53 73 74 54 
57 54 74 27 7 
58 21 22 75 73 
59 73 75 76 74 
60 74 76 28 27 
61 22 4 59 75 
62 75 59 60 76 
63 76 60 8 28 
2 4 3 9
64 5 23 77 43 
65 43 77 78 44 
66 44 78 29 9 
67 23 24 79 77 
68 77 79 80 78 
69 78 80 30 29 
70 24 6 49 79 
71 79 49 50 80 
72 80 50 10 30 
2 5 3 9
73 6 25 81 49 
74 49 81 82 50 
75 50 82 31 10 
76 25 26 83 81 
77 81 83 84 82 
78 82 84 32 31 
79 26 7 55 83 
80 83 55 56 84 
81 84 56 11 32 
2 6 3 9
82 7 27 85 55 
83 55 85 86 56 
84 56 86 33 11 
85 27 28 87 85 
86 85 87 88 86 
87 86 88 34 33 
88 28 8 61 87 
89 87 61 62 88 
90 88 62 12 34 
2 7 3 9
91 9 29 89 45 
92 45 89 90 46 
93 46 90 35 13 
94 29 30 91 89 
95 89 91 92 90 
96 90 92 36 35 
97 30 10 51 91 
98 91 51 52 92 
99 92 52 14 36 
2 8 3 9
100 10 31 93 51 
101 51 93 94 52 
102 52 94 37 14 
103 31 32 95 93 
104 93 95 96 94 
105 94 96 38 37 
106 32 11 57 95 
107 95 57 58 96 
108 96 58 15 38 
2 9 3 9
109 11 33 97 57 
110 57 97 98 58 
111 58 98 39 15 
112 33 34 99 97 
113 97 99 100 98 
114 98 100 40 39 
115 34 12 63 99 
116 99 63 64 100 
117 100 64 16 40 
$EndElements
