$MeshFormat
4.1 0 8
$EndMeshFormat
$Entities
13 18 6 0
1 -5 -0.5 0 0 
2 -5 0 0 0 
3 -5 0.5 0 0 
4 0 -1.5 0 0 
5 0 -0.5 0 0 
6 0 0 0 0 
7 0 0.5 0 0 
8 0 1.5 0 0 
9 20 -1.5 0 0 
10 20 -0.5 0 0 
11 20 0 0 0 
12 20 0.5 0 0 
13 20 1.5 0 0 
1 -5 -0.5 0 0 -0.5 0 1 10 2 1 -5 
2 -5 0 0 0 0 0 1 13 2 2 -6 
3 -5 0.5 0 0 0.5 0 1 10 2 3 -7 
4 0 -1.5 0 20 -1.5 0 1 10 2 4 -9 
5 0 -0.5 0 20 -0.5 0 0 2 5 -10 
6 0 0 0 20 0 0 1 13 2 6 -11 
7 0 0.5 0 20 0.5 0 0 2 7 -12 
8 0 1.5 0 20 1.5 0 1 10 2 8 -13 
11 -5 -0.5 0 -5 0 0 1 9 2 1 -2 
12 -5 0 0 -5 0.5 0 1 9 2 2 -3 
13 0 -1.5 0 0 -0.5 0 1 10 2 4 -5 
14 0 -0.5 0 0 0 0 0 2 5 -6 
15 0 0 0 0 0.5 0 0 2 6 -7 
16 0 0.5 0 0 1.5 0 1 10 2 7 -8 
17 20 -1.5 0 20 -0.5 0 1 11 2 9 -10 
18 20 -0.5 0 20 0 0 1 11 2 10 -11 
19 20 0 0 20 0.5 0 1 11 2 11 -12 
20 20 0.5 0 20 1.5 0 1 11 2 12 -13 
1 -5 -0.5 0 0 0 0 1 12 4 1 14 -2 -11 
2 -5 0 0 0 0.5 0 1 12 4 2 15 -3 -12 
3 0 -1.5 0 20 -0.5 0 1 12 4 4 17 -5 -13 
4 0 -0.5 0 20 0 0 1 12 4 5 18 -6 -14 
5 0 0 0 20 0.5 0 1 12 4 6 19 -7 -15 
6 0 0.5 0 20 1.5 0 1 12 4 7 20 -8 -16 
$EndEntities
$Nodes
37 1259 1 1259
0 1 0 1
1
-5 -0.5 0
0 2 0 1
2
-5 0 0
0 3 0 1
3
-5 0.5 0
0 4 0 1
4
0 -1.5 0
0 5 0 1
5
0 -0.5 0
0 6 0 1
6
0 0 0
0 7 0 1
7
0 0.5 0
0 8 0 1
8
0 1.5 0
0 9 0 1
9
20 -1.5 0
0 10 0 1
10
20 -0.5 0
0 11 0 1
11
20 0 0
0 12 0 1
12
20 0.5 0
0 13 0 1
13
20 1.5 0
1 1 0 8
14
15
16
17
18
19
20
21
-4.349521582879766 -0.5 0
-3.725062301153029 -0.5 0
-3.125581390973797 -0.5 0
-2.550079717593106 -0.5 0
-1.997598110114747 -0.5 0
-1.46721576680273 -0.5 0
-0.958048718331602 -0.5 0
-0.469248351637237 -0.5 0
1 2 0 8
22
23
24
25
26
27
28
29
-4.349521582879766 0 0
-3.725062301153029 0 0
-3.125581390973797 0 0
-2.550079717593106 0 0
-1.997598110114747 0 0
-1.46721576680273 0 0
-0.958048718331602 0 0
-0.469248351637237 0 0
1 3 0 8
30
31
32
33
34
35
36
37
-4.349521582879766 0.5 0
-3.725062301153029 0.5 0
-3.125581390973797 0.5 0
-2.550079717593106 0.5 0
-1.997598110114747 0.5 0
-1.46721576680273 0.5 0
-0.958048718331602 0.5 0
-0.469248351637237 0.5 0
1 4 0 38
38
39
40
41
42
43
44
45
46
47
48
49
50
51
52
53
54
55
56
57
58
59
60
61
62
63
64
65
66
67
68
69
70
71
72
73
74
75
0.2768770325996402 -1.5 0
0.5620603745795558 -1.5 0
0.8557992191431103 -1.5 0
1.158350227845586 -1.5 0
1.469977767784411 -1.5 0
1.790954136043232 -1.5 0
2.121559792968942 -1.5 0
2.462083618895098 -1.5 0
2.812823159469296 -1.5 0
3.174084885366474 -1.5 0
3.546184463961976 -1.5 0
3.929447028898763 -1.5 0
4.324207470807259 -1.5 0
4.730810727646289 -1.5 0
5.149612083457678 -1.5 0
5.580977480987002 -1.5 0
6.025283839656737 -1.5 0
6.482919388276654 -1.5 0
6.954284004549132 -1.5 0
7.439789557073391 -1.5 0
7.939860272519093 -1.5 0
8.454933111824793 -1.5 0
8.985458137468854 -1.5 0
9.531898911936947 -1.5 0
10.09473291182963 -1.5 0
10.67445193069815 -1.5 0
11.27156251961537 -1.5 0
11.88658642828119 -1.5 0
12.52006105376518 -1.5 0
13.17253991751547 -1.5 0
13.84459314802691 -1.5 0
14.5368079753606 -1.5 0
15.24978924606367 -1.5 0
15.98415995647317 -1.5 0
16.74056178635374 -1.5 0
17.51965566952099 -1.5 0
18.32212237235935 -1.5 0
19.14866307552214 -1.5 0
1 5 0 38
76
77
78
79
80
81
82
83
84
85
86
87
88
89
90
91
92
93
94
95
96
97
98
99
100
101
102
103
104
105
106
107
108
109
110
111
112
113
0.2768770325996402 -0.5 0
0.5620603745795558 -0.5 0
0.8557992191431103 -0.5 0
1.158350227845586 -0.5 0
1.469977767784411 -0.5 0
1.790954136043232 -0.5 0
2.121559792968942 -0.5 0
2.462083618895098 -0.5 0
2.812823159469296 -0.5 0
3.174084885366474 -0.5 0
3.546184463961976 -0.5 0
3.929447028898763 -0.5 0
4.324207470807259 -0.5 0
4.730810727646289 -0.5 0
5.149612083457678 -0.5 0
5.580977480987002 -0.5 0
6.025283839656737 -0.5 0
6.482919388276654 -0.5 0
6.954284004549132 -0.5 0
7.439789557073391 -0.5 0
7.939860272519093 -0.5 0
8.454933111824793 -0.5 0
8.985458137468854 -0.5 0
9.531898911936947 -0.5 0
10.09473291182963 -0.5 0
10.67445193069815 -0.5 0
11.27156251961537 -0.5 0
11.88658642828119 -0.5 0
12.52006105376518 -0.5 0
13.17253991751547 -0.5 0
13.84459314802691 -0.5 0
14.5368079753606 -0.5 0
15.24978924606367 -0.5 0
15.98415995647317 -0.5 0
16.74056178635374 -0.5 0
17.51965566952099 -0.5 0
18.32212237235935 -0.5 0
19.14866307552214 -0.5 0
1 6 0 38
114
115
116
117
118
119
120
121
122
123
124
125
126
127
128
129
130
131
132
133
134
135
136
137
138
139
140
141
142
143
144
145
146
147
148
149
150
151
0.2768770325996402 0 0
0.5620603745795558 0 0
0.8557992191431103 0 0
1.158350227845586 0 0
1.469977767784411 0 0
1.790954136043232 0 0
2.121559792968942 0 0
2.462083618895098 0 0
2.812823159469296 0 0
3.174084885366474 0 0
3.546184463961976 0 0
3.929447028898763 0 0
4.324207470807259 0 0
4.730810727646289 0 0
5.149612083457678 0 0
5.580977480987002 0 0
6.025283839656737 0 0
6.482919388276654 0 0
6.954284004549132 0 0
7.439789557073391 0 0
7.939860272519093 0 0
8.454933111824793 0 0
8.985458137468854 0 0
9.531898911936947 0 0
10.09473291182963 0 0
10.67445193069815 0 0
11.27156251961537 0 0
11.88658642828119 0 0
12.52006105376518 0 0
13.17253991751547 0 0
13.84459314802691 0 0
14.5368079753606 0 0
15.24978924606367 0 0
15.98415995647317 0 0
16.74056178635374 0 0
17.51965566952099 0 0
18.32212237235935 0 0
19.14866307552214 0 0
1 7 0 38
152
153
154
155
156
157
158
159
160
161
162
163
164
165
166
167
168
169
170
171
172
173
174
175
176
177
178
179
180
181
182
183
184
185
186
187
188
189
0.2768770325996402 0.5 0
0.5620603745795558 0.5 0
0.8557992191431103 0.5 0
1.158350227845586 0.5 0
1.469977767784411 0.5 0
1.790954136043232 0.5 0
2.121559792968942 0.5 0
2.462083618895098 0.5 0
2.812823159469296 0.5 0
3.174084885366474 0.5 0
3.546184463961976 0.5 0
3.929447028898763 0.5 0
4.324207470807259 0.5 0
4.730810727646289 0.5 0
5.149612083457678 0.5 0
5.580977480987002 0.5 0
6.025283839656737 0.5 0
6.482919388276654 0.5 0
6.954284004549132 0.5 0
7.439789557073391 0.5 0
7.939860272519093 0.5 0
8.454933111824793 0.5 0
8.985458137468854 0.5 0
9.531898911936947 0.5 0
10.09473291182963 0.5 0
10.67445193069815 0.5 0
11.27156251961537 0.5 0
11.88658642828119 0.5 0
12.52006105376518 0.5 0
13.17253991751547 0.5 0
13.84459314802691 0.5 0
14.5368079753606 0.5 0
15.24978924606367 0.5 0
15.98415995647317 0.5 0
16.74056178635374 0.5 0
17.51965566952099 0.5 0
18.32212237235935 0.5 0
19.14866307552214 0.5 0
1 8 0 38
190
191
192
193
194
195
196
197
198
199
200
201
202
203
204
205
206
207
208
209
210
211
212
213
214
215
216
217
218
219
220
221
222
223
224
225
226
227
0.2768770325996402 1.5 0
0.5620603745795558 1.5 0
0.8557992191431103 1.5 0
1.158350227845586 1.5 0
1.469977767784411 1.5 0
1.790954136043232 1.5 0
2.121559792968942 1.5 0
2.462083618895098 1.5 0
2.812823159469296 1.5 0
3.174084885366474 1.5 0
3.546184463961976 1.5 0
3.929447028898763 1.5 0
4.324207470807259 1.5 0
4.730810727646289 1.5 0
5.149612083457678 1.5 0
5.580977480987002 1.5 0
6.025283839656737 1.5 0
6.482919388276654 1.5 0
6.954284004549132 1.5 0
7.439789557073391 1.5 0
7.939860272519093 1.5 0
8.454933111824793 1.5 0
8.985458137468854 1.5 0
9.531898911936947 1.5 0
10.09473291182963 1.5 0
10.67445193069815 1.5 0
11.27156251961537 1.5 0
11.88658642828119 1.5 0
12.52006105376518 1.5 0
13.17253991751547 1.5 0
13.84459314802691 1.5 0
14.5368079753606 1.5 0
15.24978924606367 1.5 0
15.98415995647317 1.5 0
16.74056178635374 1.5 0
17.51965566952099 1.5 0
18.32212237235935 1.5 0
19.14866307552214 1.5 0
1 11 0 4
228
229
230
231
-5 -0.4 0
-5 -0.3000000000006937 0
-5 -0.2000000000008325 0
-5 -0.1000000000004163 0
1 12 0 4
232
233
234
235
-5 0.09999999999977846 0
-5 0.1999999999994866 0
-5 0.2999999999994725 0
-5 0.3999999999997362 0
1 13 0 8
236
237
238
239
240
241
242
243
0 -1.388888888889506 0
0 -1.277777777779012 0
0 -1.166666666668517 0
0 -1.055555555558023 0
0 -0.9444444444469124 0
0 -0.8333333333351843 0
0 -0.7222222222234562 0
0 -0.6111111111117281 0
1 14 0 4
244
245
246
247
0 -0.4 0
0 -0.3000000000006937 0
0 -0.2000000000008325 0
0 -0.1000000000004163 0
1 15 0 4
248
249
250
251
0 0.09999999999977846 0
0 0.1999999999994866 0
0 0.2999999999994725 0
0 0.3999999999997362 0
1 16 0 8
252
253
254
255
256
257
258
259
0 0.6111111111121907 0
0 0.7222222222233019 0
0 0.8333333333342592 0
0 0.9444444444452167 0
0 1.055555555556174 0
0 1.16666666666713 0
0 1.277777777778087 0
0 1.388888888889043 0
1 17 0 8
260
261
262
263
264
265
266
267
20 -1.388888888889506 0
20 -1.277777777779012 0
20 -1.166666666668517 0
20 -1.055555555558023 0
20 -0.9444444444469124 0
20 -0.8333333333351843 0
20 -0.7222222222234562 0
20 -0.6111111111117281 0
1 18 0 4
268
269
270
271
20 -0.4 0
20 -0.3000000000006937 0
20 -0.2000000000008325 0
20 -0.1000000000004163 0
1 19 0 4
272
273
274
275
20 0.09999999999977846 0
20 0.1999999999994866 0
20 0.2999999999994725 0
20 0.3999999999997362 0
1 20 0 8
276
277
278
279
280
281
282
283
20 0.6111111111121907 0
20 0.7222222222233019 0
20 0.8333333333342592 0
20 0.9444444444452167 0
20 1.055555555556174 0
20 1.16666666666713 0
20 1.277777777778087 0
20 1.388888888889043 0
2 1 0 32
284
285
286
287
288
289
290
291
292
293
294
295
296
297
298
299
300
301
302
303
304
305
306
307
308
309
310
311
312
313
314
315
-4.349521582879765 -0.4 0
-4.349521582879766 -0.3000000000006937 0
-4.349521582879765 -0.2000000000008325 0
-4.349521582879766 -0.1000000000004162 0
-3.72506230115303 -0.4 0
-3.725062301153029 -0.3000000000006937 0
-3.725062301153029 -0.2000000000008325 0
-3.725062301153029 -0.1000000000004163 0
-3.125581390973797 -0.4 0
-3.125581390973797 -0.3000000000006937 0
-3.125581390973797 -0.2000000000008325 0
-3.125581390973797 -0.1000000000004163 0
-2.550079717593107 -0.4 0
-2.550079717593107 -0.3000000000006937 0
-2.550079717593107 -0.2000000000008325 0
-2.550079717593107 -0.1000000000004163 0
-1.997598110114747 -0.4 0
-1.997598110114747 -0.3000000000006937 0
-1.997598110114747 -0.2000000000008325 0
-1.997598110114747 -0.1000000000004163 0
-1.46721576680273 -0.4 0
-1.46721576680273 -0.3000000000006937 0
-1.46721576680273 -0.2000000000008325 0
-1.46721576680273 -0.1000000000004163 0
-0.958048718331602 -0.4 0
-0.958048718331602 -0.3000000000006937 0
-0.9580487183316018 -0.2000000000008325 0
-0.958048718331602 -0.1000000000004163 0
-0.469248351637237 -0.4 0
-0.469248351637237 -0.3000000000006937 0
-0.469248351637237 -0.2000000000008325 0
-0.469248351637237 -0.1000000000004163 0
2 2 0 32
316
317
318
319
320
321
322
323
324
325
326
327
328
329
330
331
332
333
334
335
336
337
338
339
340
341
342
343
344
345
346
347
-4.349521582879765 0.09999999999977845 0
-4.349521582879767 0.1999999999994866 0
-4.349521582879766 0.2999999999994726 0
-4.349521582879766 0.3999999999997362 0
-3.72506230115303 0.09999999999977846 0
-3.725062301153029 0.1999999999994865 0
-3.725062301153029 0.2999999999994725 0
-3.725062301153029 0.3999999999997362 0
-3.125581390973797 0.09999999999977846 0
-3.125581390973797 0.1999999999994865 0
-3.125581390973797 0.2999999999994725 0
-3.125581390973797 0.3999999999997362 0
-2.550079717593107 0.09999999999977846 0
-2.550079717593106 0.1999999999994866 0
-2.550079717593106 0.2999999999994725 0
-2.550079717593107 0.3999999999997362 0
-1.997598110114747 0.09999999999977846 0
-1.997598110114746 0.1999999999994866 0
-1.997598110114747 0.2999999999994725 0
-1.997598110114747 0.3999999999997362 0
-1.467215766802729 0.09999999999977846 0
-1.467215766802729 0.1999999999994865 0
-1.46721576680273 0.2999999999994725 0
-1.46721576680273 0.3999999999997362 0
-0.958048718331602 0.09999999999977846 0
-0.9580487183316021 0.1999999999994866 0
-0.9580487183316018 0.2999999999994725 0
-0.958048718331602 0.3999999999997362 0
-0.4692483516372369 0.09999999999977846 0
-0.469248351637237 0.1999999999994865 0
-0.469248351637237 0.2999999999994725 0
-0.469248351637237 0.3999999999997362 0
2 3 0 304
348
349
350
351
352
353
354
355
356
357
358
359
360
361
362
363
364
365
366
367
368
369
370
371
372
373
374
375
376
377
378
379
380
381
382
383
384
385
386
387
388
389
390
391
392
393
394
395
396
397
398
399
400
401
402
403
404
405
406
407
408
409
410
411
412
413
414
415
416
417
418
419
420
421
422
423
424
425
426
427
428
429
430
431
432
433
434
435
436
437
438
439
440
441
442
443
444
445
446
447
448
449
450
451
452
453
454
455
456
457
458
459
460
461
462
463
464
465
466
467
468
469
470
471
472
473
474
475
476
477
478
479
480
481
482
483
484
485
486
487
488
489
490
491
492
493
494
495
496
497
498
499
500
501
502
503
504
505
506
507
508
509
510
511
512
513
514
515
516
517
518
519
520
521
522
523
524
525
526
527
528
529
530
531
532
533
534
535
536
537
538
539
540
541
542
543
544
545
546
547
548
549
550
551
552
553
554
555
556
557
558
559
560
561
562
563
564
565
566
567
568
569
570
571
572
573
574
575
576
577
578
579
580
581
582
583
584
585
586
587
588
589
590
591
592
593
594
595
596
597
598
599
600
601
602
603
604
605
606
607
608
609
610
611
612
613
614
615
616
617
618
619
620
621
622
623
624
625
626
627
628
629
630
631
632
633
634
635
636
637
638
639
640
641
642
643
644
645
646
647
648
649
650
651
0.2768770325996402 -1.388888888889506 0
0.2768770325996402 -1.277777777779012 0
0.2768770325996402 -1.166666666668517 0
0.2768770325996402 -1.055555555558023 0
0.2768770325996402 -0.9444444444469122 0
0.2768770325996402 -0.8333333333351843 0
0.2768770325996402 -0.7222222222234562 0
0.2768770325996402 -0.6111111111117281 0
0.5620603745795558 -1.388888888889506 0
0.5620603745795558 -1.277777777779012 0
0.5620603745795558 -1.166666666668517 0
0.5620603745795558 -1.055555555558023 0
0.5620603745795558 -0.9444444444469124 0
0.5620603745795558 -0.8333333333351844 0
0.5620603745795558 -0.7222222222234562 0
0.5620603745795558 -0.6111111111117281 0
0.8557992191431103 -1.388888888889506 0
0.8557992191431103 -1.277777777779012 0
0.8557992191431102 -1.166666666668517 0
0.8557992191431103 -1.055555555558024 0
0.8557992191431103 -0.9444444444469127 0
0.8557992191431103 -0.8333333333351842 0
0.8557992191431102 -0.7222222222234562 0
0.8557992191431103 -0.6111111111117281 0
1.158350227845586 -1.388888888889506 0
1.158350227845586 -1.277777777779012 0
1.158350227845586 -1.166666666668517 0
1.158350227845586 -1.055555555558023 0
1.158350227845586 -0.9444444444469124 0
1.158350227845586 -0.8333333333351844 0
1.158350227845586 -0.7222222222234562 0
1.158350227845586 -0.6111111111117281 0
1.469977767784411 -1.388888888889506 0
1.469977767784411 -1.277777777779012 0
1.469977767784411 -1.166666666668517 0
1.469977767784411 -1.055555555558023 0
1.469977767784411 -0.9444444444469127 0
1.469977767784411 -0.8333333333351843 0
1.469977767784411 -0.7222222222234562 0
1.469977767784411 -0.6111111111117281 0
1.790954136043232 -1.388888888889507 0
1.790954136043231 -1.277777777779012 0
1.790954136043232 -1.166666666668517 0
1.790954136043232 -1.055555555558023 0
1.790954136043232 -0.9444444444469122 0
1.790954136043232 -0.8333333333351842 0
1.790954136043232 -0.7222222222234562 0
1.790954136043232 -0.6111111111117281 0
2.121559792968942 -1.388888888889506 0
2.121559792968941 -1.277777777779012 0
2.121559792968942 -1.166666666668517 0
2.121559792968942 -1.055555555558023 0
2.121559792968942 -0.9444444444469124 0
2.121559792968942 -0.8333333333351844 0
2.121559792968942 -0.7222222222234562 0
2.121559792968942 -0.6111111111117281 0
2.462083618895098 -1.388888888889506 0
2.462083618895098 -1.277777777779012 0
2.462083618895098 -1.166666666668518 0
2.462083618895098 -1.055555555558023 0
2.462083618895098 -0.9444444444469126 0
2.462083618895098 -0.8333333333351844 0
2.462083618895098 -0.7222222222234563 0
2.462083618895098 -0.6111111111117281 0
2.812823159469296 -1.388888888889506 0
2.812823159469295 -1.277777777779012 0
2.812823159469295 -1.166666666668517 0
2.812823159469296 -1.055555555558023 0
2.812823159469295 -0.9444444444469124 0
2.812823159469296 -0.8333333333351844 0
2.812823159469296 -0.7222222222234562 0
2.812823159469296 -0.6111111111117281 0
3.174084885366474 -1.388888888889507 0
3.174084885366474 -1.277777777779012 0
3.174084885366474 -1.166666666668517 0
3.174084885366474 -1.055555555558024 0
3.174084885366474 -0.9444444444469122 0
3.174084885366474 -0.8333333333351844 0
3.174084885366474 -0.7222222222234562 0
3.174084885366474 -0.6111111111117282 0
3.546184463961976 -1.388888888889507 0
3.546184463961976 -1.277777777779012 0
3.546184463961975 -1.166666666668517 0
3.546184463961976 -1.055555555558023 0
3.546184463961976 -0.9444444444469124 0
3.546184463961976 -0.8333333333351844 0
3.546184463961977 -0.7222222222234562 0
3.546184463961976 -0.6111111111117282 0
3.929447028898763 -1.388888888889506 0
3.929447028898764 -1.277777777779012 0
3.929447028898763 -1.166666666668517 0
3.929447028898763 -1.055555555558023 0
3.929447028898763 -0.9444444444469124 0
3.929447028898763 -0.8333333333351844 0
3.929447028898763 -0.7222222222234562 0
3.929447028898763 -0.6111111111117281 0
4.324207470807259 -1.388888888889506 0
4.324207470807259 -1.277777777779012 0
4.324207470807259 -1.166666666668518 0
4.324207470807259 -1.055555555558024 0
4.324207470807259 -0.9444444444469124 0
4.324207470807259 -0.8333333333351842 0
4.324207470807259 -0.7222222222234562 0
4.324207470807259 -0.6111111111117281 0
4.730810727646289 -1.388888888889506 0
4.730810727646289 -1.277777777779012 0
4.730810727646288 -1.166666666668517 0
4.730810727646289 -1.055555555558024 0
4.730810727646288 -0.9444444444469124 0
4.730810727646289 -0.8333333333351842 0
4.730810727646289 -0.7222222222234562 0
4.730810727646289 -0.611111111111728 0
5.149612083457677 -1.388888888889507 0
5.149612083457679 -1.277777777779012 0
5.149612083457678 -1.166666666668517 0
5.149612083457678 -1.055555555558023 0
5.149612083457678 -0.9444444444469124 0
5.149612083457678 -0.8333333333351843 0
5.149612083457677 -0.7222222222234562 0
5.149612083457678 -0.6111111111117281 0
5.580977480987003 -1.388888888889506 0
5.580977480987002 -1.277777777779012 0
5.580977480987002 -1.166666666668517 0
5.580977480987002 -1.055555555558023 0
5.580977480987002 -0.9444444444469124 0
5.580977480987002 -0.8333333333351841 0
5.580977480987002 -0.7222222222234562 0
5.580977480987002 -0.6111111111117281 0
6.025283839656738 -1.388888888889506 0
6.025283839656737 -1.277777777779012 0
6.025283839656737 -1.166666666668517 0
6.025283839656738 -1.055555555558023 0
6.025283839656737 -0.9444444444469124 0
6.025283839656737 -0.833333333335184 0
6.025283839656738 -0.7222222222234562 0
6.025283839656737 -0.6111111111117281 0
6.482919388276654 -1.388888888889506 0
6.482919388276654 -1.277777777779012 0
6.482919388276653 -1.166666666668517 0
6.482919388276654 -1.055555555558023 0
6.482919388276654 -0.9444444444469124 0
6.482919388276653 -0.8333333333351842 0
6.482919388276654 -0.7222222222234562 0
6.482919388276654 -0.6111111111117282 0
6.954284004549133 -1.388888888889506 0
6.954284004549132 -1.277777777779012 0
6.954284004549132 -1.166666666668517 0
6.954284004549132 -1.055555555558023 0
6.954284004549132 -0.9444444444469124 0
6.954284004549132 -0.8333333333351842 0
6.954284004549133 -0.7222222222234562 0
6.954284004549132 -0.6111111111117282 0
7.439789557073391 -1.388888888889507 0
7.439789557073392 -1.277777777779012 0
7.439789557073389 -1.166666666668517 0
7.439789557073392 -1.055555555558023 0
7.439789557073391 -0.9444444444469124 0
7.439789557073391 -0.8333333333351844 0
7.439789557073391 -0.7222222222234562 0
7.439789557073391 -0.6111111111117281 0
7.939860272519093 -1.388888888889506 0
7.939860272519093 -1.277777777779012 0
7.939860272519094 -1.166666666668517 0
7.939860272519093 -1.055555555558023 0
7.939860272519093 -0.9444444444469124 0
7.939860272519093 -0.8333333333351843 0
7.939860272519094 -0.7222222222234562 0
7.939860272519094 -0.6111111111117282 0
8.454933111824793 -1.388888888889506 0
8.454933111824793 -1.277777777779012 0
8.454933111824792 -1.166666666668517 0
8.454933111824793 -1.055555555558024 0
8.454933111824793 -0.9444444444469124 0
8.454933111824793 -0.8333333333351843 0
8.454933111824793 -0.7222222222234562 0
8.454933111824793 -0.6111111111117282 0
8.985458137468854 -1.388888888889506 0
8.985458137468854 -1.277777777779012 0
8.985458137468854 -1.166666666668517 0
8.985458137468854 -1.055555555558023 0
8.985458137468854 -0.9444444444469124 0
8.985458137468854 -0.8333333333351844 0
8.985458137468854 -0.7222222222234562 0
8.985458137468854 -0.6111111111117281 0
9.531898911936949 -1.388888888889506 0
9.531898911936947 -1.277777777779012 0
9.531898911936949 -1.166666666668517 0
9.531898911936949 -1.055555555558023 0
9.531898911936949 -0.9444444444469124 0
9.531898911936947 -0.8333333333351843 0
9.531898911936949 -0.7222222222234562 0
9.531898911936947 -0.6111111111117281 0
10.09473291182963 -1.388888888889506 0
10.09473291182963 -1.277777777779012 0
10.09473291182963 -1.166666666668517 0
10.09473291182963 -1.055555555558023 0
10.09473291182963 -0.9444444444469124 0
10.09473291182963 -0.8333333333351842 0
10.09473291182963 -0.7222222222234562 0
10.09473291182963 -0.6111111111117281 0
10.67445193069815 -1.388888888889506 0
10.67445193069814 -1.277777777779012 0
10.67445193069814 -1.166666666668517 0
10.67445193069815 -1.055555555558023 0
10.67445193069815 -0.9444444444469124 0
10.67445193069815 -0.8333333333351843 0
10.67445193069814 -0.7222222222234562 0
10.67445193069815 -0.6111111111117281 0
11.27156251961537 -1.388888888889507 0
11.27156251961537 -1.277777777779012 0
11.27156251961537 -1.166666666668517 0
11.27156251961537 -1.055555555558023 0
11.27156251961537 -0.9444444444469124 0
11.27156251961537 -0.8333333333351844 0
11.27156251961537 -0.7222222222234562 0
11.27156251961537 -0.6111111111117281 0
11.88658642828119 -1.388888888889506 0
11.88658642828119 -1.277777777779012 0
11.88658642828119 -1.166666666668517 0
11.88658642828119 -1.055555555558023 0
11.88658642828119 -0.9444444444469124 0
11.88658642828119 -0.8333333333351844 0
11.88658642828119 -0.7222222222234562 0
11.88658642828119 -0.6111111111117281 0
12.52006105376518 -1.388888888889507 0
12.52006105376518 -1.277777777779012 0
12.52006105376518 -1.166666666668518 0
12.52006105376518 -1.055555555558023 0
12.52006105376518 -0.9444444444469123 0
12.52006105376518 -0.8333333333351844 0
12.52006105376518 -0.7222222222234562 0
12.52006105376518 -0.6111111111117281 0
13.17253991751548 -1.388888888889506 0
13.17253991751548 -1.277777777779012 0
13.17253991751547 -1.166666666668517 0
13.17253991751547 -1.055555555558023 0
13.17253991751547 -0.9444444444469124 0
13.17253991751547 -0.8333333333351843 0
13.17253991751547 -0.7222222222234562 0
13.17253991751547 -0.6111111111117281 0
13.84459314802691 -1.388888888889506 0
13.8445931480269 -1.277777777779012 0
13.8445931480269 -1.166666666668517 0
13.84459314802691 -1.055555555558023 0
13.84459314802691 -0.9444444444469124 0
13.84459314802691 -0.8333333333351844 0
13.84459314802691 -0.7222222222234563 0
13.8445931480269 -0.6111111111117281 0
14.5368079753606 -1.388888888889506 0
14.5368079753606 -1.277777777779012 0
14.5368079753606 -1.166666666668517 0
14.5368079753606 -1.055555555558023 0
14.5368079753606 -0.9444444444469124 0
14.5368079753606 -0.8333333333351844 0
14.5368079753606 -0.7222222222234562 0
14.5368079753606 -0.6111111111117281 0
15.24978924606368 -1.388888888889507 0
15.24978924606367 -1.277777777779012 0
15.24978924606367 -1.166666666668518 0
15.24978924606367 -1.055555555558023 0
15.24978924606367 -0.9444444444469124 0
15.24978924606367 -0.833333333335184 0
15.24978924606367 -0.7222222222234562 0
15.24978924606367 -0.6111111111117281 0
15.98415995647317 -1.388888888889506 0
15.98415995647317 -1.277777777779012 0
15.98415995647317 -1.166666666668517 0
15.98415995647316 -1.055555555558023 0
15.98415995647317 -0.9444444444469124 0
15.98415995647316 -0.8333333333351844 0
15.98415995647317 -0.7222222222234562 0
15.98415995647317 -0.6111111111117282 0
16.74056178635374 -1.388888888889506 0
16.74056178635374 -1.277777777779012 0
16.74056178635374 -1.166666666668517 0
16.74056178635374 -1.055555555558024 0
16.74056178635374 -0.9444444444469124 0
16.74056178635374 -0.8333333333351844 0
16.74056178635374 -0.7222222222234561 0
16.74056178635374 -0.611111111111728 0
17.51965566952099 -1.388888888889507 0
17.51965566952099 -1.277777777779012 0
17.51965566952099 -1.166666666668517 0
17.51965566952099 -1.055555555558023 0
17.51965566952099 -0.9444444444469124 0
17.51965566952099 -0.8333333333351844 0
17.51965566952099 -0.7222222222234562 0
17.51965566952099 -0.6111111111117282 0
18.32212237235935 -1.388888888889507 0
18.32212237235935 -1.277777777779012 0
18.32212237235935 -1.166666666668517 0
18.32212237235935 -1.055555555558024 0
18.32212237235935 -0.9444444444469123 0
18.32212237235935 -0.8333333333351843 0
18.32212237235935 -0.7222222222234561 0
18.32212237235935 -0.6111111111117281 0
19.14866307552214 -1.388888888889506 0
19.14866307552214 -1.277777777779012 0
19.14866307552214 -1.166666666668517 0
19.14866307552214 -1.055555555558023 0
19.14866307552214 -0.9444444444469124 0
19.14866307552214 -0.8333333333351841 0
19.14866307552214 -0.7222222222234562 0
19.14866307552214 -0.6111111111117281 0
2 4 0 152
652
653
654
655
656
657
658
659
660
661
662
663
664
665
666
667
668
669
670
671
672
673
674
675
676
677
678
679
680
681
682
683
684
685
686
687
688
689
690
691
692
693
694
695
696
697
698
699
700
701
702
703
704
705
706
707
708
709
710
711
712
713
714
715
716
717
718
719
720
721
722
723
724
725
726
727
728
729
730
731
732
733
734
735
736
737
738
739
740
741
742
743
744
745
746
747
748
749
750
751
752
753
754
755
756
757
758
759
760
761
762
763
764
765
766
767
768
769
770
771
772
773
774
775
776
777
778
779
780
781
782
783
784
785
786
787
788
789
790
791
792
793
794
795
796
797
798
799
800
801
802
803
0.2768770325996402 -0.4 0
0.2768770325996402 -0.3000000000006937 0
0.2768770325996402 -0.2000000000008325 0
0.2768770325996402 -0.1000000000004163 0
0.5620603745795558 -0.4 0
0.5620603745795558 -0.3000000000006937 0
0.5620603745795558 -0.2000000000008325 0
0.5620603745795558 -0.1000000000004163 0
0.8557992191431102 -0.4 0
0.8557992191431103 -0.3000000000006937 0
0.8557992191431103 -0.2000000000008325 0
0.8557992191431103 -0.1000000000004163 0
1.158350227845586 -0.4 0
1.158350227845586 -0.3000000000006937 0
1.158350227845586 -0.2000000000008325 0
1.158350227845586 -0.1000000000004163 0
1.469977767784411 -0.4 0
1.469977767784411 -0.3000000000006937 0
1.469977767784411 -0.2000000000008325 0
1.469977767784411 -0.1000000000004163 0
1.790954136043231 -0.4 0
1.790954136043232 -0.3000000000006937 0
1.790954136043232 -0.2000000000008325 0
1.790954136043232 -0.1000000000004163 0
2.121559792968942 -0.4 0
2.121559792968942 -0.3000000000006937 0
2.121559792968942 -0.2000000000008325 0
2.121559792968942 -0.1000000000004163 0
2.462083618895098 -0.4000000000000001 0
2.462083618895098 -0.3000000000006938 0
2.462083618895098 -0.2000000000008325 0
2.462083618895098 -0.1000000000004163 0
2.812823159469296 -0.4 0
2.812823159469296 -0.3000000000006937 0
2.812823159469296 -0.2000000000008325 0
2.812823159469296 -0.1000000000004163 0
3.174084885366475 -0.4 0
3.174084885366474 -0.3000000000006937 0
3.174084885366474 -0.2000000000008325 0
3.174084885366474 -0.1000000000004163 0
3.546184463961976 -0.4 0
3.546184463961976 -0.3000000000006937 0
3.546184463961976 -0.2000000000008325 0
3.546184463961976 -0.1000000000004163 0
3.929447028898763 -0.4 0
3.929447028898763 -0.3000000000006937 0
3.929447028898763 -0.2000000000008325 0
3.929447028898763 -0.1000000000004163 0
4.324207470807259 -0.4 0
4.324207470807259 -0.3000000000006937 0
4.324207470807259 -0.2000000000008325 0
4.324207470807259 -0.1000000000004163 0
4.730810727646288 -0.4 0
4.730810727646289 -0.3000000000006937 0
4.730810727646288 -0.2000000000008325 0
4.730810727646289 -0.1000000000004162 0
5.149612083457678 -0.4 0
5.149612083457678 -0.3000000000006937 0
5.149612083457678 -0.2000000000008325 0
5.149612083457678 -0.1000000000004163 0
5.580977480987005 -0.4 0
5.580977480987003 -0.3000000000006937 0
5.580977480987003 -0.2000000000008325 0
5.580977480987002 -0.1000000000004163 0
6.02528383965674 -0.4 0
6.025283839656737 -0.3000000000006937 0
6.025283839656737 -0.2000000000008325 0
6.025283839656738 -0.1000000000004163 0
6.482919388276654 -0.4 0
6.482919388276654 -0.3000000000006937 0
6.482919388276654 -0.2000000000008325 0
6.482919388276653 -0.1000000000004163 0
6.954284004549133 -0.4 0
6.954284004549132 -0.3000000000006937 0
6.954284004549132 -0.2000000000008325 0
6.954284004549133 -0.1000000000004163 0
7.439789557073392 -0.4 0
7.439789557073392 -0.3000000000006937 0
7.439789557073391 -0.2000000000008325 0
7.439789557073392 -0.1000000000004163 0
7.939860272519093 -0.4 0
7.939860272519094 -0.3000000000006937 0
7.939860272519093 -0.2000000000008325 0
7.939860272519093 -0.1000000000004163 0
8.454933111824793 -0.4 0
8.454933111824793 -0.3000000000006937 0
8.454933111824793 -0.2000000000008325 0
8.454933111824792 -0.1000000000004163 0
8.985458137468854 -0.4 0
8.985458137468854 -0.3000000000006937 0
8.985458137468854 -0.2000000000008325 0
8.985458137468854 -0.1000000000004163 0
9.531898911936947 -0.4 0
9.531898911936947 -0.3000000000006937 0
9.531898911936949 -0.2000000000008325 0
9.531898911936947 -0.1000000000004163 0
10.09473291182963 -0.4 0
10.09473291182963 -0.3000000000006937 0
10.09473291182963 -0.2000000000008325 0
10.09473291182963 -0.1000000000004163 0
10.67445193069815 -0.4 0
10.67445193069815 -0.3000000000006937 0
10.67445193069815 -0.2000000000008325 0
10.67445193069815 -0.1000000000004163 0
11.27156251961537 -0.4 0
11.27156251961537 -0.3000000000006937 0
11.27156251961537 -0.2000000000008325 0
11.27156251961537 -0.1000000000004163 0
11.88658642828118 -0.4 0
11.88658642828119 -0.3000000000006937 0
11.88658642828119 -0.2000000000008325 0
11.88658642828119 -0.1000000000004163 0
12.52006105376518 -0.4 0
12.52006105376518 -0.3000000000006937 0
12.52006105376518 -0.2000000000008325 0
12.52006105376518 -0.1000000000004163 0
13.17253991751548 -0.4 0
13.17253991751547 -0.3000000000006937 0
13.17253991751547 -0.2000000000008325 0
13.17253991751547 -0.1000000000004163 0
13.84459314802691 -0.4 0
13.8445931480269 -0.3000000000006937 0
13.8445931480269 -0.2000000000008325 0
13.84459314802691 -0.1000000000004163 0
14.5368079753606 -0.4 0
14.5368079753606 -0.3000000000006937 0
14.5368079753606 -0.2000000000008325 0
14.5368079753606 -0.1000000000004163 0
15.24978924606367 -0.4 0
15.24978924606367 -0.3000000000006937 0
15.24978924606367 -0.2000000000008325 0
15.24978924606367 -0.1000000000004163 0
15.98415995647317 -0.4 0
15.98415995647317 -0.3000000000006937 0
15.98415995647317 -0.2000000000008325 0
15.98415995647317 -0.1000000000004163 0
16.74056178635374 -0.4 0
16.74056178635374 -0.3000000000006937 0
16.74056178635374 -0.2000000000008325 0
16.74056178635374 -0.1000000000004163 0
17.51965566952099 -0.4 0
17.51965566952099 -0.3000000000006937 0
17.51965566952099 -0.2000000000008325 0
17.51965566952099 -0.1000000000004163 0
18.32212237235935 -0.4 0
18.32212237235935 -0.3000000000006937 0
18.32212237235935 -0.2000000000008325 0
18.32212237235935 -0.1000000000004163 0
19.14866307552214 -0.4 0
19.14866307552214 -0.3000000000006937 0
19.14866307552214 -0.2000000000008325 0
19.14866307552214 -0.1000000000004163 0
2 5 0 152
804
805
806
807
808
809
810
811
812
813
814
815
816
817
818
819
820
821
822
823
824
825
826
827
828
829
830
831
832
833
834
835
836
837
838
839
840
841
842
843
844
845
846
847
848
849
850
851
852
853
854
855
856
857
858
859
860
861
862
863
864
865
866
867
868
869
870
871
872
873
874
875
876
877
878
879
880
881
882
883
884
885
886
887
888
889
890
891
892
893
894
895
896
897
898
899
900
901
902
903
904
905
906
907
908
909
910
911
912
913
914
915
916
917
918
919
920
921
922
923
924
925
926
927
928
929
930
931
932
933
934
935
936
937
938
939
940
941
942
943
944
945
946
947
948
949
950
951
952
953
954
955
0.2768770325996403 0.09999999999977846 0
0.2768770325996402 0.1999999999994866 0
0.2768770325996402 0.2999999999994725 0
0.2768770325996402 0.3999999999997362 0
0.5620603745795558 0.09999999999977846 0
0.5620603745795558 0.1999999999994866 0
0.5620603745795558 0.2999999999994725 0
0.5620603745795558 0.3999999999997362 0
0.8557992191431103 0.09999999999977846 0
0.8557992191431103 0.1999999999994866 0
0.8557992191431103 0.2999999999994725 0
0.8557992191431103 0.3999999999997362 0
1.158350227845586 0.09999999999977846 0
1.158350227845586 0.1999999999994866 0
1.158350227845586 0.2999999999994725 0
1.158350227845586 0.3999999999997362 0
1.469977767784411 0.09999999999977846 0
1.469977767784411 0.1999999999994865 0
1.469977767784411 0.2999999999994725 0
1.469977767784411 0.3999999999997362 0
1.790954136043232 0.09999999999977846 0
1.790954136043232 0.1999999999994866 0
1.790954136043232 0.2999999999994725 0
1.790954136043232 0.3999999999997363 0
2.121559792968942 0.09999999999977846 0
2.121559792968942 0.1999999999994866 0
2.121559792968942 0.2999999999994725 0
2.121559792968942 0.3999999999997362 0
2.462083618895098 0.09999999999977846 0
2.462083618895099 0.1999999999994866 0
2.462083618895098 0.2999999999994725 0
2.462083618895098 0.3999999999997363 0
2.812823159469296 0.09999999999977845 0
2.812823159469296 0.1999999999994866 0
2.812823159469295 0.2999999999994725 0
2.812823159469295 0.3999999999997362 0
3.174084885366474 0.09999999999977846 0
3.174084885366474 0.1999999999994865 0
3.174084885366474 0.2999999999994725 0
3.174084885366474 0.3999999999997362 0
3.546184463961976 0.09999999999977847 0
3.546184463961976 0.1999999999994866 0
3.546184463961976 0.2999999999994725 0
3.546184463961976 0.3999999999997362 0
3.929447028898763 0.09999999999977846 0
3.929447028898763 0.1999999999994866 0
3.929447028898763 0.2999999999994725 0
3.929447028898763 0.3999999999997362 0
4.324207470807259 0.09999999999977846 0
4.324207470807259 0.1999999999994865 0
4.324207470807259 0.2999999999994725 0
4.324207470807259 0.3999999999997362 0
4.730810727646287 0.09999999999977846 0
4.730810727646289 0.1999999999994866 0
4.730810727646289 0.2999999999994725 0
4.730810727646289 0.3999999999997362 0
5.149612083457678 0.09999999999977846 0
5.149612083457678 0.1999999999994866 0
5.149612083457678 0.2999999999994725 0
5.149612083457678 0.3999999999997362 0
5.580977480987003 0.09999999999977846 0
5.580977480987001 0.1999999999994866 0
5.580977480987002 0.2999999999994725 0
5.580977480987002 0.3999999999997362 0
6.025283839656737 0.09999999999977846 0
6.025283839656738 0.1999999999994866 0
6.025283839656738 0.2999999999994725 0
6.025283839656738 0.3999999999997362 0
6.482919388276654 0.09999999999977845 0
6.482919388276654 0.1999999999994866 0
6.482919388276654 0.2999999999994725 0
6.482919388276654 0.3999999999997362 0
6.954284004549132 0.09999999999977846 0
6.954284004549132 0.1999999999994866 0
6.954284004549132 0.2999999999994725 0
6.954284004549132 0.3999999999997362 0
7.439789557073391 0.09999999999977846 0
7.439789557073392 0.1999999999994866 0
7.439789557073391 0.2999999999994725 0
7.439789557073391 0.3999999999997362 0
7.939860272519091 0.09999999999977846 0
7.939860272519093 0.1999999999994866 0
7.939860272519093 0.2999999999994725 0
7.939860272519094 0.3999999999997362 0
8.454933111824793 0.09999999999977846 0
8.454933111824793 0.1999999999994866 0
8.454933111824793 0.2999999999994725 0
8.454933111824793 0.3999999999997362 0
8.98545813746885 0.09999999999977846 0
8.985458137468854 0.1999999999994866 0
8.985458137468854 0.2999999999994725 0
8.985458137468854 0.3999999999997362 0
9.531898911936947 0.09999999999977846 0
9.531898911936949 0.1999999999994866 0
9.531898911936947 0.2999999999994725 0
9.531898911936949 0.3999999999997362 0
10.09473291182963 0.09999999999977846 0
10.09473291182963 0.1999999999994866 0
10.09473291182963 0.2999999999994725 0
10.09473291182963 0.3999999999997362 0
10.67445193069814 0.09999999999977846 0
10.67445193069815 0.1999999999994866 0
10.67445193069814 0.2999999999994725 0
10.67445193069815 0.3999999999997362 0
11.27156251961537 0.09999999999977846 0
11.27156251961537 0.1999999999994866 0
11.27156251961537 0.2999999999994725 0
11.27156251961537 0.3999999999997362 0
11.88658642828119 0.09999999999977846 0
11.88658642828119 0.1999999999994866 0
11.88658642828119 0.2999999999994725 0
11.88658642828119 0.3999999999997362 0
12.52006105376518 0.09999999999977846 0
12.52006105376518 0.1999999999994866 0
12.52006105376518 0.2999999999994725 0
12.52006105376518 0.3999999999997362 0
13.17253991751547 0.09999999999977846 0
13.17253991751547 0.1999999999994866 0
13.17253991751547 0.2999999999994725 0
13.17253991751547 0.3999999999997362 0
13.84459314802691 0.09999999999977846 0
13.8445931480269 0.1999999999994866 0
13.8445931480269 0.2999999999994725 0
13.8445931480269 0.3999999999997362 0
14.5368079753606 0.09999999999977846 0
14.5368079753606 0.1999999999994865 0
14.5368079753606 0.2999999999994725 0
14.5368079753606 0.3999999999997362 0
15.24978924606367 0.09999999999977846 0
15.24978924606367 0.1999999999994866 0
15.24978924606367 0.2999999999994725 0
15.24978924606367 0.3999999999997362 0
15.98415995647317 0.09999999999977846 0
15.98415995647317 0.1999999999994866 0
15.98415995647317 0.2999999999994725 0
15.98415995647317 0.3999999999997362 0
16.74056178635374 0.09999999999977846 0
16.74056178635374 0.1999999999994866 0
16.74056178635374 0.2999999999994725 0
16.74056178635374 0.3999999999997362 0
17.51965566952099 0.09999999999977846 0
17.51965566952099 0.1999999999994866 0
17.51965566952099 0.2999999999994725 0
17.51965566952099 0.3999999999997362 0
18.32212237235935 0.09999999999977846 0
18.32212237235935 0.1999999999994866 0
18.32212237235935 0.2999999999994725 0
18.32212237235935 0.3999999999997362 0
19.14866307552214 0.09999999999977846 0
19.14866307552214 0.1999999999994866 0
19.14866307552214 0.2999999999994725 0
19.14866307552214 0.3999999999997362 0
2 6 0 304
956
957
958
959
960
961
962
963
964
965
966
967
968
969
970
971
972
973
974
975
976
977
978
979
980
981
982
983
984
985
986
987
988
989
990
991
992
993
994
995
996
997
998
999
1000
1001
1002
1003
1004
1005
1006
1007
1008
1009
1010
1011
1012
1013
1014
1015
1016
1017
1018
1019
1020
1021
1022
1023
1024
1025
1026
1027
1028
1029
1030
1031
1032
1033
1034
1035
1036
1037
1038
1039
1040
1041
1042
1043
1044
1045
1046
1047
1048
1049
1050
1051
1052
1053
1054
1055
1056
1057
1058
1059
1060
1061
1062
1063
1064
1065
1066
1067
1068
1069
1070
1071
1072
1073
1074
1075
1076
1077
1078
1079
1080
1081
1082
1083
1084
1085
1086
1087
1088
1089
1090
1091
1092
1093
1094
1095
1096
1097
1098
1099
1100
1101
1102
1103
1104
1105
1106
1107
1108
1109
1110
1111
1112
1113
1114
1115
1116
1117
1118
1119
1120
1121
1122
1123
1124
1125
1126
1127
1128
1129
1130
1131
1132
1133
1134
1135
1136
1137
1138
1139
1140
1141
1142
1143
1144
1145
1146
1147
1148
1149
1150
1151
1152
1153
1154
1155
1156
1157
1158
1159
1160
1161
1162
1163
1164
1165
1166
1167
1168
1169
1170
1171
1172
1173
1174
1175
1176
1177
1178
1179
1180
1181
1182
1183
1184
1185
1186
1187
1188
1189
1190
1191
1192
1193
1194
1195
1196
1197
1198
1199
1200
1201
1202
1203
1204
1205
1206
1207
1208
1209
1210
1211
1212
1213
1214
1215
1216
1217
1218
1219
1220
1221
1222
1223
1224
1225
1226
1227
1228
1229
1230
1231
1232
1233
1234
1235
1236
1237
1238
1239
1240
1241
1242
1243
1244
1245
1246
1247
1248
1249
1250
1251
1252
1253
1254
1255
1256
1257
1258
1259
0.2768770325996402 0.6111111111121907 0
0.2768770325996402 0.7222222222233019 0
0.2768770325996402 0.8333333333342593 0
0.2768770325996402 0.9444444444452167 0
0.2768770325996402 1.055555555556174 0
0.2768770325996402 1.16666666666713 0
0.2768770325996402 1.277777777778087 0
0.2768770325996402 1.388888888889044 0
0.562060374579556 0.6111111111121907 0
0.5620603745795558 0.7222222222233019 0
0.5620603745795558 0.8333333333342592 0
0.5620603745795558 0.9444444444452167 0
0.5620603745795558 1.055555555556174 0
0.5620603745795557 1.16666666666713 0
0.5620603745795558 1.277777777778087 0
0.5620603745795558 1.388888888889043 0
0.8557992191431103 0.6111111111121907 0
0.8557992191431103 0.7222222222233021 0
0.8557992191431103 0.8333333333342592 0
0.8557992191431103 0.9444444444452166 0
0.8557992191431103 1.055555555556174 0
0.8557992191431102 1.16666666666713 0
0.8557992191431103 1.277777777778087 0
0.8557992191431102 1.388888888889043 0
1.158350227845586 0.6111111111121907 0
1.158350227845586 0.7222222222233019 0
1.158350227845586 0.8333333333342592 0
1.158350227845586 0.9444444444452167 0
1.158350227845586 1.055555555556174 0
1.158350227845586 1.16666666666713 0
1.158350227845586 1.277777777778087 0
1.158350227845586 1.388888888889043 0
1.469977767784411 0.6111111111121907 0
1.469977767784411 0.7222222222233019 0
1.469977767784411 0.8333333333342592 0
1.469977767784411 0.9444444444452167 0
1.469977767784411 1.055555555556174 0
1.469977767784411 1.16666666666713 0
1.469977767784411 1.277777777778087 0
1.469977767784411 1.388888888889043 0
1.790954136043231 0.6111111111121907 0
1.790954136043232 0.7222222222233017 0
1.790954136043232 0.8333333333342592 0
1.790954136043232 0.9444444444452167 0
1.790954136043232 1.055555555556174 0
1.790954136043232 1.16666666666713 0
1.790954136043231 1.277777777778087 0
1.790954136043232 1.388888888889043 0
2.121559792968942 0.6111111111121907 0
2.121559792968942 0.7222222222233019 0
2.121559792968942 0.8333333333342592 0
2.121559792968942 0.9444444444452167 0
2.121559792968942 1.055555555556174 0
2.121559792968942 1.16666666666713 0
2.121559792968942 1.277777777778087 0
2.121559792968942 1.388888888889043 0
2.462083618895097 0.6111111111121907 0
2.462083618895098 0.7222222222233017 0
2.462083618895098 0.8333333333342592 0
2.462083618895098 0.9444444444452167 0
2.462083618895098 1.055555555556174 0
2.462083618895098 1.16666666666713 0
2.462083618895098 1.277777777778087 0
2.462083618895099 1.388888888889043 0
2.812823159469296 0.6111111111121907 0
2.812823159469295 0.7222222222233019 0
2.812823159469296 0.8333333333342591 0
2.812823159469297 0.9444444444452167 0
2.812823159469295 1.055555555556174 0
2.812823159469296 1.16666666666713 0
2.812823159469296 1.277777777778087 0
2.812823159469296 1.388888888889043 0
3.174084885366474 0.6111111111121907 0
3.174084885366474 0.7222222222233019 0
3.174084885366475 0.8333333333342592 0
3.174084885366474 0.9444444444452167 0
3.174084885366474 1.055555555556174 0
3.174084885366474 1.16666666666713 0
3.174084885366474 1.277777777778087 0
3.174084885366474 1.388888888889043 0
3.546184463961976 0.6111111111121907 0
3.546184463961976 0.7222222222233017 0
3.546184463961976 0.8333333333342592 0
3.546184463961976 0.9444444444452168 0
3.546184463961976 1.055555555556174 0
3.546184463961977 1.16666666666713 0
3.546184463961976 1.277777777778087 0
3.546184463961976 1.388888888889043 0
3.929447028898764 0.6111111111121907 0
3.929447028898763 0.7222222222233019 0
3.929447028898763 0.8333333333342592 0
3.929447028898763 0.9444444444452167 0
3.929447028898763 1.055555555556174 0
3.929447028898763 1.16666666666713 0
3.929447028898763 1.277777777778087 0
3.929447028898763 1.388888888889043 0
4.324207470807261 0.6111111111121907 0
4.324207470807259 0.7222222222233019 0
4.324207470807259 0.8333333333342592 0
4.324207470807259 0.9444444444452168 0
4.324207470807259 1.055555555556174 0
4.324207470807259 1.16666666666713 0
4.324207470807259 1.277777777778087 0
4.324207470807259 1.388888888889043 0
4.730810727646289 0.6111111111121907 0
4.730810727646289 0.7222222222233019 0
4.730810727646289 0.8333333333342592 0
4.730810727646289 0.9444444444452167 0
4.730810727646288 1.055555555556174 0
4.730810727646288 1.16666666666713 0
4.730810727646288 1.277777777778087 0
4.730810727646288 1.388888888889043 0
5.149612083457677 0.6111111111121907 0
5.149612083457678 0.7222222222233019 0
5.149612083457678 0.8333333333342592 0
5.149612083457678 0.9444444444452167 0
5.149612083457678 1.055555555556174 0
5.149612083457678 1.16666666666713 0
5.149612083457678 1.277777777778087 0
5.149612083457678 1.388888888889043 0
5.580977480987002 0.6111111111121907 0
5.580977480987 0.7222222222233019 0
5.580977480987002 0.8333333333342592 0
5.580977480987003 0.9444444444452167 0
5.580977480987003 1.055555555556174 0
5.580977480987002 1.16666666666713 0
5.580977480987002 1.277777777778087 0
5.580977480987003 1.388888888889043 0
6.025283839656738 0.6111111111121907 0
6.025283839656737 0.7222222222233019 0
6.025283839656737 0.8333333333342592 0
6.025283839656737 0.9444444444452167 0
6.025283839656737 1.055555555556174 0
6.025283839656737 1.16666666666713 0
6.025283839656737 1.277777777778087 0
6.025283839656737 1.388888888889043 0
6.482919388276654 0.6111111111121907 0
6.482919388276654 0.7222222222233019 0
6.482919388276654 0.8333333333342592 0
6.482919388276654 0.9444444444452167 0
6.482919388276654 1.055555555556174 0
6.482919388276654 1.16666666666713 0
6.482919388276654 1.277777777778087 0
6.482919388276653 1.388888888889043 0
6.954284004549131 0.6111111111121907 0
6.954284004549132 0.7222222222233019 0
6.954284004549132 0.8333333333342592 0
6.954284004549133 0.9444444444452167 0
6.954284004549133 1.055555555556174 0
6.954284004549132 1.16666666666713 0
6.954284004549134 1.277777777778087 0
6.954284004549132 1.388888888889043 0
7.439789557073393 0.6111111111121907 0
7.439789557073391 0.7222222222233019 0
7.439789557073394 0.8333333333342592 0
7.439789557073392 0.9444444444452167 0
7.439789557073392 1.055555555556174 0
7.439789557073391 1.16666666666713 0
7.439789557073393 1.277777777778087 0
7.439789557073391 1.388888888889043 0
7.939860272519093 0.6111111111121907 0
7.939860272519093 0.7222222222233019 0
7.939860272519095 0.8333333333342592 0
7.939860272519093 0.9444444444452167 0
7.939860272519093 1.055555555556174 0
7.939860272519093 1.16666666666713 0
7.939860272519093 1.277777777778087 0
7.939860272519094 1.388888888889043 0
8.454933111824793 0.6111111111121907 0
8.454933111824793 0.7222222222233019 0
8.454933111824793 0.8333333333342592 0
8.454933111824793 0.9444444444452167 0
8.454933111824793 1.055555555556174 0
8.454933111824793 1.16666666666713 0
8.454933111824793 1.277777777778087 0
8.454933111824793 1.388888888889043 0
8.985458137468854 0.6111111111121907 0
8.985458137468854 0.7222222222233019 0
8.985458137468854 0.8333333333342592 0
8.985458137468854 0.9444444444452167 0
8.985458137468854 1.055555555556174 0
8.985458137468854 1.16666666666713 0
8.985458137468854 1.277777777778087 0
8.985458137468854 1.388888888889043 0
9.531898911936949 0.6111111111121907 0
9.531898911936947 0.7222222222233019 0
9.531898911936947 0.8333333333342592 0
9.531898911936949 0.9444444444452167 0
9.531898911936947 1.055555555556174 0
9.531898911936949 1.16666666666713 0
9.531898911936947 1.277777777778087 0
9.531898911936949 1.388888888889043 0
10.09473291182963 0.6111111111121907 0
10.09473291182963 0.7222222222233019 0
10.09473291182963 0.8333333333342592 0
10.09473291182963 0.9444444444452167 0
10.09473291182963 1.055555555556174 0
10.09473291182963 1.16666666666713 0
10.09473291182963 1.277777777778087 0
10.09473291182963 1.388888888889043 0
10.67445193069815 0.6111111111121907 0
10.67445193069815 0.7222222222233019 0
10.67445193069815 0.8333333333342592 0
10.67445193069814 0.9444444444452167 0
10.67445193069814 1.055555555556174 0
10.67445193069815 1.16666666666713 0
10.67445193069815 1.277777777778087 0
10.67445193069814 1.388888888889043 0
11.27156251961538 0.6111111111121907 0
11.27156251961537 0.7222222222233019 0
11.27156251961537 0.8333333333342592 0
11.27156251961537 0.9444444444452167 0
11.27156251961537 1.055555555556174 0
11.27156251961537 1.16666666666713 0
11.27156251961537 1.277777777778087 0
11.27156251961537 1.388888888889043 0
11.88658642828119 0.6111111111121907 0
11.88658642828119 0.7222222222233019 0
11.88658642828119 0.8333333333342592 0
11.88658642828119 0.9444444444452167 0
11.88658642828119 1.055555555556174 0
11.88658642828119 1.16666666666713 0
11.88658642828119 1.277777777778087 0
11.88658642828119 1.388888888889043 0
12.52006105376518 0.6111111111121907 0
12.52006105376518 0.7222222222233018 0
12.52006105376518 0.8333333333342592 0
12.52006105376518 0.9444444444452167 0
12.52006105376518 1.055555555556174 0
12.52006105376518 1.16666666666713 0
12.52006105376518 1.277777777778087 0
12.52006105376518 1.388888888889043 0
13.17253991751547 0.6111111111121907 0
13.17253991751547 0.7222222222233019 0
13.17253991751547 0.8333333333342592 0
13.17253991751547 0.9444444444452167 0
13.17253991751547 1.055555555556174 0
13.17253991751547 1.16666666666713 0
13.17253991751547 1.277777777778087 0
13.17253991751547 1.388888888889043 0
13.8445931480269 0.6111111111121907 0
13.8445931480269 0.7222222222233019 0
13.8445931480269 0.8333333333342592 0
13.84459314802691 0.9444444444452167 0
13.84459314802691 1.055555555556174 0
13.84459314802691 1.16666666666713 0
13.84459314802691 1.277777777778087 0
13.84459314802691 1.388888888889043 0
14.5368079753606 0.6111111111121907 0
14.5368079753606 0.7222222222233019 0
14.53680797536059 0.8333333333342592 0
14.5368079753606 0.9444444444452167 0
14.5368079753606 1.055555555556174 0
14.5368079753606 1.16666666666713 0
14.5368079753606 1.277777777778087 0
14.5368079753606 1.388888888889043 0
15.24978924606367 0.6111111111121907 0
15.24978924606368 0.722222222223302 0
15.24978924606367 0.8333333333342592 0
15.24978924606367 0.9444444444452167 0
15.24978924606367 1.055555555556174 0
15.24978924606367 1.16666666666713 0
15.24978924606367 1.277777777778087 0
15.24978924606367 1.388888888889043 0
15.98415995647317 0.6111111111121907 0
15.98415995647316 0.7222222222233018 0
15.98415995647317 0.8333333333342592 0
15.98415995647317 0.9444444444452168 0
15.98415995647317 1.055555555556174 0
15.98415995647317 1.16666666666713 0
15.98415995647317 1.277777777778087 0
15.98415995647317 1.388888888889043 0
16.74056178635374 0.6111111111121907 0
16.74056178635374 0.7222222222233019 0
16.74056178635374 0.8333333333342592 0
16.74056178635374 0.9444444444452167 0
16.74056178635374 1.055555555556174 0
16.74056178635374 1.16666666666713 0
16.74056178635374 1.277777777778087 0
16.74056178635374 1.388888888889043 0
17.51965566952099 0.6111111111121907 0
17.51965566952099 0.7222222222233019 0
17.51965566952099 0.8333333333342592 0
17.51965566952099 0.9444444444452167 0
17.51965566952099 1.055555555556174 0
17.51965566952099 1.16666666666713 0
17.51965566952099 1.277777777778087 0
17.51965566952099 1.388888888889043 0
18.32212237235935 0.6111111111121907 0
18.32212237235935 0.722222222223302 0
18.32212237235935 0.8333333333342592 0
18.32212237235935 0.9444444444452167 0
18.32212237235935 1.055555555556174 0
18.32212237235935 1.16666666666713 0
18.32212237235935 1.277777777778087 0
18.32212237235935 1.388888888889043 0
19.14866307552213 0.6111111111121907 0
19.14866307552215 0.722222222223302 0
19.14866307552214 0.8333333333342592 0
19.14866307552214 0.9444444444452167 0
19.14866307552214 1.055555555556173 0
19.14866307552214 1.16666666666713 0
19.14866307552214 1.277777777778087 0
19.14866307552214 1.388888888889043 0
$EndNodes
$Elements
20 1382 1 1382
1 1 1 9
1 1 14 
2 14 15 
3 15 16 
4 16 17 
5 17 18 
6 18 19 
7 19 20 
8 20 21 
9 21 5 
1 2 1 9
10 2 22 
11 22 23 
12 23 24 
13 24 25 
14 25 26 
15 26 27 
16 27 28 
17 28 29 
18 29 6 
1 3 1 9
19 3 30 
20 30 31 
21 31 32 
22 32 33 
23 33 34 
24 34 35 
25 35 36 
26 36 37 
27 37 7 
1 4 1 39
28 4 38 
29 38 39 
30 39 40 
31 40 41 
32 41 42 
33 42 43 
34 43 44 
35 44 45 
36 45 46 
37 46 47 
38 47 48 
39 48 49 
40 49 50 
41 50 51 
42 51 52 
43 52 53 
44 53 54 
45 54 55 
46 55 56 
47 56 57 
48 57 58 
49 58 59 
50 59 60 
51 60 61 
52 61 62 
53 62 63 
54 63 64 
55 64 65 
56 65 66 
57 66 67 
58 67 68 
59 68 69 
60 69 70 
61 70 71 
62 71 72 
63 72 73 
64 73 74 
65 74 75 
66 75 9 
1 6 1 39
67 6 114 
68 114 115 
69 115 116 
70 116 117 
71 117 118 
72 118 119 
73 119 120 
74 120 121 
75 121 122 
76 122 123 
77 123 124 
78 124 125 
79 125 126 
80 126 127 
81 127 128 
82 128 129 
83 129 130 
84 130 131 
85 131 132 
86 132 133 
87 133 134 
88 134 135 
89 135 136 
90 136 137 
91 137 138 
92 138 139 
93 139 140 
94 140 141 
95 141 142 
96 142 143 
97 143 144 
98 144 145 
99 145 146 
100 146 147 
101 147 148 
102 148 149 
103 149 150 
104 150 151 
105 151 11 
1 8 1 39
106 8 190 
107 190 191 
108 191 192 
109 192 193 
110 193 194 
111 194 195 
112 195 196 
113 196 197 
114 197 198 
115 198 199 
116 199 200 
117 200 201 
118 201 202 
119 202 203 
120 203 204 
121 204 205 
122 205 206 
123 206 207 
124 207 208 
125 208 209 
126 209 210 
127 210 211 
128 211 212 
129 212 213 
130 213 214 
131 214 215 
132 215 216 
133 216 217 
134 217 218 
135 218 219 
136 219 220 
137 220 221 
138 221 222 
139 222 223 
140 223 224 
141 224 225 
142 225 226 
143 226 227 
144 227 13 
1 11 1 5
145 1 228 
146 228 229 
147 229 230 
148 230 231 
149 231 2 
1 12 1 5
150 2 232 
151 232 233 
152 233 234 
153 234 235 
154 235 3 
1 13 1 9
155 4 236 
156 236 237 
157 237 238 
158 238 239 
159 239 240 
160 240 241 
161 241 242 
162 242 243 
163 243 5 
1 16 1 9
164 7 252 
165 252 253 
166 253 254 
167 254 255 
168 255 256 
169 256 257 
170 257 258 
171 258 259 
172 259 8 
1 17 1 9
173 9 260 
174 260 261 
175 261 262 
176 262 263 
177 263 264 
178 264 265 
179 265 266 
180 266 267 
181 267 10 
1 18 1 5
182 10 268 
183 268 269 
184 269 270 
185 270 271 
186 271 11 
1 19 1 5
187 11 272 
188 272 273 
189 273 274 
190 274 275 
191 275 12 
1 20 1 9
192 12 276 
193 276 277 
194 277 278 
195 278 279 
196 279 280 
197 280 281 
198 281 282 
199 282 283 
200 283 13 
2 1 3 45
201 1 14 284 228 
202 228 284 285 229 
203 229 285 286 230 
204 230 286 287 231 
205 231 287 22 2 
206 14 15 288 284 
207 284 288 289 285 
208 285 289 290 286 
209 286 290 291 287 
210 287 291 23 22 
211 15 16 292 288 
212 288 292 293 289 
213 289 293 294 290 
214 290 294 295 291 
215 291 295 24 23 
216 16 17 296 292 
217 292 296 297 293 
218 293 297 298 294 
219 294 298 299 295 
220 295 299 25 24 
221 17 18 300 296 
222 296 300 301 297 
223 297 301 302 298 
224 298 302 303 299 
225 299 303 26 25 
226 18 19 304 300 
227 300 304 305 301 
228 301 305 306 302 
229 302 306 307 303 
230 303 307 27 26 
231 19 20 308 304 
232 304 308 309 305 
233 305 309 310 306 
234 306 310 311 307 
235 307 311 28 27 
236 20 21 312 308 
237 308 312 313 309 
238 309 313 314 310 
239 310 314 315 311 
240 311 315 29 28 
241 21 5 244 312 
242 312 244 245 313 
243 313 245 246 314 
244 314 246 247 315 
245 315 247 6 29 
2 2 3 45
246 2 22 316 232 
247 232 316 317 233 
248 233 317 318 234 
249 234 318 319 235 
250 235 319 30 3 
251 22 23 320 316 
252 316 320 321 317 
253 317 321 322 318 
254 318 322 323 319 
255 319 323 31 30 
256 23 24 324 320 
257 320 324 325 321 
258 321 325 326 322 
259 322 326 327 323 
260 323 327 32 31 
261 24 25 328 324 
262 324 328 329 325 
263 325 329 330 326 
264 326 330 331 327 
265 327 331 33 32 
266 25 26 332 328 
267 328 332 333 329 
268 329 333 334 330 
269 330 334 335 331 
270 331 335 34 33 
271 26 27 336 332 
272 332 336 337 333 
273 333 337 338 334 
274 334 338 339 335 
275 335 339 35 34 
276 27 28 340 336 
277 336 340 341 337 
278 337 341 342 338 
279 338 342 343 339 
280 339 343 36 35 
281 28 29 344 340 
282 340 344 345 341 
283 341 345 346 342 
284 342 346 347 343 
285 343 347 37 36 
286 29 6 248 344 
287 344 248 249 345 
288 345 249 250 346 
289 346 250 251 347 
290 347 251 7 37 
2 3 3 351
291 4 38 348 236 
292 236 348 349 237 
293 237 349 350 238 
294 238 350 351 239 
295 239 351 352 240 
296 240 352 353 241 
297 241 353 354 242 
298 242 354 355 243 
299 243 355 76 5 
300 38 39 356 348 
301 348 356 357 349 
302 349 357 358 350 
303 350 358 359 351 
304 351 359 360 352 
305 352 360 361 353 
306 353 361 362 354 
307 354 362 363 355 
308 355 363 77 76 
309 39 40 364 356 
310 356 364 365 357 
311 357 365 366 358 
312 358 366 367 359 
313 359 367 368 360 
314 360 368 369 361 
315 361 369 370 362 
316 362 370 371 363 
317 363 371 78 77 
318 40 41 372 364 
319 364 372 373 365 
320 365 373 374 366 
321 366 374 375 367 
322 367 375 376 368 
323 368 376 377 369 
324 369 377 378 370 
325 370 378 379 371 
326 371 379 79 78 
327 41 42 380 372 
328 372 380 381 373 
329 373 381 382 374 
330 374 382 383 375 
331 375 383 384 376 
332 376 384 385 377 
333 377 385 386 378 
334 378 386 387 379 
335 379 387 80 79 
336 42 43 388 380 
337 380 388 389 381 
338 381 389 390 382 
339 382 390 391 383 
340 383 391 392 384 
341 384 392 393 385 
342 385 393 394 386 
343 386 394 395 387 
344 387 395 81 80 
345 43 44 396 388 
346 388 396 397 389 
347 389 397 398 390 
348 390 398 399 391 
349 391 399 400 392 
350 392 400 401 393 
351 393 401 402 394 
352 394 402 403 395 
353 395 403 82 81 
354 44 45 404 396 
355 396 404 405 397 
356 397 405 406 398 
357 398 406 407 399 
358 399 407 408 400 
359 400 408 409 401 
360 401 409 410 402 
361 402 410 411 403 
362 403 411 83 82 
363 45 46 412 404 
364 404 412 413 405 
365 405 413 414 406 
366 406 414 415 407 
367 407 415 416 408 
368 408 416 417 409 
369 409 417 418 410 
370 410 418 419 411 
371 411 419 84 83 
372 46 47 420 412 
373 412 420 421 413 
374 413 421 422 414 
375 414 422 423 415 
376 415 423 424 416 
377 416 424 425 417 
378 417 425 426 418 
379 418 426 427 419 
380 419 427 85 84 
381 47 48 428 420 
382 420 428 429 421 
383 421 429 430 422 
384 422 430 431 423 
385 423 431 432 424 
386 424 432 433 425 
387 425 433 434 426 
388 426 434 435 427 
389 427 435 86 85 
390 48 49 436 428 
391 428 436 437 429 
392 429 437 438 430 
393 430 438 439 431 
394 431 439 440 432 
395 432 440 441 433 
396 433 441 442 434 
397 434 442 443 435 
398 435 443 87 86 
399 49 50 444 436 
400 436 444 445 437 
401 437 445 446 438 
402 438 446 447 439 
403 439 447 448 440 
404 440 448 449 441 
405 441 449 450 442 
406 442 450 451 443 
407 443 451 88 87 
408 50 51 452 444 
409 444 452 453 445 
410 445 453 454 446 
411 446 454 455 447 
412 447 455 456 448 
413 448 456 457 449 
414 449 457 458 450 
415 450 458 459 451 
416 451 459 89 88 
417 51 52 460 452 
418 452 460 461 453 
419 453 461 462 454 
420 454 462 463 455 
421 455 463 464 456 
422 456 464 465 457 
423 457 465 466 458 
424 458 466 467 459 
425 459 467 90 89 
426 52 53 468 460 
427 460 468 469 461 
428 461 469 470 462 
429 462 470 471 463 
430 463 471 472 464 
431 464 472 473 465 
432 465 473 474 466 
433 466 474 475 467 
434 467 475 91 90 
435 53 54 476 468 
436 468 476 477 469 
437 469 477 478 470 
438 470 478 479 471 
439 471 479 480 472 
440 472 480 481 473 
441 473 481 482 474 
442 474 482 483 475 
443 475 483 92 91 
444 54 55 484 476 
445 476 484 485 477 
446 477 485 486 478 
447 478 486 487 479 
448 479 487 488 480 
449 480 488 489 481 
450 481 489 490 482 
451 482 490 491 483 
452 483 491 93 92 
453 55 56 492 484 
454 484 492 493 485 
455 485 493 494 486 
456 486 494 495 487 
457 487 495 496 488 
458 488 496 497 489 
459 489 497 498 490 
460 490 498 499 491 
461 491 499 94 93 
462 56 57 500 492 
463 492 500 501 493 
464 493 501 502 494 
465 494 502 503 495 
466 495 503 504 496 
467 496 504 505 497 
468 497 505 506 498 
469 498 506 507 499 
470 499 507 95 94 
471 57 58 508 500 
472 500 508 509 501 
473 501 509 510 502 
474 502 510 511 503 
475 503 511 512 504 
476 504 512 513 505 
477 505 513 514 506 
478 506 514 515 507 
479 507 515 96 95 
480 58 59 516 508 
481 508 516 517 509 
482 509 517 518 510 
483 510 518 519 511 
484 511 519 520 512 
485 512 520 521 513 
486 513 521 522 514 
487 514 522 523 515 
488 515 523 97 96 
489 59 60 524 516 
490 516 524 525 517 
491 517 525 526 518 
492 518 526 527 519 
493 519 527 528 520 
494 520 528 529 521 
495 521 529 530 522 
496 522 530 531 523 
497 523 531 98 97 
498 60 61 532 524 
499 524 532 533 525 
500 525 533 534 526 
501 526 534 535 527 
502 527 535 536 528 
503 528 536 537 529 
504 529 537 538 530 
505 530 538 539 531 
506 531 539 99 98 
507 61 62 540 532 
508 532 540 541 533 
509 533 541 542 534 
510 534 542 543 535 
511 535 543 544 536 
512 536 544 545 537 
513 537 545 546 538 
514 538 546 547 539 
515 539 547 100 99 
516 62 63 548 540 
517 540 548 549 541 
518 541 549 550 542 
519 542 550 551 543 
520 543 551 552 544 
521 544 552 553 545 
522 545 553 554 546 
523 546 554 555 547 
524 547 555 101 100 
525 63 64 556 548 
526 548 556 557 549 
527 549 557 558 550 
528 550 558 559 551 
529 551 559 560 552 
530 552 560 561 553 
531 553 561 562 554 
532 554 562 563 555 
533 555 563 102 101 
534 64 65 564 556 
535 556 564 565 557 
536 557 565 566 558 
537 558 566 567 559 
538 559 567 568 560 
539 560 568 569 561 
540 561 569 570 562 
541 562 570 571 563 
542 563 571 103 102 
543 65 66 572 564 
544 564 572 573 565 
545 565 573 574 566 
546 566 574 575 567 
547 567 575 576 568 
548 568 576 577 569 
549 569 577 578 570 
550 570 578 579 571 
551 571 579 104 103 
552 66 67 580 572 
553 572 580 581 573 
554 573 581 582 574 
555 574 582 583 575 
556 575 583 584 576 
557 576 584 585 577 
558 577 585 586 578 
559 578 586 587 579 
560 579 587 105 104 
561 67 68 588 580 
562 580 588 589 581 
563 581 589 590 582 
564 582 590 591 583 
565 583 591 592 584 
566 584 592 593 585 
567 585 593 594 586 
568 586 594 595 587 
569 587 595 106 105 
570 68 69 596 588 
571 588 596 597 589 
572 589 597 598 590 
573 590 598 599 591 
574 591 599 600 592 
575 592 600 601 593 
576 593 601 602 594 
577 594 602 603 595 
578 595 603 107 106 
579 69 70 604 596 
580 596 604 605 597 
581 597 605 606 598 
582 598 606 607 599 
583 599 607 608 600 
584 600 608 609 601 
585 601 609 610 602 
586 602 610 611 603 
587 603 611 108 107 
588 70 71 612 604 
589 604 612 613 605 
590 605 613 614 606 
591 606 614 615 607 
592 607 615 616 608 
593 608 616 617 609 
594 609 617 618 610 
595 610 618 619 611 
596 611 619 109 108 
597 71 72 620 612 
598 612 620 621 613 
599 613 621 622 614 
600 614 622 623 615 
601 615 623 624 616 
602 616 624 625 617 
603 617 625 626 618 
604 618 626 627 619 
605 619 627 110 109 
606 72 73 628 620 
607 620 628 629 621 
608 621 629 630 622 
609 622 630 631 623 
610 623 631 632 624 
611 624 632 633 625 
612 625 633 634 626 
613 626 634 635 627 
614 627 635 111 110 
615 73 74 636 628 
616 628 636 637 629 
617 629 637 638 630 
618 630 638 639 631 
619 631 639 640 632 
620 632 640 641 633 
621 633 641 642 634 
622 634 642 643 635 
623 635 643 112 111 
624 74 75 644 636 
625 636 644 645 637 
626 637 645 646 638 
627 638 646 647 639 
628 639 647 648 640 
629 640 648 649 641 
630 641 649 650 642 
631 642 650 651 643 
632 643 651 113 112 
633 75 9 260 644 
634 644 260 261 645 
635 645 261 262 646 
636 646 262 263 647 
637 647 263 264 648 
638 648 264 265 649 
639 649 265 266 650 
640 650 266 267 651 
641 651 267 10 113 
2 4 3 195
642 5 76 652 244 
643 244 652 653 245 
644 245 653 654 246 
645 246 654 655 247 
646 247 655 114 6 
647 76 77 656 652 
648 652 656 657 653 
649 653 657 658 654 
650 654 658 659 655 
651 655 659 115 114 
652 77 78 660 656 
653 656 660 661 657 
654 657 661 662 658 
655 658 662 663 659 
656 659 663 116 115 
657 78 79 664 660 
658 660 664 665 661 
659 661 665 666 662 
660 662 666 667 663 
661 663 667 117 116 
662 79 80 668 664 
663 664 668 669 665 
664 665 669 670 666 
665 666 670 671 667 
666 667 671 118 117 
667 80 81 672 668 
668 668 672 673 669 
669 669 673 674 670 
670 670 674 675 671 
671 671 675 119 118 
672 81 82 676 672 
673 672 676 677 673 
674 673 677 678 674 
675 674 678 679 675 
676 675 679 120 119 
677 82 83 680 676 
678 676 680 681 677 
679 677 681 682 678 
680 678 682 683 679 
681 679 683 121 120 
682 83 84 684 680 
683 680 684 685 681 
684 681 685 686 682 
685 682 686 687 683 
686 683 687 122 121 
687 84 85 688 684 
688 684 688 689 685 
689 685 689 690 686 
690 686 690 691 687 
691 687 691 123 122 
692 85 86 692 688 
693 688 692 693 689 
694 689 693 694 690 
695 690 694 695 691 
696 691 695 124 123 
697 86 87 696 692 
698 692 696 697 693 
699 693 697 698 694 
700 694 698 699 695 
701 695 699 125 124 
702 87 88 700 696 
703 696 700 701 697 
704 697 701 702 698 
705 698 702 703 699 
706 699 703 126 125 
707 88 89 704 700 
708 700 704 705 701 
709 701 705 706 702 
710 702 706 707 703 
711 703 707 127 126 
712 89 90 708 704 
713 704 708 709 705 
714 705 709 710 706 
715 706 710 711 707 
716 707 711 128 127 
717 90 91 712 708 
718 708 712 713 709 
719 709 713 714 710 
720 710 714 715 711 
721 711 715 129 128 
722 91 92 716 712 
723 712 716 717 713 
724 713 717 718 714 
725 714 718 719 715 
726 715 719 130 129 
727 92 93 720 716 
728 716 720 721 717 
729 717 721 722 718 
730 718 722 723 719 
731 719 723 131 130 
732 93 94 724 720 
733 720 724 725 721 
734 721 725 726 722 
735 722 726 727 723 
736 723 727 132 131 
737 94 95 728 724 
738 724 728 729 725 
739 725 729 730 726 
740 726 730 731 727 
741 727 731 133 132 
742 95 96 732 728 
743 728 732 733 729 
744 729 733 734 730 
745 730 734 735 731 
746 731 735 134 133 
747 96 97 736 732 
748 732 736 737 733 
749 733 737 738 734 
750 734 738 739 735 
751 735 739 135 134 
752 97 98 740 736 
753 736 740 741 737 
754 737 741 742 738 
755 738 742 743 739 
756 739 743 136 135 
757 98 99 744 740 
758 740 744 745 741 
759 741 745 746 742 
760 742 746 747 743 
761 743 747 137 136 
762 99 100 748 744 
763 744 748 749 745 
764 745 749 750 746 
765 746 750 751 747 
766 747 751 138 137 
767 100 101 752 748 
768 748 752 753 749 
769 749 753 754 750 
770 750 754 755 751 
771 751 755 139 138 
772 101 102 756 752 
773 752 756 757 753 
774 753 757 758 754 
775 754 758 759 755 
776 755 759 140 139 
777 102 103 760 756 
778 756 760 761 757 
779 757 761 762 758 
780 758 762 763 759 
781 759 763 141 140 
782 103 104 764 760 
783 760 764 765 761 
784 761 765 766 762 
785 762 766 767 763 
786 763 767 142 141 
787 104 105 768 764 
788 764 768 769 765 
789 765 769 770 766 
790 766 770 771 767 
791 767 771 143 142 
792 105 106 772 768 
793 768 772 773 769 
794 769 773 774 770 
795 770 774 775 771 
796 771 775 144 143 
797 106 107 776 772 
798 772 776 777 773 
799 773 777 778 774 
800 774 778 779 775 
801 775 779 145 144 
802 107 108 780 776 
803 776 780 781 777 
804 777 781 782 778 
805 778 782 783 779 
806 779 783 146 145 
807 108 109 784 780 
808 780 784 785 781 
809 781 785 786 782 
810 782 786 787 783 
811 783 787 147 146 
812 109 110 788 784 
813 784 788 789 785 
814 785 789 790 786 
815 786 790 791 787 
816 787 791 148 147 
817 110 111 792 788 
818 788 792 793 789 
819 789 793 794 790 
820 790 794 795 791 
821 791 795 149 148 
822 111 112 796 792 
823 792 796 797 793 
824 793 797 798 794 
825 794 798 799 795 
826 795 799 150 149 
827 112 113 800 796 
828 796 800 801 797 
829 797 801 802 798 
830 798 802 803 799 
831 799 803 151 150 
832 113 10 268 800 
833 800 268 269 801 
834 801 269 270 802 
835 802 270 271 803 
836 803 271 11 151 
2 5 3 195
837 6 114 804 248 
838 248 804 805 249 
839 249 805 806 250 
840 250 806 807 251 
841 251 807 152 7 
842 114 115 808 804 
843 804 808 809 805 
844 805 809 810 806 
845 806 810 811 807 
846 807 811 153 152 
847 115 116 812 808 
848 808 812 813 809 
849 809 813 814 810 
850 810 814 815 811 
851 811 815 154 153 
852 116 117 816 812 
853 812 816 817 813 
854 813 817 818 814 
855 814 818 819 815 
856 815 819 155 154 
857 117 118 820 816 
858 816 820 821 817 
859 817 821 822 818 
860 818 822 823 819 
861 819 823 156 155 
862 118 119 824 820 
863 820 824 825 821 
864 821 825 826 822 
865 822 826 827 823 
866 823 827 157 156 
867 119 120 828 824 
868 824 828 829 825 
869 825 829 830 826 
870 826 830 831 827 
871 827 831 158 157 
872 120 121 832 828 
873 828 832 833 829 
874 829 833 834 830 
875 830 834 835 831 
876 831 835 159 158 
877 121 122 836 832 
878 832 836 837 833 
879 833 837 838 834 
880 834 838 839 835 
881 835 839 160 159 
882 122 123 840 836 
883 836 840 841 837 
884 837 841 842 838 
885 838 842 843 839 
886 839 843 161 160 
887 123 124 844 840 
888 840 844 845 841 
889 841 845 846 842 
890 842 846 847 843 
891 843 847 162 161 
892 124 125 848 844 
893 844 848 849 845 
894 845 849 850 846 
895 846 850 851 847 
896 847 851 163 162 
897 125 126 852 848 
898 848 852 853 849 
899 849 853 854 850 
900 850 854 855 851 
901 851 855 164 163 
902 126 127 856 852 
903 852 856 857 853 
904 853 857 858 854 
905 854 858 859 855 
906 855 859 165 164 
907 127 128 860 856 
908 856 860 861 857 
909 857 861 862 858 
910 858 862 863 859 
911 859 863 166 165 
912 128 129 864 860 
913 860 864 865 861 
914 861 865 866 862 
915 862 866 867 863 
916 863 867 167 166 
917 129 130 868 864 
918 864 868 869 865 
919 865 869 870 866 
920 866 870 871 867 
921 867 871 168 167 
922 130 131 872 868 
923 868 872 873 869 
924 869 873 874 870 
925 870 874 875 871 
926 871 875 169 168 
927 131 132 876 872 
928 872 876 877 873 
929 873 877 878 874 
930 874 878 879 875 
931 875 879 170 169 
932 132 133 880 876 
933 876 880 881 877 
934 877 881 882 878 
935 878 882 883 879 
936 879 883 171 170 
937 133 134 884 880 
938 880 884 885 881 
939 881 885 886 882 
940 882 886 887 883 
941 883 887 172 171 
942 134 135 888 884 
943 884 888 889 885 
944 885 889 890 886 
945 886 890 891 887 
946 887 891 173 172 
947 135 136 892 888 
948 888 892 893 889 
949 889 893 894 890 
950 890 894 895 891 
951 891 895 174 173 
952 136 137 896 892 
953 892 896 897 893 
954 893 897 898 894 
955 894 898 899 895 
956 895 899 175 174 
957 137 138 900 896 
958 896 900 901 897 
959 897 901 902 898 
960 898 902 903 899 
961 899 903 176 175 
962 138 139 904 900 
963 900 904 905 901 
964 901 905 906 902 
965 902 906 907 903 
966 903 907 177 176 
967 139 140 908 904 
968 904 908 909 905 
969 905 909 910 906 
970 906 910 911 907 
971 907 911 178 177 
972 140 141 912 908 
973 908 912 913 909 
974 909 913 914 910 
975 910 914 915 911 
976 911 915 179 178 
977 141 142 916 912 
978 912 916 917 913 
979 913 917 918 914 
980 914 918 919 915 
981 915 919 180 179 
982 142 143 920 916 
983 916 920 921 917 
984 917 921 922 918 
985 918 922 923 919 
986 919 923 181 180 
987 143 144 924 920 
988 920 924 925 921 
989 921 925 926 922 
990 922 926 927 923 
991 923 927 182 181 
992 144 145 928 924 
993 924 928 929 925 
994 925 929 930 926 
995 926 930 931 927 
996 927 931 183 182 
997 145 146 932 928 
998 928 932 933 929 
999 929 933 934 930 
1000 930 934 935 931 
1001 931 935 184 183 
1002 146 147 936 932 
1003 932 936 937 933 
1004 933 937 938 934 
1005 934 938 939 935 
1006 935 939 185 184 
1007 147 148 940 936 
1008 936 940 941 937 
1009 937 941 942 938 
1010 938 942 943 939 
1011 939 943 186 185 
1012 148 149 944 940 
1013 940 944 945 941 
1014 941 945 946 942 
1015 942 946 947 943 
1016 943 947 187 186 
1017 149 150 948 944 
1018 944 948 949 945 
1019 945 949 950 946 
1020 946 950 951 947 
1021 947 951 188 187 
1022 150 151 952 948 
1023 948 952 953 949 
1024 949 953 954 950 
1025 950 954 955 951 
1026 951 955 189 188 
1027 151 11 272 952 
1028 952 272 273 953 
1029 953 273 274 954 
1030 954 274 275 955 
1031 955 275 12 189 
2 6 3 351
1032 7 152 956 252 
1033 252 956 957 253 
1034 253 957 958 254 
1035 254 958 959 255 
1036 255 959 960 256 
1037 256 960 961 257 
1038 257 961 962 258 
1039 258 962 963 259 
1040 259 963 190 8 
1041 152 153 964 956 
1042 956 964 965 957 
1043 957 965 966 958 
1044 958 966 967 959 
1045 959 967 968 960 
1046 960 968 969 961 
1047 961 969 970 962 
1048 962 970 971 963 
1049 963 971 191 190 
1050 153 154 972 964 
1051 964 972 973 965 
1052 965 973 974 966 
1053 966 974 975 967 
1054 967 975 976 968 
1055 968 976 977 969 
1056 969 977 978 970 
1057 970 978 979 971 
1058 971 979 192 191 
1059 154 155 980 972 
1060 972 980 981 973 
1061 973 981 982 974 
1062 974 982 983 975 
1063 975 983 984 976 
1064 976 984 985 977 
1065 977 985 986 978 
1066 978 986 987 979 
1067 979 987 193 192 
1068 155 156 988 980 
1069 980 988 989 981 
1070 981 989 990 982 
1071 982 990 991 983 
1072 983 991 992 984 
1073 984 992 993 985 
1074 985 993 994 986 
1075 986 994 995 987 
1076 987 995 194 193 
1077 156 157 996 988 
1078 988 996 997 989 
1079 989 997 998 990 
1080 990 998 999 991 
1081 991 999 1000 992 
1082 992 1000 1001 993 
1083 993 1001 1002 994 
1084 994 1002 1003 995 
1085 995 1003 195 194 
1086 157 158 1004 996 
1087 996 1004 1005 997 
1088 997 1005 1006 998 
1089 998 1006 1007 999 
1090 999 1007 1008 1000 
1091 1000 1008 1009 1001 
1092 1001 1009 1010 1002 
1093 1002 1010 1011 1003 
1094 1003 1011 196 195 
1095 158 159 1012 1004 
1096 1004 1012 1013 1005 
1097 1005 1013 1014 1006 
1098 1006 1014 1015 1007 
1099 1007 1015 1016 1008 
1100 1008 1016 1017 1009 
1101 1009 1017 1018 1010 
1102 1010 1018 1019 1011 
1103 1011 1019 197 196 
1104 159 160 1020 1012 
1105 1012 1020 1021 1013 
1106 1013 1021 1022 1014 
1107 1014 1022 1023 1015 
1108 1015 1023 1024 1016 
1109 1016 1024 1025 1017 
1110 1017 1025 1026 1018 
1111 1018 1026 1027 1019 
1112 1019 1027 198 197 
1113 160 161 1028 1020 
1114 1020 1028 1029 1021 
1115 1021 1029 1030 1022 
1116 1022 1030 1031 1023 
1117 1023 1031 1032 1024 
1118 1024 1032 1033 1025 
1119 1025 1033 1034 1026 
1120 1026 1034 1035 1027 
1121 1027 1035 199 198 
1122 161 162 1036 1028 
1123 1028 1036 1037 1029 
1124 1029 1037 1038 1030 
1125 1030 1038 1039 1031 
1126 1031 1039 1040 1032 
1127 1032 1040 1041 1033 
1128 1033 1041 1042 1034 
1129 1034 1042 1043 1035 
1130 1035 1043 200 199 
1131 162 163 1044 1036 
1132 1036 1044 1045 1037 
1133 1037 1045 1046 1038 
1134 1038 1046 1047 1039 
1135 1039 1047 1048 1040 
1136 1040 1048 1049 1041 
1137 1041 1049 1050 1042 
1138 1042 1050 1051 1043 
1139 1043 1051 201 200 
1140 163 164 1052 1044 
1141 1044 1052 1053 1045 
1142 1045 1053 1054 1046 
1143 1046 1054 1055 1047 
1144 1047 1055 1056 1048 
1145 1048 1056 1057 1049 
1146 1049 1057 1058 1050 
1147 1050 1058 1059 1051 
1148 1051 1059 202 201 
1149 164 165 1060 1052 
1150 1052 1060 1061 1053 
1151 1053 1061 1062 1054 
1152 1054 1062 1063 1055 
1153 1055 1063 1064 1056 
1154 1056 1064 1065 1057 
1155 1057 1065 1066 1058 
1156 1058 1066 1067 1059 
1157 1059 1067 203 202 
1158 165 166 1068 1060 
1159 1060 1068 1069 1061 
1160 1061 1069 1070 1062 
1161 1062 1070 1071 1063 
1162 1063 1071 1072 1064 
1163 1064 1072 1073 1065 
1164 1065 1073 1074 1066 
1165 1066 1074 1075 1067 
1166 1067 1075 204 203 
1167 166 167 1076 1068 
1168 1068 1076 1077 1069 
1169 1069 1077 1078 1070 
1170 1070 1078 1079 1071 
1171 1071 1079 1080 1072 
1172 1072 1080 1081 1073 
1173 1073 1081 1082 1074 
1174 1074 1082 1083 1075 
1175 1075 1083 205 204 
1176 167 168 1084 1076 
1177 1076 1084 1085 1077 
1178 1077 1085 1086 1078 
1179 1078 1086 1087 1079 
1180 1079 1087 1088 1080 
1181 1080 1088 1089 1081 
1182 1081 1089 1090 1082 
1183 1082 1090 1091 1083 
1184 1083 1091 206 205 
1185 168 169 1092 1084 
1186 1084 1092 1093 1085 
1187 1085 1093 1094 1086 
1188 1086 1094 1095 1087 
1189 1087 1095 1096 1088 
1190 1088 1096 1097 1089 
1191 1089 1097 1098 1090 
1192 1090 1098 1099 1091 
1193 1091 1099 207 206 
1194 169 170 1100 1092 
1195 1092 1100 1101 1093 
1196 1093 1101 1102 1094 
1197 1094 1102 1103 1095 
1198 1095 1103 1104 1096 
1199 1096 1104 1105 1097 
1200 1097 1105 1106 1098 
1201 1098 1106 1107 1099 
1202 1099 1107 208 207 
1203 170 171 1108 1100 
1204 1100 1108 1109 1101 
1205 1101 1109 1110 1102 
1206 1102 1110 1111 1103 
1207 1103 1111 1112 1104 
1208 1104 1112 1113 1105 
1209 1105 1113 1114 1106 
1210 1106 1114 1115 1107 
1211 1107 1115 209 208 
1212 171 172 1116 1108 
1213 1108 1116 1117 1109 
1214 1109 1117 1118 1110 
1215 1110 1118 1119 1111 
1216 1111 1119 1120 1112 
1217 1112 1120 1121 1113 
1218 1113 1121 1122 1114 
1219 1114 1122 1123 1115 
1220 1115 1123 210 209 
1221 172 173 1124 1116 
1222 1116 1124 1125 1117 
1223 1117 1125 1126 1118 
1224 1118 1126 1127 1119 
1225 1119 1127 1128 1120 
1226 1120 1128 1129 1121 
1227 1121 1129 1130 1122 
1228 1122 1130 1131 1123 
1229 1123 1131 211 210 
1230 173 174 1132 1124 
1231 1124 1132 1133 1125 
1232 1125 1133 1134 1126 
1233 1126 1134 1135 1127 
1234 1127 1135 1136 1128 
1235 1128 1136 1137 1129 
1236 1129 1137 1138 1130 
1237 1130 1138 1139 1131 
1238 1131 1139 212 211 
1239 174 175 1140 1132 
1240 1132 1140 1141 1133 
1241 1133 1141 1142 1134 
1242 1134 1142 1143 1135 
1243 1135 1143 1144 1136 
1244 1136 1144 1145 1137 
1245 1137 1145 1146 1138 
1246 1138 1146 1147 1139 
1247 1139 1147 213 212 
1248 175 176 1148 1140 
1249 1140 1148 1149 1141 
1250 1141 1149 1150 1142 
1251 1142 1150 1151 1143 
1252 1143 1151 1152 1144 
1253 1144 1152 1153 1145 
1254 1145 1153 1154 1146 
1255 1146 1154 1155 1147 
1256 1147 1155 214 213 
1257 176 177 1156 1148 
1258 1148 1156 1157 1149 
1259 1149 1157 1158 1150 
1260 1150 1158 1159 1151 
1261 1151 1159 1160 1152 
1262 1152 1160 1161 1153 
1263 1153 1161 1162 1154 
1264 1154 1162 1163 1155 
1265 1155 1163 215 214 
1266 177 178 1164 1156 
1267 1156 1164 1165 1157 
1268 1157 1165 1166 1158 
1269 1158 1166 1167 1159 
1270 1159 1167 1168 1160 
1271 1160 1168 1169 1161 
1272 1161 1169 1170 1162 
1273 1162 1170 1171 1163 
1274 1163 1171 216 215 
1275 178 179 1172 1164 
1276 1164 1172 1173 1165 
1277 1165 1173 1174 1166 
1278 1166 1174 1175 1167 
1279 1167 1175 1176 1168 
1280 1168 1176 1177 1169 
1281 1169 1177 1178 1170 
1282 1170 1178 1179 1171 
1283 1171 1179 217 216 
1284 179 180 1180 1172 
1285 1172 1180 1181 1173 
1286 1173 1181 1182 1174 
1287 1174 1182 1183 1175 
1288 1175 1183 1184 1176 
1289 1176 1184 1185 1177 
1290 1177 1185 1186 1178 
1291 1178 1186 1187 1179 
1292 1179 1187 218 217 
1293 180 181 1188 1180 
1294 1180 1188 1189 1181 
1295 1181 1189 1190 1182 
1296 1182 1190 1191 1183 
1297 1183 1191 1192 1184 
1298 1184 1192 1193 1185 
1299 1185 1193 1194 1186 
1300 1186 1194 1195 1187 
1301 1187 1195 219 218 
1302 181 182 1196 1188 
1303 1188 1196 1197 1189 
1304 1189 1197 1198 1190 
1305 1190 1198 1199 1191 
1306 1191 1199 1200 1192 
1307 1192 1200 1201 1193 
1308 1193 1201 1202 1194 
1309 1194 1202 1203 1195 
1310 1195 1203 220 219 
1311 182 183 1204 1196 
1312 1196 1204 1205 1197 
1313 1197 1205 1206 1198 
1314 1198 1206 1207 1199 
1315 1199 1207 1208 1200 
1316 1200 1208 1209 1201 
1317 1201 1209 1210 1202 
1318 1202 1210 1211 1203 
1319 1203 1211 221 220 
1320 183 184 1212 1204 
1321 1204 1212 1213 1205 
1322 1205 1213 1214 1206 
1323 1206 1214 1215 1207 
1324 1207 1215 1216 1208 
1325 1208 1216 1217 1209 
1326 1209 1217 1218 1210 
1327 1210 1218 1219 1211 
1328 1211 1219 222 221 
1329 184 185 1220 1212 
1330 1212 1220 1221 1213 
1331 1213 1221 1222 1214 
1332 1214 1222 1223 1215 
1333 1215 1223 1224 1216 
1334 1216 1224 1225 1217 
1335 1217 1225 1226 1218 
1336 1218 1226 1227 1219 
1337 1219 1227 223 222 
1338 185 186 1228 1220 
1339 1220 1228 1229 1221 
1340 1221 1229 1230 1222 
1341 1222 1230 1231 1223 
1342 1223 1231 1232 1224 
1343 1224 1232 1233 1225 
1344 1225 1233 1234 1226 
1345 1226 1234 1235 1227 
1346 1227 1235 224 223 
1347 186 187 1236 1228 
1348 1228 1236 1237 1229 
1349 1229 1237 1238 1230 
1350 1230 1238 1239 1231 
1351 1231 1239 1240 1232 
1352 1232 1240 1241 1233 
1353 1233 1241 1242 1234 
1354 1234 1242 1243 1235 
1355 1235 1243 225 224 
1356 187 188 1244 1236 
1357 1236 1244 1245 1237 
1358 1237 1245 1246 1238 
1359 1238 1246 1247 1239 
1360 1239 1247 1248 1240 
1361 1240 1248 1249 1241 
1362 1241 1249 1250 1242 
1363 1242 1250 1251 1243 
1364 1243 1251 226 225 
1365 188 189 1252 1244 
1366 1244 1252 1253 1245 
1367 1245 1253 1254 1246 
1368 1246 1254 1255 1247 
1369 1247 1255 1256 1248 
1370 1248 1256 1257 1249 
1371 1249 1257 1258 1250 
1372 1250 1258 1259 1251 
1373 1251 1259 227 226 
1374 189 12 276 1252 
1375 1252 276 277 1253 
1376 1253 277 278 1254 
1377 1254 278 279 1255 
1378 1255 279 280 1256 
1379 1256 280 281 1257 
1380 1257 281 282 1258 
1381 1258 282 283 1259 
1382 1259 283 13 227 
$EndElements
