$MeshFormat
4.1 0 8
$EndMeshFormat
$Entities
8 8 1 0
1 -5 -0.5 0 0 
2 0 -0.5 0 0 
3 0 -1.5 0 0 
4 20 -1.5 0 0 
5 -5 0.5 0 0 
6 0 0.5 0 0 
7 0 1.5 0 0 
8 20 1.5 0 0 
1 -5 -0.5 0 -5 0.5 0 1 9 2 5 -1 
2 -5 -0.5 0 0 -0.5 0 1 10 2 1 -2 
3 0 -1.5 0 0 -0.5 0 1 10 2 2 -3 
4 0 -1.5 0 20 -1.5 0 1 10 2 3 -4 
5 20 -1.5 0 20 1.5 0 1 11 2 4 -8 
6 0 1.5 0 20 1.5 0 1 10 2 8 -7 
7 0 0.5 0 0 1.5 0 1 10 2 7 -6 
8 -5 0.5 0 0 0.5 0 1 10 2 6 -5 
1 -5 -1.5 0 20 1.5 0 1 12 8 6 7 8 1 2 3 4 5 
$EndEntities
$Nodes
17 282 1 282
0 1 0 1
1
-5 -0.5 0
0 2 0 1
2
0 -0.5 0
0 3 0 1
3
0 -1.5 0
0 4 0 1
4
20 -1.5 0
0 5 0 1
5
-5 0.5 0
0 6 0 1
6
0 0.5 0
0 7 0 1
7
0 1.5 0
0 8 0 1
8
20 1.5 0
1 1 0 1
9
-5 1.375788372115494e-12 0
1 2 0 9
10
11
12
13
14
15
16
17
18
-4.304512335775823 -0.5 0
-3.662769254027126 -0.5 0
-3.070617506367378 -0.5 0
-2.524224767547085 -0.5 0
-2.020055053703784 -0.5 0
-1.55484506581989 -0.5 0
-1.125584101155454 -0.5 0
-0.7294935239171689 -0.5 0
-0.3619145649827207 -0.5 0
1 3 0 2
19
20
0 -0.8333333333342579 0
0 -1.166666666667127 0
1 4 0 30
21
22
23
24
25
26
27
28
29
30
31
32
33
34
35
36
37
38
39
40
41
42
43
44
45
46
47
48
49
50
0.3586821177361441 -1.5 0
0.7227036748635358 -1.5 0
1.114550437540995 -1.5 0
1.53890722133687 -1.5 0
1.998472068686963 -1.5 0
2.496166319222211 -1.5 0
3.035153800345112 -1.5 0
3.618860798165364 -1.5 0
4.250997652989435 -1.5 0
4.935582700694098 -1.5 0
5.652715290532616 -1.5 0
6.370079526003327 -1.5 0
7.087443761474036 -1.5 0
7.804807996944747 -1.5 0
8.522172232417567 -1.5 0
9.239536467891464 -1.5 0
9.956900703365363 -1.5 0
10.67426493883927 -1.5 0
11.39162917431317 -1.5 0
12.10899340978707 -1.5 0
12.82635764526098 -1.5 0
13.54372188073487 -1.5 0
14.26108611620878 -1.5 0
14.97845035168268 -1.5 0
15.69581458715659 -1.5 0
16.41317882263048 -1.5 0
17.13054305810439 -1.5 0
17.84790729357829 -1.5 0
18.56527152905219 -1.5 0
19.28263576452609 -1.5 0
1 5 0 4
51
52
53
54
20 -0.9000000000022222 0
20 -0.3000000000044432 0
20 0.2999999999955572 0
20 0.899999999997779 0
1 6 0 30
55
56
57
58
59
60
61
62
63
64
65
66
67
68
69
70
71
72
73
74
75
76
77
78
79
80
81
82
83
84
19.28263576452728 1.5 0
18.56527152905456 1.5 0
17.84790729358184 1.5 0
17.13054305810912 1.5 0
16.41317882263639 1.5 0
15.69581458716367 1.5 0
14.97845035169095 1.5 0
14.26108611621822 1.5 0
13.5437218807455 1.5 0
12.82635764527278 1.5 0
12.10899340980006 1.5 0
11.39162917432735 1.5 0
10.67426493885462 1.5 0
9.956900703381905 1.5 0
9.239536467909184 1.5 0
8.522172232436464 1.5 0
7.804807996963742 1.5 0
7.087443761491016 1.5 0
6.370079526018291 1.5 0
5.652715290545567 1.5 0
4.935582700704952 1.5 0
4.250997652997594 1.5 0
3.618860798171202 1.5 0
3.035153800348944 1.5 0
2.496166319224297 1.5 0
1.998472068688613 1.5 0
1.538907221338146 1.5 0
1.114550437541929 1.5 0
0.7227036748640288 1.5 0
0.3586821177363611 1.5 0
1 7 0 2
85
86
0 1.166666666668516 0
0 0.8333333333351821 0
1 8 0 9
87
88
89
90
91
92
93
94
95
-0.3619145649825234 0.5 0
-0.7294935239165822 0.5 0
-1.125584101153741 0.5 0
-1.554845065816871 0.5 0
-2.020055053699334 0.5 0
-2.524224767543228 0.5 0
-3.070617506364241 0.5 0
-3.66276925402486 0.5 0
-4.304512335774591 0.5 0
2 1 0 187
96
97
98
99
100
101
102
103
104
105
106
107
108
109
110
111
112
113
114
115
116
117
118
119
120
121
122
123
124
125
126
127
128
129
130
131
132
133
134
135
136
137
138
139
140
141
142
143
144
145
146
147
148
149
150
151
152
153
154
155
156
157
158
159
160
161
162
163
164
165
166
167
168
169
170
171
172
173
174
175
176
177
178
179
180
181
182
183
184
185
186
187
188
189
190
191
192
193
194
195
196
197
198
199
200
201
202
203
204
205
206
207
208
209
210
211
212
213
214
215
216
217
218
219
220
221
222
223
224
225
226
227
228
229
230
231
232
233
234
235
236
237
238
239
240
241
242
243
244
245
246
247
248
249
250
251
252
253
254
255
256
257
258
259
260
261
262
263
264
265
266
267
268
269
270
271
272
273
274
275
276
277
278
279
280
281
282
1.31891767394771 -1.140484881508588 0
2.239631329202771 1.138548963648946 0
1.327545444413247 1.161069979271437 0
3.268286989654922 -1.030598040798704 0
2.265792677498557 -1.092701684338189 0
4.516611113963919 -0.8510878331358734 0
19.34855209559445 0.02335858427604679 0
3.370292816863821 0.9781039321432043 0
0.2810594210014147 -0.65753227406447 0
0.2810594210018882 0.6575322740647606 0
0.2761949699859529 0.3329673723028161 0
0.5420083981328168 0.4966111430154894 0
0.5423039161970825 0.1812750965365751 0
0.811611026740471 0.3483842681894265 0
0.816241611736491 0.005136878755562235 0
1.103163967225897 0.1925788044451847 0
6.00180979217334 -0.8773103752344642 0
7.448146778415418 -0.819757374039382 0
17.51861227958621 0.9134035657696589 0
16.12884912579787 0.8302072670731553 0
14.64915533769488 0.9134035657693971 0
13.25939218390601 0.8302072670729336 0
11.7503112920637 0.8955685502211238 0
10.241289760724 0.8274830645153027 0
8.880854350172825 0.8787443483142223 0
1.10718493463302 -0.1633474747932891 0
1.419653909692894 0.029178939145324 0
5.372603733221666 0.9523127084545733 0
16.76832695309702 -0.8734492507379574 0
15.33713246941964 -0.8887430513346861 0
13.8988700112014 -0.8734492507379539 0
6.755743487689221 0.9121105899548272 0
12.46767552752402 -0.8887430513346857 0
11.03294705657622 -0.8955685502204731 0
9.601752572898693 -0.8734492507380308 0
18.20658941131525 -0.8955685502204772 0
1.420774253783985 -0.342043444043884 0
1.760975428260068 -0.1468486650215742 0
0.5450771292998071 0.8088462234044331 0
0.03843825161429373 0.1406909199194755 0
1.751895052537239 0.2514036476683857 0
2.124530682390843 0.06005713344172096 0
1.090127663331643 -0.5185572644303391 0
-0.5524007450670132 0.2215648540723104 0
0.2870264959785016 -0.3500369505550754 0
0.5582833879767464 -1.162059142384958 0
1.103441868726816 0.5208621372045661 0
-1.437115388988238 0.161106916664041 0
0.5438136524643878 -0.499456072724033 0
1.763363587365492 -0.5545260899267064 0
-0.9195544336422872 -0.166658190285854 0
18.95691181232447 1.009463567249067 0
-0.22083499149888 -0.2283777007022212 0
-2.198123498057527 0.1359002902993132 0
0.5483097536340689 -0.8051535472399449 0
-1.791049690031629 -0.1314436113013408 0
2.091317489758605 0.4865495550422622 0
2.514243558424175 0.283921872654762 0
2.515114792052795 -0.1861912557461623 0
2.945620964467847 0.05944216692206427 0
1.695869682912783 0.6347599510761657 0
0.9374771435617208 -1.178348819029123 0
0.5570903838175003 1.163051551755307 0
0.9426552035984367 1.184732716015281 0
2.956211298819536 -0.5270586901633599 0
3.413580640691983 -0.1849168531824444 0
1.748786541645484 1.169329366691806 0
3.41290632012891 0.3690670537942763 0
3.914478369748828 0.09808265108485489 0
3.946984988926169 0.6683301036443583 0
4.461140974417938 0.3540011518381566 0
3.9160359200628 -0.4639944947355416 0
-0.5489213610972417 -0.2098355399828085 0
1.772198834349963 -1.034220501125644 0
-2.715612219355383 -0.01563368783641611 0
0.2852657850114513 -0.9736913876652786 0
0.2847389244769118 0.974249135943702 0
0.5462560734037405 -0.1767933161546251 0
0.2911555738617018 -0.02107352365452092 0
-0.8584819089425172 0.1810766772441662 0
2.765660059786621 1.056260175821315 0
2.75058845512465 -1.052698120068913 0
-3.361004422506451 -0.002605614639281421 0
1.411490119881361 -0.7412173197762835 0
5.273703876063558 -0.8799649861840494 0
5.598801042224029 -0.2625802839931745 0
6.32408270771943 -0.2484609744566572 0
5.861551208636786 0.3650472989244413 0
8.877909360762425 -0.872566734475944 0
9.239871933690681 -0.2632724050811461 0
8.578912692324154 -0.2927970559064588 0
9.930650728045212 -0.2876113592760686 0
9.573064486381362 0.3885201641482276 0
17.48863617796294 -0.897490067609142 0
17.20091794378633 -0.2001877595377665 0
16.45128311045914 -0.2753644680504653 0
16.73590321119958 0.3814997088234734 0
14.61917923606732 -0.8963524844615118 0
14.33146100189168 -0.2000252476597445 0
13.58182616856411 -0.2753373827377012 0
13.8664462693046 0.3815079344407305 0
10.311796823094 -0.9057777025697163 0
11.75031129205012 -0.9000390343752673 0
11.39162917431317 -0.2378855495127148 0
13.19080147975772 -0.9008226880072367 0
18.95691181232334 -0.9889090166229419 0
18.59553923209441 -0.2948278542542576 0
16.06025842165324 -0.9008272022260352 0
15.35442239020033 0.8731142099859628 0
15.02036099920712 0.2077303934153794 0
11.02056487985861 0.8898290365724537 0
10.7708063887835 0.2760671256188176 0
7.454156840487077 0.8790102910121353 0
7.156258612792467 0.2965530753614936 0
7.760440251885879 0.2994177603753763 0
8.127759467937381 0.9055106639206052 0
12.4800675976859 0.8701417073945488 0
12.10899340980007 0.2378855495137389 0
18.21698028953058 0.9231316229528421 0
17.89315632116913 0.2424849173717339 0
8.202467359094694 -0.8935021247073852 0
6.689912615032918 -0.8821081515195608 0
0.8126782194502576 -0.3373687760377269 0
-3.970014988966437 -0.003505168590185059 0
4.914635774274151 -0.2991990582491645 0
2.481919645207563 -0.6658303051132274 0
15.68655645349213 0.3624047003780391 0
12.80773781197173 0.3678412310790922 0
2.932664910702293 0.5674539491862014 0
1.127961240620927 0.8655080888493872 0
1.072042256571928 -0.8551811241635024 0
1.411644730120577 0.3876894129479941 0
19.41867555320617 0.6351432011169834 0
19.45973439790908 -0.6036672914628161 0
2.104284199121819 -0.3391917930009585 0
0.7971020573230527 -0.6414319366575418 0
0.791752478327706 0.6369038352764012 0
2.418197266182299 0.7407057741876569 0
4.584106687704121 0.9697022320620974 0
-1.287187594412583 -0.1880702539504611 0
3.818448123648734 -0.9907532138647991 0
-0.2394200546156517 0.2300629944472733 0
5.089426843895664 0.3169012123117528 0
0.2691385878777307 -1.23851995750267 0
0.2691385878784701 1.238519957502818 0
0.04324933701447488 -0.1567975849573933 0
-0.3900876159041062 0.001142048373891379 0
-4.491820397449878 -0.02683780152001941 0
0.8068489805319663 -0.9100771526586553 0
0.7929072871328755 0.9318084830601621 0
12.81058239156542 -0.2650585064363088 0
15.68105385300181 -0.2292083726218125 0
2.102491872759369 -0.72288038202437 0
13.95366135695449 0.9597443468229656 0
16.82311829884605 0.9597436473659136 0
9.578329153713856 1.018949515395551 0
6.068097335192126 0.952027931770111 0
7.454160755588077 -0.2089143731974051 0
8.906753947014906 0.2289555628807691 0
1.379749447250926 0.6787261985351316 0
17.87696781726561 -0.409117862849982 0
12.10583835905056 -0.4107681184290476 0
10.63424796794169 -0.3367055687949997 0
14.99783751191752 -0.4013197525324752 0
18.7383025506532 0.4231256731187358 0
11.40846102896381 0.4122929424826838 0
4.368353734855472 -0.2044762963021995 0
-0.6882852502078876 0.002663214464148347 0
-1.787450059758103 0.2378128850872732 0
6.512274412740333 0.3216929560278923 0
1.961259399335082 0.8901475195270252 0
6.913872322654749 -0.3236175532154771 0
3.934929225584399 1.160384002986654 0
14.41835632673543 0.381019929938946 0
17.28043562602142 0.3935985964112532 0
-1.125584685427873 0.09749102993437841 0
-0.1537310146779739 -0.002655864583794857 0
3.436050786712845 -0.6278570173974569 0
19.53985639495171 -1.098515261617596 0
19.64131788226363 1.19999999999889 0
10.17099807029419 0.2339686540505313 0
16.18404638228819 0.2405871014200646 0
13.32791566557328 0.2463132182466012 0
7.97624202341495 -0.3324217150614843 0
8.351336190042812 0.3512516795108316 0
1.530908844203196 0.9351582078781139 0
-2.260748653030356 -0.2327986237685759 0
$EndNodes
$Elements
9 562 1 562
1 1 1 2
1 5 9 
2 9 1 
1 2 1 10
3 1 10 
4 10 11 
5 11 12 
6 12 13 
7 13 14 
8 14 15 
9 15 16 
10 16 17 
11 17 18 
12 18 2 
1 3 1 3
13 2 19 
14 19 20 
15 20 3 
1 4 1 31
16 3 21 
17 21 22 
18 22 23 
19 23 24 
20 24 25 
21 25 26 
22 26 27 
23 27 28 
24 28 29 
25 29 30 
26 30 31 
27 31 32 
28 32 33 
29 33 34 
30 34 35 
31 35 36 
32 36 37 
33 37 38 
34 38 39 
35 39 40 
36 40 41 
37 41 42 
38 42 43 
39 43 44 
40 44 45 
41 45 46 
42 46 47 
43 47 48 
44 48 49 
45 49 50 
46 50 4 
1 5 1 5
47 4 51 
48 51 52 
49 52 53 
50 53 54 
51 54 8 
1 6 1 31
52 8 55 
53 55 56 
54 56 57 
55 57 58 
56 58 59 
57 59 60 
58 60 61 
59 61 62 
60 62 63 
61 63 64 
62 64 65 
63 65 66 
64 66 67 
65 67 68 
66 68 69 
67 69 70 
68 70 71 
69 71 72 
70 72 73 
71 73 74 
72 74 75 
73 75 76 
74 76 77 
75 77 78 
76 78 79 
77 79 80 
78 80 81 
79 81 82 
80 82 83 
81 83 84 
82 84 7 
1 7 1 3
83 7 85 
84 85 86 
85 86 6 
1 8 1 10
86 6 87 
87 87 88 
88 88 89 
89 89 90 
90 90 91 
91 91 92 
92 92 93 
93 93 94 
94 94 95 
95 95 5 
2 1 2 467
96 106 135 174 
97 143 151 235 
98 169 145 179 
99 202 102 260 
100 96 169 179 
101 102 228 260 
102 99 160 177 
103 102 202 229 
104 173 108 174 
105 108 106 174 
106 83 158 159 
107 141 22 157 
108 150 141 244 
109 158 134 245 
110 174 135 241 
111 151 15 235 
112 202 201 229 
113 141 150 171 
114 134 158 172 
115 110 108 173 
116 241 135 272 
117 5 9 243 
118 92 93 170 
119 159 158 245 
120 141 157 244 
121 145 169 248 
122 18 148 168 
123 177 160 221 
124 228 147 260 
125 96 24 169 
126 146 17 168 
127 151 143 264 
128 175 89 271 
129 181 183 238 
130 149 92 170 
131 95 5 243 
132 222 205 247 
133 223 213 246 
134 247 205 259 
135 246 213 257 
136 110 173 218 
137 160 99 273 
138 183 123 238 
139 99 236 273 
140 82 83 159 
141 22 23 157 
142 135 6 237 
143 97 80 162 
144 85 86 172 
145 19 20 171 
146 98 82 159 
147 23 96 157 
148 167 101 262 
149 18 2 148 
150 149 151 264 
151 24 25 169 
152 89 143 271 
153 103 163 165 
154 121 110 218 
155 9 1 243 
156 236 167 273 
157 83 84 158 
158 21 22 141 
159 101 167 236 
160 232 225 245 
161 1 10 243 
162 87 88 139 
163 17 18 168 
164 163 103 224 
165 152 233 266 
166 16 17 146 
167 142 225 232 
168 105 6 106 
169 2 104 140 
170 188 120 254 
171 6 87 237 
172 86 105 172 
173 104 19 171 
174 7 85 240 
175 20 3 239 
176 97 162 266 
177 81 82 98 
178 23 24 96 
179 136 156 227 
180 89 90 143 
181 170 93 178 
182 220 166 262 
183 84 7 240 
184 3 21 239 
185 25 100 169 
186 85 172 240 
187 171 20 239 
188 27 99 177 
189 11 12 178 
190 139 88 175 
191 168 148 242 
192 86 6 105 
193 2 19 104 
194 120 188 251 
195 105 106 107 
196 140 104 144 
197 14 15 151 
198 151 149 282 
199 103 176 224 
200 149 170 282 
201 234 166 238 
202 96 179 226 
203 106 6 135 
204 157 96 226 
205 79 80 97 
206 25 26 100 
207 91 92 149 
208 123 234 238 
209 213 199 257 
210 199 213 261 
211 205 194 259 
212 215 190 256 
213 202 215 256 
214 215 202 260 
215 199 207 258 
216 207 199 261 
217 138 121 218 
218 79 97 176 
219 88 89 175 
220 132 138 179 
221 233 97 266 
222 148 2 241 
223 12 13 170 
224 166 220 238 
225 91 149 264 
226 226 138 231 
227 12 170 178 
228 132 121 138 
229 188 119 251 
230 115 192 250 
231 117 196 249 
232 78 79 176 
233 136 152 156 
234 77 78 103 
235 27 28 99 
236 11 178 219 
237 103 78 176 
238 194 205 269 
239 190 215 270 
240 165 234 268 
241 80 81 162 
242 146 168 263 
243 170 13 282 
244 242 139 263 
245 168 242 263 
246 143 90 264 
247 15 16 235 
248 169 100 248 
249 105 134 172 
250 150 104 171 
251 123 183 252 
252 105 107 134 
253 144 104 150 
254 165 166 234 
255 93 94 178 
256 98 159 225 
257 81 98 162 
258 181 182 183 
259 127 252 265 
260 114 250 270 
261 116 249 269 
262 29 30 101 
263 191 190 192 
264 185 187 188 
265 195 194 196 
266 181 112 182 
267 227 156 255 
268 140 173 174 
269 26 27 177 
270 124 190 191 
271 126 194 195 
272 184 185 186 
273 185 130 187 
274 208 209 210 
275 180 112 181 
276 178 94 219 
277 107 106 108 
278 140 144 173 
279 21 141 239 
280 158 84 240 
281 87 139 237 
282 182 112 217 
283 119 188 276 
284 192 115 277 
285 196 117 278 
286 74 75 123 
287 226 231 244 
288 187 258 276 
289 141 171 239 
290 172 158 240 
291 31 32 112 
292 35 36 184 
293 43 44 193 
294 47 48 189 
295 37 38 197 
296 40 41 128 
297 44 45 125 
298 48 49 131 
299 38 39 129 
300 46 47 124 
301 42 43 126 
302 39 40 198 
303 36 37 130 
304 41 42 200 
305 49 50 201 
306 45 46 203 
307 34 35 216 
308 72 73 127 
309 66 67 206 
310 55 56 147 
311 57 58 114 
312 61 62 116 
313 71 72 208 
314 59 60 115 
315 65 66 118 
316 67 68 119 
317 63 64 117 
318 64 65 212 
319 70 71 211 
320 69 70 120 
321 60 61 204 
322 56 57 214 
323 33 34 113 
324 32 33 217 
325 14 151 282 
326 250 192 270 
327 249 196 269 
328 160 154 221 
329 145 132 179 
330 221 154 230 
331 258 207 276 
332 124 189 190 
333 126 193 194 
334 129 198 199 
335 184 130 185 
336 131 201 202 
337 204 116 205 
338 208 127 209 
339 206 119 207 
340 212 118 213 
341 214 114 215 
342 252 183 265 
343 30 31 180 
344 246 195 278 
345 247 191 277 
346 179 138 226 
347 101 220 262 
348 31 112 180 
349 187 130 197 
350 184 186 216 
351 126 195 200 
352 124 191 203 
353 208 210 211 
354 124 47 189 
355 126 43 193 
356 44 125 193 
357 42 126 200 
358 40 128 198 
359 38 129 197 
360 48 131 189 
361 129 39 198 
362 130 37 197 
363 46 124 203 
364 128 41 200 
365 125 45 203 
366 131 49 201 
367 36 130 184 
368 35 184 216 
369 61 116 204 
370 117 64 212 
371 71 208 211 
372 120 70 211 
373 72 127 208 
374 118 66 206 
375 67 119 206 
376 65 118 212 
377 115 60 204 
378 147 56 214 
379 57 114 214 
380 113 34 216 
381 33 113 217 
382 112 32 217 
383 100 177 221 
384 100 26 177 
385 204 205 222 
386 212 213 223 
387 10 11 219 
388 94 95 219 
389 210 279 280 
390 279 186 280 
391 223 246 278 
392 222 247 277 
393 180 181 220 
394 2 140 241 
395 103 165 268 
396 115 204 222 
397 117 212 223 
398 109 111 142 
399 220 181 238 
400 101 180 220 
401 173 144 218 
402 107 108 109 
403 29 101 236 
404 185 188 254 
405 133 132 145 
406 99 28 236 
407 136 137 152 
408 122 121 132 
409 122 133 136 
410 153 155 224 
411 155 161 163 
412 163 164 165 
413 16 146 235 
414 155 154 160 
415 164 161 167 
416 153 137 154 
417 111 110 121 
418 101 30 180 
419 123 75 234 
420 109 108 110 
421 176 97 233 
422 155 163 224 
423 122 132 133 
424 152 137 153 
425 136 133 137 
426 111 121 122 
427 165 164 166 
428 163 161 164 
429 155 160 161 
430 109 110 111 
431 153 154 155 
432 75 76 234 
433 190 189 256 
434 194 193 259 
435 199 198 257 
436 129 199 258 
437 131 202 256 
438 213 118 261 
439 206 207 261 
440 214 215 260 
441 98 225 281 
442 201 50 274 
443 55 147 275 
444 114 58 250 
445 63 117 249 
446 116 62 249 
447 59 115 250 
448 69 120 251 
449 119 68 251 
450 77 103 268 
451 127 73 252 
452 28 29 236 
453 122 136 227 
454 144 150 231 
455 134 107 232 
456 153 224 233 
457 229 201 274 
458 147 228 275 
459 109 142 232 
460 221 230 248 
461 156 152 266 
462 142 111 227 
463 138 218 231 
464 74 123 252 
465 154 137 230 
466 217 113 267 
467 175 146 263 
468 224 176 233 
469 225 255 281 
470 209 265 267 
471 53 54 228 
472 52 53 102 
473 51 52 229 
474 200 195 246 
475 203 191 247 
476 265 182 267 
477 133 145 230 
478 187 197 258 
479 90 91 264 
480 167 161 273 
481 140 174 241 
482 225 159 245 
483 50 4 274 
484 8 55 275 
485 218 144 231 
486 107 109 232 
487 111 122 227 
488 234 76 268 
489 225 142 255 
490 152 153 233 
491 139 175 263 
492 120 211 280 
493 113 216 279 
494 156 266 281 
495 137 133 230 
496 13 14 282 
497 266 162 281 
498 100 221 248 
499 157 226 244 
500 146 175 271 
501 210 209 253 
502 186 185 254 
503 142 227 255 
504 113 253 267 
505 62 63 249 
506 58 59 250 
507 68 69 251 
508 73 74 252 
509 148 241 272 
510 166 164 262 
511 128 200 246 
512 125 203 247 
513 237 139 242 
514 125 247 259 
515 128 246 257 
516 76 77 268 
517 189 131 256 
518 193 125 259 
519 197 129 258 
520 198 128 257 
521 147 214 260 
522 118 206 261 
523 196 194 269 
524 192 190 270 
525 183 182 265 
526 207 119 276 
527 182 217 267 
528 162 98 281 
529 230 145 248 
530 253 113 279 
531 254 120 280 
532 231 150 244 
533 134 232 245 
534 164 167 262 
535 209 127 265 
536 115 222 277 
537 117 223 278 
538 188 187 276 
539 191 192 277 
540 195 196 278 
541 205 116 269 
542 215 114 270 
543 102 53 228 
544 52 102 229 
545 135 237 272 
546 219 95 243 
547 216 186 279 
548 211 210 280 
549 235 146 271 
550 161 160 273 
551 228 54 275 
552 51 229 274 
553 10 219 243 
554 237 242 272 
555 54 8 275 
556 4 51 274 
557 210 253 279 
558 186 254 280 
559 253 209 267 
560 143 235 271 
561 242 148 272 
562 255 156 281 
$EndElements
