$MeshFormat
4.1 0 8
$EndMeshFormat
$Entities
16 24 9 0
1 0 0 0 0 
2 1.5 0 0 0 
3 4.8 0 0 0 
4 6.283185307179586 0 0 0 
5 0 1.5 0 0 
6 1.5 1.5 0 0 
7 4.8 1.5 0 0 
8 6.283185307179586 1.5 0 0 
9 0 4.8 0 0 
10 1.5 4.8 0 0 
11 4.8 4.8 0 0 
12 6.283185307179586 4.8 0 0 
13 0 6.283185307179586 0 0 
14 1.5 6.283185307179586 0 0 
15 4.8 6.283185307179586 0 0 
16 6.283185307179586 6.283185307179586 0 0 
1 -9.999999994736442e-08 -1e-07 -1e-07 1.5000001 1e-07 1e-07 1 1 2 1 -2 
2 1.4999999 -1e-07 -1e-07 4.8000001 1e-07 1e-07 1 1 2 2 -3 
3 4.7999999 -1e-07 -1e-07 6.283185407179587 1e-07 1e-07 1 1 2 3 -4 
4 -9.999999994736442e-08 1.4999999 -1e-07 1.5000001 1.5000001 1e-07 0 2 5 -6 
5 1.4999999 1.4999999 -1e-07 4.8000001 1.5000001 1e-07 0 2 6 -7 
6 4.7999999 1.4999999 -1e-07 6.283185407179587 1.5000001 1e-07 0 2 7 -8 
7 -9.999999994736442e-08 4.7999999 -1e-07 1.5000001 4.8000001 1e-07 0 2 9 -10 
8 1.4999999 4.7999999 -1e-07 4.8000001 4.8000001 1e-07 0 2 10 -11 
9 4.7999999 4.7999999 -1e-07 6.283185407179587 4.8000001 1e-07 0 2 11 -12 
10 -9.999999994736442e-08 6.283185207179586 -1e-07 1.5000001 6.283185407179587 1e-07 1 3 2 13 -14 
11 1.4999999 6.283185207179586 -1e-07 4.8000001 6.283185407179587 1e-07 1 3 2 14 -15 
12 4.7999999 6.283185207179586 -1e-07 6.283185407179587 6.283185407179587 1e-07 1 3 2 15 -16 
13 -1e-07 -9.999999994736442e-08 -1e-07 1e-07 1.5000001 1e-07 1 4 2 1 -5 
14 -1e-07 1.4999999 -1e-07 1e-07 4.8000001 1e-07 1 4 2 5 -9 
15 -1e-07 4.7999999 -1e-07 1e-07 6.283185407179587 1e-07 1 4 2 9 -13 
16 1.4999999 -9.999999994736442e-08 -1e-07 1.5000001 1.5000001 1e-07 0 2 2 -6 
17 1.4999999 1.4999999 -1e-07 1.5000001 4.8000001 1e-07 0 2 6 -10 
18 1.4999999 4.7999999 -1e-07 1.5000001 6.283185407179587 1e-07 0 2 10 -14 
19 4.7999999 -9.999999994736442e-08 -1e-07 4.8000001 1.5000001 1e-07 0 2 3 -7 
20 4.7999999 1.4999999 -1e-07 4.8000001 4.8000001 1e-07 0 2 7 -11 
21 4.7999999 4.7999999 -1e-07 4.8000001 6.283185407179587 1e-07 0 2 11 -15 
22 6.283185207179586 -9.999999994736442e-08 -1e-07 6.283185407179587 1.5000001 1e-07 1 2 2 4 -8 
23 6.283185207179586 1.4999999 -1e-07 6.283185407179587 4.8000001 1e-07 1 2 2 8 -12 
24 6.283185207179586 4.7999999 -1e-07 6.283185407179587 6.283185407179587 1e-07 1 2 2 12 -16 
1 -9.999999994736442e-08 -9.999999994736442e-08 -1e-07 1.5000001 1.5000001 1e-07 1 10 4 1 16 -4 -13 
2 1.4999999 -9.999999994736442e-08 -1e-07 4.8000001 1.5000001 1e-07 1 10 4 2 19 -5 -16 
3 4.7999999 -9.999999994736442e-08 -1e-07 6.283185407179587 1.5000001 1e-07 1 10 4 3 22 -6 -19 
4 -9.999999994736442e-08 1.4999999 -1e-07 1.5000001 4.8000001 1e-07 1 10 4 4 17 -7 -14 
5 1.4999999 1.4999999 -1e-07 4.8000001 4.8000001 1e-07 1 10 4 5 20 -8 -17 
6 4.7999999 1.4999999 -1e-07 6.283185407179587 4.8000001 1e-07 1 10 4 6 23 -9 -20 
7 -9.999999994736442e-08 4.7999999 -1e-07 1.5000001 6.283185407179587 1e-07 1 10 4 7 18 -10 -15 
8 1.4999999 4.7999999 -1e-07 4.8000001 6.283185407179587 1e-07 1 10 4 8 21 -11 -18 
9 4.7999999 4.7999999 -1e-07 6.283185407179587 6.283185407179587 1e-07 1 10 4 9 24 -12 -21 
$EndEntities
$Nodes
37 16 1 16
0 1 0 1
1
0 0 0
0 2 0 1
2
1.5 0 0
0 3 0 1
3
4.8 0 0
0 4 0 1
4
6.283185307179586 0 0
0 5 0 1
5
0 1.5 0
0 6 0 1
6
1.5 1.5 0
0 7 0 1
7
4.8 1.5 0
0 8 0 1
8
6.283185307179586 1.5 0
0 9 0 1
9
0 4.8 0
0 10 0 1
10
1.5 4.8 0
0 11 0 1
11
4.8 4.8 0
0 12 0 1
12
6.283185307179586 4.8 0
0 13 0 1
13
0 6.283185307179586 0
0 14 0 1
14
1.5 6.283185307179586 0
0 15 0 1
15
4.8 6.283185307179586 0
0 16 0 1
16
6.283185307179586 6.283185307179586 0
1 1 0 0
1 2 0 0
1 3 0 0
1 10 0 0
1 11 0 0
1 12 0 0
1 13 0 0
1 14 0 0
1 15 0 0
1 22 0 0
1 23 0 0
1 24 0 0
2 1 0 0
2 2 0 0
2 3 0 0
2 4 0 0
2 5 0 0
2 6 0 0
2 7 0 0
2 8 0 0
2 9 0 0
$EndNodes
$Elements
21 21 1 21
1 1 1 1
1 1 2 
1 2 1 1
2 2 3 
1 3 1 1
3 3 4 
1 10 1 1
4 13 14 
1 11 1 1
5 14 15 
1 12 1 1
6 15 16 
1 13 1 1
7 1 5 
1 14 1 1
8 5 9 
1 15 1 1
9 9 13 
1 22 1 1
10 4 8 
1 23 1 1
11 8 12 
1 24 1 1
12 12 16 
2 1 3 1
13 1 2 6 5 
2 2 3 1
14 2 3 7 6 
2 3 3 1
15 3 4 8 7 
2 4 3 1
16 5 6 10 9 
2 5 3 1
17 6 7 11 10 
2 6 3 1
18 7 8 12 11 
2 7 3 1
19 9 10 14 13 
2 8 3 1
20 10 11 15 14 
2 9 3 1
21 11 12 16 15 
$EndElements
